<svg width="698" height="34" viewBox="0 0 698 34" fill="none" xmlns="http://www.w3.org/2000/svg">
<path d="M66.4852 25.1846H63.6852L63.4602 23.1596C62.6602 24.3596 60.9102 25.5596 58.2352 25.5596C53.4602 25.5596 49.3852 22.0596 49.3852 16.3346C49.3852 10.6096 53.6602 7.08457 58.4602 7.08457C63.1102 7.08457 65.6852 9.80957 66.5602 12.5346L63.2602 13.7096C62.8102 12.1346 61.3352 10.3096 58.4602 10.3096C55.7852 10.3096 52.8852 12.1346 52.8852 16.3346C52.8852 20.3346 55.5102 22.4096 58.4852 22.4096C61.7602 22.4096 63.0352 20.2096 63.2352 18.9596H57.6352V15.9596H66.4852V25.1846ZM72.1414 17.6346H77.6414C77.5914 16.4096 76.7914 15.2096 74.8914 15.2096C73.1664 15.2096 72.2164 16.5096 72.1414 17.6346ZM77.9664 20.8346L80.7414 21.6596C80.1164 23.7846 78.1664 25.5596 75.1414 25.5596C71.7664 25.5596 68.7914 23.1346 68.7914 18.9846C68.7914 15.0596 71.6914 12.5096 74.8414 12.5096C78.6414 12.5096 80.9164 14.9346 80.9164 18.8846C80.9164 19.3596 80.8664 19.8596 80.8664 19.9096H72.0664C72.1414 21.5346 73.5164 22.7096 75.1664 22.7096C76.7164 22.7096 77.5664 21.9346 77.9664 20.8346ZM89.0598 15.5846C87.3598 15.5846 85.9348 16.8096 85.9348 19.0346C85.9348 21.2596 87.3848 22.5096 89.0848 22.5096C90.7848 22.5096 91.6348 21.3846 91.9098 20.4346L94.8348 21.4096C94.2848 23.4596 92.3598 25.5596 89.0848 25.5596C85.4598 25.5596 82.6098 22.8096 82.6098 19.0346C82.6098 15.2346 85.4098 12.5096 88.9848 12.5096C92.3348 12.5096 94.2348 14.5846 94.7598 16.6596L91.7848 17.6596C91.4848 16.6346 90.7098 15.5846 89.0598 15.5846ZM99.5828 17.6346H105.083C105.033 16.4096 104.233 15.2096 102.333 15.2096C100.608 15.2096 99.6578 16.5096 99.5828 17.6346ZM105.408 20.8346L108.183 21.6596C107.558 23.7846 105.608 25.5596 102.583 25.5596C99.2078 25.5596 96.2328 23.1346 96.2328 18.9846C96.2328 15.0596 99.1328 12.5096 102.283 12.5096C106.083 12.5096 108.358 14.9346 108.358 18.8846C108.358 19.3596 108.308 19.8596 108.308 19.9096H99.5078C99.5828 21.5346 100.958 22.7096 102.608 22.7096C104.158 22.7096 105.008 21.9346 105.408 20.8346ZM118.476 12.8346V16.1846C118.101 16.1096 117.776 16.0846 117.476 16.0846C115.776 16.0846 114.301 16.9096 114.301 19.5596V25.1846H110.976V12.8846H114.201V14.7096C114.951 13.0846 116.651 12.7846 117.701 12.7846C117.976 12.7846 118.226 12.8096 118.476 12.8346ZM125.403 9.20957V12.8846H127.878V15.8346H125.403V20.9846C125.403 22.0596 125.903 22.4096 126.853 22.4096C127.253 22.4096 127.703 22.3596 127.878 22.3096V25.0596C127.578 25.1846 126.978 25.3596 126.003 25.3596C123.603 25.3596 122.103 23.9346 122.103 21.5596V15.8346H119.878V12.8846H120.503C121.803 12.8846 122.403 12.0346 122.403 10.9346V9.20957H125.403ZM134.028 25.1846H130.703V12.8846H134.028V25.1846ZM130.303 8.85957C130.303 7.70957 131.228 6.78457 132.353 6.78457C133.503 6.78457 134.403 7.70957 134.403 8.85957C134.403 9.95957 133.503 10.8846 132.353 10.8846C131.228 10.8846 130.303 9.95957 130.303 8.85957ZM146.488 15.7346H141.563V25.1846H138.213V15.7346H136.163V12.8846H138.213V11.4846C138.213 8.70957 139.963 6.90957 142.688 6.90957C143.388 6.90957 144.063 7.03457 144.338 7.15957V9.95957C144.163 9.90957 143.838 9.83457 143.288 9.83457C142.563 9.83457 141.563 10.1596 141.563 11.5346V12.8846H149.788V25.1846H146.488V15.7346ZM146.088 8.83457C146.088 7.68457 147.013 6.75957 148.138 6.75957C149.263 6.75957 150.188 7.68457 150.188 8.83457C150.188 9.95957 149.263 10.8596 148.138 10.8596C147.013 10.8596 146.088 9.95957 146.088 8.83457ZM158.884 15.5846C157.184 15.5846 155.759 16.8096 155.759 19.0346C155.759 21.2596 157.209 22.5096 158.909 22.5096C160.609 22.5096 161.459 21.3846 161.734 20.4346L164.659 21.4096C164.109 23.4596 162.184 25.5596 158.909 25.5596C155.284 25.5596 152.434 22.8096 152.434 19.0346C152.434 15.2346 155.234 12.5096 158.809 12.5096C162.159 12.5096 164.059 14.5846 164.584 16.6596L161.609 17.6596C161.309 16.6346 160.534 15.5846 158.884 15.5846ZM169.407 17.6346H174.907C174.857 16.4096 174.057 15.2096 172.157 15.2096C170.432 15.2096 169.482 16.5096 169.407 17.6346ZM175.232 20.8346L178.007 21.6596C177.382 23.7846 175.432 25.5596 172.407 25.5596C169.032 25.5596 166.057 23.1346 166.057 18.9846C166.057 15.0596 168.957 12.5096 172.107 12.5096C175.907 12.5096 178.182 14.9346 178.182 18.8846C178.182 19.3596 178.132 19.8596 178.132 19.9096H169.332C169.407 21.5346 170.782 22.7096 172.432 22.7096C173.982 22.7096 174.832 21.9346 175.232 20.8346ZM183.225 17.6346H188.725C188.675 16.4096 187.875 15.2096 185.975 15.2096C184.25 15.2096 183.3 16.5096 183.225 17.6346ZM189.05 20.8346L191.825 21.6596C191.2 23.7846 189.25 25.5596 186.225 25.5596C182.85 25.5596 179.875 23.1346 179.875 18.9846C179.875 15.0596 182.775 12.5096 185.925 12.5096C189.725 12.5096 192 14.9346 192 18.8846C192 19.3596 191.95 19.8596 191.95 19.9096H183.15C183.225 21.5346 184.6 22.7096 186.25 22.7096C187.8 22.7096 188.65 21.9346 189.05 20.8346ZM202.119 12.8346V16.1846C201.744 16.1096 201.419 16.0846 201.119 16.0846C199.419 16.0846 197.944 16.9096 197.944 19.5596V25.1846H194.619V12.8846H197.844V14.7096C198.594 13.0846 200.294 12.7846 201.344 12.7846C201.619 12.7846 201.869 12.8096 202.119 12.8346ZM216.061 7.08457V22.9596C216.061 23.7846 216.111 24.6846 216.161 25.1846H212.986C212.936 24.9346 212.861 24.3346 212.861 23.7596C212.311 24.7346 211.061 25.4846 209.411 25.4846C205.911 25.4846 203.411 22.7346 203.411 19.0096C203.411 15.4096 205.836 12.5846 209.311 12.5846C211.436 12.5846 212.436 13.4596 212.786 14.1096V7.08457H216.061ZM206.761 19.0096C206.761 21.2096 208.061 22.5096 209.811 22.5096C211.511 22.5096 212.836 21.2096 212.836 18.9846C212.836 16.7846 211.511 15.5596 209.811 15.5596C208.111 15.5596 206.761 16.8096 206.761 19.0096Z" fill="#EDEDED"/>
<path d="M356.765 25.1846H353.365V12.7596L348.265 25.1846H345.39L340.29 12.8596V25.1846H336.99V7.45957H341.54L346.865 20.2596L352.065 7.45957H356.765V25.1846ZM359.769 21.8346C359.769 19.6346 361.394 18.4096 363.444 18.1096L366.469 17.6596C367.169 17.5596 367.394 17.2096 367.394 16.7846C367.394 15.9096 366.719 15.1846 365.319 15.1846C363.869 15.1846 363.069 16.1096 362.969 17.1846L360.019 16.5596C360.219 14.6346 361.994 12.5096 365.294 12.5096C369.194 12.5096 370.644 14.7096 370.644 17.1846V23.2346C370.644 23.8846 370.719 24.7596 370.794 25.1846H367.744C367.669 24.8596 367.619 24.1846 367.619 23.7096C366.994 24.6846 365.819 25.5346 363.994 25.5346C361.369 25.5346 359.769 23.7596 359.769 21.8346ZM364.694 23.0596C366.094 23.0596 367.394 22.3846 367.394 20.2096V19.6596L364.619 20.0846C363.769 20.2096 363.094 20.6846 363.094 21.6346C363.094 22.3596 363.619 23.0596 364.694 23.0596ZM381.496 12.8346V16.1846C381.121 16.1096 380.796 16.0846 380.496 16.0846C378.796 16.0846 377.321 16.9096 377.321 19.5596V25.1846H373.996V12.8846H377.221V14.7096C377.971 13.0846 379.671 12.7846 380.721 12.7846C380.996 12.7846 381.246 12.8096 381.496 12.8346ZM382.838 25.8596L385.838 25.0596C386.063 26.4096 387.138 27.3846 388.713 27.3846C390.813 27.3846 391.988 26.3346 391.988 23.9596V23.0596C391.488 23.8596 390.338 24.6346 388.563 24.6346C385.288 24.6346 382.838 22.1096 382.838 18.6596C382.838 15.4096 385.188 12.6596 388.563 12.6596C390.513 12.6596 391.638 13.5096 392.063 14.3346V12.8846H395.263V23.8596C395.263 27.2346 393.438 30.3096 388.813 30.3096C385.438 30.3096 383.188 28.2096 382.838 25.8596ZM389.138 21.7846C390.838 21.7846 392.038 20.5596 392.038 18.6596C392.038 16.7596 390.738 15.5596 389.138 15.5596C387.488 15.5596 386.188 16.7596 386.188 18.6596C386.188 20.5846 387.413 21.7846 389.138 21.7846ZM401.055 17.6346H406.555C406.505 16.4096 405.705 15.2096 403.805 15.2096C402.08 15.2096 401.13 16.5096 401.055 17.6346ZM406.88 20.8346L409.655 21.6596C409.03 23.7846 407.08 25.5596 404.055 25.5596C400.68 25.5596 397.705 23.1346 397.705 18.9846C397.705 15.0596 400.605 12.5096 403.755 12.5096C407.555 12.5096 409.83 14.9346 409.83 18.8846C409.83 19.3596 409.78 19.8596 409.78 19.9096H400.98C401.055 21.5346 402.43 22.7096 404.08 22.7096C405.63 22.7096 406.48 21.9346 406.88 20.8346Z" fill="#EDEDED"/>
<path d="M552.431 27.9414L548.956 21.1164H547.156V27.9414H543.681V10.2164H550.606C554.056 10.2164 556.256 12.5914 556.256 15.6664C556.256 18.1414 554.806 20.0164 552.481 20.6914L556.281 27.9414H552.431ZM547.156 18.1414H549.956C551.706 18.1414 552.731 17.1414 552.731 15.6914C552.731 14.1914 551.706 13.2164 549.956 13.2164H547.156V18.1414ZM561.139 20.3914H566.639C566.589 19.1664 565.789 17.9664 563.889 17.9664C562.164 17.9664 561.214 19.2664 561.139 20.3914ZM566.964 23.5914L569.739 24.4164C569.114 26.5414 567.164 28.3164 564.139 28.3164C560.764 28.3164 557.789 25.8914 557.789 21.7414C557.789 17.8164 560.689 15.2664 563.839 15.2664C567.639 15.2664 569.914 17.6914 569.914 21.6414C569.914 22.1164 569.864 22.6164 569.864 22.6664H561.064C561.139 24.2914 562.514 25.4664 564.164 25.4664C565.714 25.4664 566.564 24.6914 566.964 23.5914ZM571.658 28.6164L574.658 27.8164C574.883 29.1664 575.958 30.1414 577.533 30.1414C579.633 30.1414 580.808 29.0914 580.808 26.7164V25.8164C580.308 26.6164 579.158 27.3914 577.383 27.3914C574.108 27.3914 571.658 24.8664 571.658 21.4164C571.658 18.1664 574.008 15.4164 577.383 15.4164C579.333 15.4164 580.458 16.2664 580.883 17.0914V15.6414H584.083V26.6164C584.083 29.9914 582.258 33.0664 577.633 33.0664C574.258 33.0664 572.008 30.9664 571.658 28.6164ZM577.958 24.5414C579.658 24.5414 580.858 23.3164 580.858 21.4164C580.858 19.5164 579.558 18.3164 577.958 18.3164C576.308 18.3164 575.008 19.5164 575.008 21.4164C575.008 23.3414 576.233 24.5414 577.958 24.5414ZM595.377 27.9414C595.327 27.6914 595.277 27.1164 595.277 26.6164C594.602 27.7664 593.177 28.2664 591.877 28.2664C588.902 28.2664 587.202 26.0914 587.202 23.4164V15.6414H590.527V22.7414C590.527 24.1164 591.227 25.2164 592.777 25.2164C594.252 25.2164 595.102 24.2164 595.102 22.7914V15.6414H598.427V25.7164C598.427 26.6664 598.502 27.5164 598.552 27.9414H595.377ZM605.301 27.9414H601.976V9.84141H605.301V27.9414ZM612.186 27.9414H608.861V15.6414H612.186V27.9414ZM608.461 11.6164C608.461 10.4664 609.386 9.5414 610.511 9.5414C611.661 9.5414 612.561 10.4664 612.561 11.6164C612.561 12.7164 611.661 13.6414 610.511 13.6414C609.386 13.6414 608.461 12.7164 608.461 11.6164ZM618.17 20.3914H623.67C623.62 19.1664 622.82 17.9664 620.92 17.9664C619.195 17.9664 618.245 19.2664 618.17 20.3914ZM623.995 23.5914L626.77 24.4164C626.145 26.5414 624.195 28.3164 621.17 28.3164C617.795 28.3164 614.82 25.8914 614.82 21.7414C614.82 17.8164 617.72 15.2664 620.87 15.2664C624.67 15.2664 626.945 17.6914 626.945 21.6414C626.945 22.1164 626.895 22.6164 626.895 22.6664H618.095C618.17 24.2914 619.545 25.4664 621.195 25.4664C622.745 25.4664 623.595 24.6914 623.995 23.5914ZM637.064 15.5914V18.9414C636.689 18.8664 636.364 18.8414 636.064 18.8414C634.364 18.8414 632.889 19.6664 632.889 22.3164V27.9414H629.564V15.6414H632.789V17.4664C633.539 15.8414 635.239 15.5414 636.289 15.5414C636.564 15.5414 636.814 15.5664 637.064 15.5914Z" fill="#EDEDED"/>
<path d="M30.8321 10.9307H0.648926V21.755H30.8321V10.9307Z" fill="#9C9167"/>
<path d="M316.817 11.3364H286.634V22.1607H316.817V11.3364Z" fill="#8496A4"/>
<path d="M523.509 13.7041H493.325V24.5284H523.509V13.7041Z" fill="#E7D0A6"/>
</svg>
