<?xml version="1.0" encoding="UTF-8"?>
<svg id="Layer_1" data-name="Layer 1" xmlns="http://www.w3.org/2000/svg" viewBox="0 0 85.99 85.93">
  <defs>
    <style>
      .cls-1 {
        fill: #733015;
      }
    </style>
  </defs>
  <path class="cls-1" d="M85.84,39.77c-.34.91-1.22,1.5-2.19,1.5h-7.06v42.31c0,1.28-1.06,2.34-2.34,2.34h-23.41v-29.56c0-1.28-1.06-2.34-2.34-2.34h-10.28c-1.28,0-2.34,1.06-2.34,2.34v29.56H11.75c-1.28,0-2.34-1.06-2.34-2.34v-42.31H2.34c-.97,0-1.84-.59-2.19-1.5s-.09-1.94.62-2.59L41.43.59c.88-.78,2.25-.78,3.12,0l16.5,14.84v-6.34c0-1.28,1.06-2.34,2.34-2.34h9.56c1.28,0,2.34,1.06,2.34,2.34v19.22l9.91,8.88c.72.66.97,1.69.62,2.59h0Z"/>
</svg>