<?xml version="1.0" encoding="UTF-8"?><svg id="Laag_2" xmlns="http://www.w3.org/2000/svg" viewBox="0 0 131.77 412"><defs><style>.cls-1{fill:#533e2f;}.cls-2{fill:#715f53;}</style></defs><g id="Laag_1-2"><g id="verbrandeboom"><path class="cls-1" d="M51.09,164.86c.48,8.69.32,17.4-.47,26.07h1c.02-.6.04-1.19.06-1.79.02-.64-.98-.64-1,0-.02.6-.04,1.19-.06,1.79-.02.65.94.63,1,0,.79-8.66.95-17.38.47-26.07-.04-.64-1.04-.64-1,0h0Z"/><path class="cls-1" d="M45.7,145.99c.27,1.33.51,2.67.7,4.01.02.15.04.3.06.45-.07-.48-.01-.09,0,0,.04.34.08.67.12,1.01.08.68.15,1.35.21,2.03.25,2.68.41,5.37.56,8.06.3,5.5.57,11,1.48,16.44.49,2.96,1.2,5.88,2.21,8.7.44,1.23,1.72,2.18,3.08,1.75,1.21-.39,2.22-1.76,1.75-3.08-.9-2.51-1.56-5.09-2.04-7.71-.12-.63-.22-1.25-.32-1.88-.05-.33-.1-.67-.15-1-.06-.39.05.39,0,0-.02-.19-.05-.37-.07-.56-.17-1.34-.3-2.69-.41-4.04-.44-5.36-.56-10.75-1.04-16.11-.28-3.15-.69-6.31-1.33-9.41-.26-1.28-1.85-2.14-3.08-1.75-1.36.44-2.03,1.7-1.75,3.08h0Z"/><path class="cls-1" d="M46.13,157.62c.28,8.95-.07,17.91-1.03,26.81-.14,1.3,1.25,2.56,2.5,2.5,1.48-.07,2.35-1.1,2.5-2.5.97-8.9,1.31-17.86,1.03-26.81-.04-1.31-1.12-2.56-2.5-2.5s-2.54,1.1-2.5,2.5h0Z"/><path class="cls-1" d="M43.79,198.21c-.16-8.88,0-17.76.35-26.63.36-8.92.91-17.83,1.53-26.73.35-5.01.73-10.02,1.1-15.03h-5c-.02,10.01.54,20.02,1.69,29.96.35,2.99.75,5.98,1.19,8.96.18,1.22,1.64,1.94,2.74,1.79,1.22-.16,2.16-1.2,2.17-2.46.07-7.82.14-15.63.21-23.45.01-1.31-1.16-2.56-2.5-2.5s-2.46,1.1-2.5,2.5c-.19,6.14-.38,12.28-.57,18.42-.09,3.07-.19,6.14-.28,9.21s-.23,5.88-.19,8.81c.05,3.36.38,6.77,1.39,9.98.39,1.24,1.76,2.17,3.08,1.75,1.25-.4,2.17-1.74,1.75-3.08s-.72-2.74-.94-4.14c-.07-.44.06.6-.01-.13-.02-.15-.03-.3-.05-.46-.03-.31-.06-.61-.08-.92-.06-.77-.1-1.54-.12-2.31-.08-2.88.06-5.76.15-8.64.19-6.06.37-12.11.56-18.17.11-3.44.21-6.89.32-10.33h-5c-.07,7.82-.14,15.63-.21,23.45l4.91-.66c-.09-.61-.18-1.22-.27-1.83-.04-.28-.08-.57-.12-.85-.02-.16-.04-.33-.07-.49-.02-.17-.05-.34,0-.07-.16-1.22-.32-2.44-.46-3.66-.3-2.48-.55-4.97-.78-7.47-.44-4.94-.74-9.9-.89-14.86-.08-2.79-.12-5.58-.12-8.37,0-1.31-1.15-2.56-2.5-2.5-1.44.06-2.4,1.1-2.5,2.5-.66,8.86-1.32,17.72-1.86,26.59s-.95,17.82-1.11,26.74c-.09,5.02-.1,10.04,0,15.06.02,1.31,1.13,2.56,2.5,2.5s2.53-1.1,2.5-2.5h0Z"/><path class="cls-1" d="M6.76,11.53c.22-1.23.37-2.48.4-3.73s-.1-2.5-.28-3.74c-.08-.57-.67-1.22-1.15-1.49-.54-.31-1.33-.45-1.93-.25s-1.19.57-1.49,1.15l-.25.6c-.12.44-.12.89,0,1.33l.02.12-.09-.66c.23,1.69.23,3.4.01,5.09l.09-.66c-.04.31-.09.63-.15.94-.12.67-.11,1.32.25,1.93.3.52.9,1.01,1.49,1.15.64.15,1.36.11,1.93-.25.52-.33,1.03-.86,1.15-1.49h0Z"/><path class="cls-1" d="M6.63,3.13c.74.54-.6-.44.11.12-.17-.13-.27-.46-.36-.65l-2.82,3.67c1.87.49,3.93.44,5.73-.3l-3.08-1.75c.5,2.72,1.01,5.43,1.51,8.15.29,1.55.89,3.21,2.64,3.59,1.26.27,2.45-.25,3.16-1.3.2-.3.34-.65.46-.99.04-.11.18-.36,0-.03-.05.09-.46.58-.22.38l-4.18-1.1c.73,2.48,1.54,4.94,2.42,7.37.45,1.23,1.72,2.19,3.08,1.75,1.2-.39,2.23-1.76,1.75-3.08-.89-2.43-1.7-4.89-2.42-7.37-.56-1.92-2.76-2.3-4.18-1.1-.39.33-.62.77-.81,1.23-.08.19-.15.37-.22.56l-.05.13c.16-.59.57-1.02,1.22-1.26h1.33c-.51-.08,1.51.77,1.09,1.06,0,0-.07-.27-.08-.3-.1-.44-.17-.89-.25-1.34-.16-.85-.32-1.7-.47-2.55-.32-1.7-.63-3.4-.95-5.11-.23-1.21-1.9-2.24-3.08-1.75-.3.12-.6.23-.91.32-.17.05-.35.08-.52.12.34-.08.18-.01-.08,0-.32.02-.64.01-.96,0-.28-.01-.19-.04.03,0-.21-.05-.42-.09-.63-.14-.98-.26-2.01.1-2.63.9-.66.86-.61,1.82-.2,2.78s1.19,1.7,2.04,2.33c1.06.78,2.83.21,3.42-.9.69-1.3.23-2.59-.9-3.42h0Z"/><path class="cls-1" d="M2.08,8.88c-.99,3.83-.72,7.84-.5,11.75s.53,7.56.97,11.32c.9,7.75,2.23,15.44,4.05,23.03.49,2.04,1.01,4.07,1.57,6.09s1.27,3.98,2.73,5.56,4.43.4,4.27-1.77c-.68-9.21-.46-18.48.65-27.65l-4.91.66s.1.67.06.39c-.04-.29.04.34.05.39.05.4.09.81.12,1.22.06.77.1,1.54.11,2.32.02,1.59-.06,3.17-.25,4.75h5c-.74-6.78-1.64-13.53-2.7-20.27l-4.82,1.33c.73,3.08,1.47,6.16,2.2,9.25l4.82-1.33c-2.08-5.85-4.5-11.58-7.25-17.14-.55-1.11-2.05-1.47-3.12-1.02-1.21.51-1.66,1.7-1.45,2.95.65,3.78,1.93,7.43,3.69,10.84.57,1.11,2.04,1.48,3.12,1.02,1.23-.52,1.64-1.7,1.45-2.95-.84-5.47-1.69-10.94-2.53-16.41-.19-1.22-1.64-1.94-2.74-1.79-1.22.16-2.17,1.2-2.17,2.46,0,1.93.34,3.88,1.07,5.66.5,1.2,1.68,2.2,3.08,1.75s2.01-1.7,1.75-3.08c-.58-3.03-1.16-6.07-1.74-9.1-.23-1.22-1.6-1.94-2.74-1.79s-2.3,1.22-2.17,2.46c1.06,9.83,2.12,19.66,3.19,29.49h5c-.5-4.08-.99-8.15-1.49-12.23-.16-1.29-1.04-2.57-2.5-2.5s-2.35,1.1-2.5,2.5c-.81,7.46-.03,15.11,2.22,22.27.39,1.25,1.76,2.17,3.08,1.75s2.01-1.7,1.75-3.08c-.33-1.76-.63-3.52-.91-5.29-.14-.88-.27-1.77-.39-2.66,0-.06-.09-.69-.05-.39.03.24-.06-.43-.07-.51-.06-.44-.11-.89-.17-1.33-.2-1.68-.43-3.37-.47-5.07-.01-.37-.01-.74,0-1.11,0-.22.02-.44.04-.66,0-.07.06-.67.02-.32s.04-.25.06-.32c.04-.21.09-.43.14-.64s.12-.42.19-.63c.04-.11.28-.7.07-.22l-4.57-.6c.71,2.87,1.43,5.74,2.14,8.61.35,1.39.67,2.8,1.04,4.19.54,2.03,2.69,3.75,4.76,2.46,1.11-.69,1.64-2.26.9-3.42s-2.23-1.64-3.42-.9l.91-.26,1.26.34c-.22-.1-.16-.05.17.16.17.15.27.33.32.55-.14-.12-.18-.69-.22-.86-.14-.56-.28-1.12-.42-1.67-.29-1.16-.57-2.31-.86-3.47-.58-2.35-1.17-4.7-1.75-7.06-.24-.96-1.13-1.66-2.08-1.79-.89-.12-2.1.29-2.49,1.19-.83,1.88-1.2,3.81-1.2,5.86,0,1.8.24,3.6.45,5.38.47,3.94,1.07,7.86,1.8,11.76l4.82-1.33c-.54-1.72-1-3.46-1.37-5.23-.18-.88-.34-1.77-.48-2.66-.03-.19-.06-.39-.09-.58-.09-.6.03.29-.03-.27-.05-.47-.11-.93-.15-1.4-.35-3.59-.32-7.21.07-10.8h-5c.5,4.08.99,8.15,1.49,12.23.16,1.29,1.04,2.57,2.5,2.5,1.23-.06,2.65-1.11,2.5-2.5-1.06-9.83-2.12-19.66-3.19-29.49l-4.91.66c.58,3.03,1.16,6.07,1.74,9.1l4.82-1.33c-.31-.76-.56-1.54-.73-2.34-.04-.18-.06-.37-.1-.55-.06-.29.03.38-.01-.11-.03-.45-.06-.89-.06-1.34l-4.91.66c.84,5.47,1.69,10.94,2.53,16.41l4.57-1.93c-.21-.4-.41-.81-.6-1.22-.1-.2-.19-.41-.28-.62-.04-.1-.31-.71-.11-.23-.34-.8-.64-1.61-.91-2.43-.56-1.68-.98-3.4-1.28-5.15l-4.57,1.93c2.71,5.49,4.7,10.18,6.75,15.94.44,1.23,1.73,2.18,3.08,1.75s2.07-1.71,1.75-3.08c-.73-3.08-1.47-6.16-2.2-9.25-.3-1.27-1.82-2.15-3.08-1.75-1.41.46-1.96,1.69-1.75,3.08.26,1.63.5,3.26.74,4.89.11.77.22,1.55.33,2.33.06.41.11.82.17,1.22.03.2.06.41.08.61-.05-.36,0,.04.03.19.43,3.23.82,6.46,1.17,9.69.14,1.3,1.05,2.57,2.5,2.5s2.34-1.1,2.5-2.5c.4-3.48.26-6.94-.26-10.4-.19-1.22-1.64-1.94-2.74-1.79-1.32.18-2.02,1.2-2.17,2.46-1.11,9.17-1.32,18.43-.65,27.65l4.27-1.77c-.08-.08-.45-.59-.11-.1-.11-.16-.22-.32-.32-.49-.17-.28-.31-.58-.44-.88.25.57,0-.05-.04-.15-.07-.19-.13-.38-.19-.57-.12-.38-.23-.77-.33-1.15-.49-1.79-.96-3.58-1.4-5.38-.88-3.6-1.65-7.23-2.31-10.88-.33-1.82-.64-3.65-.92-5.48-.13-.88-.26-1.75-.38-2.63-.02-.16-.04-.32-.07-.48.07.54-.03-.25-.04-.29-.07-.56-.14-1.12-.21-1.68-.44-3.6-.77-7.21-1-10.83-.13-2.07-.25-4.15-.28-6.23-.02-1.02,0-2.04.08-3.06.01-.16.03-.31.04-.47.02-.16.03-.31.05-.47-.04.28-.03.27,0-.03.1-.54.2-1.07.34-1.61.33-1.26-.42-2.77-1.75-3.08s-2.72.39-3.08,1.75h0Z"/><path class="cls-1" d="M8.47,21.88c.6,2.09,1.12,4.2,1.54,6.32.2,1.03.38,2.05.54,3.09.04.28.08.56.12.83.02.12.03.24.05.36-.04-.27-.03-.25,0,.05.07.56.14,1.12.19,1.68.14,1.3,1.05,2.56,2.5,2.5,1.24-.06,2.65-1.11,2.5-2.5-.49-4.62-1.34-9.19-2.63-13.66-.36-1.26-1.78-2.17-3.08-1.75s-2.13,1.73-1.75,3.08h0Z"/><path class="cls-1" d="M8.28,20.23c.63,2.48,1.14,5,1.51,7.53.02.16.05.32.07.48-.04-.27-.03-.25,0,.05.04.32.08.64.12.95.07.64.14,1.27.19,1.91.11,1.28.19,2.56.24,3.84s1.12,2.56,2.5,2.5,2.38-1.1,2.5-2.5c.01-.14.02-.27.03-.41.11-1.31-1.23-2.56-2.5-2.5-1.45.06-2.38,1.1-2.5,2.5-.01.14-.02.27-.03.41h5c-.2-5.42-.97-10.83-2.31-16.09-.32-1.27-1.81-2.16-3.08-1.75s-2.09,1.72-1.75,3.08h0Z"/><path class="cls-1" d="M8.38,19.84c.86,2.47,1.56,5,2.07,7.57.12.61.24,1.23.34,1.85.05.31.1.62.15.93.03.19.06.39.08.58-.04-.26-.02-.18,0,.03.16,1.32.28,2.64.36,3.97s1.1,2.56,2.5,2.5c1.29-.06,2.58-1.1,2.5-2.5-.31-5.53-1.35-11.02-3.18-16.26-.43-1.23-1.73-2.18-3.08-1.75-1.22.39-2.21,1.75-1.75,3.08h0Z"/><path class="cls-1" d="M12.37,21.42c.61,5.73,1.21,11.49,2.64,17.08s3.7,10.65,6.08,15.73,4.9,9.92,7.4,14.86c1.23,2.43,2.44,4.88,3.61,7.34.6,1.27,1.19,2.54,1.75,3.82.25.57.5,1.14.75,1.71.08.18.15.36.23.54.16.37-.13-.32.02.05s.3.72.45,1.08c2.47,6.07,4.56,12.31,6.77,18.48.44,1.23,1.72,2.18,3.08,1.75,1.21-.39,2.22-1.76,1.75-3.08-1.97-5.49-3.86-11.02-5.97-16.46s-4.41-10.32-6.91-15.35-5-9.79-7.4-14.73c-1.19-2.45-2.34-4.93-3.41-7.43-.06-.14-.12-.29-.18-.43-.03-.07-.18-.44-.02-.05-.12-.29-.24-.58-.36-.87-.28-.69-.56-1.39-.83-2.09-.49-1.29-.95-2.59-1.35-3.91-.89-2.95-1.52-5.98-1.99-9.03-.12-.78-.24-1.57-.34-2.35.06.45,0,.04,0-.04-.03-.24-.06-.47-.09-.71-.05-.39-.1-.79-.14-1.18-.19-1.57-.36-3.15-.52-4.73-.14-1.3-1.05-2.56-2.5-2.5-1.24.06-2.65,1.11-2.5,2.5h0Z"/><path class="cls-1" d="M10.92,19.31c.53-.64.84-1.31.73-2.15-.08-.59-.32-1.16-.78-1.56-1.19-1.05-2.91-.93-3.89.34-.89,1.16-.5,2.88-.39,4.24.17,2.17.4,4.34.67,6.5.09.69.22,1.26.73,1.77.43.43,1.15.76,1.77.73s1.32-.24,1.77-.73c.42-.45.81-1.13.73-1.77-.19-1.52-.36-3.05-.5-4.57-.07-.73-.13-1.47-.19-2.2-.03-.37-.06-.73-.08-1.1-.01-.21-.03-.43-.04-.64-.02-.3.1-.82-.09-.04l-.64,1.1.08-.08-1.77.73h.08c-.59-.25-1.18-.49-1.77-.74l.07.05-.64-1.1.03.07.64-2.43-.04.05c-.43.52-.73,1.07-.73,1.77,0,.61.27,1.35.73,1.77.92.85,2.64,1.07,3.54,0h0Z"/><path class="cls-1" d="M2.53,34.77c-.27,4.36.44,8.81,2.08,12.86.49,1.21,1.69,2.2,3.08,1.75,1.17-.38,2.27-1.78,1.75-3.08-.77-1.89-1.33-3.86-1.67-5.87-.02-.11-.13-.9-.06-.33-.03-.22-.05-.44-.08-.66-.05-.52-.09-1.03-.12-1.55-.05-1.04-.04-2.08.03-3.11.08-1.31-1.21-2.56-2.5-2.5-1.42.06-2.41,1.1-2.5,2.5h0Z"/><path class="cls-1" d="M16.61,45.18l-.56-1.14c-.55-1.12-2.06-1.47-3.12-1.02s-1.87,1.77-1.45,2.95c2.38,6.64,4.88,13.24,7.49,19.79.38.95,1.01,1.65,2.08,1.79.94.13,2.03-.31,2.49-1.19,1.18-2.27.44-4.69-.09-7.04-.49-2.14-1.03-4.27-1.62-6.38-1.17-4.19-2.54-8.32-4.1-12.38-.47-1.22-1.7-2.19-3.08-1.75-1.22.4-2.2,1.75-1.75,3.08,2.64,7.7,5.29,15.4,7.93,23.11.42,1.23,1.74,2.18,3.08,1.75,1.24-.4,2.18-1.74,1.75-3.08-2.55-7.84-5.18-15.89-10.13-22.6-.75-1.01-1.89-1.54-3.12-1.02s-1.68,1.7-1.45,2.95c1.76,9.51,3.52,19.02,5.27,28.54l4.82-1.33c-1.4-4.55-3.28-8.96-5.59-13.13-.6-1.09-2.01-1.49-3.12-1.02-1.18.5-1.72,1.72-1.45,2.95.96,4.32,2.19,8.58,3.7,12.74.44,1.23,1.72,2.18,3.08,1.75,1.28-.41,2.14-1.73,1.75-3.08-1.03-3.57-2.84-6.81-5.29-9.6-1.04-1.19-3.2-.85-3.93.51-1.08,2.03-.78,4.22-.02,6.3.68,1.86,1.4,3.71,2.1,5.57,1.43,3.8,2.87,7.61,4.3,11.41,1.36,3.6,2.77,7.22,4.73,10.54.97,1.64,2.04,3.23,2.91,4.93.21.41.4.82.59,1.25-.17-.4-.02-.04.01.04.08.21.17.43.25.64.35.94.66,1.89.96,2.84,1.34,4.18,3.17,8.11,5.04,12.07.56,1.19,2.35,1.58,3.42.9,1.22-.79,1.5-2.15.9-3.42-.77-1.64-1.56-3.27-2.3-4.92-.19-.43-.38-.86-.57-1.29.17.39,0,.02-.02-.05-.09-.22-.18-.44-.27-.65-.36-.9-.68-1.82-.99-2.74-.56-1.72-1.08-3.45-1.78-5.12-.76-1.84-1.72-3.53-2.77-5.22-.93-1.51-1.83-3.02-2.61-4.62-.37-.77-.72-1.54-1.06-2.33-.3-.7.18.45-.11-.26-.09-.22-.18-.43-.26-.65-.2-.5-.4-1.01-.6-1.52-1.39-3.59-2.73-7.2-4.09-10.81-.76-2.03-1.53-4.05-2.29-6.08-.35-.94-.75-1.87-1.03-2.83-.06-.2-.11-.41-.16-.62-.03-.14-.06-.27-.08-.41.04.32.05.34.03.05v-.2c.02-.29,0-.27-.03.07.02-.13.06-.26.1-.38-.14.29-.14.3,0,.05l-3.93.51c.26.29.5.59.75.89.18.23-.21-.3.06.08.12.17.25.34.37.52.44.64.85,1.3,1.23,1.98.17.31.33.62.49.94.09.19.18.38.27.58.23.49-.13-.36.08.18.28.73.54,1.46.76,2.21l4.82-1.33c-1.5-4.17-2.74-8.42-3.7-12.74l-4.57,1.93c1.08,1.96,2.07,3.96,2.95,6.02-.2-.46.11.27.15.36.1.25.2.5.3.75.2.5.39,1.01.58,1.51.4,1.09.76,2.18,1.1,3.29.38,1.25,1.76,2.17,3.08,1.75,1.38-.45,2-1.69,1.75-3.08-1.76-9.51-3.52-19.02-5.27-28.54l-4.57,1.93c1.2,1.63,2.28,3.36,3.25,5.14.45.83.87,1.67,1.28,2.52.22.46.43.92.64,1.39.1.23.21.47.31.7.04.1.09.2.13.3-.11-.26-.11-.26,0,0,1.52,3.72,2.79,7.53,4.03,11.35l4.82-1.33c-2.64-7.7-5.29-15.4-7.93-23.11l-4.82,1.33c1.47,3.84,2.78,7.74,3.9,11.69.56,1.96,1.07,3.93,1.54,5.91.24,1.01.47,2.02.68,3.04.05.21.08.43.13.64.14.65,0-.49.03.17,0,.12.09.5,0,.62.06-.33.05-.35,0-.07-.09.27-.08.25.02-.04l4.57.6c-2.62-6.55-5.12-13.15-7.49-19.79l-4.57,1.93.56,1.14c.58,1.18,2.34,1.59,3.42.9,1.21-.78,1.51-2.16.9-3.42h0Z"/><path class="cls-1" d="M17.19,73.05c2.92,8.07,5.83,16.13,8.75,24.2.36,1.01,1.26,1.89,2.41,1.84,1.04-.05,2.21-.73,2.41-1.84.52-2.8-.19-5.4-1.19-8.01-.9-2.35-1.81-4.7-2.74-7.03-1.94-4.88-3.96-9.72-6.19-14.47-.53-1.12-2.07-1.47-3.12-1.02s-1.83,1.75-1.45,2.95c2.35,7.42,5.51,14.6,9.42,21.34,1.09,1.88,2.25,3.72,3.45,5.53.6.89,1.73,1.5,2.82,1.15s1.71-1.26,1.84-2.41c.28-2.68-.64-5.34-1.37-7.88s-1.45-4.95-2.2-7.42c-1.51-4.98-3.08-9.93-4.72-14.87-.41-1.24-1.74-2.18-3.08-1.75s-2.12,1.72-1.75,3.08c2.3,8.38,5.38,16.54,9.14,24.38.54,1.12,2.06,1.47,3.12,1.02,1.23-.52,1.65-1.7,1.45-2.95-1.29-8.17-3.46-16.18-6.47-23.88-.47-1.21-1.7-2.19-3.08-1.75-1.21.39-2.21,1.76-1.75,3.08,2.48,7,5.88,13.6,9.31,20.17.61,1.16,2.32,1.6,3.42.9,1.2-.78,1.52-2.16.9-3.42-3.06-6.2-6.12-12.4-9.19-18.59-.55-1.11-2.05-1.47-3.12-1.02s-1.87,1.77-1.45,2.95c3.57,10.04,7.14,20.08,10.71,30.12,1,2.82,2.01,5.65,3.01,8.47.44,1.23,1.73,2.18,3.08,1.75,1.22-.39,2.2-1.75,1.75-3.08-2.87-8.29-5.75-16.58-8.62-24.87-.81-2.35-1.63-4.69-2.44-7.04-.41-1.19-1.46-1.96-2.74-1.79s-2.03,1.2-2.17,2.46c-.29,2.63.62,5.21,1.43,7.67s1.57,4.68,2.39,7.01c1.66,4.7,3.43,9.35,5.31,13.96,1.02,2.51,1.87,5.41,3.88,7.34.78.74,2.09,1,3.03.39s1.39-1.7,1.15-2.82c-1.9-8.75-3.8-17.5-5.7-26.26l-4.82,1.33c2.93,8.05,5.59,16.19,7.99,24.41l4.82-1.33c-1.3-4.16-2.64-8.32-4.03-12.45s-2.51-8.2-5.31-11.44c-.65-.75-2.21-1.02-3.03-.39-1.29.98-1.89,2.15-2.06,3.75-.11,1.05.02,2.12.08,3.17.16,2.38.38,4.75.68,7.11.62,4.91,1.5,9.78,2.69,14.58l4.82-1.33c-1.95-6.27-4.4-12.39-7.28-18.29-.46-.95-1.83-1.47-2.82-1.15s-1.92,1.29-1.84,2.41c.51,6.65,2.02,13.19,4.59,19.36.26.63.54,1.14,1.15,1.49.54.31,1.33.45,1.93.25,1.17-.38,2.26-1.77,1.75-3.08-1.65-4.17-3.3-8.33-4.95-12.5-.48-1.21-1.69-2.19-3.08-1.75s-2.02,1.7-1.75,3.08c1.54,7.87,4.71,15.27,7.82,22.62.41.97,1.87,1.46,2.82,1.15,1.02-.33,1.88-1.28,1.84-2.41l-.06-1.26c-.06-1.3-1.11-2.56-2.5-2.5-1.31.06-2.56,1.1-2.5,2.5l.06,1.26,4.66-1.26c-.18-.43-.37-.87-.55-1.3.19.44-.08-.18-.11-.27-.11-.25-.21-.51-.32-.76-.36-.87-.73-1.74-1.08-2.62-.73-1.78-1.43-3.58-2.08-5.39-1.31-3.62-2.42-7.3-3.16-11.08l-4.82,1.33c1.65,4.17,3.3,8.33,4.95,12.5l4.82-1.33c-1.22-2.94-2.22-5.96-2.97-9.05-.37-1.51-.67-3.03-.92-4.56-.06-.38-.12-.77-.17-1.15-.11-.76.06.51-.03-.26-.02-.19-.05-.38-.07-.58-.09-.81-.17-1.62-.23-2.43l-4.66,1.26c.69,1.41,1.35,2.83,1.99,4.26.16.36.32.72.47,1.08.08.18.15.36.23.54.17.4-.22-.53.07.16s.6,1.45.89,2.18c1.15,2.92,2.2,5.88,3.13,8.87.39,1.25,1.76,2.17,3.08,1.75s2.08-1.71,1.75-3.08c-.52-2.11-1-4.24-1.41-6.38-.21-1.11-.41-2.22-.59-3.34-.09-.56-.18-1.12-.26-1.67-.04-.24-.07-.48-.1-.72-.02-.16-.04-.32-.07-.48-.04-.27-.04-.32-.02-.15.02.17.02.12-.02-.15-.02-.16-.04-.32-.06-.48-.03-.24-.06-.48-.09-.72-.07-.56-.13-1.12-.19-1.68-.11-1.08-.21-2.17-.3-3.25s-.16-2.17-.21-3.26c0-.18-.01-.35-.01-.53,0-.12,0-.24,0-.36.02-.28.01-.24-.03.14.02-.03.13-.47.13-.5-.15.34-.17.39-.04.15-.1.19-.25.33-.44.42l-3.03-.39c.09.11.19.21.27.32-.15-.2-.17-.23-.07-.09.14.2.29.4.42.61.23.35.44.72.64,1.09.22.41.42.82.6,1.24.04.1.09.2.13.29-.11-.27-.12-.27,0,0,.08.2.16.4.23.6.7,1.86,1.32,3.75,1.95,5.63,1.34,3.98,2.62,7.98,3.88,11.99.39,1.25,1.76,2.17,3.08,1.75s2.14-1.73,1.75-3.08c-2.4-8.22-5.07-16.36-7.99-24.41-.45-1.23-1.72-2.18-3.08-1.75s-2.04,1.7-1.75,3.08c1.9,8.75,3.8,17.5,5.7,26.26l4.18-2.43c-.17-.16-.32-.33-.48-.5-.24-.25.21.34.03.04-.05-.08-.11-.16-.16-.25-.28-.45-.52-.92-.74-1.41-.04-.09-.08-.18-.12-.27-.03-.07-.2-.47-.07-.16s-.03-.07-.04-.11c-.06-.15-.12-.3-.19-.45-.23-.56-.46-1.12-.69-1.68-.9-2.21-1.78-4.43-2.63-6.66-1.72-4.5-3.34-9.04-4.86-13.61-.42-1.26-.86-2.52-1.21-3.8-.17-.61-.33-1.24-.42-1.87.06.45,0,.04,0-.04,0-.2-.02-.39-.03-.59,0-.36.02-.71.06-1.07l-4.91.66c2.87,8.29,5.75,16.58,8.62,24.87.81,2.35,1.63,4.69,2.44,7.04l4.82-1.33c-3.57-10.04-7.14-20.08-10.71-30.12-1-2.82-2.01-5.65-3.01-8.47l-4.57,1.93c3.06,6.2,6.12,12.4,9.19,18.59l4.32-2.52c-1.65-3.16-3.29-6.31-4.83-9.53-.75-1.57-1.47-3.15-2.16-4.75-.31-.72.18.44-.12-.28-.09-.22-.18-.44-.27-.66-.15-.37-.3-.73-.44-1.1-.35-.88-.68-1.77-.99-2.67l-4.82,1.33c3.01,7.7,5.17,15.71,6.47,23.88l4.57-1.93c-.92-1.91-1.79-3.84-2.62-5.79-.31-.71.18.45-.11-.27-.11-.25-.21-.51-.32-.76-.19-.47-.39-.94-.57-1.42-.39-.98-.77-1.97-1.14-2.97-1.47-3.93-2.75-7.93-3.87-11.98l-4.82,1.33c1.61,4.86,3.16,9.74,4.65,14.64.74,2.43,1.46,4.86,2.17,7.3.35,1.2.72,2.4,1.01,3.61.08.31.15.62.21.93.03.15.06.31.08.47-.03-.28-.03-.26,0,.04.05.63.06,1.24,0,1.87l4.66-1.26c-2.08-3.12-4-6.35-5.73-9.67-.88-1.7-1.72-3.42-2.51-5.16-.19-.41-.37-.82-.55-1.23-.09-.21-.18-.41-.27-.62-.04-.1-.09-.21-.13-.31.1.23.07.17-.01-.02-.36-.87-.71-1.73-1.05-2.61-.77-1.99-1.47-4.01-2.12-6.05l-4.57,1.93c1.03,2.2,2.02,4.43,2.98,6.67.03.08.4.94.22.52.13.3.25.6.38.9.22.52.44,1.05.65,1.57.46,1.13.92,2.26,1.37,3.39.9,2.26,1.78,4.53,2.65,6.81.42,1.09.85,2.18,1.14,3.31.06.22.11.45.16.67.03.15.06.3.08.45-.03-.29-.04-.29,0,.01.01.3.04.6.03.9,0,.15-.01.3-.03.45.04-.29.04-.29-.01.01h4.82c-2.92-8.07-5.83-16.13-8.75-24.2-.44-1.23-1.72-2.18-3.08-1.75-1.21.39-2.22,1.76-1.75,3.08h0Z"/><path class="cls-1" d="M34,119.74c.48,2.9,2.1,5.45,3.78,7.8.81,1.13,1.64,2.26,2.38,3.44.36.58.7,1.18,1,1.8.05.11.14.4.22.49l-.11-.27c.04.11.09.22.13.33.13.33.23.67.33,1.02.35,1.26,1.79,2.16,3.08,1.75,1.43-.46,1.93-1.68,1.75-3.08-1.06-7.82-2.11-15.63-3.17-23.45l-4.82,1.33c2.6,9.11,5.19,18.23,7.79,27.34.34,1.2,1.52,1.96,2.74,1.79,1.1-.15,2.33-1.22,2.17-2.46-1.15-8.63-3.63-16.97-7.48-24.78-1.05-2.13-2.2-4.21-3.44-6.23-1.13-1.84-3.96-1.48-4.57.6-.98,3.32.29,6.82,1.27,9.99s2.01,6.15,3.19,9.16c.46,1.17,1.43,1.97,2.74,1.79,1.12-.15,2.31-1.22,2.17-2.46-.82-7.4-2.71-14.53-5.65-21.38-.41-.96-1.87-1.46-2.82-1.15-1.01.33-1.89,1.29-1.84,2.41.4,7.79,2.67,15.43,6.66,22.14.93,1.56,3.42,1.69,4.32,0,1.04-1.96,1.34-4.13,1.29-6.33s-.24-4.35-.39-6.52c-.31-4.5-.67-9-1.08-13.49l-4.91.66c1.69,5.79,3.76,11.45,6.14,16.99.49,1.14,2.1,1.45,3.12,1.02,1.2-.51,1.69-1.71,1.45-2.95-1.02-5.29-2.24-10.55-3.64-15.75l-4.82,1.33c.88,2.19,1.76,4.37,2.63,6.56.49,1.21,1.69,2.19,3.08,1.75s2.09-1.72,1.75-3.08c-.68-2.73-1.51-5.41-2.49-8.04-.46-1.22-1.71-2.19-3.08-1.75-1.26.41-2.15,1.74-1.75,3.08,2.67,8.75,5.53,17.43,8.6,26.05.88,2.46,1.77,4.92,2.68,7.37.45,1.22,1.71,2.19,3.08,1.75,1.2-.39,2.23-1.76,1.75-3.08-3.18-8.57-6.16-17.22-8.94-25.93-.79-2.49-1.57-4.98-2.33-7.48l-4.82,1.33c.98,2.63,1.82,5.31,2.49,8.04l4.82-1.33c-.88-2.19-1.76-4.37-2.63-6.56-.49-1.21-1.69-2.19-3.08-1.75-1.29.42-2.11,1.72-1.75,3.08,1.4,5.21,2.62,10.46,3.64,15.75l4.57-1.93c-.08-.18-.16-.37-.23-.55-.16-.37.13.31-.03-.06-.14-.33-.28-.66-.41-.99-.27-.66-.54-1.33-.8-1.99-.52-1.33-1.03-2.68-1.51-4.02-.97-2.7-1.85-5.42-2.65-8.18-.35-1.2-1.51-1.96-2.74-1.79-1.13.15-2.28,1.21-2.17,2.46.4,4.33.74,8.66,1.05,12.99.14,2.09.3,4.18.4,6.27.04.92,0,1.82-.04,2.74-.02.19-.01.14.02-.15-.02.14-.04.27-.07.41-.04.2-.09.4-.14.6s-.12.39-.19.59c-.1.27-.1.26.02-.02-.06.13-.12.25-.19.37h4.32c-.91-1.53-1.74-3.11-2.46-4.74-.09-.2-.18-.41-.27-.61.21.48-.05-.12-.09-.22-.17-.41-.33-.83-.48-1.24-.32-.87-.62-1.75-.89-2.64-.52-1.7-.93-3.44-1.24-5.19-.08-.44-.15-.88-.21-1.32-.02-.11-.03-.22-.05-.33.03.26.04.3.02.11-.03-.22-.05-.44-.08-.66-.1-.92-.17-1.85-.22-2.77l-4.66,1.26c.3.7-.18-.45.11.26.07.18.15.36.22.54.16.39.32.79.47,1.19.3.79.6,1.59.87,2.4.55,1.61,1.05,3.24,1.48,4.88s.81,3.31,1.12,4.98c.15.8.29,1.6.41,2.4.03.19.06.38.08.57.02.14.09.71.04.25.06.46.11.92.17,1.38l4.91-.66c-1.12-2.86-2.14-5.76-3.05-8.7-.44-1.43-.89-2.87-1.25-4.32-.08-.33-.16-.67-.23-1.01,0,.01-.11-.67-.07-.34s-.02-.28-.03-.34c-.03-.37-.02-.75,0-1.12.02-.26.06-.22,0,0,.06-.22.1-.44.16-.65l-4.57.6c1.07,1.74,2.07,3.52,2.99,5.33.45.89.89,1.79,1.31,2.7.22.47.43.95.64,1.42.09.2.18.41.26.61-.02-.04-.14-.35-.04-.08.07.17.14.34.21.51,1.54,3.78,2.77,7.68,3.69,11.65.25,1.08.47,2.17.68,3.27.11.58.21,1.17.3,1.75.04.26.08.51.12.77.02.15.04.29.06.44.02.11.09.63.02.11l4.91-.66c-2.6-9.11-5.19-18.23-7.79-27.34-.36-1.26-1.78-2.16-3.08-1.75-1.43.46-1.93,1.68-1.75,3.08,1.06,7.82,2.11,15.63,3.17,23.45l4.82-1.33c-.81-2.88-2.52-5.31-4.24-7.71-.8-1.12-1.6-2.25-2.27-3.46-.16-.28-.31-.57-.45-.86-.07-.15-.18-.32-.22-.48.14.6.05.11-.01-.05-.25-.66-.42-1.35-.54-2.05-.21-1.29-1.88-2.13-3.08-1.75-1.4.45-1.97,1.69-1.75,3.08h0Z"/><path class="cls-1" d="M50.74,114.67c-.27-.85-.72-1.68-1.43-2.25-.84-.68-2.04-1.03-3.03-.39s-1.39,1.7-1.15,2.82c1.44,6.69,2.88,13.39,4.32,20.08l4.82-1.33c-.89-3.11-1.78-6.22-2.67-9.33-.36-1.26-1.78-2.16-3.08-1.75-1.4.45-1.97,1.69-1.75,3.08.12.76.24,1.52.35,2.29.06.44-.07-.59.02.18.02.16.04.32.06.48.04.36.09.72.13,1.09.17,1.53.3,3.07.39,4.61.18,3.04.2,6.08.07,9.12l4.66-1.26c-.86-2.04-1.73-4.07-2.59-6.11-.41-.97-1.87-1.46-2.82-1.15-1.11.36-1.75,1.27-1.84,2.41-.23,3.09-.46,6.17-.69,9.26h5c-.33-4.75-.28-9.51.15-14.25.12-1.31-1.23-2.56-2.5-2.5-1.46.07-2.37,1.1-2.5,2.5-.43,4.74-.48,9.5-.15,14.25.09,1.3,1.09,2.56,2.5,2.5s2.4-1.1,2.5-2.5c.23-3.09.46-6.17.69-9.26l-4.66,1.26c.86,2.04,1.73,4.07,2.59,6.11.41.97,1.87,1.46,2.82,1.15,1.08-.35,1.79-1.27,1.84-2.41.27-6.39-.16-12.78-1.2-19.1l-4.82,1.33c.89,3.11,1.78,6.22,2.67,9.33.36,1.26,1.78,2.16,3.08,1.75s2.04-1.7,1.75-3.08c-1.44-6.69-2.88-13.39-4.32-20.08l-4.18,2.43c.16.13.39.47.1,0,.27.42-.12-.47.05.04.4,1.24,1.75,2.17,3.08,1.75,1.25-.4,2.17-1.74,1.75-3.08h0Z"/><path class="cls-1" d="M35.16,120.49c-1.59-3.38-4.51-5.81-7.25-8.24-1.42-1.26-2.82-2.56-4.01-4.05-1.32-1.66-2.4-3.51-3.49-5.32-1.43-2.35-2.85-4.69-4.28-7.04l-2.36,1.82c5.82,4.56,10.7,10.2,14.36,16.63l2.05-2.05c-2.83-2.03-5.4-4.4-7.7-7.02l-2.12,2.12c2.6,2.69,5.6,5,8.86,6.83,1.69.94,3.2-1.65,1.51-2.59-3.06-1.71-5.82-3.84-8.25-6.36-.56-.58-1.56-.57-2.12,0-.6.6-.54,1.51,0,2.12,2.47,2.82,5.26,5.31,8.3,7.49,1.27.91,2.75-.83,2.05-2.05-3.77-6.63-8.82-12.53-14.83-17.24-.59-.46-1.34-.62-1.97-.12-.57.45-.78,1.28-.39,1.94,1.25,2.06,2.51,4.13,3.76,6.19,1.14,1.88,2.26,3.8,3.56,5.57,1.2,1.65,2.57,3.11,4.07,4.48,1.35,1.22,2.75,2.39,4.06,3.65,1.46,1.41,2.72,2.9,3.59,4.75.34.73,1.4.92,2.05.54.75-.44.88-1.32.54-2.05h0Z"/><path class="cls-1" d="M22.56,109.45c1.9,1.37,3.89,2.59,5.97,3.67.7.36,1.66.2,2.05-.54.36-.69.21-1.67-.54-2.05-2.08-1.08-4.07-2.31-5.97-3.67-.64-.46-1.7-.13-2.05.54-.41.78-.14,1.56.54,2.05h0Z"/><path class="cls-1" d="M49.59,110.69c3.06,8.09,6.23,16.15,9.16,24.28,1.43,3.97,2.67,7.99,3.57,12.11s1.5,8.16,1.99,12.29c.56,4.7,1,9.41,1.47,14.12.08.81.63,1.5,1.5,1.5.75,0,1.58-.69,1.5-1.5-.85-8.46-1.53-16.98-3.18-25.33s-4.84-16.4-7.88-24.42c-1.75-4.62-3.5-9.24-5.25-13.85-.29-.76-1.01-1.28-1.85-1.05-.73.2-1.34,1.08-1.05,1.85h0Z"/><path class="cls-1" d="M56.76,141.02c-.85-2.21-1.69-4.41-2.54-6.62-.45-1.17-1.43-1.97-2.74-1.79-1.2.16-2.19,1.2-2.17,2.46.04,2.42.47,4.82.96,7.19s.96,4.6,1.44,6.9c.96,4.57,1.91,9.14,2.87,13.71l4.82-1.33c-1.99-9.47-3.97-18.94-5.96-28.42-.26-1.22-1.59-1.95-2.74-1.79s-2.3,1.22-2.17,2.46c.97,8.84,2.45,17.62,4.48,26.28.57,2.44,1.19,4.88,1.85,7.3.33,1.2,1.53,1.95,2.74,1.79s2.17-1.2,2.17-2.46c-.01-9.87-.03-19.74-.04-29.61l-4.91.66c2.54,8.59,4.5,17.35,5.86,26.21.2,1.3,1.89,2.13,3.08,1.75,1.43-.46,1.93-1.68,1.75-3.08-1.1-8.12-2.43-16.27-5.17-24.02-.83-2.34-1.78-4.65-2.86-6.89-.54-1.12-2.06-1.47-3.12-1.02-1.14.48-1.77,1.73-1.45,2.95,1.87,7.11,3.73,14.23,5.6,21.34l4.57-1.93c-.54-.96-1.01-1.94-1.45-2.95-.11-.26-.11-.25.01.03-.05-.13-.1-.25-.16-.38-.1-.25-.2-.51-.3-.77-.2-.51-.39-1.03-.57-1.55-.71-2.02-1.31-4.07-1.94-6.12-1.3-4.25-2.74-8.55-5.19-12.29-.59-.9-1.74-1.5-2.82-1.15-1,.32-1.92,1.29-1.84,2.41.46,6.18,1.34,12.31,2.23,18.44.22,1.52.44,3.04.66,4.55.1.72.2,1.44.3,2.16.03.2.05.4.08.6.02.11.09.64.02.17.05.4.11.8.16,1.2.39,2.99.73,5.99.96,9,.27,3.41.4,6.82.34,10.24l4.91-.66c-.52-2.17-.93-4.36-1.23-6.57.07.51-.02-.18-.04-.28-.04-.32-.08-.63-.11-.95-.06-.55-.12-1.11-.17-1.66-.1-1.07-.18-2.14-.25-3.22-.28-4.43-.3-8.86-.33-13.3,0-1.31-1.15-2.56-2.5-2.5s-2.48,1.1-2.5,2.5c-.12,8.59.19,17.19.94,25.75.21,2.42.46,4.83.73,7.24.15,1.29,1.04,2.57,2.5,2.5,1.3-.06,2.57-1.1,2.5-2.5-.26-5.06-.51-10.12-.4-15.19.05-2.5.19-5,.47-7.49.03-.32.07-.63.11-.94.02-.16.04-.31.06-.47-.04.27-.03.26,0-.04.09-.63.19-1.25.3-1.88.22-1.25.48-2.49.78-3.73l-4.91-.66c.87,9.57,1.74,19.14,2.61,28.71.1,1.07.7,2.15,1.84,2.41,1.03.23,2.32-.14,2.82-1.15,1.05-2.13,1.38-4.39,1.52-6.74.13-2.14.22-4.28.4-6.42.09-1.08.2-2.15.33-3.22,0-.05.11-.8.03-.25.04-.3.09-.61.13-.91.08-.53.17-1.06.27-1.59.4-2.11.94-4.19,1.67-6.22l-4.91-.66c.11,8.61-.7,17.2-1.52,25.77h5c-.04-6.82.39-13.63,1.28-20.39h-5c-.43,6.47-.87,12.94-1.3,19.41-.09,1.31,1.21,2.56,2.5,2.5,1.46-.07,2.37-1.1,2.5-2.5.03-.32.06-.64.09-.95.02-.2.04-.4.07-.6,0-.05.07-.52.03-.26s.03-.22.04-.26c.02-.16.05-.32.07-.47.06-.36.12-.71.18-1.06.24-1.34.54-2.66.89-3.98h-4.82c.05.23.09.46.13.69.13.74-.02-.48.03.27.03.43.06.86.06,1.29s-.03.86-.06,1.29c-.04.55.08-.32-.03.27-.04.23-.09.46-.13.69-.27,1.28.38,2.76,1.75,3.08,1.26.29,2.79-.38,3.08-1.75.51-2.39.51-4.76.01-7.15-.21-1.03-1.37-1.88-2.41-1.84-1.1.05-2.12.74-2.41,1.84-.78,2.92-1.28,5.91-1.56,8.92h5c.43-6.47.87-12.94,1.3-19.41.09-1.31-1.21-2.56-2.5-2.5-1.5.07-2.32,1.1-2.5,2.5-.89,6.76-1.32,13.57-1.28,20.39,0,1.31,1.14,2.56,2.5,2.5,1.46-.07,2.37-1.1,2.5-2.5.81-8.57,1.62-17.15,1.52-25.77-.02-1.25-.94-2.29-2.17-2.46s-2.31.61-2.74,1.79c-1.49,4.12-2.16,8.48-2.55,12.83-.19,2.08-.3,4.16-.41,6.24-.03.51-.05,1.02-.09,1.53-.02.25-.04.51-.07.76-.01.11-.02.22-.04.33.04-.3.04-.31,0-.02-.09.5-.18.99-.32,1.48-.06.21-.13.41-.2.61-.1.27-.1.27.01,0-.06.13-.12.26-.19.39l4.66,1.26c-.87-9.57-1.74-19.14-2.61-28.71-.11-1.25-.86-2.28-2.17-2.46-1.19-.16-2.45.57-2.74,1.79-1.93,7.93-2.1,16.14-1.81,24.26.08,2.27.2,4.54.31,6.81h5c-.98-8.54-1.55-17.12-1.67-25.71-.04-2.43-.03-4.85,0-7.28h-5c.05,9.14.15,18.37,2.31,27.3.29,1.21,1.56,1.95,2.74,1.79s2.15-1.2,2.17-2.46c.11-6.04-.41-12.06-1.15-18.04-.4-3.18-.85-6.36-1.31-9.53-.22-1.52-.44-3.04-.66-4.55-.1-.72-.2-1.44-.3-2.16-.04-.32-.09-.64-.13-.96,0,.04-.1-.75-.05-.39.03.25-.06-.42-.07-.51-.45-3.4-.83-6.8-1.08-10.22l-4.66,1.26c.6.91,1.14,1.86,1.63,2.84.24.49.47.98.69,1.48.06.12.11.25.16.38-.12-.28-.12-.29-.01-.03.1.25.2.51.3.76.77,1.99,1.41,4.03,2.03,6.06,1.31,4.28,2.6,8.6,4.79,12.53.61,1.09,2.01,1.49,3.12,1.02s1.77-1.73,1.45-2.95c-1.87-7.11-3.73-14.23-5.6-21.34l-4.57,1.93c.21.44.42.89.63,1.34.09.21.19.41.28.62.05.1.09.21.14.31.29.67-.1-.25.06.13.37.91.73,1.82,1.07,2.75.7,1.92,1.31,3.87,1.84,5.84,1.06,3.89,1.85,7.85,2.5,11.82.38,2.29.7,4.59,1.02,6.89l4.82-1.33c-1.36-8.86-3.32-17.61-5.86-26.21-.35-1.2-1.51-1.96-2.74-1.79s-2.17,1.2-2.17,2.46c.01,9.87.03,19.74.04,29.61l4.91-.66c-2.26-8.33-4.02-16.79-5.27-25.32-.09-.6-.17-1.2-.26-1.8,0-.02-.06-.42-.02-.15.04.3-.04-.33-.05-.39-.04-.28-.07-.56-.11-.84-.16-1.25-.31-2.49-.44-3.74l-4.91.66c1.99,9.47,3.97,18.94,5.96,28.42.27,1.28,1.85,2.14,3.08,1.75,1.36-.44,2.03-1.7,1.75-3.08-.94-4.49-1.88-8.98-2.82-13.47-.46-2.22-.93-4.44-1.39-6.67-.23-1.12-.46-2.24-.63-3.36,0-.03-.11-.81-.05-.3-.04-.32-.08-.65-.11-.97-.05-.57-.08-1.14-.09-1.7l-4.91.66c.85,2.21,1.69,4.41,2.54,6.62.47,1.22,1.7,2.19,3.08,1.75,1.19-.38,2.25-1.77,1.75-3.08h0Z"/><path class="cls-1" d="M52.53,238.91c-.25-6.96-1.03-13.91-2.31-20.76-.62-3.34-1.37-6.65-2.24-9.93s-2.06-6.53-2.7-9.88c-.03-.16-.06-.31-.08-.47-.03-.16-.05-.31-.08-.47.03.27.03.26,0-.04-.05-.43-.09-.86-.1-1.29-.03-.8-.06-1.67.09-2.45-.02.09-.09.53,0,.06.05-.27.1-.53.16-.8.09-.36.19-.72.31-1.07.06-.16.11-.32.18-.47-.23.56.07-.11.13-.23.2-.39.43-.76.69-1.12.75-1.07.23-2.83-.9-3.42-1.28-.68-2.62-.25-3.42.9-4.22,6-1.52,13.45.28,19.77.95,3.34,1.77,6.72,2.46,10.12.34,1.68.65,3.37.93,5.06.14.87.28,1.73.4,2.6.02.16.05.32.07.47,0,.05.11.83.04.28.06.47.12.95.18,1.43.48,3.88.78,7.79.92,11.69.05,1.31,1.12,2.56,2.5,2.5s2.55-1.1,2.5-2.5h0Z"/><path class="cls-1" d="M63.26,175.93c-.65,5.42-.83,10.88-.51,16.33s1.28,10.97,2.13,16.43c.43,2.74.83,5.48,1.21,8.22.19,1.35.38,2.7.56,4.05,0,.06.08.57.04.28s.03.22.04.28c.04.33.09.66.13.98.09.7.18,1.39.28,2.09.71,5.45,1.54,10.91,1.96,16.4.23,3,.24,5.99.13,9-.12,3.2-.16,6.36.38,9.52l4.82-1.33c-.18-.53-.36-1.07-.54-1.6-.42-1.24-1.74-2.18-3.08-1.75-1.23.4-2.19,1.75-1.75,3.08.18.53.36,1.07.54,1.6.42,1.24,1.74,2.18,3.08,1.75s1.98-1.69,1.75-3.08c-.03-.16-.05-.32-.08-.47-.08-.5-.02-.15,0-.05-.04-.32-.07-.63-.1-.95-.06-.72-.09-1.43-.11-2.15-.02-1.28.01-2.57.06-3.85.1-2.71.16-5.42,0-8.13-.32-5.44-1.15-10.86-1.85-16.26s-1.46-11.1-2.3-16.63c-.4-2.66-.84-5.32-1.26-7.97-.1-.63-.2-1.26-.29-1.89-.05-.32-.09-.63-.14-.95.06.44,0,.02,0-.06-.03-.24-.06-.48-.09-.73-.16-1.29-.29-2.59-.39-3.89-.48-6.09-.34-12.22.38-18.28.16-1.3-1.26-2.56-2.5-2.5-1.49.07-2.33,1.1-2.5,2.5h0Z"/><path class="cls-1" d="M48.47,242.48c.02.16.04.33.07.49.01.07.07.49,0,.07.04.28.08.57.11.85.08.61.16,1.22.23,1.83.16,1.26.3,2.53.44,3.79.27,2.49.51,4.98.72,7.48.39,4.74.82,9.54.53,14.29-.04.65-.1,1.3-.17,1.94-.02.15-.04.3-.06.45.03-.25.03-.21,0,.02-.05.34-.11.68-.17,1.01-.24,1.31-.59,2.61-1.03,3.87l4.91.66c.02-.15.03-.31.05-.46-.04.28-.04.27,0-.02.04-.23.07-.46.11-.69.1-.53.21-1.06.35-1.58s.29-1.04.46-1.55c.07-.22.15-.44.23-.65.03-.08.38-.95.18-.48l-4.57-1.93c-2.26,8.78-2.93,18.01-1.12,26.93.49,2.44,1.2,4.83,2.08,7.16.46,1.22,1.71,2.19,3.08,1.75,1.19-.39,2.24-1.77,1.75-3.08-.76-2-1.38-4.04-1.86-6.12-.23-1.03-.43-2.07-.6-3.11-.04-.23-.07-.46-.1-.7.07.48-.03-.24-.05-.38-.06-.54-.12-1.09-.17-1.63-.18-2.14-.23-4.3-.15-6.45.04-1.06.1-2.11.2-3.17.05-.51.1-1.02.16-1.52.03-.23.06-.47.09-.7.01-.09.07-.49,0-.04.02-.16.04-.31.07-.47.35-2.41.85-4.79,1.45-7.15.31-1.21-.3-2.46-1.45-2.95-1.03-.43-2.63-.12-3.12,1.02-1.1,2.58-1.79,5.17-2.08,7.96-.13,1.23,1.05,2.31,2.17,2.46,1.28.17,2.33-.6,2.74-1.79,1.63-4.67,1.83-9.73,1.63-14.63s-.65-10.03-1.19-15.03c-.33-3.04-.71-6.07-1.12-9.1-.18-1.3-1.91-2.12-3.08-1.75-1.43.46-1.94,1.68-1.75,3.08h0Z"/><path class="cls-1" d="M52.03,302.81c1.43.06,2.64-1.2,2.62-2.62s-1.18-2.63-2.64-2.7c-1.3-.06-2.38.97-2.7,2.16-.22.81-.01,1.71.09,2.52.38,3.03.94,6.02,1.57,9.01s1.27,5.76,1.83,8.66c.28,1.43.53,2.87.75,4.31.05.32.1.64.14.96.03.2.06.4.08.6.06.41-.04-.36,0,.06.09.76.19,1.53.27,2.29.36,3.3.56,6.62.62,9.94l4.91-.66c-.76-4.39-1.47-8.79-2.12-13.2-.16-1.06-.31-2.12-.46-3.18-.08-.57-.16-1.14-.24-1.72-.03-.25-.07-.49-.1-.74-.02-.16-.04-.33-.07-.49-.04-.3-.04-.33,0-.07-.3-2.21-.58-4.42-.84-6.63-.16-1.29-1.04-2.57-2.5-2.5-1.22.05-2.67,1.11-2.5,2.5,1.11,9.15,2.44,18.27,4.02,27.35.21,1.22,1.62,1.94,2.74,1.79,1.2-.16,2.19-1.2,2.17-2.46-.09-5.12-.55-10.23-1.32-15.3s-1.95-9.75-2.93-14.62c-.27-1.34-.53-2.69-.75-4.05-.06-.36-.11-.72-.17-1.08-.02-.16-.04-.32-.07-.48-.07-.44.07.59-.02-.17-.04-.32-.08-.64-.12-.96-.02-.16-.04-.32-.05-.48l-.02-.24c0-.44-.09-.2-.24.73l-.9.9.11-.07-1.26.34h.08c-.42-.12-.84-.23-1.26-.35l.07.04-.9-.9-.28-1.03.73-1.77-.04.05,1.77-.73h-.07c-1.31-.05-2.56,1.18-2.5,2.5.06,1.4,1.1,2.45,2.5,2.5h0Z"/><path class="cls-1" d="M60.97,326.74c-.09.68-.03.32.02.14.1-.33-.28.58-.04.13.16-.3.04.15-.13.15.01,0,.18-.18.21-.21.32-.36-.36.17-.09.06.11-.05.23-.15.34-.21.09-.05.19-.1.29-.15.49-.26-.52.17.01,0,.48-.15.96-.27,1.46-.37.45-.09-.15.04-.18.02.07.04.33-.04.41-.05.47-.06.95-.12,1.42-.19,2.59-.4,5.22-1.79,5.78-4.58.13-.64.19-1.29.21-1.95,0-.24.01-.49.02-.73,0-.13.01-.26.02-.4v-.15c.04-.28.03-.2-.02.22.06-.09.15-.44.14-.55l-.14.35c.1-.17.09-.16-.05.02-.35.31.07.01.08-.06-.02.11-.55.3-.11.13.11-.04.23-.1.34-.15.45-.21.84-.48,1.2-.83,1.14-1.11,1.41-2.9,1.76-4.39s.65-2.95.91-4.44c1.06-6.03,1.54-12.15,1.74-18.26.1-2.96.13-5.91.15-8.87s.09-6.11-.08-9.15c-.19-3.42-.87-6.78-1.52-10.14-.16-.81-.31-1.62-.45-2.43-.07-.39-.13-.77-.19-1.16-.03-.19-.06-.39-.08-.58-.03-.18-.02-.15.01.08-.01-.12-.03-.23-.04-.35-.2-1.67-.28-3.34-.19-5.02l-4.66,1.26c.16.32.32.65.46.98-.2-.46-.01-.02.03.1.06.17.13.34.19.5.24.68.44,1.37.6,2.06s.29,1.41.4,2.12c.02.11.06.49,0-.02.02.18.04.36.06.54.04.4.08.8.11,1.2.23,3.03.14,6.07.1,9.1-.08,6.58-.2,13.16-.36,19.73-.09,3.75-.2,7.49-.33,11.24-.04,1.31,1.18,2.56,2.5,2.5,1.39-.06,2.45-1.1,2.5-2.5.22-6.74.4-13.48.52-20.23.06-3.41.12-6.83.16-10.24.04-3.05.13-6.12-.07-9.16-.24-3.63-.92-7.18-2.58-10.45-.48-.94-1.82-1.47-2.82-1.15-1.09.35-1.77,1.27-1.84,2.41-.17,3.11.28,6.23.84,9.28.26,1.43.56,2.86.83,4.29.12.66.24,1.32.35,1.98.06.39.12.78.18,1.16.01.09.06.49,0,.04.03.23.06.47.08.7.33,3,.28,6.02.27,9.03s-.03,5.99-.1,8.99-.19,5.99-.41,8.97c-.11,1.47-.24,2.94-.4,4.4-.08.71-.16,1.42-.25,2.13-.06.5-.02.15,0,.04-.03.2-.05.39-.08.59-.06.43-.13.87-.19,1.3-.23,1.45-.49,2.9-.79,4.34-.15.7-.3,1.4-.47,2.1-.08.35-.17.7-.26,1.04-.05.2-.12.89-.28,1.01l.11-.25c-.04.08-.08.17-.13.24-.19.4.32-.51.31-.33,0,.08-.57.26-.67.3-.7.37-1.34,1-1.72,1.69-.64,1.17-.66,2.5-.7,3.8,0,.15-.13.69-.05.81-.12-.18.11-.52.02-.19-.04.15-.08.3-.12.45-.13.51.17-.42.03-.1-.04.07-.08.14-.12.2.22-.28.27-.34.15-.2-.03.02-.28.26-.28.27-.02-.1.52-.31.06-.08-.03.02-.35.19-.35.19,0-.04.59-.21,0,0-.27.09-.54.16-.81.22s-.56.11-.84.16c-.57.1.45-.05.07,0-.17.02-.33.04-.5.06-1.49.18-2.94.45-4.25,1.22-1.62.95-2.49,2.38-2.72,4.22-.16,1.3,1.27,2.56,2.5,2.5,1.49-.07,2.32-1.1,2.5-2.5h0Z"/><path class="cls-1" d="M52.76,184.04c-.1,10.31.81,20.61,2.58,30.77.18,1.05,1.18,2.17,2.07,2.69.96.56,2.39.8,3.47.45s2.14-1.03,2.69-2.07c.6-1.13.67-2.21.45-3.47-.37-2.1-.69-4.2-.98-6.31l.16,1.2c-1.03-7.71-1.52-15.49-1.44-23.27.02-2.35-2.09-4.61-4.5-4.5s-4.48,1.98-4.5,4.5h0Z"/><path class="cls-1" d="M49.92,184.23c.03,7.34.06,14.68.08,22.02,0,2.35,2.06,4.61,4.5,4.5s4.51-1.98,4.5-4.5c-.03-7.34-.06-14.68-.08-22.02,0-2.35-2.06-4.61-4.5-4.5s-4.51,1.98-4.5,4.5h0Z"/><path class="cls-1" d="M47.42,182.49c-1.21,2.14-1.41,4.52-1.47,6.93-.05,2.1-.07,4.19-.05,6.29.03,4.2-.08,8.66,1.26,12.69.37,1.11,1.04,2.09,2.07,2.69.96.56,2.39.8,3.47.45,2.22-.72,3.94-3.14,3.14-5.54-.36-1.09-.6-2.2-.75-3.34l.16,1.2c-.36-2.78-.33-5.61-.34-8.41s-.14-5.63.18-8.39l-.16,1.2c.08-.61.22-1.2.45-1.77l-.45,1.07c.08-.19.17-.36.28-.54,1.16-2.05.55-5.01-1.61-6.16s-4.92-.57-6.16,1.61h0Z"/><path class="cls-1" d="M43.18,192.31c-.24,2.68.22,5.41.84,8.01.55,2.31,1.21,4.59,1.89,6.87s1.39,4.57,2.15,6.83c.45,1.34.89,2.68,1.48,3.97.66,1.44,1.74,2.62,3.08,3.45,2,1.25,5.04.49,6.16-1.61s.52-4.83-1.61-6.16c-.11-.06-.21-.13-.3-.2l.91.7c-.19-.16-.35-.32-.51-.51l.7.91c-.3-.4-.53-.84-.72-1.3l.45,1.07c-1.25-3.09-2.16-6.36-3.1-9.56s-2.01-6.55-2.47-9.91l.16,1.2c-.16-1.26-.21-2.51-.1-3.77.1-1.09-.57-2.44-1.32-3.18s-2.06-1.37-3.18-1.32-2.37.43-3.18,1.32-1.21,1.93-1.32,3.18h0Z"/><path class="cls-1" d="M52.61,179.16c.23,5.2.45,10.4.68,15.61l.34,7.74c.12,2.82,0,5.85.75,8.59.63,2.27,3.22,3.89,5.54,3.14s3.82-3.11,3.14-5.54c-.11-.38-.18-.76-.25-1.15l.16,1.2c-.33-2.42-.29-4.92-.39-7.37s-.21-4.91-.32-7.37c-.22-4.95-.43-9.9-.65-14.86-.05-1.18-.47-2.33-1.32-3.18-.78-.78-2.06-1.37-3.18-1.32-2.35.11-4.61,1.98-4.5,4.5h0Z"/><path class="cls-1" d="M54.72,186.74c.55,2.97,1.03,5.95,1.44,8.95l-.16-1.2c.97,7.21,1.5,14.46,1.59,21.73.03,2.35,2.05,4.61,4.5,4.5s4.53-1.98,4.5-4.5c-.14-10.69-1.23-21.37-3.19-31.88-.2-1.05-1.17-2.17-2.07-2.69-.96-.56-2.39-.8-3.47-.45s-2.14,1.03-2.69,2.07c-.59,1.12-.69,2.22-.45,3.47h0Z"/><path class="cls-1" d="M46.5,219.24c1.05,8.38,1.94,16.77,2.68,25.18s1.32,16.92,1.75,25.39c.12,2.31.23,4.61.31,6.92.07,2.04.08,4.09-.18,6.13l.16-1.2c-.19,1.37-.52,2.71-1.05,3.99l.45-1.07c-.22.51-.47,1-.75,1.48-.82,1.39-.81,3.16,0,4.54s2.28,2.15,3.89,2.23c5.18.27,10.34-.11,15.46-.95l1.07-.45c.52-.28.95-.67,1.26-1.16.55-.72,1.08-1.79.97-2.73-.99-8.4-1.92-16.81-2.78-25.22s-1.66-16.92-2.38-25.39c-.39-4.55-.94-9.17-.35-13.73l-.16,1.2c.14-1.01.34-2.01.6-3h-8.68c.23,1.27.43,2.55.61,3.83l-.16-1.2c.98,7.35,1.18,14.79,1.58,22.18s.81,14.85,1.22,22.27c.11,2.06.23,4.12.34,6.18.09,1.73.28,3.48.06,5.2l.16-1.2c-.08.56-.21,1.11-.42,1.64l.45-1.07c-.15.35-.33.67-.56.98l.7-.91c-.21.26-.43.48-.69.69l.91-.7c-.17.12-.33.22-.51.3l1.07-.45-.2.06,1.2-.16c-.12.02-.24.02-.35,0l1.2.16-.13-.04,1.07.45c-.08-.03-.16-.08-.23-.13l.91.7c-.07-.06-.14-.12-.19-.2l.7.91c-.09-.13-.15-.25-.22-.38l.45,1.07c-.12-.3-.19-.6-.23-.92l.16,1.2c-.93-8.08-1.62-16.21-2.41-24.31-.8-8.16-1.52-16.33-1.71-24.53-.05-2.32-.06-4.63-.02-6.95.02-1.16.06-2.32.11-3.47.03-.8,0-1.56-.17-2.35-.25-1.11-.82-1.9-1.5-2.78s-2.17-1.32-3.18-1.32c-1.1,0-2.42.49-3.18,1.32s-1.37,1.98-1.32,3.18l.16,1.2c.21.76.6,1.42,1.16,1.99l.11.14-.7-.91.09.15-.45-1.07c.07.17.11.32.15.5l-.16-1.2c.12.99-.03,2.03-.05,3.02-.03,1.12-.05,2.23-.06,3.35-.02,2.19.01,4.38.08,6.58.13,4.47.42,8.93.78,13.39.72,8.82,1.67,17.62,2.54,26.42.22,2.22.44,4.43.66,6.65.15,1.52.25,2.98,1.02,4.34,1.13,2.01,3.29,3.07,5.55,2.76,3.04-.41,5.25-3.22,5.96-6.06.5-1.98.44-3.99.33-6.01-.48-8.86-.97-17.73-1.45-26.59s-.73-18.11-2-27.07c-.15-1.08-.33-2.16-.53-3.23l-.45-1.07c-.28-.52-.67-.95-1.16-1.26-.76-.59-1.74-1.01-2.73-.97-1.98.09-3.81,1.33-4.34,3.3-1.2,4.46-1.13,9.1-.77,13.66s.74,8.8,1.15,13.19c.81,8.88,1.7,17.75,2.66,26.61.55,5.03,1.12,10.06,1.71,15.08l3.3-4.34c-.64.1-1.28.2-1.92.29l1.2-.16c-4.09.55-8.22.71-12.35.5l3.89,6.77c2.39-4.06,2.75-8.84,2.61-13.45s-.41-9.28-.68-13.91c-.56-9.42-1.32-18.82-2.27-28.21-.54-5.27-1.13-10.53-1.79-15.79-.15-1.24-.4-2.26-1.32-3.18-.78-.78-2.06-1.37-3.18-1.32s-2.37.43-3.18,1.32c-.75.82-1.46,2.03-1.32,3.18h0Z"/><path class="cls-1" d="M52.74,291.47c-.39,2.2-.57,4.4-.39,6.63s.53,4.37,1,6.51c.82,3.75,1.95,7.43,2.48,11.24l-.16-1.2c.22,1.67.16,3.41,1,4.92.64,1.15,1.81,2.15,3.12,2.43,2.15.46,4.27-.39,5.46-2.25.75-1.17,1.13-2.75,1.58-4.07.39-1.16.77-2.33,1.12-3.5,1.42-4.69,2.54-9.48,3.34-14.32.5-3.05.9-6.12,1.19-9.2.07-.71-.26-1.66-.61-2.27-.5-.85-1.26-1.46-2.15-1.84-1.59-.67-3.71-.4-4.92.93-2.57,2.84-5.2,5.79-7.01,9.19-.94,1.76-1.74,3.68-2.12,5.65-.27,1.41-.45,2.77-.26,4.19.23,1.7,1,3.14,2.19,4.38.92.95,2.03,1.76,3.09,2.55.88.66,1.8,1.25,2.76,1.78l-2.23-3.89c-.07,1.41-.13,2.83-.2,4.24-.09,1.89,1.45,3.92,3.3,4.34.79.18,1.6.18,2.39,0,.97-.22,2.27-1.14,2.69-2.07,1.44-3.14,2.68-6.37,3.61-9.7s1.52-6.76,1.92-10.21c.12-1.07-.59-2.46-1.32-3.18-.78-.78-2.06-1.37-3.18-1.32s-2.37.43-3.18,1.32l-.7.91c-.41.7-.61,1.46-.61,2.27-.04.38-.09.76-.14,1.14l.16-1.2c-.69,5.09-2.05,10.08-4.04,14.82l.45-1.07c-.24.56-.49,1.13-.74,1.68l8.39,2.27c.07-1.41.13-2.83.2-4.24.07-1.54-.9-3.14-2.23-3.89-1.08-.61-2.12-1.29-3.11-2.05l.91.7c-.76-.59-1.53-1.2-2.15-1.94l.7.91c-.2-.26-.35-.51-.48-.81l.45,1.07c-.07-.21-.12-.41-.16-.63l.16,1.2c-.06-.57-.01-1.13.06-1.7l-.16,1.2c.2-1.32.57-2.59,1.09-3.83l-.45,1.07c.84-1.93,1.98-3.68,3.26-5.35l-.7.91c1.18-1.52,2.45-2.95,3.74-4.37l-7.68-3.18c-.15,1.58-.33,3.15-.54,4.72l.16-1.2c-.56,4.08-1.32,8.12-2.32,12.11s-2.11,7.93-3.6,11.71l.45-1.07c-.04.1-.09.19-.16.27l.7-.91-.11.1.91-.7-.13.06,2.27-.61-.13.02,1.2.16-.12-.03,1.07.45-.11-.06.91.7-.09-.09.7.91c-.06-.08-.11-.16-.15-.25l.45,1.07c-.06-.15-.1-.29-.13-.45l.16,1.2c-.36-3.25-.88-6.39-1.66-9.57-.7-2.84-1.45-5.68-1.86-8.58l.16,1.2c-.28-2.09-.36-4.2-.09-6.3l-.16,1.2c.04-.29.09-.58.14-.87.22-1.22.19-2.37-.45-3.47-.55-.93-1.62-1.82-2.69-2.07-1.15-.26-2.44-.21-3.47.45-.93.6-1.87,1.55-2.07,2.69h0Z"/><path class="cls-1" d="M55.17,316.94l-.13,3.08c0,.1,0,.21,0,.31l.16,1.2s0,.04.01.06c.09.4.26.79.48,1.13.12.17.24.33.37.49.1.19.22.35.38.48l.91.7c.19.09.38.17.57.24.17.12.36.2.56.23l1.2.16c.75.03,1.65-.25,2.29-.62,1.79-1.04,2.67-3.22,2.13-5.21-.21-.78-.61-1.47-1.18-2.04-.41-.44-.89-.75-1.45-.93-.17-.12-.36-.19-.56-.23l-1.2-.16c-.42,0-.82.07-1.22.17-.59.14-1.1.41-1.53.81-.49.32-.88.74-1.16,1.26-.33.52-.51,1.07-.53,1.67-.13.6-.11,1.2.08,1.79l.45,1.07c.4.68.94,1.21,1.61,1.61l1.07.45c.8.21,1.6.21,2.39,0h.02c-.8,0-1.6,0-2.39,0h.02c-.66-.38-1.32-.77-1.99-1.15h.01c-.23-.29-.47-.6-.7-.9v.02c-.14-.36-.29-.72-.45-1.07v.02c-.05-.4-.1-.8-.16-1.2v.02c.05-.4.11-.8.16-1.2,0,.02,0,.03-.01.05l.45-1.07v.02c.22-.3.46-.61.69-.91l-.02.02.91-.7h-.02c.36-.14.72-.29,1.07-.44h-.02c.8,0,1.6,0,2.39,0h-.03c.36.15.72.3,1.07.45l-.04-.02.91.7-.03-.03.7.91s-.03-.04-.04-.07l.45,1.07s-.02-.05-.02-.08l.16,1.2c-.02-.25.01-.52.02-.77l.04-.89.07-1.74c.02-.62-.11-1.2-.39-1.73-.18-.56-.49-1.04-.93-1.45-.41-.44-.89-.75-1.45-.93-.54-.28-1.11-.41-1.73-.39l-1.2.16c-.76.21-1.42.6-1.99,1.16l-.7.91c-.41.7-.61,1.46-.61,2.27h0Z"/><path class="cls-1" d="M61.96,323.73c.62-.15,1.23-.33,1.83-.56s1.24-.5,1.85-.78c.26-.12.51-.24.75-.39.52-.33,1.04-.7,1.47-1.15.05-.05.09-.1.14-.15.26-.32.55-.67.78-1.02.27-.4.46-.98.61-1.36.24-.58.32-1.26.3-1.88-.02-.49-.08-1-.2-1.47-.06-.23-.19-.49-.28-.68-.1-.23-.18-.49-.31-.7-.28-.52-.67-.95-1.16-1.26-.43-.4-.94-.67-1.53-.81-.6-.19-1.2-.21-1.79-.08-.6.03-1.16.21-1.67.53l-.91.7c-.56.56-.94,1.22-1.16,1.99l-.16,1.2c0,.81.21,1.57.61,2.27.03.05.06.11.09.17l-.45-1.07c.04.1.06.2.08.3l-.16-1.2c.01.13.01.25,0,.38l.16-1.2c-.03.15-.07.29-.13.43l.45-1.07c-.05.12-.12.23-.19.33l.7-.91c-.13.16-.27.31-.43.44l.91-.7c-.44.34-.95.57-1.46.78l1.07-.45c-.71.3-1.45.53-2.2.71-.59.14-1.1.41-1.53.81-.49.32-.88.74-1.16,1.26-.33.52-.51,1.07-.53,1.67-.13.6-.11,1.2.08,1.79l.45,1.07c.4.68.94,1.21,1.61,1.61l1.07.45c.8.21,1.6.21,2.39,0h0Z"/><path class="cls-1" d="M73.88,380.49l-.12-.04,1.07.45-.1-.06.91.7c-.06-.04-.11-.1-.16-.16l.7.91-.05-.1.45,1.07c-.03-.07-.05-.15-.06-.23l.16,1.2c-.01-.08-.01-.17,0-.25l-.16,1.2c.02-.14.05-.25.1-.38l-.45,1.07c.04-.08.08-.15.13-.22l-.7.91c.05-.07.12-.13.19-.18l-.91.7.11-.07-1.07.45c.12-.06.24-.1.37-.12l-1.2.16c.21-.02.38-.02.59.01l-1.2-.16c.21.05.39.1.59.17l-1.07-.45c.64.28,1.23.67,1.79,1.09l-.91-.7c.73.57,1.37,1.21,1.95,1.94l-.7-.91c.24.33.45.66.62,1.03l-.45-1.07c.07.19.11.37.14.57l-.16-1.2c.01.13.01.26,0,.39l.16-1.2c-.03.16-.06.29-.11.44l.45-1.07c-.06.14-.13.26-.22.38l.7-.91c-.13.16-.26.3-.42.43l.91-.7c-.26.19-.53.35-.83.48l1.07-.45c-.94.39-1.96.56-2.97.7l1.2-.16c-1.11.14-2.22.19-3.33.05l1.2.16c-.61-.09-1.19-.23-1.76-.46l1.07.45c-.4-.17-.76-.38-1.11-.64l.91.7c-.3-.24-.57-.5-.81-.8l.7.91c-.12-.16-.23-.33-.32-.51l.45,1.07c-.1-.23-.16-.46-.2-.71l.16,1.2c-.01-.15-.02-.28,0-.43l-.16,1.2c.02-.14.05-.25.09-.38l-.45,1.07c.03-.08.07-.15.13-.22l-.7.91c.05-.07.11-.13.18-.18l-.91.7c.07-.05.15-.09.24-.12l-1.07.45.17-.04-1.2.16h.16c-.4-.06-.8-.12-1.2-.17.11,0,.22.03.32.07l-1.07-.45c.1.04.2.1.29.17l-.91-.7c.09.07.17.16.25.25l-.7-.91c.07.09.13.2.18.3l-.45-1.07c.05.11.08.22.1.34l-.16-1.2c.02.13.02.25.01.38l.16-1.2c-.03.21-.07.39-.14.59l.45-1.07c-.14.32-.32.61-.53.9l.7-.91c-.28.35-.57.69-.91.98l.91-.7c-.2.15-.39.27-.62.36l1.07-.45c-.11.04-.23.07-.35.09l1.2-.16c-.12.02-.24.02-.36,0l1.2.16c-.19-.03-.35-.07-.53-.13l1.07.45c-.23-.1-.43-.23-.63-.38l.91.7c-.14-.13-.27-.26-.39-.41l.7.91c-.16-.22-.29-.44-.4-.69l.45,1.07c-.19-.47-.29-.95-.37-1.45l.16,1.2c-.38-3.01-.58-6.05-.87-9.06-.11-1.16-.41-2.35-1.32-3.18-.74-.68-1.58-1.1-2.58-1.24-2.22-.3-4.29,1.06-4.94,3.22-.76,2.55.85,5.48,3.46,6.13,1.19.3,2.34.18,3.44-.29.81-.34,1.43-.85,2.1-1.42,1.36-1.16,2.7-2.35,4.08-3.48l-.91.7c.22-.16.43-.3.67-.42l-1.07.45c.13-.06.27-.09.41-.12l-1.2.16c1.34-.15,2.79.1,4.13.19s2.8.17,4.2.26c2.74.17,5.52.23,8.25.52l-1.2-.16c.26.04.51.1.76.19l-1.07-.45c.19.09.36.19.53.31l-.91-.7c.52.43.94.96,1.36,1.49l-.7-.91c.97,1.28,1.76,2.68,2.39,4.16l-.45-1.07c.93,2.23,1.48,4.59,1.81,6.98l-.16-1.2c.21,1.58.33,3.18.38,4.77s.13,3.19-.03,4.75l.16-1.2c-.04.26-.1.5-.19.75l.45-1.07c-.08.16-.16.29-.27.43l.7-.91c-.11.12-.21.22-.34.32l.91-.7c-.13.09-.26.16-.4.23l1.07-.45c-.3.13-.61.21-.93.26l1.2-.16c-1.08.14-2.17-.01-3.25-.11-1.32-.13-2.63-.28-3.94-.45l1.2.16c-2.74-.37-5.46-.86-8.16-1.45-2.48-.55-5.07-1.07-7.43-2.04l1.07.45c-.58-.25-1.13-.54-1.64-.92l.91.7c-.35-.27-.65-.56-.93-.91l.7.91c-.24-.32-.44-.66-.61-1.03l.45,1.07c-.26-.63-.41-1.29-.51-1.96l.16,1.2c-.12-.96-.24-1.99-.14-2.96l-.16,1.2c.03-.18.07-.35.13-.52l-.45,1.07c.07-.17.15-.3.26-.45l-.7.91c.07-.09.16-.17.25-.24l-.91.7c.09-.07.18-.12.28-.16l-1.07.45c.16-.06.3-.09.46-.11l-1.2.16c.17,0,.33,0,.5.02l-1.2-.16c.3.06.58.15.86.26l-1.07-.45c1.13.52,2.13,1.33,3.15,2.03,1.18.82,2.36,1.63,3.54,2.45,2.33,1.61,4.66,3.21,6.99,4.82,2.69,1.86,7.06-.58,6.77-3.89-.25-2.85-.8-5.63-1.68-8.35-.77-2.42-1.74-4.77-2.7-7.11l-8.22,3.47c2.59,4.54,5.41,8.94,8.45,13.18,1.08,1.51,2.56,2.41,4.48,2.15.81-.11,1.48-.39,2.13-.89.83-.64,1.22-1.36,1.61-2.34,1.17-2.89.18-6.21-.4-9.13-.51-2.57-1.01-5.14-1.52-7.71l-7.52,4.38c.09.11.18.23.27.35l-.7-.91c1.97,2.56,3.6,5.35,4.86,8.32l-.45-1.07c.11.27.22.54.33.81.45,1.13.98,2.05,2.07,2.69.96.56,2.39.8,3.47.45s2.14-1.03,2.69-2.07.89-2.37.45-3.47c-.82-2.06-1.73-4.09-2.84-6.02s-2.41-3.71-3.78-5.45l-.91-.7c-.52-.33-1.07-.51-1.67-.53-.96-.13-2.03,0-2.87.53-1.77,1.14-2.47,3.04-2.07,5.08.73,3.72,1.62,7.45,2.18,11.2l-.16-1.2c.09.66.13,1.32.06,1.99l.16-1.2c-.06.44-.16.85-.33,1.26l8.22-1.07c-3.04-4.24-5.87-8.64-8.45-13.18-1.11-1.95-3.6-2.69-5.62-1.84-.86.36-1.7.99-2.15,1.84-.53,1-.9,2.37-.45,3.47,1.71,4.17,3.42,8.39,4.06,12.88l-.16-1.2c.06.46.11.92.15,1.39l6.77-3.89c-3.38-2.33-6.75-4.66-10.13-6.99-1.68-1.16-3.42-2.64-5.48-3.03s-4.1-.01-5.69,1.47c-1.31,1.22-1.84,2.97-1.92,4.71-.04.82.06,1.67.16,2.49.2,1.59.47,2.88,1.14,4.34.91,2.01,2.79,3.6,4.78,4.47,3.75,1.63,7.91,2.45,11.92,3.19,2.29.42,4.59.76,6.9,1.05,1.82.23,3.72.55,5.56.5,1.39-.04,2.8-.31,4.02-1,1.48-.84,2.55-2.25,3.03-3.88.33-1.1.31-2.31.32-3.44,0-.83,0-1.66-.02-2.48-.09-3.61-.45-7.31-1.44-10.8-.53-1.85-1.26-3.67-2.16-5.37-.38-.71-.8-1.39-1.27-2.05-.65-.91-1.34-1.9-2.17-2.66-.69-.63-1.37-1.09-2.21-1.45-.9-.38-1.7-.51-2.69-.6s-1.99-.13-2.99-.19c-2.06-.13-4.12-.25-6.17-.38s-4.12-.26-6.17-.38c-1.54-.09-3.14.22-4.4,1.16-1.05.78-2.02,1.65-3.01,2.49-.77.66-1.54,1.33-2.32,1.98l.91-.7c-.1.08-.2.15-.32.21l1.07-.45c-.11.06-.23.09-.36.09h2.39l-.16-.03,1.07.45-.14-.07.91.7-.12-.11.7.91-.08-.13.45,1.07-.02-.14v2.39l.04-.14-8.84-1.2c.23,2.49.47,4.97.7,7.46.13,1.42.17,2.91.69,4.24.84,2.18,2.32,3.85,4.57,4.62s4.51-.02,6.24-1.48c.34-.29.63-.63.91-.98.75-.95,1.43-1.88,1.75-3.07.69-2.58-.26-5.3-2.54-6.75-2.13-1.36-5.06-1.03-6.81.81-2.6,2.74-1.64,7.19,1.12,9.42,1.16.94,2.33,1.62,3.79,2.04,1.14.33,2.37.46,3.56.47s2.46-.17,3.67-.36c.84-.13,1.66-.3,2.45-.61,1.66-.64,3.25-1.58,4.13-3.2,1.13-2.07.99-4.34-.06-6.41-.63-1.25-1.73-2.44-2.81-3.34-1.35-1.13-2.93-2.32-4.69-2.69-1.49-.31-3.16-.24-4.48.59-1.18.74-2.12,1.88-2.49,3.25-.78,2.88.74,5.74,3.59,6.63,2.25.7,5.01-.83,5.54-3.14.56-2.45-.74-4.78-3.14-5.54h0Z"/><path class="cls-1" d="M54.01,338.2c1.06,11.41,2.11,22.83,3.17,34.24l.9,9.68c.14,1.56,1.28,3.08,3,3s2.89-1.32,3-3c.4-6.25.79-12.49,1.19-18.74l-5.89.8c1.09,4.18,2.75,8.24,4.9,11.99.63,1.11,2.14,1.78,3.39,1.38s2.3-1.55,2.2-2.89c-.36-5.08-2.35-9.65-4.07-14.37-.81-2.23-1.5-4.48-1.88-6.83-.07-.41.07.62.03.21-.02-.16-.04-.33-.05-.49-.02-.26-.04-.52-.06-.79-.03-.59-.03-1.19,0-1.78.02-.31.05-.62.08-.93.04-.43-.09.57-.02.14.02-.15.04-.29.07-.44.11-.7.26-1.39.4-2.08.33-1.62.65-3.27.72-4.92.07-1.85-.32-3.55-1.04-5.24l-4.71,3.64c1.12.98,2.45,1.42,3.93,1.29.47-.04.93-.08,1.39-.11.53-.04-.65-.22-.13-.02-.43-.21-.5-.24-.2-.08-.34-.28-.38-.32-.14-.11.33.36.66.72.96,1.11.09.12.18.23.28.35-.24-.31-.26-.34-.06-.08.17.24.35.48.52.72.64.91,1.23,1.85,1.77,2.82.77,1.37,2.76,1.94,4.1,1.08s1.9-2.64,1.08-4.1c-.58-1.03-1.21-2.04-1.9-3-.73-1.02-1.48-2.09-2.36-2.99-1.1-1.11-2.52-1.72-4.08-1.69-.47.01-.93.09-1.39.13-.21.01-.45-.03-.66,0,.53.09.65.09.34,0,.31.07.57.22.8.44-1.13-.99-2.71-1.18-3.94-.23-.5.38-.93.93-1.08,1.56-.19.84-.03,1.53.3,2.31-.32-.74.03.2.08.39.03.14.07.27.09.41.02.12.04.57.03.12s0,0,0,.12c.01.18.02.35.02.53,0,.32,0,.64-.03.96s-.01.67-.09.97c.02-.08.11-.7.01-.15-.03.14-.05.29-.07.44-.11.66-.25,1.31-.38,1.97-.52,2.56-.9,5.12-.59,7.74.58,4.91,2.59,9.33,4.22,13.95.43,1.21.82,2.43,1.13,3.68.16.65.31,1.3.42,1.96.02.13.04.26.06.4.09.56-.05-.49-.01-.1.04.37.08.73.1,1.1l5.59-1.51c-.49-.85-.95-1.71-1.38-2.59-.23-.47-.46-.95-.67-1.43-.09-.21-.18-.41-.27-.62-.13-.31-.12-.28.04.09-.04-.1-.09-.21-.13-.31-.75-1.85-1.37-3.75-1.88-5.69-.38-1.45-1.85-2.34-3.29-2.15-1.53.21-2.51,1.44-2.6,2.95-.4,6.25-.79,12.49-1.19,18.74h6c-1.06-11.41-2.11-22.83-3.17-34.24-.3-3.23-.6-6.45-.9-9.68-.14-1.56-1.28-3.08-3-3-1.5.07-3.15,1.33-3,3h0Z"/><path class="cls-1" d="M66.64,343.35l-.1-.18c-.49-.87-1.6-1.2-2.5-.82-.38.16-.76.44-.96.82-.27.5-.29.98-.2,1.54.19,1.18.61,2.32.96,3.45.24.77.45,1.59,1.04,2.17.55.54,1.22.78,1.92,1.06l-.48-.2c.21.09.39.19.57.33l-.4-.31c.27.21.47.48.74.69.76.59,1.66.64,2.52.21.93-.47,1.28-1.87.72-2.74-.62-.95-1.74-1.22-2.74-.72l-.07.04,1.01-.27h-.07c.18.02.35.05.53.07l-.08-.03.48.2-.07-.05.4.31c-.36-.34-.66-.67-1.1-.96-.4-.26-.88-.41-1.32-.59l.48.2c-.17-.07-.33-.15-.47-.26l.4.31c-.07-.06-.13-.12-.19-.19l.31.4c-.06-.09-.11-.17-.15-.26l.2.48c-.29-.69-.46-1.45-.68-2.16s-.47-1.48-.59-2.25l-3.66,1.54.1.18c.51.91,1.84,1.3,2.74.72s1.26-1.76.72-2.74h0Z"/><path class="cls-1" d="M70.4,349.1c-.72-.95-1.32-1.98-1.78-3.08l.2.48c-.17-.4-.32-.8-.45-1.21-.16-.49-.47-.93-.92-1.2-.43-.25-1.06-.36-1.54-.2s-.95.46-1.2.92-.37,1.03-.2,1.54c.55,1.7,1.35,3.33,2.43,4.76.13.23.3.42.52.56.19.18.42.3.68.36.48.13,1.12.07,1.54-.2s.8-.69.92-1.2.12-1.12-.2-1.54h0Z"/><path class="cls-1" d="M62.75,348.54c.02,1.26,0,2.54.1,3.8.11,1.37.44,2.66.86,3.96.32.99,1.4,1.74,2.46,1.4,1.12-.36,1.59-1.35,1.4-2.46-.02-.13-.05-.76-.04-.2,0-.14-.04-.3-.05-.44-.04-.34-.06-.68-.07-1.03-.03-.69-.01-1.37.04-2.06l-2.53,1.93c.82.12,1.55.06,2.23-.45.17-.13.33-.25.49-.39.04-.03.31-.29.07-.06-.14.1-.14.11,0,.03l-.26.12c-.61.16-1.12-.14-1.52-.67.5.66,1.12,1.07,1.99.95.79-.11,1.43-.66,1.66-1.43.3-.97.51-1.95.65-2.96.08-.56.1-1.03-.2-1.54-.24-.41-.72-.81-1.2-.92-.51-.12-1.09-.09-1.54.2-.4.26-.85.7-.92,1.2-.14,1-.35,1.99-.65,2.96l3.66-.48c-.4-.54-.8-.94-1.46-1.14-.48-.15-1.04-.17-1.53-.03s-.9.4-1.3.73c-.07.06-.23.14-.27.22.26-.19.3-.22.13-.1.32-.16.67-.19,1.03-.09-.66-.1-1.2-.06-1.74.36s-.74.92-.79,1.57c-.13,1.61,0,3.2.26,4.78l3.86-1.06c-.18-.55-.36-1.11-.5-1.68-.07-.28-.13-.57-.18-.85-.09-.5.04.44,0-.07-.01-.15-.03-.3-.04-.45-.08-1.21-.07-2.43-.09-3.65-.02-1.05-.91-2.05-2-2s-2.02.88-2,2h0Z"/><path class="cls-1" d="M64.97,358.92c-.41-.05.32.07.3.11-.14-.06-.16-.07-.06-.02.04.02.08.04.12.06.06.03.11.06.17.1.14.08.33.18.44.31-.11-.09-.13-.1-.04-.03.04.03.07.06.11.08.06.05.12.1.19.15.7.55,1.4,1.01,2.27,1.25.35.09.72,0,.97-.26.23-.23.39-.65.26-.97-.64-1.6-1.36-3.16-2.18-4.68-.24-.44-.81-.59-1.25-.41s-.72.7-.58,1.18c.17.62.48,1.19.77,1.75.06.13.13.25.19.38.03.06.06.13.09.19.03.07.02.04-.03-.08.01.03.03.06.04.1.05.13.09.26.13.39.02.07.03.13.04.2.05.26-.01-.17,0,.04l1.86-.5c-.44-.89-.94-1.74-1.5-2.55-.3-.43-.89-.67-1.37-.36-.43.28-.68.91-.36,1.37.56.81,1.06,1.67,1.5,2.55.19.38.73.59,1.13.46s.77-.52.73-.96c-.06-.74-.3-1.39-.63-2.05-.13-.26-.27-.52-.4-.79-.03-.06-.06-.13-.09-.19-.02-.04-.04-.09-.06-.13l.05.11c-.09-.1-.12-.34-.16-.46l-1.83.77c.38.71.74,1.43,1.08,2.15.17.36.33.72.49,1.08.04.09.08.18.12.27.02.05.04.1.07.16-.04-.1-.05-.11-.02-.04.08.2.16.39.24.59l1.23-1.23c-.1-.03-.2-.06-.3-.09-.05-.02-.37-.09-.12-.04-.18-.04-.39-.2-.54-.3-.08-.05-.15-.1-.22-.15-.05-.03-.31-.2-.07-.05-.14-.09-.27-.21-.4-.32-.32-.25-.64-.51-1-.71-.44-.24-.87-.36-1.36-.42-.24-.03-.55.13-.71.29-.17.17-.3.46-.29.71.03.6.44.93,1,1h0Z"/><path class="cls-1" d="M67.42,367.9c.81.9,1.62,1.79,2.48,2.64.42.42.86.82,1.31,1.21.21.18.44.36.65.55.11.1.22.2.32.3.04.04.08.09.12.13.18.21-.1-.16.05.08.29.43.89.66,1.37.36.43-.28.67-.9.36-1.37-.37-.55-.84-.95-1.34-1.36-.47-.39-.92-.81-1.35-1.24-.88-.87-1.72-1.79-2.55-2.71-.35-.39-1.06-.38-1.41,0-.38.42-.38,1,0,1.41h0Z"/><path class="cls-1" d="M68.91,370.15c.88.44,1.81.75,2.79.9.21.03.41.06.61.11.06.01.12.03.19.05.02,0,.18.07.06.02s.03.02.05.03c.04.02.07.05.11.07.1.05-.17-.16-.02-.02.03.03.06.06.09.09.03.03.05.07.09.1-.04-.03-.11-.16-.04-.04.02.04.04.08.07.11.09.15-.04-.14,0-.03.03.1.06.19.07.28.09.52.75.85,1.23.7.55-.18.8-.68.7-1.23-.2-1.13-1.18-1.91-2.28-2.1-.48-.08-.95-.14-1.42-.27-.25-.07-.49-.15-.74-.24-.05-.02-.1-.04-.15-.06-.11-.04.15.07-.02-.01-.12-.06-.25-.11-.37-.17-.47-.23-1.1-.14-1.37.36-.24.45-.14,1.12.36,1.37h0Z"/><path class="cls-1" d="M66.45,381.51c1.06,0,2.1-.09,3.14-.23l-1.13-1.47c-.17.31-.35.61-.55.91-.1.15-.2.29-.31.43-.07.09-.05.07.03-.05-.03.03-.05.07-.08.1-.06.07-.11.14-.17.2l1.57,1.21c.63-1.26,1.31-2.51,2.02-3.73.26-.45.12-1.12-.36-1.37s-1.09-.12-1.37.36c-.71,1.22-1.39,2.46-2.02,3.73-.23.45-.15.97.26,1.29.37.28.99.3,1.31-.08.53-.62,1-1.29,1.39-2,.19-.36.17-.79-.08-1.11-.11-.14-.24-.24-.4-.31-.23-.1-.41-.08-.65-.05.26-.04.07-.01.02,0s-.12.01-.18.02c-.12.01-.24.03-.36.04-.23.02-.46.04-.68.06-.47.03-.94.04-1.41.04-.52,0-1.02.46-1,1s.44,1,1,1h0Z"/><path class="cls-1" d="M79.85,372.01c2.05-1.18,3.65-2.92,5.15-4.72.82-.98,1.63-1.98,2.45-2.97s1.61-1.89,2.04-3.08c.34-.95-1.01-1.67-1.67-.97-1.72,1.82-3.25,3.81-4.58,5.94-.68,1.1,1.05,2.1,1.73,1.01,1.24-1.98,2.66-3.83,4.27-5.53l-1.67-.97c-.34.95-1.14,1.74-1.78,2.51-.77.93-1.53,1.87-2.3,2.79-1.35,1.62-2.78,3.21-4.63,4.27-1.12.64-.11,2.37,1.01,1.73h0Z"/><path class="cls-1" d="M87.28,361.86c.29,1.61.69,3.19,1.37,4.68.64,1.41,1.57,2.68,2.08,4.15s.73,3.17,1.19,4.72,1.07,3.17,1.67,4.73c.19.5.67.85,1.23.7.49-.13.89-.72.7-1.23-.94-2.5-1.88-5-2.82-7.5-.46-1.23-.93-2.46-1.39-3.69-.38-1.02-.66-2.6-1.9-2.9-.65-.16-1.24.3-1.27.96-.09,2.07-.01,4.13.23,6.18l1.96-.27c-.23-1.34-.46-2.68-.85-3.98-.31-1.06-.82-3.03-2.33-2.66-1.16.28-1.28,1.83-1.46,2.8s-.32,2.16-1.05,2.95l1.67.44c-.46-1.63-.13-3.31.19-4.94.18-.88-.99-1.82-1.67-.97s-1.15,1.84-1.57,2.87c-.37.92-.74,1.87-1.43,2.6l1.67.97c.41-1.84,1.22-3.55,2.44-4.99l-1.57-1.21c-.89,1.42-1.79,2.84-2.68,4.26l1.73,1.01c1.27-2.15,2.55-4.31,4.39-6.03l-1.71-.71c.07,2.64-.85,5.21-.63,7.86.08.99,1.3,1.36,1.86.5.77-1.15.74-2.69.89-4.02.17-1.47.33-2.95.5-4.42h-2c.2,1.84.4,3.67.61,5.51.1.89.19,1.78.29,2.66.1.82.26,1.49.79,2.14.34.42,1.06.35,1.41,0,.42-.42.34-.99,0-1.41s-.27-1.31-.32-1.8c-.09-.78-.17-1.55-.26-2.33-.18-1.59-.35-3.18-.53-4.78-.14-1.29-1.85-1.28-2,0s-.3,2.63-.45,3.94c-.12,1.1-.04,2.55-.67,3.49l1.86.5c-.22-2.65.71-5.22.63-7.86-.02-.88-1.07-1.3-1.71-.71-1.96,1.84-3.35,4.14-4.7,6.43-.66,1.11,1.04,2.1,1.73,1.01.89-1.42,1.79-2.84,2.68-4.26.59-.94-.83-2.09-1.57-1.21-1.44,1.71-2.47,3.69-2.96,5.87-.21.93.95,1.73,1.67.97.77-.81,1.24-1.77,1.66-2.79.38-.91.71-1.9,1.33-2.68l-1.67-.97c-.4,1.98-.76,4.01-.19,6,.2.7,1.15,1,1.67.44.71-.77,1.11-1.7,1.35-2.72.11-.49.19-1,.29-1.49.05-.25.1-.5.16-.74.03-.12.06-.24.1-.36.11-.27.05-.25-.19.07h-.53c-.26-.08-.06.12,0,.29.08.22.16.44.23.66.15.48.28.97.4,1.45.22.94.39,1.9.55,2.86.19,1.1,2.1.86,1.96-.27-.24-2.05-.32-4.12-.23-6.18l-1.27.96c-.12-.11-.14-.11-.06,0l.17.46.26.69c.2.54.4,1.08.61,1.62.42,1.12.84,2.23,1.26,3.35.82,2.19,1.65,4.39,2.47,6.58l1.93-.53c-.58-1.53-1.16-3.05-1.63-4.62s-.68-3.27-1.23-4.83c-.51-1.46-1.36-2.75-2.05-4.13-.73-1.47-1.11-3.09-1.4-4.7-.23-1.26-2.16-.73-1.93.53h0Z"/><path class="cls-1" d="M91.52,370.83c1.08.79,2.45.76,3.72.6,1.51-.19,2.99-.5,4.44-.93,1.01-.3.88-1.57,0-1.93-1.23-.5-2.61.07-3.31,1.15-.55.84.54,1.9,1.37,1.37.76-.48,1.6.18,2.17.67.85.73,1.68,1.47,2.51,2.2l1.21-1.57c-1.01-.77-2.02-1.54-3.03-2.31-.9-.69-2.05.81-1.21,1.57,1.36,1.23,2.95,2.11,4.57,2.96,1.14.6,2.1-1.04,1.01-1.73-1.69-1.07-3.21-2.34-4.58-3.79-.88-.94-2.29.48-1.41,1.41,1.48,1.58,3.15,2.95,4.98,4.11l1.01-1.73c-1.46-.77-2.93-1.54-4.16-2.65l-1.21,1.57c1.01.77,2.02,1.54,3.03,2.31.9.69,2.06-.83,1.21-1.57-1.1-.96-2.16-2.02-3.36-2.87-1.09-.77-2.57-1.07-3.75-.32l1.37,1.37c.25-.38.67-.38,1.05-.23v-1.93c-1.21.36-2.45.65-3.71.83-.98.14-2.07.32-2.92-.3-.44-.32-1.11-.07-1.37.36-.3.51-.08,1.05.36,1.37h0Z"/><path class="cls-1" d="M91.09,371.54l-.11-.13-.44,1.67c.13-.05-.08,0-.11,0-.11,0-.21-.03-.31-.08.12.06-.05-.03-.07-.06.02.03.06.06.08.08.09.09-.02-.02-.04-.06.02.03.05.07.07.1.05.08.1.16.15.24.22.36.43.72.65,1.08.43.71.85,1.42,1.28,2.12.27.45.91.65,1.37.36s.65-.89.36-1.37c-.49-.82-.99-1.63-1.48-2.45-.23-.38-.44-.79-.71-1.14-.41-.55-1.06-1.01-1.78-.76s-.96,1.09-.44,1.67l.11.13c.35.39,1.06.38,1.41,0,.38-.42.37-1,0-1.41h0Z"/><path class="cls-1" d="M94.18,403.63c2.08.21,4.18.26,6.27.14.65-.04,1.13-.61.96-1.27-1.29-4.97.26-10.07.76-15.04.12-1.24.11-2.47.17-3.71s.62-2.32,1.09-3.45.93-2.37,1.32-3.58c.34-1.07,1.05-2.45-.07-3.27-.37-.27-.9-.12-1.21.16l-.06.05c-.96.86.46,2.27,1.41,1.41l.06-.05-1.21.16.08.06-.36-.36.06.12-.14-.5c.01.24-.15.56-.21.79-.09.31-.18.61-.28.91-.19.61-.4,1.21-.62,1.8-.41,1.1-.9,2.17-1.33,3.26s-.53,2.23-.54,3.42c-.01,1.25-.11,2.5-.26,3.74-.6,4.86-1.84,9.74-.58,14.61l.96-1.27c-2.09.11-4.18.07-6.27-.14-.54-.05-1,.5-1,1,0,.59.46.95,1,1h0Z"/><path class="cls-1" d="M95.43,373.85c-.46-.68-.76-1.39-.91-2.2l-1.93.53c.75,1.88,1.3,3.83,1.66,5.82.2,1.1,2.04.86,1.96-.27-.14-2.17-.47-4.32-.97-6.43l-1.93.53c.79,2.24,1.59,4.48,2.38,6.72.35.99,2.07.93,1.96-.27-.22-2.57-.63-5.12-1.23-7.63l-1.93.53c.72,2.44,1.46,4.86,2.56,7.16.42.87,1.53.46,1.83-.24.46-1.1.04-2.33-.22-3.43-.3-1.29-.59-2.58-.89-3.87l-1.93.53c.63,2.3,1.45,4.54,2.42,6.72.22.5.94.6,1.37.36,1.34-.74.49-2.76.24-3.89-.35-1.53-.73-3.06-1.13-4.58l-1.93.53c.45,1.36.92,2.71,1.41,4.05.45,1.2.86,2.4,1.66,3.42.31.39,1.11.39,1.41,0,.84-1.06.4-2.45.2-3.68-.22-1.36-.49-2.71-.8-4.05l-1.93.53c.34,1.25.73,2.48,1.18,3.7.37.99.71,2.4,1.9,2.67.61.14,1.29-.29,1.27-.96-.07-1.63-.33-3.25-.81-4.82-.38-1.26-2.13-.72-1.93.53.23,1.44.67,2.81,1.29,4.13.45.95,1.83.41,1.86-.5.03-.76.06-1.51.08-2.27l-1.96.27c.48,2.33-.99,4.48-2.2,6.32l1.83.77c.4-1.53,1.08-2.91,2.01-4.18l-1.83-.77c-1.27,3.93-2.51,7.9-2.69,12.05-.06,1.29,1.91,1.27,2,0,.15-2.14.23-4.28.22-6.43,0-1.07-.03-2.14-.07-3.22-.04-.88-.09-1.79-.62-2.54-.57-.8-1.81-.53-1.86.5-.23,4.05-.35,8.11-.37,12.17l1.86-.5c-.55-.73-.48-2.01-.58-2.88-.13-1.18-.24-2.35-.34-3.53s-.17-2.28-.24-3.42c-.06-1.02-.09-2.06-.67-2.94s-1.76-.47-1.86.5c-.46,4.38-.14,8.86-.07,13.26h2c-.31-2.35-.63-4.7-.94-7.05-.15-1.16-.31-2.31-.46-3.47-.12-.92-.04-2.37-.84-3.02-.52-.43-1.53-.37-1.67.44-.65,3.81.1,7.76.82,11.51s1.71,7.5,2.94,11.15c.41,1.21,2.24.73,1.93-.53-.93-3.81-.13-7.74,1.1-11.38l-1.93-.53c-1.4,5.23-1.6,10.67-1.77,16.06l1.86-.5c-.93-2.1-.84-4.69-.95-6.94-.12-2.5-.18-5-.23-7.5l-1.96.27c.1.75.21,1.5.31,2.25.07.54.76.83,1.23.7.58-.16.77-.69.7-1.23-.1-.75-.21-1.5-.31-2.25-.16-1.13-1.99-.84-1.96.27.05,2.67.11,5.33.26,8,.13,2.51.17,5.12,1.2,7.45.43.96,1.84.4,1.86-.5.16-5.21.34-10.46,1.69-15.53.34-1.25-1.52-1.74-1.93-.53-1.35,3.99-2.12,8.28-1.1,12.45l1.93-.53c-1.17-3.49-2.13-7.06-2.84-10.67s-1.53-7.35-.92-10.92l-1.67.44c.01-.11.03-.08.05.1.02.09.03.18.04.27.03.25.07.5.1.74l.21,1.61.41,3.09c.28,2.1.56,4.21.84,6.31.07.54.41,1,1,1,.53,0,1.01-.46,1-1-.08-4.4-.39-8.87.07-13.26l-1.86.5c.51.78.39,1.9.44,2.79.07,1.18.16,2.36.27,3.54s.22,2.27.35,3.41c.12,1,.12,2.2.75,3.04.56.75,1.86.57,1.86-.5.02-4.06.14-8.12.37-12.17l-1.86.5c.45.63.35,1.53.37,2.27.03.99.05,1.98.04,2.97,0,1.98-.08,3.96-.22,5.93h2c.17-3.97,1.41-7.77,2.62-11.52.15-.47-.14-1-.58-1.18-.49-.2-.95,0-1.25.41-1.03,1.4-1.77,2.98-2.21,4.66-.29,1.12,1.21,1.71,1.83.77,1.55-2.37,3-4.93,2.4-7.86-.23-1.14-1.92-.82-1.96.27-.03.76-.06,1.51-.08,2.27l1.86-.5c-.54-1.16-.89-2.39-1.09-3.65l-1.93.53c.42,1.4.67,2.82.73,4.28l1.27-.96c.1.02-.01-.04-.06-.16-.08-.19-.15-.38-.23-.56-.19-.47-.36-.95-.53-1.43-.32-.93-.61-1.86-.86-2.81-.34-1.25-2.22-.72-1.93.53.24,1.03.45,2.06.63,3.09.09.48.17.96.24,1.44.04.24.07.48.11.72.01.08.02.68.14.53h1.41c-.66-.83-.96-2.02-1.32-3-.44-1.19-.85-2.39-1.24-3.59s-2.26-.72-1.93.53c.31,1.17.61,2.34.89,3.52.13.55.26,1.1.38,1.65.07.31.14.63.21.95.03.16.07.32.1.47,0,.07,0,.05,0-.09l.36-.36-.12.06,1.37.36c-.9-2.02-1.64-4.11-2.22-6.24-.34-1.24-2.22-.72-1.93.53.26,1.13.52,2.26.78,3.39.2.86.69,1.99.33,2.85l1.83-.24c-1.02-2.14-1.69-4.41-2.36-6.68-.36-1.24-2.23-.72-1.93.53.56,2.34.95,4.71,1.16,7.1l1.96-.27c-.79-2.24-1.59-4.48-2.38-6.72-.43-1.2-2.23-.73-1.93.53.47,1.94.77,3.91.9,5.9l1.96-.27c-.36-1.99-.91-3.94-1.66-5.82-.47-1.19-2.18-.75-1.93.53.19.96.57,1.87,1.12,2.68.72,1.06,2.45.06,1.73-1.01h0Z"/><path class="cls-1" d="M97.65,389.06c-.41,1.36-.82,2.71-1.23,4.07l-.6,2-.3,1c-.04.13-.15.33-.14.46-.04.12-.05.14-.02.07.16-.17.35-.24.57-.22l.44.26-.07-.06c-.41-.35-1.01-.41-1.41,0-.36.36-.42,1.07,0,1.41.88.74,1.96.28,2.35-.73.31-.82.52-1.68.77-2.52.53-1.74,1.05-3.48,1.58-5.22.37-1.23-1.56-1.76-1.93-.53h0Z"/><path class="cls-1" d="M95.69,402.63c2.15.41,4.39-.21,5.98-1.72.38-.36.39-1.06,0-1.41s-1.01-.39-1.41,0c-.07.07-.15.14-.23.21-.04.03-.08.07-.12.1-.1.08,0,.04.02-.01-.04.08-.22.15-.29.2-.09.06-.17.11-.26.16s-.18.1-.27.15c-.05.02-.09.05-.14.07-.02.01-.18.08-.06.03s-.04.01-.06.02c-.05.02-.1.04-.15.05-.11.04-.22.08-.33.11-.2.06-.4.11-.6.14-.01,0-.15.03-.15.03,0,0,.21-.02.04,0-.1.01-.21.02-.31.03-.22.01-.44.01-.66,0-.1,0-.21-.02-.31-.03-.14-.01.18.03.04,0-.06-.01-.13-.02-.19-.03-.51-.1-1.1.14-1.23.7-.11.49.15,1.12.7,1.23h0Z"/><path class="cls-1" d="M57.06,376.77c-.01,2.4-.61,4.75-.68,7.15s.05,4.69.12,7.03c.16,4.84.36,9.68.59,14.52.04.84,1.08,1.35,1.71.71,1.29-1.31,3.15-1.78,4.32-3.25,1.36-1.7,2.52-3.58,3.75-5.37l-1.73-1.01c-1.29,2.39-2.95,4.51-4.97,6.33l1.67.44c-.3-1,.18-2.3.4-3.29.27-1.21.58-2.41.92-3.59.31-1.06-1.37-1.83-1.83-.77-.93,2.17-1.87,4.35-2.8,6.52l1.83.77c.72-3.57,1.44-7.13,2.17-10.7.25-1.25-1.6-1.79-1.93-.53-.74,2.81-1.48,5.62-2.22,8.43l1.96.27c.27-5.2.54-10.4.59-15.6.01-1.09-1.8-1.41-1.96-.27-.24,1.64-.16,3.26-.1,4.91.06,1.54.08,3.15-.56,4.59l1.57-.2s-.02-.34-.03-.42c-.02-.32-.03-.65-.04-.97-.02-.57-.03-1.13-.03-1.7,0-1.25.04-2.5.13-3.75.16-2.27.82-4.72.16-6.96-.25-.86-1.35-.94-1.83-.24-.75,1.1-.85,2.54-1,3.83-.17,1.44-.24,2.89-.22,4.34.02,2.92.37,5.83.82,8.71.15.97,1.74.93,1.93,0,.56-2.79.18-5.76,1.24-8.44h-1.93c.72,2.74.6,5.58.78,8.38.07,1.07-.08,3.03,1.22,3.42.66.2,1.24-.15,1.64-.66.47-.6.93-1.21,1.4-1.81l-1.83-.77c-.22,1.39-.44,2.78-.66,4.17-.08.49.08.98.58,1.18.44.18,1.02.04,1.25-.41.59-1.14,1.27-2.25,2.06-3.27.33-.43.42-1,0-1.41-.34-.34-1.08-.43-1.41,0-.9,1.16-1.7,2.37-2.38,3.67l1.83.77c.22-1.39.44-2.78.66-4.17.18-1.15-1.13-1.68-1.83-.77-.24.32-.49.63-.73.95-.17.22-.35.59-.6.72l.5-.14h-.02c.15.08.29.17.44.25.09.09,0-.24,0-.32-.03-.23-.05-.47-.07-.7-.04-.47-.07-.94-.09-1.41-.04-.9-.07-1.81-.11-2.71-.08-1.85-.24-3.7-.71-5.49-.27-1.03-1.59-.86-1.93,0-1.07,2.7-.68,5.64-1.24,8.44h1.93c-.41-2.63-.71-5.28-.75-7.94-.02-1.29.02-2.58.14-3.86.11-1.14.14-2.56.8-3.54l-1.83-.24c.33,1.13.2,2.3.06,3.46-.16,1.31-.29,2.62-.36,3.94s-.09,2.58-.06,3.88c.02,1.11-.15,2.54.67,3.41.41.43,1.31.38,1.57-.2.7-1.58.88-3.23.85-4.95s-.24-3.37,0-5.03l-1.96-.27c-.05,5.21-.32,10.41-.59,15.6-.06,1.13,1.68,1.35,1.96.27.74-2.81,1.48-5.62,2.22-8.43l-1.93-.53c-.72,3.57-1.44,7.13-2.17,10.7-.1.49.1.99.58,1.18.41.17,1.05.05,1.25-.41.93-2.17,1.87-4.35,2.8-6.52l-1.83-.77c-.39,1.34-.74,2.7-1.03,4.06-.26,1.24-.67,2.63-.3,3.88.22.75,1.11.95,1.67.44,2.13-1.92,3.92-4.21,5.28-6.73.62-1.15-1-2.06-1.73-1.01-.6.86-1.2,1.73-1.79,2.59s-1.13,1.74-1.78,2.53c-1.12,1.36-2.95,1.84-4.19,3.09l1.71.71c-.23-4.84-.43-9.68-.59-14.52-.08-2.34-.2-4.69-.12-7.03s.67-4.75.68-7.15c0-1.29-1.99-1.29-2,0h0Z"/><path class="cls-1" d="M66.41,401.22c1.69,1.18,3.65,2.02,5.68,2.41,1.79.34,4.34.73,5.76-.7.91-.91-.5-2.33-1.41-1.41-.46.46-1.22.41-1.82.39-.85-.02-1.68-.12-2.51-.31-1.69-.39-3.26-1.1-4.69-2.1-.44-.31-1.11-.08-1.37.36-.29.5-.08,1.06.36,1.37h0Z"/><path class="cls-1" d="M73.66,372.59c1.31.55,2.73.83,4.15.86.52.01,1.02-.47,1-1s-.44-.99-1-1c-.33,0-.67-.03-1-.07-.05,0-.09-.01-.14-.02l.12.02c-.09,0-.2-.03-.28-.04-.15-.03-.3-.06-.46-.09-.64-.14-1.27-.34-1.87-.59-.22-.09-.57-.01-.77.1-.21.12-.41.36-.46.6-.06.26-.05.54.1.77s.34.35.6.46h0Z"/><path class="cls-2" d="M4.71,6.05c.25-1.21.25-2.42,0-3.64l-.96,1.27c.12,0,.11,0-.02-.01.05.01.11.02.16.04.08.02.16.05.24.08.11.04.1.04,0,0,.11.04.21.09.32.13.08.03.16.06.24.09.47.17.98.18,1.47.12.98-.12,1.96-.3,2.94-.46.52-.08.85-.76.7-1.23-.18-.56-.67-.79-1.23-.7-.46.07-.91.15-1.37.22-.23.04-.46.07-.69.11-.1.02-.2.03-.29.05-.06,0-.12.02-.18.03.1-.01.11-.01.04,0-.2.02-.4.03-.6.02.22.01-.12-.03-.17-.05-.08-.03-.16-.06-.24-.09-.11-.04-.1-.04,0,0l-.24-.1c-.1-.04-.21-.09-.31-.12-.24-.08-.5-.12-.75-.12-.69-.02-1.09.65-.96,1.27.03.12.05.25.07.37.02.12.02.12,0,.02,0,.06.01.13.02.19.02.24.03.47.03.71s-.01.47-.03.71c0,.06-.01.13-.02.19.02-.11.01-.1,0,.02-.02.12-.04.25-.07.37-.11.51.15,1.1.7,1.23.5.11,1.12-.15,1.23-.7h0Z"/><path class="cls-2" d="M2.75,5.99c-.98,9.59-.85,19.29.39,28.85.36,2.74.8,5.47,1.33,8.18l1.93-.53c-.8-3.33-1.61-6.66-2.41-9.99-.27-1.13-1.91-.83-1.96.27-.2,3.88,1.01,7.7,1.95,11.42s1.92,7.65,2.88,11.48l1.83-.77c-1.61-3.68-2.64-7.63-3.03-11.63-.05-.54-.42-1-1-1-.5,0-1.05.46-1,1,.43,4.38,1.54,8.61,3.3,12.64.47,1.06,2.09.29,1.83-.77-.94-3.75-1.88-7.49-2.82-11.24s-2.13-7.34-1.93-11.13l-1.96.27c.8,3.33,1.61,6.66,2.41,9.99.3,1.26,2.17.72,1.93-.53-1.83-9.34-2.57-18.87-2.22-28.38.1-2.71.29-5.42.57-8.12.05-.54-.5-1-1-1-.59,0-.94.46-1,1h0Z"/><path class="cls-2" d="M6.1,55.56c1.53,9.1,5.13,17.68,9.11,25.95,1.13,2.35,2.3,4.69,3.47,7.03.54,1.08,2.02.28,1.83-.77-.71-3.93-1.42-7.87-2.13-11.8-.35-1.93-.72-3.86-1.04-5.79s-.51-3.82-.1-5.71l-1.67.44c.59.47,1.17.94,1.76,1.41.62.5,1.38.3,1.67-.44.31-.78.45-1.6.42-2.44l-1.5.86c.38.2.75.41,1.13.61.54.29,1.32.05,1.47-.6,1.5-6.52-.38-13.09-2.28-19.31l-1.67.97c.96.89,2.54,1.66,3.63.51h-1.41c2.01,2.4,3.08,5.42,4.18,8.3s2.38,5.96,4.53,8.38c.85.97,2.26-.45,1.41-1.41-2.07-2.34-3.18-5.33-4.29-8.21s-2.35-5.98-4.42-8.47c-.34-.41-1.07-.37-1.41,0-.08.08.13.01.07,0-.08,0-.17-.04-.24-.07-.24-.1-.44-.27-.63-.44-.7-.65-1.98-.02-1.67.97,1.79,5.85,3.7,12.11,2.28,18.25l1.47-.6c-.38-.2-.75-.41-1.13-.61-.65-.35-1.53.08-1.5.86.02.68-.1,1.28-.35,1.91l1.67-.44c-.59-.47-1.17-.94-1.76-1.41-.54-.43-1.5-.36-1.67.44-.43,1.98-.32,3.96-.03,5.94s.71,4.09,1.08,6.13c.74,4.1,1.48,8.19,2.21,12.29l1.83-.77c-4.06-8.11-8.14-16.28-10.66-25.02-.71-2.46-1.29-4.95-1.71-7.48-.09-.53-.75-.83-1.23-.7-.56.16-.79.7-.7,1.23h0Z"/><path class="cls-2" d="M8.3,3.02l1.53,10.33c.1.7.95.83,1.47.6.91-.4,1.66-1.15,2.07-2.07l-1.83-.24c.3,1.04.6,2.08.89,3.11.28.98.5,2,.93,2.93.68,1.47,2.76,2.51,4.05,1.07l-1.71-.71c-.65,8.63.45,17.41,3.22,25.61.79,2.34,1.72,4.62,2.76,6.86.23.49.93.61,1.37.36.5-.29.59-.88.36-1.37-3.55-7.61-5.55-15.94-5.85-24.33-.09-2.38-.03-4.76.14-7.13.06-.85-1.15-1.34-1.71-.71-.07.08,0,.16-.22.09-.19-.06-.26-.08-.39-.23-.38-.43-.49-1.12-.65-1.66-.42-1.48-.85-2.95-1.27-4.43-.22-.76-1.46-1.06-1.83-.24-.29.65-.7,1.06-1.35,1.35l1.47.6-1.53-10.33c-.08-.53-.75-.83-1.23-.7-.57.16-.78.69-.7,1.23h0Z"/><path class="cls-2" d="M6.17,8.56l1.64-.58-2.53-1.93c.2,4.1.4,8.19.6,12.29.05,1.04.88,2.05,2,2s1.92-.88,2-2c.32-4.67-.76-9.28-1.84-13.79-.33-1.37-2.39-2.06-3.34-.88-.85,1.05-.99,2.14-1.01,3.44-.01,1.06-.03,2.13-.04,3.19-.02,2.17-.04,4.35-.04,6.52,0,4.35.06,8.69.27,13.03.42,8.72,1.44,17.46,3.68,25.91.54,2.03,1,4.5,2.59,6.02.95.91,2.22,1.33,3.53,1.2.39-.04.78-.12,1.18-.16-.05,0-.22.02,0,.01.07,0,.14,0,.22,0,.18,0,.14,0-.1-.04.01.02.32.07.08,0-.29-.08.26.13,0-.02l-.07-.06c.14.14.15.15.05.03-.03-.3-.28-.56-.19-.9-.25,1.02.32,2.22,1.4,2.46s2.17-.31,2.46-1.4c1.16-4.4.33-8.95-1-13.21s-2.9-8.5-4.37-12.74c-.86-2.47-1.71-4.94-2.57-7.4-.33-.95-1.17-1.57-2.19-1.43-.88.12-1.86.98-1.73,1.96,1.33,10.25,3.37,20.38,6.17,30.33l3.34-1.95c-.05-.05-.52-.6-.34-.38-.17-.21-.32-.44-.46-.67-.29-.46-.55-.94-.78-1.43-.06-.12-.11-.25-.17-.37.07.16.05.13-.04-.09-.1-.26-.2-.51-.29-.77-.18-.52-.35-1.05-.5-1.58-.68-2.37-1.21-4.79-1.7-7.21-1.01-4.95-1.78-10.11-2.41-14.97l-3.93.53c.99,5.05,1.62,9.9,1.97,15.05l3.93-.53c-.94-6.96-1.25-14.39-.95-21.56l-3.93.53c.8,2.22,1.59,4.44,2.39,6.65.34.95,1.16,1.57,2.19,1.43.93-.12,1.79-.97,1.73-1.96-.33-5.53-.66-11.07-.99-16.6l-3.73,1.01c1.47,2.77,2.93,5.54,4.4,8.31.47.88,1.62,1.19,2.5.82.96-.41,1.34-1.36,1.16-2.36l-.24-1.29c-.18-.98-1.29-1.55-2.19-1.43-1,.13-1.7.96-1.73,1.96-.28,7.79.85,15.64,3.32,23.03l3.34-1.95c-2.64-3.35-4.56-7.48-5.55-11.81-.23-1.02-1.46-1.72-2.46-1.4-1.14.37-1.56,1.35-1.4,2.46.72,4.95,1.44,9.9,2.16,14.84l3.86-1.06c-1.63-9.4-3.95-18.66-6.96-27.72-.33-.99-1.4-1.74-2.46-1.4-.99.32-1.75,1.4-1.4,2.46,3.01,9.05,5.33,18.32,6.96,27.72.18,1.03,1.5,1.71,2.46,1.4,1.14-.37,1.56-1.35,1.4-2.46-.72-4.95-1.44-9.9-2.16-14.84l-3.86,1.06c1.14,4.98,3.43,9.57,6.58,13.57.52.66,1.75.75,2.42.31.72-.46,1.21-1.4.92-2.26-2.4-7.2-3.44-14.4-3.18-21.97l-3.93.53.24,1.29,3.66-1.54c-1.47-2.77-2.93-5.54-4.4-8.31-.91-1.72-3.85-.97-3.73,1.01.33,5.53.66,11.07.99,16.6l3.93-.53c-.8-2.22-1.59-4.44-2.39-6.65-.34-.95-1.16-1.57-2.19-1.43s-1.69.96-1.73,1.96c-.32,7.56.08,15.12,1.09,22.62.13.98,1.33,1.55,2.19,1.43.92-.12,1.8-.97,1.73-1.96-.37-5.41-1.08-10.8-2.12-16.12-.19-.97-1.28-1.56-2.19-1.43s-1.86.98-1.73,1.96c.56,4.28,1.16,8.56,1.93,12.81.71,3.92,1.45,7.94,2.72,11.72.71,2.12,1.69,4.11,3.22,5.76,1.37,1.49,3.87-.07,3.34-1.95-2.7-9.56-4.77-19.58-6.03-29.26l-3.93.53c1.47,4.23,2.93,8.46,4.4,12.69,1.39,4,3.02,8.02,3.73,12.22.33,1.96.34,4.33-.19,6.32l3.86,1.06c.32-1.3-.17-2.47-1.21-3.28s-2.24-.86-3.48-.69c-.34.05-.63.05-.92.08.14-.01-.07-.03-.11-.04.31.07.16.08.03,0-.04-.02-.24-.18-.06-.03.22.18-.1-.11-.1-.11l-.06-.06c.12.17.14.2.06.08-.05-.07-.1-.14-.14-.21-.09-.15-.17-.3-.25-.45-.17-.33-.04-.08-.01,0-.03-.08-.06-.16-.09-.25-.07-.19-.13-.38-.19-.58-1.26-4.06-2.14-8.25-2.81-12.44-.34-2.1-.56-3.85-.79-6s-.4-4.23-.53-6.35c-.27-4.3-.38-8.6-.41-12.9-.02-2.37,0-4.74.01-7.11.01-1.22.02-2.45.04-3.67,0-.59.01-1.18.02-1.77,0-.25,0-.5.01-.75v-.09c.02-.21.02-.25.01-.1-.03.03-.15.28-.19.34l-3.34-.88c1.03,4.3,2,8.31,1.7,12.72h4c-.2-4.1-.4-8.19-.6-12.29-.06-1.21-1.24-2.38-2.53-1.93l-1.64.58c-.98.35-1.75,1.38-1.4,2.46.31.97,1.4,1.77,2.46,1.4h0Z"/><path class="cls-2" d="M16.26,20.46l.1-.88h-4c-1.08,9.48-2.15,18.99-2.21,28.54l3.93-.53c-.88-4.78-1.28-9.64-1.21-14.6h-4c.3,5.18.85,10.35,1.64,15.48.16,1.04,1.52,1.7,2.46,1.4,1.13-.37,1.57-1.35,1.4-2.46-.72-4.69-1.22-9.56-1.5-14.42-.06-1.04-.88-2.05-2-2s-1.99.88-2,2c-.07,5.25.4,10.5,1.36,15.67.18.98,1.29,1.55,2.19,1.43.98-.13,1.73-.96,1.73-1.96.06-9.56,1.13-19.06,2.21-28.54.12-1.04-1-2.04-2-2-1.19.05-1.87.88-2,2l-.1.88c-.12,1.04,1.01,2.04,2,2,1.19-.05,1.87-.88,2-2h0Z"/><path class="cls-2" d="M8.33,60.11c.73,2.63,1.4,5.27,1.99,7.93.22.97,1.26,1.56,2.19,1.43,1.01-.14,1.69-.96,1.73-1.96.11-2.28.22-4.56.33-6.84l-3.73,1.01c.09.13.18.26.26.4.15.26-.09-.38.05.13.03.12.06.25.09.37.14.57,0-.19.02.14.05.63.03,1.26.02,1.89-.03,1.61.14,3.22.41,4.81.51,2.99,1.5,5.86,2.49,8.72.34.99,1.39,1.74,2.46,1.4.98-.32,1.76-1.4,1.4-2.46-1.01-2.93-2.03-5.88-2.53-8.95-.06-.35-.06-.34-.1-.74s-.08-.78-.1-1.17c-.04-.73-.03-1.46-.02-2.2.02-1.5-.1-3.11-1.01-4.36-.51-.7-1.36-1.21-2.26-.92s-1.42,1.01-1.47,1.93c-.11,2.28-.22,4.56-.33,6.84l3.93-.53c-.6-2.66-1.26-5.3-1.99-7.93-.28-1.01-1.43-1.73-2.46-1.4s-1.7,1.38-1.4,2.46h0Z"/><path class="cls-2" d="M14.13,78.25c.01.25.06.5.09.75.01.08.03.17.05.25.08.32.22.62.35.92.07.15.15.29.24.42.19.27.39.54.63.77.18.2.4.33.64.41.24.13.5.18.77.17.28.01.53-.05.77-.17.25-.08.46-.22.64-.41l.31-.4c.18-.31.27-.65.27-1.01l-.07-.53c-.1-.34-.27-.63-.51-.88-.1-.09-.19-.19-.27-.3l.31.4c-.13-.17-.24-.36-.32-.56l.2.48c-.08-.2-.14-.41-.17-.62l.07.53c0-.07-.02-.14-.02-.21.01-.28-.05-.53-.17-.77-.08-.25-.22-.46-.41-.64-.18-.2-.4-.33-.64-.41-.24-.13-.5-.18-.77-.17l-.53.07c-.34.1-.63.27-.88.51l-.31.4c-.18.31-.27.65-.27,1.01h0Z"/><path class="cls-2" d="M18.53,75.05c-.23-2.81-.47-5.61-.7-8.42l-3.73,1.01c.73,1.17,1.46,2.35,2.19,3.52s2.14,1.23,3.14.4c.68-.55,1.1-1.56.99-2.43l-3.01,1.73c.18.09.35.18.51.3-.26-.19.16.17.19.2.62.63,1.66.76,2.42.31,1.12-.66,1.48-1.86,1.29-3.08-.02-.15-.05-.29-.1-.43s-.48-.87-.24-.57c-.06-.24-.08-.26-.06-.05l-.12.46c.11-.21.2-.43.28-.65.05-.09.08-.18.09-.28.16-.6.11-1.29-.07-1.88-.09-.3-.23-.59-.36-.88-.04-.1-.09-.2-.13-.3.05.12.05.11,0-.02-.07-.2-.13-.4-.17-.61-.02-.1-.04-.21-.06-.31.02.15.03.15.01,0-.01-.21-.01-.42,0-.63,0-.11.01-.21.03-.32-.02.18,0,.15.04-.09.22-1.02-.3-2.21-1.4-2.46-1.01-.23-2.22.3-2.46,1.4-.22,1-.25,1.95-.1,2.95.12.79.52,1.65.74,2.26-.03-.07-.03-.05.01.07.04.14.04.14.03-.02l.02-.12c.07-.16.07-.18.01-.05-.36.23-.4,1.29-.37,1.67.05.6.26,1.04.47,1.59-.11-.3.06.2.04.18-.36-.34.64-1.32.57-1.29l2.42.31c-.44-.45-.95-.84-1.51-1.12-.65-.33-1.38-.38-2.02,0-.55.32-1.08,1.05-.99,1.73.02.23.03.22.05-.04.34-.47.38-.59.13-.36l3.14.4c-.73-1.17-1.46-2.35-2.19-3.52-.45-.73-1.41-1.2-2.26-.92-.79.26-1.54,1.04-1.47,1.93.23,2.81.47,5.61.7,8.42.09,1.04.86,2.05,2,2,1.01-.05,2.09-.88,2-2h0Z"/><path class="cls-2" d="M17.27,49.6l1.51.19c.28.01.53-.05.77-.17.25-.08.46-.22.64-.41.2-.18.33-.4.41-.64.13-.24.18-.5.17-.77l-.07-.53c-.1-.34-.27-.63-.51-.88l-.4-.31c-.31-.18-.65-.27-1.01-.27l-1.51-.19c-.28-.01-.53.05-.77.17-.25.08-.46.22-.64.41-.2.18-.33.4-.41.64-.13.24-.18.5-.17.77l.07.53c.1.34.27.63.51.88l.4.31c.31.18.65.27,1.01.27h0Z"/><path class="cls-2" d="M16.03,59.43l-.02.13c-.01.28.05.53.17.77.08.25.22.46.41.64.35.35.92.61,1.41.59s1.05-.19,1.41-.59l.31-.4c.18-.31.27-.65.27-1.01v-.05c-.02.18-.04.35-.06.53.02-.12.05-.23.09-.34l-.2.48c.05-.13.12-.24.2-.35l-.31.4c.08-.09.16-.17.25-.25l-.4.31s.05-.04.08-.06l-2.42-.31c.19.17.37.35.53.55l-.31-.4c.22.29.41.6.55.94l-.2-.48c.05.12.09.24.13.36.13.42.37.77.72,1.04s.77.45,1.21.43c.36-.02.7-.11,1.01-.27.23-.13.42-.3.56-.52.18-.19.3-.42.36-.68.06-.45.13-.91.13-1.36s-.07-.93-.14-1.39c-.12-.75-.4-1.47-.73-2.15-.21-.43-.75-.8-1.2-.92-.48-.13-1.12-.07-1.54.2s-.8.69-.92,1.2l-.07.53c0,.36.09.7.27,1.01.05.11.1.22.15.33l-.2-.48c.19.46.32.94.39,1.44l-.07-.53c.07.51.07,1.03,0,1.55l.07-.53v.06h3.85c-.16-.51-.38-1.03-.68-1.49s-.64-.89-1.04-1.25l-.4-.31c-.23-.15-.48-.23-.74-.24-.42-.06-.92-.01-1.28.24-.48.33-.84.67-1.15,1.17s-.4,1.01-.48,1.6h4l.02-.13c.01-.28-.05-.53-.17-.77-.08-.25-.22-.46-.41-.64-.35-.35-.92-.61-1.41-.59s-1.05.19-1.41.59l-.31.4c-.18.31-.27.65-.27,1.01h0Z"/><path class="cls-2" d="M45.79,94.71c-1.7-2.54-3.81-4.68-6.31-6.43-1.23-.86-3.08.28-3.01,1.73.24,5.08,3.29,9.12,5.51,13.49.25.49.49.99.71,1.49.13.3-.1-.25.02.06.06.15.12.3.18.45.11.3.22.6.31.91.41,1.32.64,2.69.84,4.06s.38,2.77.7,4.13.87,2.74,1.43,4.06c.99,2.33,2.03,4.67,2.22,7.18.11,1.44.11,2.89.25,4.33s.44,2.94.89,4.38c.39,1.25.84,2.63.93,3.78.12,1.45.03,2.91,0,4.37-.07,2.99.44,5.91.97,8.84.56,3.12.7,6.21.49,9.5s-.59,6.58-.42,9.89c.05,1,.72,1.83,1.73,1.96s1.93-.47,2.19-1.43c-.1.35-.41.51-.69.67h-.22c.2.02.21.01.05,0,0,0-.42-.12-.36-.15.04-.02.43.48.19.16.44.58.74,1.28,1.04,1.94.61,1.32,1.23,2.74,2.33,3.74,2.21,2.01,6.34,2.38,7.8-.73.36-.77.47-1.55.6-2.38.15-.92.3-1.84.45-2.76.29-1.8.59-3.6.82-5.42.46-3.56.31-7-.28-10.54-1.15-6.78-3.15-13.4-5.34-19.91s-4.46-13.04-6.88-19.49c-1.36-3.63-3.28-6.93-5.06-10.37s-3.11-6.44-4.14-10.05l-3.66,1.54c2.92,4.04,4.35,8.11,5.56,12.94s1.95,9.56,3.11,14.3c.66,2.71,1.47,5.38,2.54,7.96.4.96,1.34,1.76,2.46,1.4.94-.31,1.8-1.42,1.4-2.46-2.02-5.18-4.04-10.37-6.07-15.55l-3.66,1.54c2.05,4.04,3.67,8.01,5.04,12.37.31,1,1.41,1.74,2.46,1.4s1.73-1.39,1.4-2.46c-1.44-4.58-3.27-9.05-5.44-13.33-.45-.89-1.63-1.18-2.5-.82s-1.52,1.43-1.16,2.36c2.02,5.18,4.04,10.37,6.07,15.55l3.86-1.06c-3.83-9.18-4.03-19.38-7.64-28.63-1.04-2.66-2.31-5.2-3.98-7.52-.59-.82-1.52-1.23-2.5-.82-.9.38-1.43,1.39-1.16,2.36.93,3.27,2.26,6.42,3.77,9.46s3.18,5.74,4.53,8.72,2.36,6.29,3.46,9.4,2.28,6.39,3.39,9.59c2.23,6.42,4.31,12.91,5.7,19.57.7,3.36,1.21,6.44.99,9.91-.21,3.23-.86,6.43-1.39,9.74-.07.44-.13.89-.23,1.32,0,0-.12.65-.05.28-.13.2-.14.23-.03.09.1-.12.09-.11-.03.02l-.1.1c.22-.17.25-.19.06-.07-.16.08-.16.08-.01.01.15-.06.15-.07-.03-.01l-.14.03c.3-.03.33-.04.1-.02-.15,0-.3,0-.45-.01.52.03.05,0-.07-.04-.15-.04-.3-.09-.44-.15.46.18,0-.03-.08-.07-.1-.06-.45-.35-.1-.04-.1-.08-.19-.17-.28-.26-.06-.07-.13-.13-.19-.21.1.15.08.12-.05-.07-.23-.33-.43-.67-.61-1.03-.77-1.48-1.28-3.22-2.54-4.37-1.74-1.58-4.78-1.24-5.47,1.24l3.93.53c-.16-2.94.12-5.87.34-8.8s.28-6.03-.13-9.06c-.39-2.8-1.08-5.51-1.22-8.19-.16-3,.32-5.99-.38-8.96-.33-1.39-.85-2.72-1.18-4.1-.15-.65-.23-1.13-.28-1.66-.07-.74-.1-1.48-.14-2.22-.07-1.54-.14-3.09-.42-4.61-.24-1.31-.69-2.56-1.2-3.79-.54-1.3-1.12-2.53-1.55-3.66-.49-1.28-.82-2.6-1.05-3.95-.45-2.66-.66-5.34-1.67-7.87s-2.49-4.95-3.83-7.38c-.31-.56-.61-1.14-.89-1.71-.14-.29-.27-.58-.4-.87-.16-.36-.05-.13-.02-.05-.07-.18-.14-.35-.21-.53-.22-.59-.4-1.19-.55-1.8-.04-.15-.07-.31-.1-.46-.01-.06-.11-.6-.07-.39.04.24-.02-.15-.02-.21-.02-.22-.04-.45-.05-.67l-3.01,1.73c.59.41.72.51,1.27.98.48.41.95.85,1.39,1.3.42.43.82.87,1.2,1.34.35.43.61.78,1.01,1.38.58.87,1.79,1.33,2.74.72.87-.56,1.34-1.81.72-2.74h0Z"/><path class="cls-2" d="M52.74,132.44c.79,6.13,1.58,12.27,2.36,18.4.13,1.03.82,2.05,2,2,1.04-.05,2.05-.88,2-2-.3-6.35-.98-12.68-2-18.95l-3.86,1.06c1.29,7.27,2.54,14.56,3.74,21.85.16.98,1.3,1.55,2.19,1.43.94-.13,1.78-.97,1.73-1.96-.24-5.08-.48-10.16-.72-15.24l-3.93.53c1.5,7.68,2.37,15.27,2.66,23.15l3.93-.53c-.49-3.03-.94-5.99-.67-9.15h-4c.36,6.13.33,12.28-.07,18.4l3.73-1.01c-.38-.69-.74-1.4-1.05-2.13.11.25-.13-.33-.13-.32-.08-.2-.15-.4-.23-.6-.12-.34-.24-.68-.35-1.02-.5-1.54-.87-3.13-1.16-4.72s-.43-2.74-.6-4.45-.27-3.27-.39-4.9c-.07-1.04-.87-2.05-2-2s-1.91.88-2,2c-.31,3.97-.37,7.95-.17,11.93.05,1.04.88,2.05,2,2s1.95-.88,2-2c.12-2.87.48-5.38,1.17-8.2l-3.93-.53c.27,4.24.26,8.5-.04,12.74l2.53-1.93-1.56-.42c-1.95-.52-3.33,1.91-1.95,3.34,1.88,1.94,3.76,3.89,5.63,5.83,1.24,1.29,3.36.27,3.41-1.41.1-2.94.39-5.62.95-8.43s1.37-5.8,1.69-8.78c.6-5.59-.87-11.2-2.97-16.33-1.23-2.99-2.64-5.88-4.09-8.77-.47-.94-1.87-1.28-2.74-.72-.96.62-1.22,1.73-.72,2.74,2.44,4.86,4.75,9.48,5.97,14.81.58,2.51.82,4.87.61,7.58-.2,2.52-.97,5.29-1.52,7.94-.67,3.28-1.07,6.62-1.18,9.96l3.41-1.41c-1.88-1.94-3.76-3.89-5.63-5.83l-1.95,3.34,1.56.42c1.33.36,2.44-.64,2.53-1.93.3-4.24.32-8.5.04-12.74-.06-1-.71-1.83-1.73-1.96-.95-.13-1.96.46-2.19,1.43-.74,3.03-1.18,6.14-1.31,9.26h4c-.19-3.98-.13-7.96.17-11.93h-4c.47,6.89,1.06,13.99,4.45,20.16.41.74,1.44,1.18,2.26.92.88-.28,1.41-1.01,1.47-1.93.4-6.13.43-12.27.07-18.4-.06-1.04-.88-2.05-2-2s-1.9.88-2,2c-.29,3.43.27,6.84.81,10.22.16.98,1.31,1.55,2.19,1.43.95-.13,1.77-.96,1.73-1.96-.3-8.13-1.24-16.23-2.8-24.21-.19-.97-1.28-1.56-2.19-1.43s-1.78.97-1.73,1.96c.24,5.08.48,10.16.72,15.24l3.93-.53c-1.2-7.29-2.44-14.57-3.74-21.85-.18-1.03-1.5-1.71-2.46-1.4-1.12.36-1.58,1.35-1.4,2.46.95,5.87,1.57,11.84,1.85,17.89h4c-.79-6.13-1.58-12.27-2.36-18.4-.13-1.03-.82-2.05-2-2-.97.04-2.14.89-2,2h0Z"/><path class="cls-2" d="M47.42,114.16c-1.82-4.2-3.64-8.39-5.46-12.59-.88-2.03-1.69-4.13-2.7-6.1-.44-.86-1.15-1.66-1.45-2.57s-.21-1.97-.28-2.94c-.18-2.44-.7-4.83-1.56-7.11l-1.83.77c1.31,2.12,2.79,4.14,4.39,6.05.83.99,2.24-.43,1.41-1.41-1.5-1.78-2.85-3.67-4.08-5.65-.57-.92-2.24-.33-1.83.77.75,2,1.27,4.1,1.46,6.24.09,1.06.05,2.13.23,3.18s.7,1.81,1.23,2.67c1.17,1.9,1.95,4.06,2.83,6.1s1.83,4.23,2.75,6.35c1.05,2.42,2.1,4.84,3.15,7.26.21.5.94.61,1.37.36.51-.3.57-.87.36-1.37h0Z"/><path class="cls-2" d="M48.95,140.35c-.8,3.36.43,6.6,1.5,9.75s1.95,6.4,2.63,9.68,1.16,6.57,1.42,9.9c.12,1.52.16,3.07.55,4.55.18.69.45,1.39.83,2,.43.69,1.02,1.24,1.52,1.87.54.69.92,1.51,1.32,2.28.46.89.91,1.77,1.37,2.66.91,1.77,1.83,3.55,2.74,5.32.48.93,1.82.43,1.86-.5.18-4.19-.26-8.4-1.28-12.47-.24-.94-1.7-.96-1.93,0-.5,2.09-.57,4.2-.26,6.33l1.67-.97c-.81-.88-1.63-1.76-2.43-2.66-.86-.96-2.27.46-1.41,1.41.8.89,1.62,1.77,2.43,2.66.75.81,1.8-.08,1.67-.97-.26-1.75-.16-3.54.26-5.26h-1.93c.98,3.91,1.39,7.91,1.21,11.94l1.86-.5c-1.58-3.06-3.07-6.19-4.74-9.2-.71-1.27-1.93-2.2-2.52-3.53-.55-1.26-.62-2.69-.72-4.04-.47-6.52-1.65-12.98-3.61-19.22-1.03-3.3-2.92-6.95-2.08-10.48.3-1.25-1.63-1.79-1.93-.53h0Z"/><path class="cls-2" d="M40.08,190.01c.66,2.18,2.95,3.13,5.09,3.06,2.64-.09,4.86-1.82,7.45-2.18l-1.23-1.23c-.24,1.02-.41,2.15.15,3.1.28.48.74.74,1.1,1.14.33.36.5.82.62,1.29.58,2.26.16,4.78-.7,6.91l1.47-.6c-.88-.65-2.02-.51-2.96-.08-.86.4-1.45,1.15-2.21,1.68s-1.53.34-2.39.09c-.99-.28-2-.53-3.01-.19-.54.18-.81.67-.7,1.23.62,3.16,2.06,6.07,4.11,8.54l.44-1.67c-.73.11-1.24-.84-1.4-1.4-.26-.86-.31-1.78-.48-2.66-.35-1.9-.95-3.74-1.59-5.56-1.25-3.58-2.71-7.19-2.58-11.05.04-1.11-1.75-1.39-1.96-.27-.72,3.84-.21,7.76,1.47,11.29.37.78,1.64.57,1.83-.24.63-2.69.86-5.45.67-8.21l-1.96.27c.43,2.81,1.11,5.57,2.06,8.26.16.47.59.79,1.1.72.44-.07.93-.48.87-.98-.26-2.14-.65-4.26-1.21-6.34l-1.93.53c.87,2.71,1.92,5.36,3.14,7.93.43.92,1.88.44,1.86-.5-.04-2.94-.79-5.79-1.57-8.61l-1.93.53c.82,2.79,1.83,5.51,3.03,8.15.43.95,1.85.42,1.86-.5.03-2.68-.26-5.35-.86-7.96l-1.83.77c.99,1.83,1.98,3.66,2.98,5.48.52.96,1.75.39,1.86-.5.3-2.35.14-4.72-.44-7.01l-1.93.53c.53,1.65,1.06,3.31,1.6,4.96.27.85,1.77,1.05,1.93,0s.25-2.15.23-3.24l-1.96.27,1.08,2.76c.2.5.67.85,1.23.7.48-.13.9-.72.7-1.23l-1.08-2.76c-.39-.99-1.99-.94-1.96.27.02.91-.02,1.81-.16,2.71h1.93c-.53-1.65-1.06-3.31-1.6-4.96-.39-1.22-2.25-.72-1.93.53.54,2.13.65,4.3.37,6.48l1.86-.5c-.99-1.83-1.98-3.66-2.98-5.48-.56-1.02-2.07-.31-1.83.77.56,2.44.82,4.92.79,7.43l1.86-.5c-1.12-2.49-2.06-5.06-2.83-7.68-.36-1.23-2.27-.71-1.93.53.73,2.65,1.46,5.31,1.49,8.08l1.86-.5c-1.14-2.42-2.12-4.91-2.94-7.46-.39-1.22-2.27-.72-1.93.53.52,1.91.91,3.85,1.14,5.81l1.96-.27c-.94-2.68-1.63-5.45-2.06-8.26-.17-1.11-2.04-.85-1.96.27.18,2.58-.01,5.15-.6,7.68l1.83-.24c-1.44-3.01-1.89-6.47-1.27-9.74l-1.96-.27c-.15,4.41,1.62,8.5,3,12.6.69,2.04,1.15,4.07,1.5,6.2s1.69,4.17,4.08,3.8c.82-.13.86-1.16.44-1.67-1.83-2.21-3.04-4.85-3.59-7.66l-.7,1.23c.78-.26,1.55.09,2.31.3.87.24,1.82.38,2.69.05s1.54-.97,2.24-1.57c.48-.41,1.2-.92,1.79-.48s1.25-.07,1.47-.6c.92-2.28,1.22-4.8.84-7.23-.16-1.04-.52-2.05-1.22-2.85-.28-.32-.78-.55-.91-.97s.02-.96.12-1.39c.19-.81-.48-1.33-1.23-1.23-2.25.31-4.16,1.72-6.39,2.06-1.3.2-3.24-.09-3.68-1.54-.37-1.23-2.31-.7-1.93.53h0Z"/><path class="cls-2" d="M42.88,194.81l7.6-.58c.54-.04,1-.43,1-1,0-.51-.46-1.04-1-1l-7.6.58c-.54.04-1,.43-1,1,0,.51.46,1.04,1,1h0Z"/><path class="cls-2" d="M48.34,194.23c.91-.67,2.19-.72,3.12-.03,1.01.75,1.33,2.43,1.4,3.62.03.54.02,1.12-.24,1.61-.28.54-.85.63-1.41.65-1.73.08-3.29.34-4.74,1.35l1.37,1.37c1.53-2.18,3.07-4.36,4.6-6.54l-1.86-.5c.12,1.22.03,2.39-.3,3.57l1.96.27c-.2-2.49-.27-4.99-.19-7.49l-1.96.27c.25,1.11.32,2.27.15,3.4l1.83-.24c-.63-1.44-.9-3-.84-4.57.04-1.13-1.67-1.35-1.96-.27-.48,1.76-1.53,3.35-3.02,4.42l1.47.6s-.01.23-.05.24h-.53c.12.04.2.36.25.48.15.4.26.81.5,1.17.51.77,1.37,1.33,2.31,1.02,1.22-.4.7-2.33-.53-1.93-.05.02.14.11.05.01-.08-.08-.13-.16-.19-.25-.12-.22-.18-.47-.26-.7-.22-.58-.51-1.14-1.04-1.48-1.36-.88-2.71.6-2.42,1.97.13.59.96.97,1.47.6,1.92-1.38,3.31-3.33,3.93-5.62l-1.96-.27c-.06,1.94.34,3.81,1.12,5.58.33.75,1.7.59,1.83-.24.22-1.5.19-2.98-.15-4.46-.26-1.13-1.93-.84-1.96.27-.08,2.5-.02,5,.19,7.49.09,1.08,1.64,1.41,1.96.27.38-1.33.51-2.72.37-4.1-.1-1-1.27-1.35-1.86-.5-1.53,2.18-3.07,4.36-4.6,6.54-.57.81.56,1.93,1.37,1.37s1.66-.93,2.62-1.03c1.03-.11,2.07.03,3.02-.48,1.6-.86,1.89-2.81,1.68-4.45-.24-1.85-.85-3.91-2.58-4.89-1.49-.85-3.49-.84-4.89.18-.44.32-.65.87-.36,1.37.25.43.93.68,1.37.36h0Z"/><path class="cls-2" d="M48.06,201.33c-.44.79-1.45,1.25-2.33.9-.98-.4-1.52-1.55-1.87-2.48-1.07-2.83-1.53-5.83-1.43-8.84.04-1.29-1.96-1.29-2,0-.12,3.57.43,7.56,2.11,10.76.72,1.36,1.89,2.5,3.48,2.66s3.02-.66,3.76-1.98c.63-1.12-1.1-2.13-1.73-1.01h0Z"/><path class="cls-2" d="M61.14,182.13l1.28,2.75c.1.21.38.4.6.46.24.07.56.04.77-.1s.4-.34.46-.6c.06-.28.02-.51-.1-.77-.43-.92-.85-1.84-1.28-2.75-.1-.21-.38-.4-.6-.46-.24-.07-.56-.04-.77.1s-.4.34-.46.6c-.06.28-.02.51.1.77h0Z"/><path class="cls-2" d="M50.27,203.95c.59-.57,1.2-1.12,1.83-1.65.31-.26.62-.52.94-.77.07-.06.15-.12.22-.18.05-.04.09-.07.14-.11.1-.08.02,0-.03.03.18-.1.35-.26.51-.39.22-.16.39-.33.46-.6.07-.24.04-.56-.1-.77-.27-.41-.92-.69-1.37-.36-1.41,1.05-2.75,2.17-4.01,3.38-.38.36-.39,1.05,0,1.41s1.01.39,1.41,0h0Z"/><path d="M13.82,97.81c2.98.8,5.19,3.14,7.35,5.21,2.34,2.25,4.63,4.58,6.37,7.33.26.41.91.03.65-.38-1.82-2.87-4.21-5.29-6.65-7.64-2.2-2.12-4.47-4.43-7.52-5.25-.47-.13-.67.6-.2.72h0Z"/><path d="M28.93,110.54c-.52-3.68-2.73-6.73-4.75-9.74-1.13-1.69-2.17-3.42-3.04-5.27-.94-2.01-1.72-4.08-2.53-6.15-3.25-8.32-6.64-16.61-9.52-25.07s-4.97-16.98-6.11-25.78-1.39-17.42-.92-26.13c.12-2.18.28-4.36.49-6.53.11-1.12.17-2.27.36-3.37.11-.6.33-.71.88-.53.37.12.71.3,1.07.43.69.25,1.32.21,1.98-.08s1.44-.95,2.2-.73c.85.25,1.1,1.4,1.28,2.15.27,1.1.48,2.21.6,3.33s.17,2.24.15,3.36c0,.26.33.49.56.32.48-.35,1.04-.24,1.51.09.55.4.78,1.02.89,1.66.2,1.18.06,2.39.56,3.52.25.57,1.15,1.84,1.9,1.4.83-.49,1.1-1.64.89-2.51-.11-.47-.84-.27-.72.2.09.39.06,1.36-.42,1.56-.38.16-.84-.66-.96-.94-.47-1.03-.33-2.21-.5-3.31-.14-.91-.52-1.75-1.32-2.26-.67-.43-1.53-.53-2.2-.05l.56.32c.04-2.28-.21-4.56-.75-6.77-.33-1.34-1-3.16-2.73-2.82-.76.15-1.37.68-2.1.91-.84.27-1.56-.29-2.33-.53-.57-.17-1.19-.14-1.53.41-.23.37-.23.86-.28,1.28-.07.59-.13,1.18-.2,1.77-.95,9.08-1.12,18.24-.38,27.34s2.39,18.12,5.02,26.86c2.69,8.94,6.22,17.6,9.61,26.29,1.65,4.22,3.1,8.61,5.26,12.6,1.87,3.46,4.64,6.46,6.05,10.17.34.9.58,1.83.72,2.78.07.48.79.27.72-.2h0Z"/><path d="M16.78,15.81c-.24,13.08,3.47,25.79,8.39,37.79s10.96,23.77,16.7,35.51,11.51,23.84,16.25,36.2c2.35,6.12,4.45,12.33,6.21,18.64,1.85,6.64,3.42,13.43,3.56,20.35s-.99,14-.89,21.03,1.05,13.91,2.15,20.8c.27,1.7.55,3.4.83,5.1.08.48.8.27.72-.2-1.16-7-2.32-14.03-2.77-21.12-.22-3.5-.25-7-.06-10.5s.52-6.88.68-10.33c.63-13.42-3.42-26.62-7.91-39.12-4.39-12.23-9.82-24.05-15.46-35.75s-11.71-23.46-17.01-35.45c-5.34-12.09-9.89-24.85-10.58-38.16-.08-1.6-.11-3.2-.08-4.81,0-.48-.74-.48-.75,0h0Z"/><path d="M70.23,216.97c1.7,13.1,3.48,26.19,5.09,39.3,1.58,12.93,2.69,25.99,1.38,38.99-.72,7.1-2.1,14.13-4.09,20.98-.14.46.59.66.72.2,3.6-12.35,5.05-25.15,4.64-38s-2.4-26.18-4.09-39.19c-.97-7.43-1.93-14.86-2.9-22.28-.06-.47-.81-.48-.75,0h0Z"/><path d="M72.31,317.15c-1.54-.74-2.77.73-3.03,2.13-.19,1-.24,2.02-.4,3.03-.14.89-.2,2.18-.88,2.85s-2.14.79-3.07.84c-1.04.05-2.05-.23-3.08-.18-1.68.07-2.63,1.62-2.77,3.15-.1,1.16.18,2.34.36,3.48.21,1.27.42,2.53.62,3.8.03.19.29.33.46.26,1.74-.69,3.73-1.41,5.49-.36.78.46,1.41,1.13,2.05,1.76s1.25,1.23,1.83,1.89c1.21,1.37,2.25,2.97,2.58,4.79.14.77.33,2.12-.44,2.62-.57.37-1.36.38-1.98.66-.44.2-.06.85.38.65.71-.32,1.55-.31,2.18-.8.7-.55.74-1.54.7-2.36-.11-2.1-1.16-4-2.46-5.59-.7-.85-1.48-1.63-2.26-2.39-.71-.69-1.42-1.43-2.29-1.92-1.93-1.1-4.06-.41-5.98.34l.46.26c-.21-1.27-.42-2.53-.62-3.8s-.54-2.53-.27-3.76,1.12-2,2.37-1.92c1.13.08,2.19.25,3.33.12.9-.1,1.96-.24,2.7-.81.8-.61.98-1.65,1.15-2.58.2-1.07.33-2.14.45-3.22.11-.92.65-2.93,2.02-2.27.43.21.81-.44.38-.65h0Z"/><path d="M70.09,348.73c-.14.9.64,1.93.15,2.74-.63,1.05-2.08.91-3.12.82-.23-.02-.45.26-.36.47,1.15,2.83,1.98,5.78,2.49,8.79l.55-.42c-1.51-.88-3.11-1.56-4.8-2.02-.27-.07-.55.19-.46.46,1.42,4.34,4.86,7.49,8.3,10.3.79.64,1.63,1.52,2.66,1.73,1.11.22,2.26-.41,3.19-.94,2.07-1.18,3.65-2.89,4.91-4.89.77-1.22,1.47-2.49,2.44-3.56s2.1-1.9,3.37-2.54c.43-.22.05-.86-.38-.65-1.97.99-3.55,2.47-4.77,4.29-1.3,1.94-2.35,3.95-4.18,5.47-.88.74-1.88,1.37-2.94,1.82-.63.26-1.28.43-1.93.12-.51-.24-.95-.65-1.39-1-1.65-1.34-3.29-2.71-4.76-4.26-1.66-1.76-3.06-3.77-3.82-6.08l-.46.46c1.62.44,3.17,1.09,4.62,1.94.3.18.6-.11.55-.42-.51-3.02-1.34-5.96-2.49-8.79l-.36.47c1.22.11,2.6.14,3.5-.84.32-.35.53-.8.54-1.28.01-.68-.46-1.32-.35-1.99.08-.47-.65-.68-.72-.2h0Z"/><path d="M88.77,359.47c.03,3.04.89,6.04,2.47,8.64.25.41.9.04.65-.38-1.52-2.49-2.34-5.34-2.37-8.26,0-.48-.76-.48-.75,0h0Z"/><path d="M91.56,368.58c.8.67,1.77,1.07,2.82,1.12,1.25.07,2.19-.52,3.31-.96.83-.33,1.44-.2,2.13.35.57.46,1.13.93,1.7,1.4,1.17.97,2.34,1.93,3.51,2.9.37.31.9-.22.53-.53-1.14-.94-2.28-1.88-3.42-2.82-.57-.47-1.14-.94-1.71-1.41-.45-.37-.91-.73-1.5-.82-1.2-.2-2.19.68-3.28,1-1.23.36-2.58.06-3.57-.76-.37-.31-.9.22-.53.53h0Z"/><path d="M105.6,373.11c-1.96,4.04-3.32,8.35-3.98,12.79-.7,4.73-.63,9.53-.6,14.3,0,.71,0,1.41.01,2.12,0,.52-.14,1.3.09,1.78.29.6,1.2.31.95-.33-.06-.16-.18-.27-.36-.28h-.06c-.48-.02-.48.73,0,.75h.06c-.12-.09-.24-.18-.36-.27l.22-.14c.18-.03.26-.12.22-.26.03-.1,0-.27,0-.37,0-.25,0-.5,0-.75,0-.54,0-1.08-.01-1.62,0-1.07-.01-2.14-.02-3.2,0-2.03,0-4.05.09-6.07.18-4,.76-7.95,1.93-11.79.66-2.15,1.49-4.25,2.47-6.27.21-.43-.44-.81-.65-.38h0Z"/><path d="M57.25,407.02c3.92-.36,6.72-3.35,8.6-6.57.24-.42-.4-.8-.65-.38-1.73,2.96-4.32,5.86-7.95,6.2-.48.04-.48.79,0,.75h0Z"/><path d="M65.49,400.38c3.26,2.88,7.83,3.42,12,3.81,5.15.48,10.34.44,15.51.2,2.96-.14,5.92-.34,8.87-.54.48-.03.48-.78,0-.75-5.01.34-10.02.68-15.04.71s-9.7-.1-14.4-1.07c-2.32-.48-4.61-1.3-6.42-2.89-.36-.32-.89.21-.53.53h0Z"/><path d="M131.41,150.55c.48,0,.48-.75,0-.75s-.48.75,0,.75h0Z"/><path d="M13.8,97.68c1.07,2.84,2.17,5.73,3.96,8.21s4.5,4.23,6.73,6.39c4.35,4.23,7.44,9.55,11.76,13.8,1.19,1.17,2.52,2.29,3.28,3.81.83,1.66.93,3.57,1.02,5.39.03.48.78.48.75,0-.08-1.51-.16-3.06-.62-4.51s-1.27-2.58-2.28-3.63-2.2-2.13-3.23-3.27-1.97-2.3-2.91-3.49c-1.9-2.4-3.72-4.87-5.79-7.13-1.06-1.15-2.18-2.22-3.38-3.22s-2.52-2.02-3.62-3.21c-2.42-2.63-3.72-6.05-4.97-9.34-.17-.45-.89-.25-.72.2h0Z"/><path d="M40.82,135c.31,2.48-.15,4.92-.57,7.35s-.65,4.82-.74,7.26c-.18,4.95-.2,9.9-.29,14.85s-.18,10.02-.27,15.03-.29,9.86-.13,14.79c.09,2.57.51,5,1.49,7.38.93,2.26,2.1,4.43,2.56,6.85.09.47.81.27.72-.2-.4-2.09-1.32-4.01-2.17-5.95-.95-2.16-1.61-4.32-1.78-6.69s-.12-4.83-.09-7.24.08-4.97.12-7.45c.18-9.88.3-19.77.53-29.65.06-2.78.22-5.55.68-8.29s1.02-5.33.68-8.03c-.06-.47-.81-.48-.75,0h0Z"/><path d="M42.46,207.68c2.03,5.63,3.08,11.55,3.83,17.47s1.38,12.2,2.06,18.3,1.47,12.43,1.52,18.69-.72,12-1.24,17.99c-.57,6.64-.81,13.38.75,19.92.11.47.84.27.72-.2-2.83-11.88.31-24.02.51-36,.1-6.25-.64-12.48-1.32-18.68s-1.3-12.19-2.03-18.27c-.78-6.58-1.82-13.16-4.07-19.42-.16-.45-.89-.26-.72.2h0Z"/><path d="M49.21,299.47c1.43,13.07,2.91,26.13,4.24,39.21s2.47,26.23,2.96,39.39c.27,7.42.34,14.85.2,22.28,0,.48.74.48.75,0,.25-13.17-.2-26.33-1.16-39.46s-2.39-26.23-3.82-39.33c-.81-7.36-1.61-14.73-2.42-22.09-.05-.47-.8-.48-.75,0h0Z"/><path d="M57.02,399.71c-.18,2.43-.27,4.87-.26,7.31,0,.48.74.48.75,0,0-.18,0-.35,0-.53,0-.48-.74-.48-.75,0,0,.18,0,.35,0,.53h.75c0-2.44.08-4.88.26-7.31.04-.48-.71-.48-.75,0h0Z"/></g></g></svg>