<svg width="234" height="232" viewBox="0 0 234 232" fill="none" xmlns="http://www.w3.org/2000/svg">
<path d="M117.512 116.077L95.4725 229.312C83.68 227.065 72.3091 223.028 61.7644 217.344C51.2197 211.66 41.625 204.397 33.323 195.816L117.517 116.077H117.512Z" fill="#8496A4"/>
<path d="M117.456 116.021L33.3343 195.832C12.5316 174.371 0.907715 145.758 0.907715 116.021C0.907715 52.7608 53.5187 0.706543 117.456 0.706543V116.021Z" fill="#E7D0A6"/>
<path d="M117.147 116.01L117.45 0.695312C181.269 0.856592 233.695 52.8608 233.695 116.01C233.695 179.159 181.084 231.325 117.147 231.325C109.862 231.325 102.594 230.652 95.439 229.306L117.147 116.01Z" fill="#9C9167"/>
<path d="M149.212 122.556L152.437 121.831C152.512 123.331 153.662 124.556 155.387 124.556C156.937 124.556 158.187 123.531 158.187 121.906C158.187 120.056 156.812 119.181 155.312 119.181C154.212 119.181 153.337 119.681 152.812 120.281C152.487 120.156 150.012 119.306 149.662 119.206L151.587 110.881H160.737V113.856H153.937L153.137 117.431C153.837 116.781 154.987 116.431 156.062 116.431C159.312 116.431 161.612 118.381 161.612 121.856C161.612 124.881 159.287 127.506 155.387 127.506C151.862 127.506 149.412 125.106 149.212 122.556ZM167.679 119.906L166.154 117.506L170.404 113.856H163.304V110.881H174.779V113.656L170.579 117.156C173.029 117.256 175.279 119.131 175.279 122.106C175.279 124.906 172.979 127.481 169.054 127.481C165.279 127.481 162.979 125.031 162.779 122.306L166.104 121.656C166.179 123.306 167.354 124.506 169.054 124.506C170.779 124.506 171.804 123.406 171.804 122.056C171.804 120.531 170.704 119.656 169.154 119.656C168.454 119.656 168.029 119.781 167.679 119.906ZM179.552 114.706C179.552 115.756 180.277 116.456 181.202 116.456C182.152 116.456 182.852 115.731 182.852 114.706C182.852 113.681 182.152 112.981 181.202 112.981C180.277 112.981 179.552 113.681 179.552 114.706ZM177.052 114.706C177.052 112.406 178.952 110.606 181.202 110.606C183.452 110.606 185.377 112.406 185.377 114.706C185.377 117.031 183.452 118.781 181.202 118.781C178.927 118.781 177.052 116.981 177.052 114.706ZM190.477 123.306C190.477 124.356 191.202 125.056 192.127 125.056C193.077 125.056 193.777 124.331 193.777 123.306C193.777 122.281 193.077 121.581 192.127 121.581C191.202 121.581 190.477 122.281 190.477 123.306ZM187.977 123.306C187.977 121.006 189.877 119.206 192.127 119.206C194.377 119.206 196.302 121.006 196.302 123.306C196.302 125.631 194.377 127.381 192.127 127.381C189.852 127.381 187.977 125.581 187.977 123.306ZM182.402 127.106H179.502L190.952 110.881H193.852L182.402 127.106Z" fill="#733015"/>
<path d="M43.5546 92.9519L42.0296 90.5519L46.2796 86.9019H39.1796V83.9269H50.6546V86.7019L46.4546 90.2019C48.9046 90.3019 51.1546 92.1769 51.1546 95.1519C51.1546 97.9519 48.8546 100.527 44.9296 100.527C41.1546 100.527 38.8546 98.0769 38.6546 95.3519L41.9796 94.7019C42.0546 96.3519 43.2296 97.5519 44.9296 97.5519C46.6546 97.5519 47.6796 96.4519 47.6796 95.1019C47.6796 93.5769 46.5796 92.7019 45.0296 92.7019C44.3296 92.7019 43.9046 92.8269 43.5546 92.9519ZM64.5462 83.9269V86.8019C63.3212 87.8519 58.7712 91.9769 58.0462 100.152H54.4712C55.1462 91.4269 60.5712 86.9019 60.5712 86.9019H52.2212V83.9269H64.5462ZM68.2694 87.7519C68.2694 88.8019 68.9944 89.5019 69.9194 89.5019C70.8694 89.5019 71.5694 88.7769 71.5694 87.7519C71.5694 86.7269 70.8694 86.0269 69.9194 86.0269C68.9944 86.0269 68.2694 86.7269 68.2694 87.7519ZM65.7694 87.7519C65.7694 85.4519 67.6694 83.6519 69.9194 83.6519C72.1694 83.6519 74.0944 85.4519 74.0944 87.7519C74.0944 90.0769 72.1694 91.8269 69.9194 91.8269C67.6444 91.8269 65.7694 90.0269 65.7694 87.7519ZM79.1944 96.3519C79.1944 97.4019 79.9194 98.1019 80.8444 98.1019C81.7944 98.1019 82.4944 97.3769 82.4944 96.3519C82.4944 95.3269 81.7944 94.6269 80.8444 94.6269C79.9194 94.6269 79.1944 95.3269 79.1944 96.3519ZM76.6944 96.3519C76.6944 94.0519 78.5944 92.2519 80.8444 92.2519C83.0944 92.2519 85.0194 94.0519 85.0194 96.3519C85.0194 98.6769 83.0944 100.427 80.8444 100.427C78.5694 100.427 76.6944 98.6269 76.6944 96.3519ZM71.1194 100.152H68.2194L79.6694 83.9269H82.5694L71.1194 100.152Z" fill="#733015"/>
<path d="M57.6674 201.862H54.2424V191.012H50.3424V188.687C52.7174 188.662 54.3674 187.337 54.6924 185.637H57.6674V201.862ZM64.223 193.762C64.223 195.462 64.473 196.912 65.098 197.887C65.598 198.687 66.373 199.212 67.548 199.212C68.748 199.212 69.473 198.687 69.973 197.887C70.623 196.912 70.873 195.462 70.873 193.762C70.873 192.062 70.623 190.612 69.973 189.637C69.473 188.837 68.748 188.312 67.548 188.312C66.373 188.312 65.598 188.837 65.098 189.637C64.473 190.612 64.223 192.062 64.223 193.762ZM60.773 193.762C60.773 191.687 61.098 189.662 62.198 187.987C63.273 186.387 65.023 185.262 67.548 185.262C70.073 185.262 71.823 186.387 72.873 187.987C73.973 189.662 74.323 191.687 74.323 193.762C74.323 195.837 73.973 197.862 72.873 199.537C71.823 201.137 70.073 202.262 67.548 202.262C65.023 202.262 63.273 201.137 62.198 199.537C61.098 197.862 60.773 195.837 60.773 193.762ZM78.4604 189.462C78.4604 190.512 79.1854 191.212 80.1104 191.212C81.0604 191.212 81.7604 190.487 81.7604 189.462C81.7604 188.437 81.0604 187.737 80.1104 187.737C79.1854 187.737 78.4604 188.437 78.4604 189.462ZM75.9604 189.462C75.9604 187.162 77.8604 185.362 80.1104 185.362C82.3604 185.362 84.2854 187.162 84.2854 189.462C84.2854 191.787 82.3604 193.537 80.1104 193.537C77.8354 193.537 75.9604 191.737 75.9604 189.462ZM89.3854 198.062C89.3854 199.112 90.1104 199.812 91.0354 199.812C91.9854 199.812 92.6854 199.087 92.6854 198.062C92.6854 197.037 91.9854 196.337 91.0354 196.337C90.1104 196.337 89.3854 197.037 89.3854 198.062ZM86.8854 198.062C86.8854 195.762 88.7854 193.962 91.0354 193.962C93.2854 193.962 95.2104 195.762 95.2104 198.062C95.2104 200.387 93.2854 202.137 91.0354 202.137C88.7604 202.137 86.8854 200.337 86.8854 198.062ZM81.3104 201.862H78.4104L89.8604 185.637H92.7604L81.3104 201.862Z" fill="#733015"/>
</svg>
