<svg width="230" height="228" viewBox="0 0 230 228" fill="none" xmlns="http://www.w3.org/2000/svg">
<path d="M115 114.279L47.2496 205.924C17.7689 184.549 0.312744 150.46 0.312744 114.279C0.312744 52.0121 52.0174 0.755569 114.889 0.695312L115 114.279Z" fill="#E7D0A6"/>
<path d="M115 114.279L115.691 227.857C115.459 227.857 115.232 227.857 115 227.857C90.641 227.857 66.9071 220.172 47.2551 205.924L115 114.273V114.279Z" fill="#8496A4"/>
<path d="M115 114.279L114.635 0.695312C114.757 0.695312 114.878 0.695312 115 0.695312C177.916 0.695312 229.687 51.9682 229.687 114.279C229.687 176.59 178.32 227.507 115.653 227.857L115 114.279Z" fill="#9C9167"/>
<path d="M150.282 116.912L153.507 116.187C153.582 117.687 154.732 118.912 156.457 118.912C158.007 118.912 159.257 117.887 159.257 116.262C159.257 114.412 157.882 113.537 156.382 113.537C155.282 113.537 154.407 114.037 153.882 114.637C153.557 114.512 151.082 113.662 150.732 113.562L152.657 105.237H161.807V108.212H155.007L154.207 111.787C154.907 111.137 156.057 110.787 157.132 110.787C160.382 110.787 162.682 112.737 162.682 116.212C162.682 119.237 160.357 121.862 156.457 121.862C152.932 121.862 150.482 119.462 150.282 116.912ZM167.801 113.362C167.801 115.062 168.051 116.512 168.676 117.487C169.176 118.287 169.951 118.812 171.126 118.812C172.326 118.812 173.051 118.287 173.551 117.487C174.201 116.512 174.451 115.062 174.451 113.362C174.451 111.662 174.201 110.212 173.551 109.237C173.051 108.437 172.326 107.912 171.126 107.912C169.951 107.912 169.176 108.437 168.676 109.237C168.051 110.212 167.801 111.662 167.801 113.362ZM164.351 113.362C164.351 111.287 164.676 109.262 165.776 107.587C166.851 105.987 168.601 104.862 171.126 104.862C173.651 104.862 175.401 105.987 176.451 107.587C177.551 109.262 177.901 111.287 177.901 113.362C177.901 115.437 177.551 117.462 176.451 119.137C175.401 120.737 173.651 121.862 171.126 121.862C168.601 121.862 166.851 120.737 165.776 119.137C164.676 117.462 164.351 115.437 164.351 113.362ZM182.039 109.062C182.039 110.112 182.764 110.812 183.689 110.812C184.639 110.812 185.339 110.087 185.339 109.062C185.339 108.037 184.639 107.337 183.689 107.337C182.764 107.337 182.039 108.037 182.039 109.062ZM179.539 109.062C179.539 106.762 181.439 104.962 183.689 104.962C185.939 104.962 187.864 106.762 187.864 109.062C187.864 111.387 185.939 113.137 183.689 113.137C181.414 113.137 179.539 111.337 179.539 109.062ZM192.964 117.662C192.964 118.712 193.689 119.412 194.614 119.412C195.564 119.412 196.264 118.687 196.264 117.662C196.264 116.637 195.564 115.937 194.614 115.937C193.689 115.937 192.964 116.637 192.964 117.662ZM190.464 117.662C190.464 115.362 192.364 113.562 194.614 113.562C196.864 113.562 198.789 115.362 198.789 117.662C198.789 119.987 196.864 121.737 194.614 121.737C192.339 121.737 190.464 119.937 190.464 117.662ZM184.889 121.462H181.989L193.439 105.237H196.339L184.889 121.462Z" fill="#733015"/>
<path d="M35.6469 103.244V99.6442L42.4719 90.4942H46.7219V100.294H49.3969V103.244H46.7219V106.719H43.3219V103.244H35.6469ZM43.3219 100.294V94.0942L38.6969 100.294H43.3219ZM54.2389 98.6192C54.2389 100.319 54.4889 101.769 55.1139 102.744C55.6139 103.544 56.3889 104.069 57.5639 104.069C58.7639 104.069 59.4889 103.544 59.9889 102.744C60.6389 101.769 60.8889 100.319 60.8889 98.6192C60.8889 96.9192 60.6389 95.4692 59.9889 94.4942C59.4889 93.6942 58.7639 93.1692 57.5639 93.1692C56.3889 93.1692 55.6139 93.6942 55.1139 94.4942C54.4889 95.4692 54.2389 96.9192 54.2389 98.6192ZM50.7889 98.6192C50.7889 96.5442 51.1139 94.5192 52.2139 92.8442C53.2889 91.2442 55.0389 90.1192 57.5639 90.1192C60.0889 90.1192 61.8389 91.2442 62.8889 92.8442C63.9889 94.5192 64.3389 96.5442 64.3389 98.6192C64.3389 100.694 63.9889 102.719 62.8889 104.394C61.8389 105.994 60.0889 107.119 57.5639 107.119C55.0389 107.119 53.2889 105.994 52.2139 104.394C51.1139 102.719 50.7889 100.694 50.7889 98.6192ZM68.4762 94.3192C68.4762 95.3692 69.2012 96.0692 70.1262 96.0692C71.0762 96.0692 71.7762 95.3442 71.7762 94.3192C71.7762 93.2942 71.0762 92.5942 70.1262 92.5942C69.2012 92.5942 68.4762 93.2942 68.4762 94.3192ZM65.9762 94.3192C65.9762 92.0192 67.8762 90.2192 70.1262 90.2192C72.3762 90.2192 74.3012 92.0192 74.3012 94.3192C74.3012 96.6442 72.3762 98.3942 70.1262 98.3942C67.8512 98.3942 65.9762 96.5942 65.9762 94.3192ZM79.4012 102.919C79.4012 103.969 80.1262 104.669 81.0512 104.669C82.0012 104.669 82.7012 103.944 82.7012 102.919C82.7012 101.894 82.0012 101.194 81.0512 101.194C80.1262 101.194 79.4012 101.894 79.4012 102.919ZM76.9012 102.919C76.9012 100.619 78.8012 98.8192 81.0512 98.8192C83.3012 98.8192 85.2262 100.619 85.2262 102.919C85.2262 105.244 83.3012 106.994 81.0512 106.994C78.7762 106.994 76.9012 105.194 76.9012 102.919ZM71.3262 106.719H68.4262L79.8762 90.4942H82.7762L71.3262 106.719Z" fill="#733015"/>
<path d="M71.8998 207.297H68.4748V196.447H64.5748V194.122C66.9498 194.097 68.5998 192.772 68.9248 191.072H71.8998V207.297ZM78.4555 199.197C78.4555 200.897 78.7055 202.347 79.3305 203.322C79.8305 204.122 80.6055 204.647 81.7805 204.647C82.9805 204.647 83.7055 204.122 84.2055 203.322C84.8555 202.347 85.1055 200.897 85.1055 199.197C85.1055 197.497 84.8555 196.047 84.2055 195.072C83.7055 194.272 82.9805 193.747 81.7805 193.747C80.6055 193.747 79.8305 194.272 79.3305 195.072C78.7055 196.047 78.4555 197.497 78.4555 199.197ZM75.0055 199.197C75.0055 197.122 75.3305 195.097 76.4305 193.422C77.5055 191.822 79.2555 190.697 81.7805 190.697C84.3055 190.697 86.0555 191.822 87.1055 193.422C88.2055 195.097 88.5555 197.122 88.5555 199.197C88.5555 201.272 88.2055 203.297 87.1055 204.972C86.0555 206.572 84.3055 207.697 81.7805 207.697C79.2555 207.697 77.5055 206.572 76.4305 204.972C75.3305 203.297 75.0055 201.272 75.0055 199.197ZM92.6928 194.897C92.6928 195.947 93.4178 196.647 94.3428 196.647C95.2928 196.647 95.9928 195.922 95.9928 194.897C95.9928 193.872 95.2928 193.172 94.3428 193.172C93.4178 193.172 92.6928 193.872 92.6928 194.897ZM90.1928 194.897C90.1928 192.597 92.0928 190.797 94.3428 190.797C96.5928 190.797 98.5178 192.597 98.5178 194.897C98.5178 197.222 96.5928 198.972 94.3428 198.972C92.0678 198.972 90.1928 197.172 90.1928 194.897ZM103.618 203.497C103.618 204.547 104.343 205.247 105.268 205.247C106.218 205.247 106.918 204.522 106.918 203.497C106.918 202.472 106.218 201.772 105.268 201.772C104.343 201.772 103.618 202.472 103.618 203.497ZM101.118 203.497C101.118 201.197 103.018 199.397 105.268 199.397C107.518 199.397 109.443 201.197 109.443 203.497C109.443 205.822 107.518 207.572 105.268 207.572C102.993 207.572 101.118 205.772 101.118 203.497ZM95.5428 207.297H92.6428L104.093 191.072H106.993L95.5428 207.297Z" fill="#733015"/>
</svg>
