<svg width="234" height="232" viewBox="0 0 234 232" fill="none" xmlns="http://www.w3.org/2000/svg">
<path d="M117.036 116.137L42.8422 205.01C33.3674 197.254 25.198 188.062 18.6271 177.774C12.0561 167.487 7.17216 156.235 4.15771 144.43L117.036 116.137Z" fill="#8496A4"/>
<path d="M116.981 116.083L4.13004 144.48C1.74613 135.201 0.545898 125.658 0.545898 116.083C0.545898 52.8243 53.1079 0.768066 116.981 0.768066C117.125 0.768066 117.269 0.768066 117.407 0.768066L116.981 116.083Z" fill="#E7D0A6"/>
<path d="M116.892 116.077L117.44 0.762207C181.108 1.05801 233.333 53.0211 233.333 116.077C233.333 179.133 180.771 231.392 116.898 231.392C89.8785 231.392 63.6777 222.074 42.8311 205.054L116.898 116.077H116.892Z" fill="#9C9167"/>
<path d="M28.4218 169.48H24.9968V158.63H21.0968V156.305C23.4718 156.28 25.1218 154.955 25.4468 153.255H28.4218V169.48ZM34.9774 161.38C34.9774 163.08 35.2274 164.53 35.8524 165.505C36.3524 166.305 37.1274 166.83 38.3024 166.83C39.5024 166.83 40.2274 166.305 40.7274 165.505C41.3774 164.53 41.6274 163.08 41.6274 161.38C41.6274 159.68 41.3774 158.23 40.7274 157.255C40.2274 156.455 39.5024 155.93 38.3024 155.93C37.1274 155.93 36.3524 156.455 35.8524 157.255C35.2274 158.23 34.9774 159.68 34.9774 161.38ZM31.5274 161.38C31.5274 159.305 31.8524 157.28 32.9524 155.605C34.0274 154.005 35.7774 152.88 38.3024 152.88C40.8274 152.88 42.5774 154.005 43.6274 155.605C44.7274 157.28 45.0774 159.305 45.0774 161.38C45.0774 163.455 44.7274 165.48 43.6274 167.155C42.5774 168.755 40.8274 169.88 38.3024 169.88C35.7774 169.88 34.0274 168.755 32.9524 167.155C31.8524 165.48 31.5274 163.455 31.5274 161.38ZM49.2147 157.08C49.2147 158.13 49.9397 158.83 50.8647 158.83C51.8147 158.83 52.5147 158.105 52.5147 157.08C52.5147 156.055 51.8147 155.355 50.8647 155.355C49.9397 155.355 49.2147 156.055 49.2147 157.08ZM46.7147 157.08C46.7147 154.78 48.6147 152.98 50.8647 152.98C53.1147 152.98 55.0397 154.78 55.0397 157.08C55.0397 159.405 53.1147 161.155 50.8647 161.155C48.5897 161.155 46.7147 159.355 46.7147 157.08ZM60.1397 165.68C60.1397 166.73 60.8647 167.43 61.7897 167.43C62.7397 167.43 63.4397 166.705 63.4397 165.68C63.4397 164.655 62.7397 163.955 61.7897 163.955C60.8647 163.955 60.1397 164.655 60.1397 165.68ZM57.6397 165.68C57.6397 163.38 59.5397 161.58 61.7897 161.58C64.0397 161.58 65.9647 163.38 65.9647 165.68C65.9647 168.005 64.0397 169.755 61.7897 169.755C59.5147 169.755 57.6397 167.955 57.6397 165.68ZM52.0647 169.48H49.1647L60.6147 153.255H63.5147L52.0647 169.48Z" fill="#733015"/>
<path d="M42.1475 76.7009L38.8725 76.6009C38.8225 76.3759 38.7475 75.8759 38.7475 75.4759C38.7475 72.6259 40.8975 70.0509 44.6725 70.0509C48.2975 70.0509 50.5225 72.4509 50.5225 75.2759C50.5225 77.3759 49.3725 79.0759 47.3725 80.3009L44.2475 82.2009C43.6225 82.6009 43.0975 83.0509 42.8475 83.6759H50.6225V86.6509H38.6225C38.6475 83.8009 39.5475 81.4759 42.4475 79.7259L45.1225 78.1259C46.4975 77.3009 47.0475 76.4509 47.0475 75.3259C47.0475 74.1509 46.2225 73.1009 44.5975 73.1009C42.8725 73.1009 42.0225 74.2759 42.0225 75.8009C42.0225 76.1009 42.0725 76.4259 42.1475 76.7009ZM52.7217 86.1259L53.5717 83.3509C54.1467 83.6759 55.3217 84.0509 56.4467 84.0509C59.3967 84.0509 61.3717 82.4259 61.5967 79.4509C60.9217 80.4759 59.5467 81.2009 57.8467 81.2009C54.8217 81.2009 52.2467 79.1009 52.2467 75.7509C52.2467 72.4259 54.8717 70.0509 58.4717 70.0509C61.9967 70.0509 64.9467 72.5509 64.9467 77.7259C64.9467 83.5759 62.0217 87.0259 56.4717 87.0259C55.0967 87.0259 53.5717 86.6509 52.7217 86.1259ZM61.1467 75.6509C61.1467 74.0509 59.8717 72.9759 58.3467 72.9759C56.8467 72.9759 55.5717 74.0509 55.5717 75.6509C55.5717 77.2759 56.8217 78.3259 58.3467 78.3259C59.8717 78.3259 61.1467 77.2509 61.1467 75.6509ZM69.0836 74.2509C69.0836 75.3009 69.8086 76.0009 70.7336 76.0009C71.6836 76.0009 72.3836 75.2759 72.3836 74.2509C72.3836 73.2259 71.6836 72.5259 70.7336 72.5259C69.8086 72.5259 69.0836 73.2259 69.0836 74.2509ZM66.5836 74.2509C66.5836 71.9509 68.4836 70.1509 70.7336 70.1509C72.9836 70.1509 74.9086 71.9509 74.9086 74.2509C74.9086 76.5759 72.9836 78.3259 70.7336 78.3259C68.4586 78.3259 66.5836 76.5259 66.5836 74.2509ZM80.0086 82.8509C80.0086 83.9009 80.7336 84.6009 81.6586 84.6009C82.6086 84.6009 83.3086 83.8759 83.3086 82.8509C83.3086 81.8259 82.6086 81.1259 81.6586 81.1259C80.7336 81.1259 80.0086 81.8259 80.0086 82.8509ZM77.5086 82.8509C77.5086 80.5509 79.4086 78.7509 81.6586 78.7509C83.9086 78.7509 85.8336 80.5509 85.8336 82.8509C85.8336 85.1759 83.9086 86.9259 81.6586 86.9259C79.3836 86.9259 77.5086 85.1259 77.5086 82.8509ZM71.9336 86.6509H69.0336L80.4836 70.4259H83.3836L71.9336 86.6509Z" fill="#733015"/>
<path d="M163.735 117.748L162.785 120.548C162.085 120.248 161.135 119.973 160.11 119.973C157.36 119.973 155.11 121.573 154.735 124.623C155.335 123.723 156.685 122.823 158.585 122.823C161.91 122.823 164.185 124.923 164.185 128.273C164.185 131.598 161.485 133.973 157.91 133.973C154.36 133.973 151.335 131.423 151.335 126.523C151.335 120.698 154.985 116.998 160.335 116.998C161.835 116.998 163.06 117.348 163.735 117.748ZM155.035 128.348C155.035 129.998 156.385 131.073 157.885 131.073C159.46 131.073 160.76 130.023 160.76 128.348C160.76 126.673 159.46 125.648 157.885 125.648C156.335 125.648 155.035 126.673 155.035 128.348ZM172.643 133.598H169.218V122.748H165.318V120.423C167.693 120.398 169.343 119.073 169.668 117.373H172.643V133.598ZM177.958 121.198C177.958 122.248 178.683 122.948 179.608 122.948C180.558 122.948 181.258 122.223 181.258 121.198C181.258 120.173 180.558 119.473 179.608 119.473C178.683 119.473 177.958 120.173 177.958 121.198ZM175.458 121.198C175.458 118.898 177.358 117.098 179.608 117.098C181.858 117.098 183.783 118.898 183.783 121.198C183.783 123.523 181.858 125.273 179.608 125.273C177.333 125.273 175.458 123.473 175.458 121.198ZM188.883 129.798C188.883 130.848 189.608 131.548 190.533 131.548C191.483 131.548 192.183 130.823 192.183 129.798C192.183 128.773 191.483 128.073 190.533 128.073C189.608 128.073 188.883 128.773 188.883 129.798ZM186.383 129.798C186.383 127.498 188.283 125.698 190.533 125.698C192.783 125.698 194.708 127.498 194.708 129.798C194.708 132.123 192.783 133.873 190.533 133.873C188.258 133.873 186.383 132.073 186.383 129.798ZM180.808 133.598H177.908L189.358 117.373H192.258L180.808 133.598Z" fill="#733015"/>
</svg>
