<?xml version="1.0" encoding="UTF-8"?><svg id="Laag_2" xmlns="http://www.w3.org/2000/svg" viewBox="0 0 43.66 42.93"><defs><style>.cls-1{fill:#f6eede;}.cls-2{isolation:isolate;}.cls-3{fill:#274860;}.cls-4{fill:#9d9267;}.cls-5{fill:#8597a5;}</style></defs><g id="Laag_1-2"><g class="cls-2"><g id="fairtrade"><path class="cls-3" d="M19.66,13.91c-.79,1.63-1.31,3.36-1.73,5.1-.32,1.47-.63,3-1.21,4.42l.42-.95c-.11.26-.26.53-.37.79l5.41-1.42c-.11,0-.16-.05-.21-.11l.79.63c-.05,0-.11-.11-.16-.16.21.26.42.53.63.79-.05-.11-.16-.21-.21-.37l.42.95c-.26-.68-.32-1.47-.42-2.16s-.26-1.73-.37-2.63c-.26-1.73-.53-3.52-.79-5.26s-1.05-1.94-1.79-2.37-1.63-.58-2.52-.47c-1.94.26-3.36,1.89-3.42,3.89s0,5.47.21,8.15c.11,1.05.37,2,1.16,2.79s1.79,1.21,2.79,1.16,2.1-.37,2.79-1.16,1.26-1.73,1.16-2.79c-.21-2.73-.32-5.41-.21-8.15-2.58.37-5.15.68-7.73,1.05.32,2.1.63,4.21.95,6.31.37,2.42.42,5.52,3.05,6.73.95.42,2,.74,3.05.42s1.89-.89,2.37-1.79c.84-1.63,1.42-3.36,1.79-5.15s.63-3.05,1.21-4.52l-.42.95c.11-.21.21-.42.32-.63.47-.95.68-2,.42-3.05-.26-.89-.95-1.89-1.79-2.37-.89-.47-2-.74-3.05-.42s-1.89.89-2.37,1.79h-.16Z"/><path class="cls-3" d="M2.68,8.6c-.79,9.15-1.26,18.34-1.37,27.6,0,1.79,1.26,3.26,2.89,3.78,4.31,1.42,8.83,2.21,13.35,2.31s4.26-.16,6.41-.26,4.42.21,6.62.47,4.42.37,6.62.42,3.94-.68,4.89-2.52c.58-1.16.74-2.52.89-3.78.68-4.63.89-9.3.37-13.93-.26-2.47-.74-4.89-.68-7.41.11-2.63.79-5.2-.16-7.83-.58-1.58-2-3-3.78-2.89s-3.42,1.16-3.78,2.89c-1.37,6.31-3.1,12.56-5.26,18.66h7.62c-.47-3.31-.89-6.57-1.37-9.88-.11-.89-1.05-1.94-1.79-2.37-.79-.42-1.63-.58-2.52-.47-1.84.26-3.52,1.89-3.42,3.89.26,5.57.53,11.2.79,16.77,2.47-.68,4.89-1.31,7.36-2-.05-.16-.11-.32-.21-.47l.42.95c-1.89-4.52-2.89-9.36-3.84-14.14s-2.52-3.05-4.31-2.84-3.52,1.89-3.42,3.89c.32,5.73.63,11.46.68,17.24,2.26-.95,4.47-1.84,6.73-2.79-.37-.37-.68-.68-1-1.05s-.37-.42-.53-.63-.32-.42,0,.05,0,0-.05-.11c-.58-.84-1.16-1.68-1.68-2.52-1.1-1.79-2.05-3.57-3.21-5.31-.74-1.1-1.47-2.16-2.31-3.15-1-1.21-2.05-2.31-3.57-2.84-2.05-.74-4.21.11-5.52,1.79-1,1.31-1.26,2.84-1.37,4.47-.16,2.89-.37,5.78-.53,8.67l7.73-1.05c-.74-2.47-1.52-4.94-2.26-7.41s-1.37-5.26-3.42-6.94-2.73-1.47-4.31-.84-2.37,2-2.42,3.63c-.16,4.42.16,8.73.74,13.09l7.62-2.1c-.89-3.15-1.79-6.31-2.68-9.46-2.52.68-5.05,1.42-7.62,2.1,1.37,3.94,3,7.78,4.84,11.46.95,1.84,3.68,2.52,5.41,1.42s2.42-3.42,1.42-5.41c-.84-1.68-1.68-3.42-2.42-5.2.16.32.26.63.42.95-.74-1.73-1.42-3.52-2.05-5.36-.68-1.94-2.73-3.42-4.84-2.73s-3.36,2.73-2.73,4.84c.89,3.15,1.79,6.31,2.68,9.46s2.79,3.42,4.84,2.73,1.89-.89,2.37-1.79c.53-1,.53-1.94.42-3.05v-.26c0,.37.05.68.11,1.05-.53-3.89-.68-7.88-.58-11.83-2.26.95-4.47,1.84-6.73,2.79.16.11.26.26.42.37.42.42-.42-.68-.21-.26s.37.63.47.95c-.16-.32-.26-.63-.42-.95.68,1.63,1.1,3.42,1.63,5.1s1.16,3.78,1.73,5.62c.58,1.89,2.37,3.1,4.31,2.84s3.31-1.89,3.42-3.89c.21-3.1.26-6.26.58-9.36l-.16,1.05c0-.32.11-.63.26-.95-.16.32-.26.63-.42.95.11-.16.37-.58-.11,0-.26.26-.32.37-.16.21.21-.21,0-.11-.53.42l-.95.42c.11,0,.16-.05.26-.11l-1.05.16h.32l-1.05-.16c.11,0,.21.05.37.11l-.95-.42c.26.16.21.11-.11-.11q-.32-.26-.11-.05c.11.11.21.26.37.37.26.26.53.58.74.84s.21.26.32.42c.32.37-.58-.74-.16-.21s.47.63.68.95c.84,1.26,1.58,2.52,2.37,3.84,1.63,2.79,3.36,5.62,5.68,7.94,1.16,1.1,2.84,1.42,4.31.84s2.42-2.05,2.42-3.63c-.05-5.73-.37-11.46-.68-17.24-2.58.37-5.15.68-7.73,1.05,1.1,5.31,2.31,10.51,4.47,15.51.32.74,1.16,1.31,1.89,1.63s1.73.47,2.58.21c1.58-.53,3-2.05,2.89-3.78-.26-5.57-.53-11.2-.79-16.77-2.58.37-5.15.68-7.73,1.05.47,3.31.89,6.57,1.37,9.88l.42.95c.26.47.58.84,1,1.1.68.53,1.52.89,2.37.84,1.84-.11,3.21-1.21,3.78-2.89,2.16-6.1,3.89-12.35,5.26-18.66h-7.62c.16.37.21.74.32,1.16l-.16-1.05c.26,2.05-.32,4.1-.32,6.15,0,2.16.37,4.26.63,6.41.53,4.31.47,8.62-.11,12.88,0-.37.11-.68.16-1.05-.16,1.1-.26,2.26-.58,3.36l.42-.95c-.26.58,0,.32.95-.89l.95-.42c-.11,0-.26.05-.37.05l1.05-.16c-2.05.11-4.21-.16-6.25-.32-2.1-.21-4.26-.58-6.41-.58s-4.1.32-6.2.32-4.1-.11-6.15-.37l1.05.16c-2.63-.37-5.15-.95-7.67-1.79.95,1.26,1.94,2.52,2.89,3.78.11-9.2.58-18.4,1.37-27.6.11-.95-.53-2.16-1.16-2.79s-1.79-1.21-2.79-1.16c-2.31.11-3.73,1.73-3.94,3.94h.05Z"/><path class="cls-3" d="M19.08,36.04c.68-.26,1.42-.42,2.16-.53l-1.05.16c1-.11,1.94-.11,2.94,0l-1.05-.16c.16,0,.26,0,.42.05.53.16,1.05.21,1.58.05.53,0,1-.16,1.47-.47.47-.26.84-.58,1.1-1,.37-.37.58-.84.68-1.37.21-1,.16-2.16-.42-3.05l-.63-.79c-.47-.47-1.05-.84-1.73-1-1.26-.21-2.52-.37-3.84-.26s-2.58.32-3.78.74-1.84.89-2.37,1.79c-.26.47-.42.95-.47,1.47-.11.53-.11,1.05.05,1.58.32.95.89,1.89,1.79,2.37s2.05.74,3.05.42h.11Z"/><path class="cls-3" d="M2.16,36.14c-.37.84-.63,1.73-.89,2.63s.42,1.58,1.26,1.68.58.05.84.11.26,0,.37,0,.42.05.16,0c.53.05,1.05.16,1.58.26,1.05.16,2.1.42,3.15.68s1.47-.21,1.63-.89-.21-1.42-.89-1.63c-2.26-.58-4.52-.95-6.78-1.16l1.26,1.68c.26-.89.58-1.73.89-2.63s-.26-1.47-.89-1.63-1.31.21-1.63.89h-.05Z"/><path class="cls-3" d="M4.05,18.9c1.47-5.52.68-11.3,1.31-16.93h-2.63c-.53,5.1-1.05,10.14-1.58,15.24s.63,1.31,1.31,1.31,1.26-.63,1.31-1.31c.53-5.1,1.05-10.14,1.58-15.24.05-.68-.63-1.31-1.31-1.31s-1.26.63-1.31,1.31c-.58,5.41.21,10.93-1.21,16.24-.42,1.63,2.1,2.31,2.52.68h0Z"/><path class="cls-3" d="M5.58,4.92l-.16-3.47-1.31,1.31c9.78.74,19.55,1.21,29.38,1.42s5.57.11,8.3.11l-1.31-1.31c.16,2,0,3.99-.58,5.89-.47,1.63,2.05,2.31,2.52.68.63-2.16.84-4.36.63-6.62s-.53-1.31-1.31-1.31c-9.83-.05-19.61-.37-29.38-1S6.84.24,4.05.03s-1.37.63-1.31,1.31l.16,3.47c.11,1.68,2.73,1.68,2.63,0h0l.05.11Z"/><path class="cls-3" d="M38.9,4.97c.16.37.26.79.37,1.16s.05.21.05.32v-.16.84c0,.63.53,1.21,1.16,1.31s1.26-.32,1.42-.95.11-.37.16-.58.05-.16.11-.26.16-.37.05-.16,0-.11.05-.11c0-.11.11-.16.16-.26.11-.16.21-.37.32-.53l-2.47-.68c0,1.79.11,3.52.11,5.31,0,.63.47,1.21,1.16,1.31s1.21-.32,1.42-.95.11-1.31-.21-1.84-1.21-.84-1.79-.47-.84,1.16-.47,1.79q.05.11,0-.11,0,.11,0,0v-.26c0,.05,0,.11-.05.16l2.58.37c0-1.79-.11-3.52-.11-5.31,0-.58-.42-1.16-.95-1.26s-1.16.11-1.47.58c-.47.79-.84,1.63-1.05,2.52l2.58.37c0-.95-.16-1.94-.53-2.84s-.26-.58-.58-.79-.68-.21-1-.16c-.63.21-1.21.95-.89,1.63h-.11Z"/><path class="cls-3" d="M36.48,4.71c0,.05,0,.11-.05.16.05-.16.11-.21,0-.05,0,.11-.11.21-.16.32-.11.21-.21.42-.32.63-.21.42-.42.84-.68,1.21s-.47.79-.74,1.21-.26.42-.42.58-.16.21-.21.32c-.11.11-.05.11,0,0,0,0-.05.11-.11.16-.21.26-.37.53-.37.95s.16.68.37.95c.47.42,1.42.58,1.84,0,1.37-1.73,2.47-3.57,3.31-5.62.11-.32,0-.74-.16-1s-.47-.53-.79-.58-.74-.05-1,.16-.47.47-.58.79h0l.05-.16Z"/><path class="cls-3" d="M20.77,12.12c-.26-.74-.53-1.47-.79-2.16-.26-.74-.53-1.58-1.26-2s-1.68-.26-2.21.42-.53,1.37-.63,2.05c-.26,1.58-.37,3.15-.58,4.73-.11.74-.16,1.47-.32,2.21s-.16.68-.21,1.05-.11.37-.16.58v.16q.05-.16-.11,0l.58-.32h-.16c.53.37,1.1.68,1.63,1-.53-2.47-1-4.94-1.52-7.41-.26-1.16-.53-2.31-.89-3.47s-.79-2.1-1.84-2.63-2,.05-2,1.16c0,3.84,1.58,7.41,1.79,11.2l2.58-.37c-.95-3-2.16-5.94-3.57-8.73-.21-.47-1-.79-1.47-.58-.79.32-1.37.84-1.63,1.68-.53,1.63,2,2.31,2.52.68,0,.11-.11.16-.21.16l-1.47-.58c1.31,2.63,2.42,5.31,3.31,8.09.42,1.37,2.68,1.21,2.58-.37-.21-3.78-1.79-7.36-1.79-11.2l-2,1.16c.63.32.74,1.47.89,2.05.26,1.05.53,2.1.74,3.15.47,2.26.89,4.47,1.37,6.73s1,1.16,1.63.89c1.21-.47,1.47-1.47,1.73-2.63.21-1.05.37-2.1.53-3.15.11-1,.21-2.05.32-3.05s.11-1,.21-1.52.05-.47.11-.68c0-.11,0-.26.11-.37v.11l-.58.32h-.05c-.21-.05-.42-.11-.68-.16-.11-.21-.16-.21,0,0,0,.11.05.21.11.26.11.26.21.53.32.74.21.53.42,1.1.58,1.63s.89,1.1,1.63.89,1.16-.95.89-1.63h0v-.11Z"/><path class="cls-3" d="M13.83,17.59c-.58-3.52-1.63-6.94-3-10.25-.21-.47-.95-.58-1.37-.37s-.58.84-.37,1.37c1.31,3.15,2.26,6.41,2.84,9.78s.74.84,1.21.68.79-.68.68-1.21h0Z"/><path class="cls-3" d="M11.94,20.64c.84-2.79,1.16-5.78.89-8.67-.16-1.52-.37-3.05-.79-4.47-.16-.63-.42-1.26-.63-1.89s-.26-.63-.37-.95-.16-.68-.11-.32,0-.26,0-.32c-1.1.84-2.21,1.68-3.31,2.52,4.94.74,9.93,1.37,14.88,1.73s4.78.32,7.2.42,2.47.11,3.73.11.53,0,.79,0h.42-.16c-.47,0-.74-.32-.89-.95-.95-1.21-.68-1.05-.74-.32s-.11,1,0,.42c-.21,1.16-.53,2.26-.89,3.36s.16-.37,0,0-.11.26-.21.42c-.11.26-.26.53-.42.79-.32.58-.63,1.1-1,1.63l4.78.63c-1.1-4.05-5.36-5.83-9.15-6.52s-8.99-.68-13.35.58c-1.26.37-2.05,1.58-1.89,2.89.21,1.37,1.26,2.16,2.58,2.26s2.89.11,4.31,0,1.68-.21,2.47-.32.68-.11,1-.16.32,0,.53-.05c.84-.11-.53.05.32,0,1.21-.16,2.47-.26,3.73-.26s.68,0,1,0h.42c.1,0,.47,0,0,0,.58,0,1.26.26,1.79.42s.26.11.42.16c.37.11-.37-.21,0,0s.53.26.79.42.21.16.32.21c.32.21-.37-.26-.05,0s-.16-.21-.16-.26c-.11-.26,0-.47-.05-.68,0,0-.21.63-.05.32s0,.05-.11.16c-.05.11-.16.21-.21.32-.16.32.32-.32.05-.05s-.32.37-.53.58-.42.32-.11.11-.16.11-.21.11c-.21.11-.47.32-.68.37.63-.16-.11,0-.26,0s-.32.11-.37.11c.11.05.47,0,.11,0h-.63c-.21,0-.11,0,.26,0,0,0-.37,0-.32-.11s.53.26.16,0c.53.32.74.84.74,1.52,0-.37,0-.16,0,0,.05-.11.11-.26.16-.37.16-.32.32-.58.47-.89s.32-.53.47-.79.32-.42.11-.16.11-.16.16-.21c.42-.47.84-.95,1.37-1.37s.26-.21.37-.32c.37-.32-.21.16,0,0s.47-.37.74-.53c.58-.37,1.16-.68,1.79-.95l-3.57-3.57c-.16.21-.11.16,0,0-.11.16-.21.26-.32.42-.21.21-.37.42-.58.63-.42.47-.89.89-1.42,1.31s-.21.16-.32.26c-.32.26.32-.21,0,0s-.53.37-.79.53c-.53.37-1.1.68-1.68.95.89,1.52,1.79,3.05,2.63,4.52,2.05-1.52,4.26-2.84,6.57-3.94s1.52-2.16,1.05-3.26c-.53-1.21-1.79-1.79-3.1-1.52s-.79.16-1.21.26-.47.11-.74.11c.37-.05,0,0-.16,0-.84.11-1.73.16-2.58.16s-1.63,0-2.47-.16-.74-.11-.37,0-.32-.05-.37-.05c-.42-.05-.89-.16-1.31-.26-1.63-.37-3.15-.95-4.73-1.37s-3.84-.68-5.83-.42-2.21,2-1.84,3.26c.37,1.26,1.79,2.05,3.26,1.84-.58.11.16,0,.26,0h1.16c.53,0-.21-.05.11,0,.79.21,1.63.37,2.42.58,1.58.47,3.15,1,4.78,1.31,3.68.68,7.36.63,11.04-.21l-2.05-4.78c-2.31,1.1-4.47,2.42-6.57,3.94-1.1.79-1.79,2.31-.95,3.57.79,1.26,2.26,1.58,3.57.95,2.79-1.42,5.1-3.47,6.94-5.99.68-.89.37-2.47-.42-3.21s-2.05-.89-3.21-.42c-2.89,1.26-5.36,3.57-6.99,6.31-1.16,1.89-2,4.42-.21,6.26,1.42,1.42,3.57,1.52,5.41,1.1,3.47-.74,7.57-4.89,5.62-8.62-.89-1.68-2.89-2.63-4.63-3.21s-3.36-.68-5.05-.63-4.1.37-6.15.63-.16,0-.05,0c-.32,0-.68.11-1,.11-.53.05-1,.11-1.52.16-1,.05-2.05,0-3.05-.05l.68,5.15c.89-.26,1.79-.47,2.68-.63s.47-.05.74-.11-.37,0,.16,0,.95-.11,1.42-.11c.95,0,1.84-.05,2.79,0s.89.05,1.31.11.84.11.26,0c.26,0,.47.05.74.11.84.16,1.68.32,2.52.58s.68.21,1.05.37c.11,0,.16.05.26.11.16.05.11,0-.21-.11.16,0,.37.16.53.26.32.16.58.32.89.53.42.26.11,0,0,0,.11,0,.32.26.42.37s.37.32.37.37c-.21-.26-.26-.37-.16-.21,0,.05.11.16.16.21l.11.16c.11.26.11.21,0-.16.05,0,.16.47.16.53.26,1,1.16,1.73,2.21,1.89s2-.37,2.63-1.26c1.42-2,2.47-4.36,2.94-6.73.26-1.37.63-3.05.05-4.36s-1.16-1.68-2.16-1.94-1.52-.16-2.26-.16c-5.31-.11-10.62-.47-15.93-1s-2.89-.32-4.36-.53-.32,0-.53-.05-.74-.11-.42-.05-.21,0-.26,0c-.21,0-.42-.05-.63-.11-.79-.11-1.52-.21-2.31-.32-1.79-.26-3.15.68-3.31,2.52s.63,2.79,1.05,4.21.37,1.26.53,1.89c.05.37.16.68.21,1.05s0,.32.05.47c-.05-.37,0-.11,0,.11.16,1.31.16,2.63,0,3.99s0,.32,0,.47-.05.53,0,.21,0,.26-.05.37c0,.16-.05.32-.11.47-.16.68-.32,1.37-.53,2.05-.42,1.31.47,2.94,1.84,3.26s2.79-.42,3.26-1.84h0l-.05-.32Z"/><path class="cls-3" d="M6.36,7.39l.58.16c.37.11.68.11,1.05,0,.37,0,.68-.11,1-.32.32-.16.58-.37.74-.68.21-.26.37-.53.47-.89l.11-.68c0-.47-.11-.89-.37-1.31l-.42-.53c-.32-.32-.74-.53-1.16-.68l-.58-.16c-.37-.11-.68-.11-1.05,0-.37,0-.68.11-1,.32-.32.16-.58.37-.74.68-.21.26-.37.53-.47.89l-.11.68c0,.47.11.89.37,1.31l.42.53c.32.32.74.53,1.16.68h0Z"/><path class="cls-4" d="M12.62,17.64c0,1.42.16,2.84.47,4.21s.74.84,1.21.68.79-.68.68-1.21-.16-.63-.21-1,0-.32-.05-.47c0-.21,0,.16,0,0v-.26c-.05-.63-.11-1.31-.11-1.94s-.47-1-1-1-1,.42-1,1h0Z"/><path class="cls-4" d="M10.67,16.8c-.53,4.36,1.63,9.51,6.04,10.93.53.16,1.1-.21,1.21-.68.53-2.05.63-4.15.21-6.2-.37-1.94-1.21-4.15-2.84-5.36s-1.58.37-1.47,1.1c.47,2.42.84,4.89,1.16,7.31l1.84-.47c-.74-1.42-1.47-2.84-2.21-4.26-.53-1-2.16-.32-1.79.74.68,1.94,1.37,3.94,2.05,5.89l1.89-.53c-.68-1.89-1.58-3.68-2.79-5.36-.32-.42-.74-.63-1.21-.42s-.74.68-.58,1.16c.42,1.31.79,2.63,1.21,3.94s2.26.68,1.89-.53-.79-2.63-1.21-3.94l-1.79.74c1.1,1.47,2,3.1,2.58,4.89.16.53.68.84,1.21.68s.84-.68.68-1.21c-.68-1.94-1.37-3.94-2.05-5.89l-1.79.74c.74,1.42,1.47,2.84,2.21,4.26s1.94.47,1.84-.47c-.32-2.63-.74-5.26-1.26-7.83-.47.37-.95.74-1.47,1.1.63.42,1,1.26,1.26,1.94.32.79.58,1.58.68,2.42.32,1.63.21,3.36-.21,4.99l1.21-.68c-3.63-1.16-4.99-5.57-4.63-8.99.05-.53-.47-1-1-1s-.95.47-1,1h.1Z"/><path class="cls-4" d="M12.25,22.74c-.63,1.37.21,2.42,1.21,3.21,1,.84,2.1,1.58,3.31,2.16.68.37,1.79-.26,1.47-1.1,0-.05-.05,0,0,0l-1.84-.47v1l1.94-.26c-.16-1,.16-2.05.26-3.05s.05-1.84-.05-2.79c-.26-1.89-1-3.68-2.05-5.26l-1.52,1.21c.95,1,1.63,2.16,2,3.52l1.79-.74c-.42-.89-.95-1.73-1.52-2.52s-.63-.89-1-1.31-.63-.79-1.05-1c-1-.58-1.84.32-2,1.21-.16.95-.21,1.94-.68,2.84l1.84.47c-.16-1.31-.47-2.47-1.05-3.68s-1.63-.58-1.79.21c-.21,1.05-.21,2.1,0,3.21.11.53.74.84,1.21.68s.79-.68.68-1.21-.11-1.42,0-2.16l-1.79.21c.42.84.68,1.73.79,2.68.05.42.26.84.74.95s.89-.05,1.1-.47c.32-.63.53-1.26.68-1.94.05-.32.11-.63.16-.95s.05-.53.11-.58l-.42.26h0c-.16,0-.32-.11-.47-.16.32.16.63.63.84.89s.53.63.74,1c.53.74.95,1.52,1.37,2.31s2.1.32,1.79-.74c-.47-1.68-1.31-3.15-2.52-4.36s-2.21.26-1.52,1.21c1,1.42,1.68,3.1,1.89,4.84.21,1.94-.47,3.84-.21,5.73.16,1.1,2,.84,1.94-.26v-1c.11-1-1.37-1.26-1.84-.47-.26.47-.37,1-.16,1.47l1.47-1.1c-.79-.42-1.58-.84-2.31-1.37s-.68-.53-.95-.79-.53-.47-.53-.53c.21-.47.16-1.05-.37-1.37s-1.1-.11-1.37.37h-.32Z"/><path class="cls-4" d="M13.51,22.58c-.21-.42-.42-.89-.63-1.31-.21-.47-.89-.58-1.37-.37s-.58.84-.37,1.37.32.89.47,1.37l1.89-.53c-.47-1.21-.95-2.47-1.37-3.73s-.37-2.52-.26-3.84c.21-2.31.63-4.68,1.94-6.68l-1.79-.21c.26,1.52.47,3.05.89,4.52.16.63.47,1.16.79,1.73s.63,1.05.63,1.68l1.68-.68c-1.05-.95-1.79-2.16-2.1-3.57-.26-1.1-1.89-.84-1.94.26s-.16,2.1-.37,3.1l1.94.26c-.11-1-.11-1.94,0-2.94.11-1.26-1.89-1.26-2,0s-.05,1.94,0,2.94c.11,1.05,1.68,1.42,1.94.26s.42-2.42.42-3.63l-1.94.26c.42,1.68,1.31,3.26,2.63,4.42s1.68.21,1.68-.68c0-1.42-1-2.37-1.42-3.68-.53-1.52-.63-3.21-.95-4.78s-1.37-.89-1.79-.21c-1.42,2.21-1.94,4.84-2.16,7.41-.11,1.37-.16,2.79.21,4.15.37,1.42.95,2.79,1.47,4.15.42,1.16,2.26.74,1.89-.53-.16-.63-.42-1.26-.68-1.84l-1.68,1c.21.42.42.89.63,1.31.53,1.16,2.26.16,1.68-1h0Z"/><path class="cls-4" d="M13.57,8.29v-.16c0-.05,0,.05,0,0v-.11h0s.05-.11.11-.11h.37c.05,0-.05,0,0,0,.11,0,0,0-.16-.21h0c0,.05,0,.11-.05.21s0,.05,0,.11h0c0,.05-.05.16-.11.21-.11.26-.26.53-.42.79l.58.26c.11-.47.16-.89.26-1.37s0-.37-.21-.42-.37,0-.42.21c-.11.47-.16.89-.26,1.37s0,.32.21.37.32,0,.42-.16c.16-.26.26-.53.37-.79s.16-.32.21-.47.11-.26.16-.42c0-.21-.11-.42-.37-.53s-.32,0-.42,0c-.26,0-.47.16-.68.32s-.37.42-.42.74,0,.37.21.42.37,0,.42-.21h0l.21-.05Z"/><path class="cls-5" d="M19.19,11.12l.11.32c.21.63.79,1.05,1.42.95s1.1-.63,1.16-1.31,0-.26,0-.37c-.11.37,0,0,0-.11,0-.26.11-.53.21-.79s0-.11.05-.16c0-.16,0,.11,0,.11.11-.21,0,0-.05,0-.21.16-.16.11-.05.05-.32.16-.05,0,.05,0h.16c.05,0,.32,0,.11,0s0,0,.05,0h.95c.11,0-.11,0-.11,0h.21c.11,0,.21.11.32.11,0,0-.26-.16-.11,0s.11,0,.16.05.32.16.11.05,0,0,0,0c0,0,.11.11.11.16-.16-.05-.16-.21-.05-.05l.11.16s-.11-.26,0-.05,0,.11.05.16c.05.26.11.47.16.74s0,.21,0,.32c0,.21,0-.05,0-.11v.68c0,.26,0-.21,0-.05s-.05.21-.11.32c0,.16.11-.21,0-.11s-.05.11-.11.16c-.05.16.16-.21.05-.11s0,.05-.11.11-.11.11-.11.11c.16-.11.21-.16.11-.11,0,0-.05,0-.11.05,0,0-.11,0-.16.05-.16.11,0-.05.11,0-.05,0-.21.05-.26.11s-.11,0-.16,0c-.16,0,.26,0,.05,0h-.63c-.32,0,.21,0,0,0s-.26,0-.37-.05-.11,0-.16,0q-.11,0,0,0t0,0s-.11-.05-.16-.11c.05,0,.21.16.05,0,.21.21.11.11,0,.05s-.11-.16-.16-.21c-.05-.11-.11-.26-.21-.37s-.11-.26,0-.05,0-.11,0-.11c-.05-.16-.11-.32-.16-.47-.74.42-1.47.84-2.21,1.26.63.79,1.37,1.42,2.21,2.05s1.47.11,1.79-.47c.37-.68.11-1.37-.47-1.79,0,0-.11-.05-.16-.11-.11-.11-.11-.05,0,0,0-.05-.16-.11-.21-.16-.16-.16-.32-.26-.47-.42-.32-.32-.58-.63-.84-.95s-1.16-.47-1.58-.21-.79.89-.58,1.47.47,1.42.95,2.05c.53.74,1.26,1.05,2.16,1.21s1.68.11,2.47-.21,1.31-.79,1.63-1.47.37-1.63.26-2.52c-.11-.68-.21-1.37-.58-2-.74-1.37-2.42-1.84-3.89-1.68s-2.1.21-2.63,1.21c-.42.84-.58,1.79-.63,2.73l2.58-.37-.11-.32c-.21-.63-.89-1.16-1.63-.89s-1.16.95-.89,1.63h0l.31-.16Z"/><path class="cls-5" d="M20.87,11.33c-.32-.47-.68-.89-.95-1.42s-.32-.79-.32-1.16v-.16q0,.11,0-.05c0-.16.05-.26.11-.42.05-.21,0,0,.11-.21s.11-.21.16-.32c.32-.53.47-.74.89-1.16s.21-.21.11-.11c.11-.11.21-.16.32-.21s.21-.11.37-.16c-.21.11.16,0,.21-.05.11,0,.26-.05.37-.11s.42-.05.16,0h.79s.37,0,.21,0c.16,0,.26,0,.42.11.26.05.58.16.84.26s.95.47,1.37.74,1.47.16,1.79-.47c.37-.68.16-1.37-.47-1.79-2.52-1.68-5.99-2.16-8.41,0s-2,2.52-2.05,4.05c-.11,1.52.74,2.89,1.63,4.05.42.58,1.16.84,1.79.47s.89-1.21.47-1.79h0l.1-.11Z"/><path class="cls-5" d="M25.71,6.87c.89.21,1.47.89,2,1.63.58.89,1.16,1.89,1.31,2.94s0,2.58-.05,3.78c0,1.21-.47,2.1-1.05,3.15s-.63.95-.89,1.47c-.26.21-.16.21.32,0,.11.11.16.11.11,0,0-.11-.16-.53-.21-.63-.32-1.1-.89-2.05-1.63-2.94s-1.52-1.79-2.42-2.52-.95-.74-1.47-1.05-.63-.37-.84-.74c-.74-1.52-3.05-.16-2.26,1.31s1.37,1.42,2.21,2,1.63,1.52,2.37,2.31,1.21,1.47,1.47,2.47c.32,1.16,1.05,2.37,2.42,2.42s2.05-1.16,2.63-2.21c.58-1,1.21-2.1,1.58-3.26s.26-2.58.32-3.78c0-1.21,0-2.47-.42-3.63-.84-2.16-2.42-4.78-4.84-5.31s-2.37,2.21-.68,2.52h0l.05.05Z"/><path class="cls-5" d="M24.29,15.8c.63,1.1,1.26,2.26,1.79,3.42.47,1,2.21.74,2.42-.32.16-.79.26-1.58.37-2.37s.11-1.58.26-2.37c.21-1.31,1.16-2.37,1.1-3.78s-1.79-1.84-2.47-.68c-.42.74-.63,1.58-.89,2.37s-.37,1.26-.84,1.58c.63.47,1.26,1,1.94,1.47.58-1.63,1.1-3.31.79-5.05-.26-1.58-1.37-3-2.47-4.1s-2.89-1.84-4.52-1.1-1.42.79-2.05,1.21-1.21,1.37-1.16,2.26.58,1.31,1.31,1.31,1.37-.58,1.31-1.31c0-.21,0-.26,0,0,0,0,0-.05.05-.11.16,0,.58-.32.74-.42.32-.21.79-.63,1.21-.63.79-.05,1.52.95,1.94,1.47.63.74,1.1,1.58,1.1,2.58s-.42,2.21-.79,3.21c-.37,1.05,1,2.16,1.94,1.47.84-.63,1.37-1.42,1.79-2.42s.47-1.73.89-2.47l-2.47-.68c0,.53-.21,1-.47,1.47-.32.68-.53,1.37-.63,2.1-.16,1.42-.32,2.79-.58,4.21l2.42-.32c-.53-1.16-1.1-2.31-1.79-3.42-.84-1.47-3.15-.16-2.26,1.31h0v.11Z"/><path class="cls-5" d="M25.44,21.37c-.05,1.63.68,3.15.47,4.73s.58.42.63.11c.16-.79.74-1.37,1.16-2s.89-1.58,1.31-2.42-.32-.68-.58-.32c-.58.84-1.21,1.68-1.79,2.52l.58.26c.11-.63.21-1.31.32-1.94s-.53-.58-.63-.16c-.21.89-.53,1.84-.84,2.73l.63.11c.05-.89.11-1.84.16-2.73,0-.37-.58-.47-.63-.11-.16.74-.26,1.47-.42,2.21l.63.11c0-.84,0-1.68-.26-2.47s-.63-.26-.63.11c-.05.58-.05,1.16,0,1.68s.63.42.63,0,.05-.79.16-1.21.11-.26.11-.32c-.32-.11-.42-.11-.32,0h0c.11.21.16.42.26.58.21.26.53.47.84.21s.63-.58.95-.89l-.53-.42c-.21.47-.42.95-.68,1.37l.58.32c.32-.58.63-1.21.89-1.84s-.05-.37-.21-.42-.32.05-.42.21c-.26.58-.53,1.16-.84,1.68s.37.68.58.32.47-.89.68-1.37-.21-.68-.53-.42-.37.37-.53.53-.16.16-.21.21c0,0-.05.05-.11.11q.16,0,.11-.05c0-.05-.11-.21-.16-.26s-.11-.16-.16-.26c-.11-.16-.16-.26-.37-.32-.47-.11-.63.53-.68.84s-.16.84-.16,1.31h.63v-1.68l-.63.11c.21.74.26,1.52.21,2.31s.58.47.63.11c.16-.74.26-1.47.42-2.21l-.63-.11c-.05.89-.11,1.84-.16,2.73s.53.42.63.11c.32-.89.58-1.79.84-2.73l-.63-.16c-.11.63-.26,1.31-.32,1.94-.05.37.37.58.58.26.58-.84,1.21-1.68,1.79-2.52l-.58-.32c-.42.84-.79,1.73-1.37,2.47s-1,1.26-1.21,2.05l.63.11c.16-1.63-.58-3.15-.47-4.73,0-.42-.63-.42-.63,0h0l.26-.05Z"/><path class="cls-1" d="M3.53,32.83v3.73c0,.42.05.68.42.74s.37-.05.42-.21c.16-.74.32-1.47.37-2.21s0-.37,0-.58,0-.16,0-.21c0,.05-.11,0,.05.05s.37,0,.53.05h.26c.05,0,.21,0,.26.05l-.16-.21h0v-.21c-.05.16-.26.16-.42.16h-.74c-.37.05-.26.63.11.63h1.31c.47,0,.42-.68,0-.63s-.84,0-1.31,0l.11.63c.32,0,.63.05.95,0s.53-.21.63-.47,0-.37-.16-.47-.26-.11-.42-.11c-.32,0-.68-.11-1-.11s-.58.16-.63.42,0,.63,0,.95c0,.68-.16,1.37-.32,2l.42-.21c.21,0,0,.11.05,0s0-.16,0-.26v-3.63c0-.74-.68-.42-.63,0h0l-.11.11Z"/><path class="cls-1" d="M4.05,35.25c-.05-.74-.16-1.47-.21-2.21s0-.74,0-1.16,0-.26.05-.42,0-.05,0-.05h.26c.37.05.74.11,1.1.11h.95c.05,0-.05-.11,0-.11s0,0,0,0h-1.26c-.16,0-.37,0-.53.11-.26.21-.32.74-.37,1.05s0,.79.11,1.21.68.26.63-.11c-.05-.74-.16-1.52-.32-2.26s-.16-.26-.32-.26h-.21l.11.63c.32-.05.63,0,.95.11s.37-.05.42-.21-.05-.32-.21-.42c-.42-.16-.84-.21-1.31-.11s-.26.63.11.63.11,0,.21,0l-.32-.26c.16.68.26,1.37.32,2.05l.63-.11c-.05-.26-.11-.58-.11-.84v-.37c0-.11.05-.32.11-.37l-.16.11c.16-.05.37,0,.53-.05s.37,0,.58,0c.32,0,.68,0,.89-.32s.26-.63,0-.84-.53-.16-.84-.16h-1.1c-.37,0-.74-.21-1.05-.05s-.42.47-.47.79,0,.74,0,1.1c0,.84.16,1.68.21,2.58s.16.32.32.32.37-.16.32-.32h0v.21Z"/><path class="cls-1" d="M3.79,31.94c-.11.47-.11.95,0,1.37s.21.26.42.21.26-.21.21-.42,0-.16-.05-.26h0s0,.05,0,0v-.47h0v-.21c0-.16-.05-.37-.21-.42s-.37,0-.42.21h.05Z"/><path class="cls-1" d="M6.78,36.98c.11.21.26.32.47.37s.37-.05.42-.21c.26-1,.53-2.05.84-3.05s.32-1,.47-1.47.21-.95.58-1.21h-.32c.37.21.42.74.53,1.16.16.53.26,1.1.42,1.63s.26,1.1.42,1.63.05.21.11.37,0,.16.05.21c0,.05,0,.11.05.16,0,0-.21.11-.26.16-.11.05-.26.11-.37.21l.47.37c.32-1.05-.32-2-.11-3.05l-.63-.11c0,.74.05,1.58.32,2.26s.21.53.42.74.53.37.74.11-.21-.79-.47-.47h0c.05,0,.16,0,.21-.05.05,0-.11-.16-.16-.21,0-.05-.11-.16-.11-.26-.05-.21-.11-.42-.16-.63-.11-.53-.16-1.05-.16-1.58s-.58-.47-.63-.11,0,1,0,1.47.21,1,.05,1.52.21.53.47.37.58-.26.74-.42.16-.47.11-.74c-.16-.74-.37-1.42-.53-2.1s-.32-1.37-.53-2.05-.32-1-.79-1.31-.26-.05-.32,0c-.37.32-.58.68-.74,1.1s-.37,1.05-.53,1.63c-.37,1.1-.68,2.26-.95,3.36l.42-.21s-.05,0-.05-.11c-.16-.37-.74-.05-.58.32h0l.05.21Z"/><path class="cls-1" d="M8.47,35.2c.42,0,.79.05,1.16.21s.32,0,.37-.21,0-.32-.16-.42c-.32-.21-.68-.32-1.1-.37s-.42.37-.21.58l.32.32.16-.53h-.37c-.16,0-.37.11-.47.26s-.05.32-.11.53-.05.32-.11.47c-.11.26-.21.58-.37.84s-.16.16-.21.21-.16,0-.26,0l.21.21s0-.11.05-.16c0-.11.11-.21.16-.32.11-.21.21-.37.32-.58.21-.37.42-.79.63-1.16l-.58-.26v.11c0,.16,0,.37.21.42s.37-.05.42-.21,0-.11,0-.11c0-.16,0-.32-.21-.37s-.32,0-.42.16c-.21.42-.47.89-.68,1.31s-.21.42-.32.63-.26.47-.16.74.47.26.74.21.42-.16.58-.37c.32-.32.47-.79.58-1.21s.05-.26.11-.42.05-.37,0-.42l-.11.11h.47c.21-.05.32-.37.16-.53l-.32-.32-.21.58c.26,0,.53.11.74.26l.26-.58c-.42-.16-.89-.21-1.37-.21s-.42.68,0,.63h0l.11-.05Z"/><path class="cls-1" d="M7.42,36.83c.26-.95.68-1.89,1.1-2.79s-.37-.68-.58-.32c-.47.95-.89,1.94-1.21,2.94s.53.58.63.16h.05Z"/><path class="cls-1" d="M8.83,32.36c.32.68.63,1.37.84,2.05s.21.26.37.21.32-.16.26-.32c-.11-.95-.26-1.89-.47-2.79l-.63.16c.21.74.42,1.47.68,2.21.11.42.74.21.63-.16-.21-.74-.42-1.47-.68-2.21s-.74-.26-.63.16c.21.89.37,1.73.47,2.63l.63-.11c-.26-.74-.53-1.52-.89-2.21s-.32-.21-.47-.11-.21.32-.11.47h0Z"/><path class="cls-1" d="M11.94,31.31c-.11,1.1-.16,2.26-.16,3.36v1.63c0,.53-.05.95.37,1.16s.26,0,.42,0c.32-.26.26-.84.26-1.21v-1.58c0-1.05,0-2.1-.05-3.21s-.68-.42-.63,0c0,.95.05,1.89.05,2.84v2.05c0,.21,0,.47-.11.58h.42c-.05-.11,0-.53,0-.58v-2.16c0-.95.11-1.94.16-2.89s-.63-.42-.63,0h-.1Z"/><path class="cls-1" d="M14.14,31.62c-.37.11-.47.47-.47.84s0,1-.05,1.52,0,1.05-.05,1.58-.11,1,0,1.52c0,.37.26.74.63.74s.53-.63.53-1-.11-.95,0-1.42,0-.16.05-.26.16-.11.05-.16-.05,0-.11.16,0,.11-.05.16c0,.11-.11.16-.11.26-.11.47.53.79.79,1.05s.68.79,1,1.26.74,0,.58-.32-.42-.79-.63-1.21-.21-.37-.26-.58-.16-.47-.05-.58.26-.21.37-.26.21-.21.32-.37c.21-.26.32-.63.32-.95.16-1.42-1.26-2.47-2.58-2.1s-.32.58,0,.63h0v.11c0,.11.05.16.11.21.11.16.32.26.47.37s.37.05.47.26.11.42-.05.58c-.21.21-.63.11-.79-.11s.05-.74.42-.84.21-.74-.16-.63c-.63.21-1.1.89-.89,1.58.21.63.89.95,1.52.74s.95-1.16.47-1.73-.26-.26-.42-.32-.37-.05-.47-.16-.11-.26-.16-.37-.21-.26-.37-.26v.63c.58-.16,1.21.05,1.52.53s.26,1.16-.05,1.58-.42.32-.63.53-.16.63-.11.95c.21.74.63,1.47,1,2.16l.58-.32c-.37-.58-.79-1.1-1.26-1.52s-.26-.21-.37-.32c-.05-.05-.11-.05,0,0,0,0,.05,0,.05-.11,0,0,0-.11.05-.16.11-.26.11-.63-.16-.84-.53-.42-1.05.26-1.16.74s0,.68,0,1,0,.74-.11,1.1l.21-.21v-1.1c0-.42,0-.89.05-1.31s0-.84,0-1.26v-1.1c.42-.16.21-.79-.16-.63h0l.11-.26Z"/><path class="cls-1" d="M15.41,32.52c.11.05.21.16.26.32s0,.32,0,.47-.11.42-.21.58-.21.42-.32.53h.05c0-.05-.11-.11-.16-.16-.16-.21-.26-.37-.53-.47s-.53.16-.58.42,0,.47.16.68.37.11.47,0,.11-.32,0-.47h0l-.32.11h0s.05.05.11.11c0,0,0,.05,0,0,0,0,.05.11.11.16.16.16.32.32.58.32s.47-.11.58-.32.21-.37.32-.53c.21-.37.37-.79.32-1.26s-.21-.84-.63-1.05-.68.37-.32.58h.1Z"/><path class="cls-1" d="M14.83,34.72s.11-.05.16-.11h-.05.21-.11.21-.11.16-.05.21c.05,0,.16-.11.21-.16s.05-.16,0-.26-.05-.16-.16-.21-.16-.05-.26-.11-.21,0-.26,0c-.21,0-.37.05-.53.21s-.11.11-.16.21,0,.16,0,.26.11.16.21.16h.32Z"/><path class="cls-1" d="M14.88,35.72s.11.05.11.11h0s.05,0,.11.11h0v.11-.11.16c0,.05,0,.16.11.21s.16.11.21.11.16,0,.21-.11h0v-.63c0-.05-.05-.16-.11-.21s-.11-.16-.16-.21c0,0-.05-.05-.11-.05h-.11c-.11,0-.16,0-.21.11s-.11.16-.11.21,0,.16.11.21h-.05Z"/><path class="cls-1" d="M14.41,32.73v-.05h.11-.05.16-.05.21-.11.16-.11.32c.11,0,.16-.11.16-.21v-.26c0-.11-.11-.11-.21-.16-.42-.11-.95.11-1.16.47s0,.37.11.47.37,0,.47-.11h0v-.16Z"/><path class="cls-1" d="M19.08,33.25c0,1.05,0,2.1.05,3.21,0,.42,0,.95.16,1.37.11.26.32.26.58.26s.37,0,.53-.11.16-.32.11-.47-.16-.47-.21-.68c-.11-.47-.11-.95-.11-1.47v-1.47c0-.47.11-.95-.16-1.31s-.79,0-.58.32.05.42.05.63v2c0,.47,0,.89.11,1.37s.11.42.16.63c0,.05,0,.11.05.16.26-.16.32-.26.11-.21h-.32l.26.16c-.11-.26-.11-.58-.11-.89v-3.42c0-.79-.68-.42-.63,0h0l-.05-.05Z"/><path class="cls-1" d="M18.19,32.52c.53,0,1.05-.05,1.58-.05h1.26v-.16h-2.73c-.47,0-.42.68,0,.63h1.94c.68,0,1.47.16,1.47-.58,0-.32-.32-.53-.63-.58s-.63,0-.95,0c-.63,0-1.26,0-1.94.05s-.32.16-.32.32.16.37.32.32h0v.05Z"/><path class="cls-1" d="M22.34,32.57v3.15c0,.74-.21,2.16.79,2.31s.37,0,.42-.21c.05-.47.16-.95.21-1.42s0-.37.11-.53.11-.11.16,0c.21.32.26.74.47,1.05s.47.68.74,1,.68-.05.53-.42-.42-.74-.53-1.16-.21-.47-.21-.58.26-.16.37-.26c.63-.53.58-1.37.42-2.1s-.47-1.37-1.21-1.68-1.42-.05-1.89.42,0,.53.21.58c.42.05.79.26,1.05.58s.47.74.16,1.05-.68,0-.84-.26-.21-.95.11-.95.42-.63,0-.63c-.79,0-.95,1-.79,1.58.16.68.84,1.26,1.58,1s.89-1.16.53-1.79c-.37-.68-1.1-1.1-1.84-1.21l.21.58c.42-.42,1.1-.47,1.58,0s.32.53.42.84.16.74.11,1.1c-.05.32-.21.47-.47.58s-.42.37-.37.74c.11.68.47,1.37.84,2l.53-.42c-.37-.42-.68-.84-.89-1.37s-.32-.95-.79-1-.68.32-.79.68c-.16.58-.21,1.21-.32,1.79l.42-.21c-.37-.05-.32-.68-.32-.95v-3.84c0-.84-.68-.42-.63,0h0l-.05-.05Z"/><path class="cls-1" d="M24.39,32.83c.42-.16.37,1.1.37,1.31,0,.37-.11,1-.58.95s-.26-.11-.37-.26c-.16-.26-.53-.37-.74-.11s-.26.53-.26.79-.05.63,0,1,.68.42.63,0,0-.47,0-.74v-.47h0q0-.11-.16,0l-.16-.11c.11.05.11.21.21.26s.16.16.26.21c.21.11.42.16.63.16.53,0,.89-.47,1-.95s.11-1.21,0-1.73-.53-1.05-1.1-.84-.26.21-.21.42.26.32.42.21h0l.05-.11Z"/><path class="cls-1" d="M23.87,32.67h.42s.05,0,.11-.05c0,0,.05-.05.05-.11v-.21c0-.05-.05-.11-.11-.16h-.05c0-.11-.11-.11-.16-.11h-.42s-.05,0-.11.05c0,0-.05.05-.05.11v.21c0,.05.05.11.11.16h.05c0,.11.11.11.16.11h0Z"/><path class="cls-1" d="M24.03,35.62h.42l.11-.05s.05,0,.11-.05c0,0,.05-.05.05-.11v-.11c0-.11,0-.16-.11-.21h-.05c0-.11-.11-.11-.16-.11h-.42l-.11.05s-.05,0-.11.05c0,0-.05.05-.05.11v.11c0,.11,0,.16.11.21h.05c0,.11.11.11.16.11h0Z"/><path class="cls-1" d="M27.34,37.72c.16-1,.37-2,.68-3,.16-.47.32-.95.47-1.42s.32-1,.79-.89l-.21-.21c.21,1.16.37,2.31.47,3.47s.11,1.1.16,1.68,0,.32,0,.47v.11c0,.11.11.11.26,0v-.26c0-.11,0-.21-.05-.32-.11-.47-.37-.84-.68-1.21s-.53-.58-.95-.58-.68.32-.84.68-.16.89-.47,1.21.16.79.47.47.37-.74.53-1.16.16-.47.37-.47.32.16.42.32c.32.42.53.84.58,1.31s.21.79.68.68.37-.74.32-1.1c-.05-.58-.11-1.21-.21-1.79-.11-1.21-.26-2.37-.53-3.57,0-.11-.11-.21-.21-.21-1.21-.32-1.58,1.26-1.84,2.1-.37,1.21-.68,2.42-.84,3.63s.58.58.63.16h0v-.11Z"/><path class="cls-1" d="M27.92,35.83h.53c.21,0,.42.11.58.16s.37-.05.42-.21-.05-.37-.21-.42c-.42-.16-.89-.21-1.31-.26s-.32.16-.32.32.16.32.32.32h0v.11Z"/><path class="cls-1" d="M29.65,36.3c-.05-1.21-.26-2.37-.47-3.57s-.74-.26-.63.16c.26,1.1.42,2.26.47,3.36s.68.42.63,0h0v.05Z"/><path class="cls-1" d="M28.44,33.78c.26-.21.47-.42.68-.68s.32-.53.42-.79,0-.21,0-.26-.11-.16-.21-.16h-.26c-.11,0-.11.11-.16.21s0,0,0,0h0v.11c0,.05-.05.11-.11.16-.05.11-.16.21-.21.32s0,0,0,0h0l-.05.05s-.11.11-.16.16-.11.11-.16.11-.05,0-.11.05-.11.11,0,0c-.05.05-.11.11-.16.21s0,.16,0,.26c.11.16.32.21.47.11h0v.16Z"/><path class="cls-1" d="M31.12,32.04c0,1.21.11,2.42.21,3.63s.16,1.21.21,1.79,0,.42.21.58.42.16.63.16c.95-.05,1.84-.63,2.31-1.47s.42-1.94-.05-2.84-.68-.89-1.1-1.26-.84-.79-1.42-.79-.37.21-.32.42c.05.42.11.89.21,1.31s.21.53.58.68c.63.26,1.37,1,.89,1.73s-.26.26-.42.37-.37.32-.53.26c-.26-.05-.16-.79-.16-.95,0-.89.11-1.84.26-2.73l-.32.26c.42,0,.74.53.95.84s.47.79.68,1.26l.58-.26c-.53-.89-1.37-1.58-2.31-1.94l.26.32c0-.32-.05-.58-.21-.84s-.58-.11-.63.16c-.05.58-.05,1.21,0,1.79s.74.42.63,0c-.11-.58-.11-1.21,0-1.79l-.63.16c.05.16.11.32.11.53s.11.26.26.32c.79.32,1.47.89,1.94,1.63s.74.11.58-.26c-.21-.58-.53-1.16-.89-1.63-.32-.42-.74-1-1.37-.89s-.32.11-.32.26c-.21,1.16-.32,2.31-.26,3.47,0,.42.11.84.53,1s.95-.16,1.26-.42c.79-.58.95-1.63.32-2.42s-.68-.58-1.1-.79-.11-.05-.16-.21,0-.32-.05-.42c0-.32-.11-.58-.16-.89l-.32.42c.47,0,.89.53,1.21.84s.74.79.89,1.26c.37.95,0,2.05-.84,2.63s-.42.21-.63.32-.21.05-.37.05h-.16c-.05-.11,0-.32-.05-.47s0-.32-.05-.47c0-.32-.05-.58-.11-.89-.11-1.21-.21-2.42-.21-3.63,0-.42-.68-.42-.63,0h0l.05-.16Z"/><path class="cls-1" d="M32.44,37.88c.26-.21.63-.21.89-.37s.53-.32.74-.58c.42-.47.68-1.1.84-1.68s-.11-.42-.32-.42c-.37,0-.58.32-.68.63s-.26.53-.47.74-.47.42-.74.63-.47.37-.74.32c-.42-.11-.58.53-.16.63s.74,0,1.05-.26.58-.42.79-.63.47-.47.63-.79.16-.32.21-.42v-.05s0-.05.05-.11c0,0,0-.05,0,0h0l-.32-.42c-.11.53-.32,1.05-.68,1.42s-.37.37-.63.47-.63.16-.89.37-.21.26-.11.47.32.21.47.11h0l.05-.05Z"/><path class="cls-1" d="M35.69,32.62c0,1.68,0,3.31.11,4.94s0,.68.21.89.63.16.95.16c.79,0,1.58-.11,2.37-.26s.32-.58,0-.63c-.53-.11-1.1-.21-1.63-.32s-.21,0-.26-.11,0-.26,0-.37c0-.26.11-.47.16-.74v-.21q0-.11-.05,0h.32c.26,0,.53.11.79.11.47,0,.58-.63.68-1s-.05-.37-.21-.42c-.58-.11-1.21-.11-1.79-.11s-.42.53-.11.63,1,.32,1.47.47.58-.53.16-.63-1-.32-1.47-.47l-.11.63c.53,0,1.1,0,1.63.05l-.21-.42c-.05.16-.11.32-.16.47v.11c-.05.11,0,.11.16-.11h-.21c-.32-.05-.63-.11-.89-.11-.63,0-.63.79-.74,1.26s-.21,1.05.37,1.26.58.16.84.21.68.16,1.05.21v-.63c-.68.11-1.37.21-2.05.26s-.32,0-.47,0-.16,0-.16-.16v-1.05c0-1.37-.05-2.79-.05-4.15,0-.42-.63-.42-.63,0h0l-.05.21Z"/><path class="cls-1" d="M38.74,35.83h.05-.11.16-.05.11-.05.05s.05.05.11.05h.21s.05,0,.11-.05.11-.16.11-.21v-.11c0-.05-.05-.11-.11-.16,0,0-.11-.11-.16-.11s-.05,0-.11-.05c-.05,0-.11-.05-.21-.05h-.21c-.11,0-.16,0-.21.11,0,0-.05.05-.05.11v.11c0,.11,0,.16.11.21s.16.11.21.11h0l.05.05Z"/><path class="cls-1" d="M36.17,35.25v1.84c0,.63.21,1,.74,1.21s.37-.05.42-.21c.47-1.89-.37-3.73-.37-5.62l-.32.32c.37,0,.68.05,1.05.05h.53c.16,0,.42-.11.53,0s0,.05,0,.05q0,.11,0,0h-.05c-.16,0-.32.11-.42.16-.37.11-.68.11-1.05.11l.32.42c.11-.26.37-.42.63-.32v-.63c-.37.11-.74.21-1.1.26s-.53.16-.63.47,0,.68,0,1.05.05.74.11,1.1l.63-.16c-.26-.63-.26-1.26.05-1.89s-.37-.68-.58-.32c-.37.74-.42,1.63-.11,2.37s.68.26.63-.16-.11-1.05-.11-1.63v-.16h0c.11-.05.32-.05.42-.11l.79-.21c.32-.11.32-.53,0-.63-.63-.21-1.26.16-1.47.74s.11.42.32.42c.53,0,1.05,0,1.58-.21s.42-.16.58-.32.11-.37.05-.58-.11-.42-.32-.53-.53-.05-.74,0c-.58,0-1.1,0-1.68-.05s-.32.16-.32.32c0,1.84.79,3.63.37,5.47l.42-.21c-.32-.11-.21-.79-.21-1.1v-1.31c0-.42-.68-.42-.68,0h0Z"/><path class="cls-1" d="M37.48,33.15s0,.05,0,0,0,0,0,0h0s.11,0,0,0,0,0,0,0h0s.05,0,0,0,0,0,0,0h.11c.05,0,0,0,0,0,0,0-.05,0,0,0,.37.05.74.16,1.1,0s.21-.32.11-.47-.26-.21-.47-.11,0,0,0,0h-.05c-.05,0,0,0,0,0h-.21c-.16,0-.32-.05-.53-.11s-.37,0-.53.11-.32.21-.37.42.05.37.21.42.32-.05.42-.21h0l.21-.05Z"/><path class="cls-1" d="M38.53,32.57c-.58-.11-1.16-.16-1.79-.16s-.32.16-.32.32.16.32.32.32h.84c.26,0,.16,0,.21,0s.11,0,0,0h.11c.16,0,.26,0,.42.05s.37,0,.42-.21,0-.37-.21-.42h0v.11Z"/><path class="cls-1" d="M35.64,32.46c0,.37.16.74.37,1.1s.32.21.47.11.21-.32.11-.47-.11-.16-.11-.26h0c-.11-.11-.16-.32-.16-.53v.11-.11c0-.11,0-.16-.11-.21s-.16-.11-.21-.11-.16,0-.21.11-.11.16-.11.21h0l-.05.05Z"/><path class="cls-1" d="M36.96,35.41c.21,0,.42.11.58.16h-.05c.11,0,.26.11.37.16s.37,0,.47-.11,0-.37-.11-.47c-.32-.21-.68-.32-1-.37s-.16,0-.26,0-.16.11-.16.21v.26c0,.11.11.16.21.16h-.05Z"/><path class="cls-1" d="M36.43,32.67l.05-.05h-.05.11-.05.11-.11.11-.11.11-.05c.05,0,.16.05.26,0s.16-.11.21-.16.05-.16,0-.26-.05-.16-.16-.21-.16-.05-.21-.11-.11,0-.16,0h-.16c-.05,0-.16,0-.21.11s-.16.11-.21.16-.11.16-.11.21,0,.16.11.21.16.11.21.11.16,0,.21-.11h0l.1.11Z"/><path d="M2.16,1.77c-.47,4.94-.63,9.93-.68,14.93-.05,4.99,0,9.99-.16,14.98-.05,2.79-.16,5.62-.37,8.41h.42v-1.47h-.42v1.52c0,.37.42.26.42,0s.11-.37.21-.53-.21-.42-.37-.21-.26.47-.26.74h.42v-1.21c0-.42,0-.26,0-.37,0-.26-.37-.16-.42.05-.05.47,0,1,0,1.47s.37.26.42,0c.37-4.94.42-9.93.47-14.93s0-9.99.21-14.98c.11-2.79.26-5.62.53-8.41,0-.26-.37-.26-.42,0h0Z"/><path d="M42.9,2.14c.42,5.26-.05,10.57-.32,15.82-.16,2.63-.26,5.26-.16,7.88,0,.68,0,1.31.11,2s.11,1.26.16,1.89c.05,1.21,0,2.37.05,3.57,0,2.68-.05,5.47-1.21,7.99-.11.26.26.42.37.21,1-2.16,1.26-4.57,1.26-6.94v-3.63q0-1.21-.05-1.84c-.05-.63-.11-1.31-.16-1.94-.26-5.36.26-10.67.47-16.03.16-3,.16-5.99,0-8.99,0-.26-.42-.26-.42,0h-.11Z"/><path d="M.74,39.61c1.42.11,2.73.53,4.1.84s2.73.42,4.15.53c2.94.32,5.83.63,8.78.89s5.89.37,8.83.47,3,.05,4.47.11,2.37,0,3.52-.11,2.58-.26,3.84-.37,2.16-.21,3.21,0,.37-.37.11-.37c-.89-.16-1.84-.11-2.73,0s-2.26.21-3.36.32c-2.58.26-5.15.21-7.78.11-5.94-.16-11.83-.63-17.71-1.26s-3.31-.26-4.89-.58-3-.79-4.52-.95-.26.37,0,.42h0v-.05Z"/><path d="M26.18,26.84c.16-.42.05-.84,0-1.21s-.11-1-.21-1.47c-.16-1-.47-2-.84-2.94s-.84-1.79-1.37-2.68-1.05-1.63-1.79-2.21-1.58-1.26-2.26-2.05-1.26-1.63-1.79-2.58c-.47-.89-.84-1.89-.89-2.94s.26-1.94.84-2.73c1-1.47,2.73-2.42,4.47-2.79s3.84.26,5.26,1.31c1.52,1.1,2.47,2.89,3.15,4.57.79,1.94,1,4.05.68,6.1-.26,2-1.1,3.84-2.1,5.57s-2.1,3.31-2.94,5.1-.47.79-.37,1.1.16.11.21.11.11-.05.11-.05c.26-.11.16-.47-.11-.37s-.21.11-.11.05l.21.11c0,.05.16-.26.16-.32,0-.11.11-.21.16-.37.11-.21.21-.47.32-.68.21-.47.47-.89.74-1.31.53-.89,1.1-1.73,1.63-2.63,1.05-1.73,1.94-3.57,2.31-5.57.42-2.05.37-4.26-.32-6.26s-1.47-3.47-2.73-4.78c-1.26-1.31-3.15-2.05-4.99-2.16s-3.57.63-4.94,1.73c-1.47,1.21-2.37,2.94-2.1,4.84.11,1,.53,1.94,1,2.79s1.16,1.79,1.84,2.58.74.79,1.1,1.1.79.63,1.21.95c.79.68,1.37,1.58,1.84,2.47.53.89,1,1.89,1.37,2.89s.53,2.1.68,3.21.21.95,0,1.42.32.37.37.11h.21Z"/><path d="M22.87,9.34c-1.73.32-.63,2.84.63,3.05s.89-.26,1.05-.74.11-1.05-.16-1.52-.32-.47-.58-.58-.68-.11-1,0-.16.47.11.37.26-.05.37-.05h.37c.05,0,.05.05,0,0,0,0,.05.05.11.11s0,0,0,.05,0,0,0,0h0l.05.11v.05c0,.05,0,0,0,0h0c0,.11.05.21.11.32s0,0,0,.05,0,0,0,0h0v.37q0,.05,0,0c0-.05,0,0,0,0,0,.11,0,.21-.05.32s0,0,0,0h0v.05s0,.05-.05.11,0,0,0,0h-.11c-.05,0-.11,0,0,0h-.26c-.05,0,0,0,0,0h0c-.05,0-.11-.05-.16-.11-.21-.16-.42-.42-.58-.68s-.26-.63-.21-.89,0-.16,0-.21.05-.11.11-.16c.11-.11.26-.16.47-.21s.16-.16.16-.26-.16-.16-.26-.16h0l-.11.63Z"/><path d="M18.09,28.52c.16-.42.16-.84.21-1.26.05-.53.16-1,.26-1.52.16-.95.32-1.94.37-2.89.11-1.68-.11-3.42-.84-4.94-.37-.79-.89-1.47-1.47-2.16s-1.16-1.37-1.58-2.21c-.79-1.58-.84-3.63-.26-5.31s.26-1.37-.42-1.58-1.26.32-1.68.68c-1.26,1.05-1.79,2.58-2.21,4.1-.47,1.84-.74,3.68-.58,5.57.11,1.84.42,3.68,1,5.41s1.52,3.26,2.94,4.36.68.53,1.05.74.95.42,1.42.58,1.16.79,1.73.63.16-.47-.11-.37-.53-.16-.74-.26-.42-.26-.68-.32c-.42-.16-.84-.26-1.21-.47s-.63-.42-.95-.63c-1.21-.89-2.21-2.1-2.73-3.52-.63-1.58-1-3.31-1.21-4.99-.21-1.79-.21-3.52.16-5.31.32-1.52.68-3.21,1.68-4.47s1-1.1,1.63-1.31.63.05.63.47-.21.74-.32,1.1c-.21.74-.21,1.58-.21,2.37s.16,1.58.47,2.31c.63,1.52,1.89,2.58,2.73,3.94,1,1.58,1.31,3.36,1.26,5.2,0,1.05-.16,2.1-.32,3.1-.11.47-.21,1-.26,1.47-.05.47-.11.95-.26,1.42s.32.37.37.11h0l.1-.05Z"/><path d="M2.79,30.89c-.21.79,0,1.68,0,2.47s.05,1.21.11,1.79,0,1.1.11,1.63,0,.84.26.89.37-.32.11-.37c.16,0,.11.16.11,0v-.21c0-.21,0-.47-.05-.68,0-.47-.05-1-.05-1.47s-.05-1.1-.11-1.63-.26-1.58,0-2.31-.32-.37-.37-.11h-.11Z"/><path d="M3.21,37.56c.37.05.74.11,1.16.11s.32,0,.42-.11.11-.26.11-.42-.05-.32-.11-.47,0-.37-.05-.58,0-.42,0-.58v-.53c.05-.26-.32-.37-.37-.11s-.05.68,0,1,0,.68.11,1,.05.21.05.37,0,0,0,0h-.16c-.32,0-.68,0-1-.11s-.37.37-.11.37h0l-.05.05Z"/><path d="M4.68,35.09h.11c.05,0,0,0,0,0,.05,0,0,0,0,0h.21c.16,0,.37,0,.53.05.32,0,.68,0,.89-.21s-.11-.47-.26-.26,0,0,0,0h0s-.05,0,0,0h-.79c-.05,0,0,0,0,0h-.58c-.16,0-.21.11-.21.21s.11.21.21.21h-.11Z"/><path d="M6.63,34.78c0-.42-.05-.89-.11-1.31s-.11-.21-.21-.21-.16,0-.16.11v.11c0,.05,0,0,0,0,0,.11,0,.21.16.26s.21,0,.26-.16,0-.05,0-.11l-.11.16h-.11c-.05-.05-.16-.16-.21-.21,0,.42.11.89.11,1.31s.11.21.21.21.21-.11.21-.21h0l-.05.05Z"/><path d="M6.21,33.2c-.47.16-1,.05-1.47,0s-.21.11-.21.21.11.21.21.21c.53,0,1.05.11,1.58,0s.16-.16.16-.26-.16-.16-.26-.16h0Z"/><path d="M5,33.1c0,.05,0,0,0,0h0c0,.05,0,0,0,0v-.21h0v-.16c0-.05,0-.11,0,0v-.11c0-.05,0,0,0,0h0c.05-.11.11-.21,0-.26s-.21-.11-.26,0c-.16.16-.16.37-.16.58s.05.42.21.58.11.05.16.05.11,0,.16-.05.05-.11.05-.16,0-.11-.05-.16h0l-.1-.11Z"/><path d="M4.94,32.57c.58,0,1.16-.11,1.73,0s.21-.11.21-.21-.11-.21-.21-.21c-.58-.05-1.16,0-1.73,0s-.26.42,0,.42h0Z"/><path d="M6.89,32.36v-.89c0-.11,0,0,0,0h0v-.47c0-.16,0-.21-.11-.32s-.21-.11-.26,0-.11.21,0,.26h0v.11c0,.05,0,0,0,0,0-.05,0,0,0,0v.32c0,.32.11.58,0,.89s0,.21.16.26.21,0,.26-.16h-.05Z"/><path d="M3.21,30.99c.16-.16.37-.16.58-.11s.47.11.68.16.63.05,1,.05h.47c.16,0,.32-.05.47,0,.26.05.37-.32.11-.37s-.74,0-1.05,0-.68,0-1.05-.05-1.16-.32-1.52.11.11.47.26.26h0l.05-.05Z"/><path d="M6.68,37.41c.16-1.37.68-2.68,1.16-3.94s.42-1.1.68-1.58.47-.68.37-1.1-.42-.16-.37.11-.16.42-.21.58-.21.37-.32.53c-.26.53-.47,1.1-.68,1.68-.42,1.21-.89,2.42-1.05,3.73,0,.26.37.26.42,0h0Z"/><path d="M8.57,31.1h.63c.21,0,.37-.05.53-.05s.21-.11.21-.21-.11-.21-.21-.21c-.21,0-.42,0-.63.11s-.11,0-.16,0h-.37c-.11,0-.21.11-.21.21s.11.21.21.21h0v-.05Z"/><path d="M9.62,30.78c.26.47.37,1,.53,1.52.16.58.37,1.16.58,1.73s.37,1.21.53,1.79.16.58.16.89,0,.58.05.84.16.16.26.16h0c.16,0,.21-.26.11-.37h0c-.21-.16-.47.11-.26.26h0l.11-.32h0c.11,0,.16.11.26.16-.05-.32,0-.63-.05-.95s-.11-.58-.16-.89c-.16-.58-.37-1.21-.53-1.79-.21-.58-.42-1.16-.53-1.73s-.26-1.05-.53-1.52-.47,0-.37.21h-.16Z"/><path d="M11.52,37.35c-.26,0-.53.05-.74.11s-.05,0-.11,0h-.16c-.05,0,0,0,0,0h-.05c-.05,0,0,0,0,0h0c-.21-.21-.47.11-.26.26s.53.21.79.16.26,0,.42-.05.11,0,.21,0,0,0,0,0h.11c.11,0,.21-.11.21-.21s-.11-.21-.21-.21h0l-.21-.05Z"/><path d="M10.2,37.46c-.16-.26-.16-.63-.21-.95s-.11-.68-.21-1-.21-.11-.26-.05-.11.16-.05.26c.16.26.16.63.21.89s.11.68.26,1,.21.11.26.05.11-.16.05-.26h0l-.05.05Z"/><path d="M9.52,35.36h-.16c-.05,0,0,0,0,0h-.26c-.05,0,0,0,0,0h0c-.05,0-.11-.05-.16-.11-.11-.05-.21,0-.26.05s0,.21.05.26c.16.11.32.16.47.21s.37.05.58,0,.16-.16.16-.26-.16-.16-.26-.16h-.16Z"/><path d="M8.89,35.3h0v.05c0-.16-.16-.21-.32-.16s-.16.26-.21.37c-.11.26-.21.53-.32.79s-.16.42-.21.58-.16.37-.32.47-.16.16-.05.26.21.16.26.05c.32-.26.47-.63.63-1s.37-.89.53-1.37l-.11.11h-.16s-.11-.11-.16-.16c0,0,0,.11.05.11.21.21.47-.11.26-.26h0l.1.16Z"/><path d="M6.52,37.67c.21.05.42.11.68.16s.47,0,.68-.16.05-.21,0-.26-.21-.05-.26,0h-.05c-.05,0,0,0,0,0h-.32c-.11,0,0,0,0,0h-.26c-.11,0-.16,0-.26-.05s-.21,0-.26.16,0,.21.16.26h0l-.1-.11Z"/><path d="M8.89,32.73c-.11.32-.21.63-.32.95s-.11.37,0,.53.21.32.42.26.11,0,.16,0,.05,0,0,0h.05q.05,0,0,0c-.05,0,0,0,0,0h0c0,.11.11.16.21.16s.16-.05.21-.16v-.42c0-.16,0-.37-.11-.53-.11-.32-.26-.63-.58-.79s-.21,0-.26.16,0,.21.16.26c-.05,0,0,0,0,0h0s0,.05.05.11,0,.05,0,.11,0,0,0,0h0c0,.05,0,.16.05.21s0,.16,0,.21v.11h0v.16c0,.05,0,0,0,0h0v.05h.37c-.11-.21-.26-.32-.47-.32s-.11,0-.16,0h-.05c-.05,0,0,0,0,0h-.11v-.05c0-.05,0,0,0,0v-.16c0-.16.11-.37.16-.53s.11-.32.16-.47c.05-.26-.32-.37-.37-.11h0l.42.26Z"/><path d="M11.52,31.26c0,1.1-.11,2.16-.05,3.26s.05,1.05.11,1.58,0,1,0,1.52.11.21.21.21c.53,0,1.26.11,1.26-.63s-.11-.79-.11-1.16,0-1,.05-1.52,0-1.05.05-1.63.11-.95,0-1.42c-.05-.74-.74-.63-1.31-.58s-.26.42,0,.42.47-.11.74,0,.21.63.21.84c0,.79-.11,1.58-.11,2.37s-.11,1.42,0,2.16.21.68,0,.79-.58,0-.74,0l.21.21v-1.52c0-.53-.11-1.05-.11-1.58,0-1.1.05-2.16.05-3.26s-.42-.26-.42,0h0l-.05-.05Z"/><path d="M13.35,31.52c0,.53-.05,1.05-.11,1.52s0,1.1,0,1.63,0,1.05.05,1.58.11,1.05.11,1.63.11.21.21.21h.95c.21,0,.26-.26.26-.42s0-.47-.05-.74-.11-.58,0-.68c.21-.16,0-.53-.21-.37-.37.26-.26.79-.21,1.16s.05.42,0,.63.11,0,0,0h-.84l.21.21c0-.53,0-1.05-.05-1.52,0-.53,0-1.1-.05-1.63v-1.58c0-.53.11-1.05.11-1.63s-.42-.26-.42,0h.05Z"/><path d="M14.72,36.14h.26l-.21-.16c.16.42.37.84.63,1.21s.58.89,1.05.95.53-.05.68-.26.11-.21,0-.26-.21-.11-.26,0-.05.05-.11.11,0,0,0,0h-.11s-.11,0-.05,0c-.16,0-.26-.11-.42-.26-.32-.32-.58-.74-.79-1.16s-.11-.21-.16-.32,0,0,0-.05,0,0,0,0v-.11c0-.11-.11-.16-.21-.16h-.26c-.11,0-.21.11-.21.21s.11.21.21.21h0l-.05.05Z"/><path d="M17.14,37.62c-.05-.05-.05-.16-.11-.26,0-.16-.11-.26-.16-.37-.11-.26-.21-.47-.32-.74s-.16-.32-.21-.42-.16-.32-.11-.42,0-.21-.16-.26-.21,0-.26.16c-.16.37.16.84.32,1.16s.21.47.32.74.11.26.16.42.05.26.16.37c.21.21.47-.11.26-.26h0l.11-.11Z"/><path d="M16.19,35.41c.42-.32.63-.84.79-1.31s.37-1.05.26-1.63c-.11-.53-.53-1-1.05-1.21s-.95-.21-1.42-.26-1.05,0-1.26.47.26.47.37.21c.16-.42.74-.26,1.1-.21.53.05,1.05.05,1.47.47s.42,1.05.21,1.63-.32,1.16-.74,1.47,0,.53.21.37h.05Z"/><path d="M15.04,32.88c-.11-.05-.26-.11-.42,0s-.16.16-.21.26c-.05.21,0,.47.16.68s.21.16.32.16h.37c.21-.11.32-.32.37-.53s0-.32-.05-.42-.21-.21-.32-.26-.11,0-.16,0-.11,0-.11.11,0,.21.05.26,0,0,.05,0,0,0,0,0h0v.05c0,.05,0-.05,0,0s0,0,0,0h-.05c.05,0,0,0,0,0h-.05c-.05,0,0,0,0,0h0v-.05c0-.05,0,0,0,0h0v-.11c0-.05,0,0,0,0h0v-.05c0-.05,0,0,0,0h0s-.05,0,0,0,0,0,0,0h0c.11.05.21,0,.26-.05s0-.21-.05-.26h0l-.16.21Z"/><path d="M19.03,32.99v-.11c-.11,0-.26,0-.42.05.11.37.05.79.05,1.21s.05.84.05,1.21c0,.89.11,1.73.16,2.58s.26.26.37.11c0,0,0-.05.05-.11.16-.21-.21-.42-.37-.21,0,0,0,.05-.05.11l.37.11c-.05-.89-.11-1.79-.16-2.68,0-.42-.05-.84-.05-1.31s0-.79-.11-1.16-.37-.16-.42.05v.11c0,.26.37.26.42,0h0l.1.05Z"/><path d="M19.19,38.14c.42,0,1,.21,1.42,0s.21-.79.16-1.16c-.05-.58-.11-1.21-.16-1.79s0-1.31.16-1.94,0-.21-.11-.21h0c-.26-.16-.42.16-.21.32h0c.21.16.42-.16.21-.32h0c-.05.11-.16.21-.21.32h0c0-.05-.05-.16-.11-.21-.32,1.1-.16,2.26-.05,3.36s0,.42.05.63.11.47,0,.58-.42,0-.58,0c-.21,0-.42,0-.63-.05s-.26.37,0,.42h0l.05.05Z"/><path d="M20.45,33.36c.21.11.42.11.63.05s.21,0,.26-.05.11,0,0,0h.21c.11,0,.21-.11.21-.21s-.11-.21-.21-.21c-.21,0-.37,0-.58.05s-.11,0-.11,0h-.05c-.05,0,0,0,0,0h-.05c-.11,0-.21,0-.26.05s0,.21.05.26h0l-.1.05Z"/><path d="M21.77,33.25c.21-.47.11-.95.11-1.42s-.11-.21-.21-.21-.21.11-.21.21v1c0,.16,0,0,0,0,0,.05,0,0,0,0v.16c0,.05,0,.11,0,0,0,.11,0,.21.05.26s.21,0,.26-.05h0v.05Z"/><path d="M21.61,31.47c-1.1,0-2.21.16-3.26.16s-.68,0-.74.42.11.68.11,1.05.11.21.26.21c.26-.11.53,0,.79,0s.37-.37.11-.37-.68-.11-1.05,0l.26.21c0-.32-.16-.63-.16-.95s0-.11,0-.11h.58c.47,0,.89,0,1.37-.11s1.1-.11,1.68-.11.26-.42,0-.42h.05Z"/><path d="M22.08,32.15v3.1c0,1.05-.11,1.89.05,2.84s.16.16.26.16c.37-.11.74,0,1.05.11s.32-.16.21-.32c0,0,0-.05-.05-.11-.11-.21-.47,0-.37.21,0,0,0,.05.05.11l.21-.32c-.42-.11-.84-.21-1.31-.11l.26.16c-.21-.95-.11-1.89-.05-2.84v-2.94c0-.95-.42-.26-.42,0h0l.11-.05Z"/><path d="M23.76,37.88v-1.42c0-.47-.11-.21-.21-.21s-.21.11-.21.21v1.42c0,.47.11.21.21.21s.21-.11.21-.21h0Z"/><path d="M23.82,36.3h.26-.05.21c.05,0,.11,0,.16-.05s.05-.11.05-.16,0-.11-.05-.16-.11-.05-.16-.05h-.32c-.11,0-.21.11-.32.16s-.05.11-.05.16,0,.11.05.16.11.05.16.05.11,0,.16-.05h0l-.1-.05Z"/><path d="M23.92,36.14c.16.32.37.58.58.89s.37.68.58,1.05.47,0,.37-.21c-.21-.32-.32-.68-.58-1s-.42-.53-.58-.84-.16-.16-.26-.16-.16.16-.16.26h.05Z"/><path d="M25.29,38.35c.11,0,.21,0,.32-.11s.16-.11.21-.11h.11c.11,0,.16-.16.16-.26s-.16-.16-.26-.16-.26.11-.42.21h-.11.05c-.05,0-.11,0-.16.05s-.05.11-.05.16c0,.11.11.21.21.21h-.05Z"/><path d="M26.13,37.83c0-.42-.16-.79-.26-1.16s-.16-.74-.32-1.05-.47,0-.37.21.21.63.26.95.26.68.26,1.05.42.26.42,0h0Z"/><path d="M22.61,32.1h0s.11-.05.16-.05c.16,0,.37-.05.53-.11h1c.47.11,1,.32,1.26.74s.32,1,.32,1.52,0,.53-.16.74-.21.47-.42.47-.37.32-.11.37c.58.11.95-.58,1.05-1s.11-1.37-.16-1.94c-.42-1.1-1.73-1.37-2.79-1.31s-1.16.11-1.16.58.42.26.42,0h.05Z"/><path d="M23.82,33.15c-.05,0-.11,0-.16.05s-.11.05-.11.11c0,.11-.05.21-.05.32,0,.21.11.42.21.58s.42.21.63.05.16-.37.11-.53-.11-.21-.16-.32-.16-.16-.21-.21-.11,0-.16,0-.11,0-.11.11,0,.21.05.26,0,0,0,0h0v.11c0,.05,0,0,0,0h0s.05,0,0,0,0,0,0,0h0v-.16c0-.05,0,0,0,0,0,0,0,.05,0,0s0,0,0,0v-.05c0-.05,0,0,0,0,0,0,0,.05,0,0s0,0,0,0h0s.05,0,0,0c.05,0,.11,0,.16-.05s.05-.11.05-.16,0-.11-.05-.16-.11-.05-.16-.05h0l-.05.11Z"/><path d="M26.55,38.35h.74c.11,0,0,0,0,0h.16c.11,0,.21,0,.26-.16s0-.21-.16-.26c-.16,0-.37-.05-.53-.05h-.47c-.16,0-.21.11-.21.21s.11.21.21.21h0v.05Z"/><path d="M27.76,38.14c.05-.21.16-.42.21-.63s.05-.21.11-.32,0-.11.05-.16,0-.11,0-.11c0-.11,0-.21-.05-.26s-.21,0-.26.05c-.16.42-.32.84-.47,1.26s0,.21.16.26.21,0,.26-.16h0v.05Z"/><path d="M27.97,36.67c.26.11.58.05.84,0s.16-.16.16-.26-.16-.16-.26-.16h-.26.05-.26.05-.37c-.05,0-.11.05-.11.11v.16c0,.05.05.05.11.11h0l.05.05Z"/><path d="M28.65,36.72c.05.11.16.26.16.37s.11.32.11.47c.05.32.11.63.32.89s.47,0,.37-.21-.11-.21-.16-.37-.05-.32-.11-.53c-.05-.37-.16-.68-.37-.95s-.21-.05-.26,0-.05.21,0,.26h0l-.05.05Z"/><path d="M29.33,38.67c.42.11.84,0,1.26-.05s.16-.16.16-.26-.16-.16-.26-.16h-.89c-.11,0-.21,0-.26.16s0,.21.16.26h0l-.16.05Z"/><path d="M30.75,38.3c-.05-.53-.21-1-.32-1.52s-.21-1.21-.32-1.79c-.11-.63,0-1.21,0-1.84s-.11-1.05-.11-1.58-.42-.26-.42,0c0,.53.16,1.05.11,1.58,0,.58-.05,1.1,0,1.68s.21,1.21.32,1.79.26,1.1.32,1.68.42.26.42,0h0Z"/><path d="M29.7,31.31h-.74c-.26,0-.53,0-.74.16s-.11.21-.05.26.16.11.26.05,0,0,0,0h.21c.05,0,0,0,0,0h1c.21,0,.21-.11.21-.21s-.11-.21-.21-.21h0l.05-.05Z"/><path d="M28.28,31.47c-.37.37-.58.89-.79,1.37s-.42,1.1-.58,1.68-.26,1.16-.42,1.79-.32,1.21-.32,1.84.32.32.37.11v-.11c.16-.21-.21-.42-.32-.21v.11c.05,0,.21.05.32.11,0-1.16.42-2.31.68-3.42s.32-1.1.53-1.63.42-.95.74-1.31-.11-.47-.26-.26h0l.05-.05Z"/><path d="M28.28,33.99c-.05.11-.11.16-.16.26s-.16.21-.16.37,0,.32.16.37.26.11.37.11h.32c.05,0,0,0,0,0h0c.16.05.32,0,.32-.16s0-.42-.05-.63-.11-.42-.32-.58-.21-.11-.26,0-.11.21,0,.26,0,0,0,0h0s0,.05.05.11,0,0,0,0h0v.37c0,.05,0,0,0,0h0v.32l.32-.16c-.21-.11-.47-.11-.68-.16s0,0,0,0h0s0,.05,0,0,0,0,0,0c0,0,0,.05,0,0v-.05h0c0-.05.05-.11.11-.16.05-.11.11-.16.16-.26s0-.21-.05-.26-.21,0-.26.05h0l.16.21Z"/><path d="M30.86,31.83c.16.47,0,.95,0,1.42v1.84c0,.63,0,1.05.11,1.58s.16,1.1.11,1.68h.42v-.11c0-.26-.42-.26-.42,0v.11c0,.26.37.26.42,0,0-.53,0-1.05-.11-1.58-.11-.58-.11-1.16-.11-1.79v-1.79c0-.58.11-.95,0-1.42s-.47-.16-.37.11h0l-.05-.05Z"/><path d="M31.07,32.04c.79-.47,1.84,0,2.52.47s1.42,1.31,1.42,2.26-.42,1.89-1.1,2.52-.89.58-1.42.68-.95.26-1.31.11-.37.32-.11.37c.37.11.79,0,1.16-.05s.89-.21,1.31-.42c.79-.42,1.31-1.05,1.63-1.84s.42-1.68,0-2.47-1-1.37-1.68-1.79-1.79-.74-2.63-.26,0,.47.21.37h0v.05Z"/><path d="M32.23,34.57c.11.16.11.37.05.58s0,.42,0,.63,0,.37.16.53.32.11.42,0,.26-.16.42-.26.26-.26.32-.42c.16-.37,0-.79-.26-1.05s-.58-.37-.95-.47-.21,0-.26.16,0,.21.16.26.26.05.42.11,0,0,0,0h.11c.05,0,0,0,0,0h0c.11.05.16.16.21.26s0,.16.05.21,0,.05,0,.11,0,0,0,0c0,0,0,.05,0,0v.11h0v.05h0s-.05.05-.11.11c-.11.11-.21.16-.32.26s0,0-.05,0,0,0,0,0h0v-.32c0-.42.11-.84-.11-1.26s-.21-.11-.26-.05-.11.16-.05.26h0l.05.21Z"/><path d="M35.85,32.15h0c0-.11-.21-.21-.32-.11-.16.11-.16.42-.21.58s-.05.47-.11.74c-.05.58-.05,1.16-.05,1.73s.05,1.16,0,1.73,0,.58,0,.84.11.58.11.84.05.16.16.21c.74.11,1.47,0,2.21.05s.79,0,1.21,0h.42c.16,0,.37-.11.47,0,.16.11.42,0,.32-.21s-.16-.53-.26-.84-.11-.21-.26-.32c-.58-.21-1.37-.16-2-.11l.21.16c-.11-.37-.11-.74-.11-1.1l-.21.21c.47,0,.89-.05,1.31,0s.58.16.79-.05c.42-.42,0-1.16.11-1.68s-.05-.26-.21-.26c-.68,0-1.37.05-2.1,0s-.26.37,0,.42c.68.11,1.37,0,2.1,0l-.21-.26c-.05.21,0,.47,0,.68s.11.63,0,.79-.47,0-.63-.05c-.37-.05-.79,0-1.16,0s-.21.11-.21.21c0,.42,0,.84.11,1.21s.11.16.21.16c.53-.05,1.1-.11,1.63,0s.21,0,.21.21.16.47.21.74l.32-.21c-.21-.16-.42-.16-.68-.11-.42.05-.79,0-1.21.05s-.89,0-1.31,0h-1.26l.16.21c0-.26-.11-.47-.11-.74v-3.89q0-.53.05-.79c.05-.26,0-.26.05-.42s.11-.37,0-.32l-.32-.11h0c.11.26.47.16.37-.11h0l.21-.11Z"/><path d="M37.74,34.67v-.11c0-.05,0,0,0,0v-.74c0-.16-.11-.21-.21-.21s-.21.11-.21.21c0,.32-.05.68,0,1s.16.16.26.16.16-.16.16-.26h0v-.05Z"/><path d="M37.59,33.99c.58,0,1.16-.32,1.73-.32s.26-.42,0-.42c-.58,0-1.16.32-1.73.32s-.21.11-.21.21.11.21.21.21h0Z"/><path d="M39.69,33.41c0-.42.11-.89-.21-1.21s-.21-.11-.26,0-.11.21,0,.26,0,0,0,0h0v.11c0,.05,0,0,0,0,0,0,0-.05,0,0v.68c0,.16.11.21.21.21s.21-.11.21-.21h0l.05.16Z"/><path d="M35.8,32.25c.58-.16,1.21-.11,1.79-.11s1.37-.05,2.05,0,.26-.37,0-.42h-2.1c-.68,0-1.26-.05-1.84.11s-.16.47.11.37h0v.05Z"/></g></g></g></svg>