<svg width="631" height="398" viewBox="0 0 631 398" fill="none" xmlns="http://www.w3.org/2000/svg">
<g clip-path="url(#clip0_188_143)">
<path d="M305.51 74.03H88.52V137.31H305.51V74.03Z" fill="#733015"/>
<path d="M319.99 209.25H88.52V272.53H319.99V209.25Z" fill="#733015"/>
<path d="M363.8 74.03H306.36V137.31H363.8V74.03Z" fill="#442D1D"/>
<path d="M389.36 209.25H320.87V272.53H389.36V209.25Z" fill="#442D1D"/>
<path d="M452.12 74.03H364.92V137.31H452.12V74.03Z" fill="#E7D0A6"/>
<path d="M478.29 209.25H390.36V272.53H478.29V209.25Z" fill="#E7D0A6"/>
<path d="M505.08 74.03H453.27V137.31H505.08V74.03Z" fill="#9C9167"/>
<path d="M520.94 209.25H479.17V272.53H520.94V209.25Z" fill="#9C9167"/>
<path d="M620.79 74.03H505.91V137.31H620.79V74.03Z" fill="#835A2C"/>
<path d="M620.84 209.25H522.12V272.53H620.84V209.25Z" fill="#835A2C"/>
<path d="M193.56 36.9L193.65 308.79" stroke="#8496A4" stroke-width="0.75" stroke-miterlimit="10"/>
<path d="M300.95 36.9L301.04 308.79" stroke="#8496A4" stroke-width="0.75" stroke-miterlimit="10"/>
<path d="M406.95 37L407.04 308.89" stroke="#8496A4" stroke-width="0.75" stroke-miterlimit="10"/>
<path d="M514.2 36.82L514.29 308.71" stroke="#8496A4" stroke-width="0.75" stroke-miterlimit="10"/>
<path d="M620.77 36.79L620.86 308.68" stroke="#8496A4" stroke-width="0.75" stroke-miterlimit="10"/>
<path d="M87.5801 37.32L87.6801 309.21" stroke="#8496A4" stroke-width="2" stroke-miterlimit="10"/>
<path d="M47.9061 241.094L46.3341 241.046C46.3101 240.938 46.2741 240.698 46.2741 240.506C46.2741 239.138 47.3061 237.902 49.1181 237.902C50.8581 237.902 51.9261 239.054 51.9261 240.41C51.9261 241.418 51.3741 242.234 50.4141 242.822L48.9141 243.734C48.6141 243.926 48.3621 244.142 48.2421 244.442H51.9741V245.87H46.2141C46.2261 244.502 46.6581 243.386 48.0501 242.546L49.3341 241.778C49.9941 241.382 50.2581 240.974 50.2581 240.434C50.2581 239.87 49.8621 239.366 49.0821 239.366C48.2541 239.366 47.8461 239.93 47.8461 240.662C47.8461 240.806 47.8701 240.962 47.9061 241.094ZM54.4937 241.982C54.4937 242.798 54.6137 243.494 54.9137 243.962C55.1537 244.346 55.5257 244.598 56.0897 244.598C56.6657 244.598 57.0137 244.346 57.2537 243.962C57.5657 243.494 57.6857 242.798 57.6857 241.982C57.6857 241.166 57.5657 240.47 57.2537 240.002C57.0137 239.618 56.6657 239.366 56.0897 239.366C55.5257 239.366 55.1537 239.618 54.9137 240.002C54.6137 240.47 54.4937 241.166 54.4937 241.982ZM52.8377 241.982C52.8377 240.986 52.9937 240.014 53.5217 239.21C54.0377 238.442 54.8777 237.902 56.0897 237.902C57.3017 237.902 58.1417 238.442 58.6457 239.21C59.1737 240.014 59.3417 240.986 59.3417 241.982C59.3417 242.978 59.1737 243.95 58.6457 244.754C58.1417 245.522 57.3017 246.062 56.0897 246.062C54.8777 246.062 54.0377 245.522 53.5217 244.754C52.9937 243.95 52.8377 242.978 52.8377 241.982ZM61.8748 241.094L60.3028 241.046C60.2788 240.938 60.2428 240.698 60.2428 240.506C60.2428 239.138 61.2748 237.902 63.0868 237.902C64.8268 237.902 65.8948 239.054 65.8948 240.41C65.8948 241.418 65.3428 242.234 64.3828 242.822L62.8828 243.734C62.5828 243.926 62.3308 244.142 62.2108 244.442H65.9428V245.87H60.1828C60.1948 244.502 60.6268 243.386 62.0188 242.546L63.3028 241.778C63.9628 241.382 64.2268 240.974 64.2268 240.434C64.2268 239.87 63.8308 239.366 63.0508 239.366C62.2228 239.366 61.8148 239.93 61.8148 240.662C61.8148 240.806 61.8388 240.962 61.8748 241.094ZM68.9176 242.414L68.1856 241.262L70.2256 239.51H66.8176V238.082H72.3256V239.414L70.3096 241.094C71.4856 241.142 72.5656 242.042 72.5656 243.47C72.5656 244.814 71.4616 246.05 69.5776 246.05C67.7656 246.05 66.6616 244.874 66.5656 243.566L68.1616 243.254C68.1976 244.046 68.7616 244.622 69.5776 244.622C70.4056 244.622 70.8976 244.094 70.8976 243.446C70.8976 242.714 70.3696 242.294 69.6256 242.294C69.2896 242.294 69.0856 242.354 68.9176 242.414Z" fill="#733015"/>
<path d="M48.2562 104.384L46.6842 104.336C46.6602 104.228 46.6242 103.988 46.6242 103.796C46.6242 102.428 47.6562 101.192 49.4682 101.192C51.2082 101.192 52.2762 102.344 52.2762 103.7C52.2762 104.708 51.7242 105.524 50.7642 106.112L49.2642 107.024C48.9642 107.216 48.7122 107.432 48.5922 107.732H52.3242V109.16H46.5642C46.5762 107.792 47.0082 106.676 48.4002 105.836L49.6842 105.068C50.3442 104.672 50.6082 104.264 50.6082 103.724C50.6082 103.16 50.2122 102.656 49.4322 102.656C48.6042 102.656 48.1962 103.22 48.1962 103.952C48.1962 104.096 48.2202 104.252 48.2562 104.384ZM54.8438 105.272C54.8438 106.088 54.9638 106.784 55.2638 107.252C55.5038 107.636 55.8758 107.888 56.4398 107.888C57.0158 107.888 57.3638 107.636 57.6038 107.252C57.9158 106.784 58.0358 106.088 58.0358 105.272C58.0358 104.456 57.9158 103.76 57.6038 103.292C57.3638 102.908 57.0158 102.656 56.4398 102.656C55.8758 102.656 55.5038 102.908 55.2638 103.292C54.9638 103.76 54.8438 104.456 54.8438 105.272ZM53.1878 105.272C53.1878 104.276 53.3438 103.304 53.8718 102.5C54.3878 101.732 55.2278 101.192 56.4398 101.192C57.6518 101.192 58.4918 101.732 58.9958 102.5C59.5238 103.304 59.6918 104.276 59.6918 105.272C59.6918 106.268 59.5238 107.24 58.9958 108.044C58.4918 108.812 57.6518 109.352 56.4398 109.352C55.2278 109.352 54.3878 108.812 53.8718 108.044C53.3438 107.24 53.1878 106.268 53.1878 105.272ZM62.2249 104.384L60.6529 104.336C60.6289 104.228 60.5929 103.988 60.5929 103.796C60.5929 102.428 61.6249 101.192 63.4369 101.192C65.1769 101.192 66.2449 102.344 66.2449 103.7C66.2449 104.708 65.6929 105.524 64.7329 106.112L63.2329 107.024C62.9329 107.216 62.6809 107.432 62.5609 107.732H66.2929V109.16H60.5329C60.5449 107.792 60.9769 106.676 62.3689 105.836L63.6529 105.068C64.3129 104.672 64.5769 104.264 64.5769 103.724C64.5769 103.16 64.1809 102.656 63.4009 102.656C62.5729 102.656 62.1649 103.22 62.1649 103.952C62.1649 104.096 62.1889 104.252 62.2249 104.384ZM66.9079 107.492V105.764L70.1839 101.372H72.2239V106.076H73.5079V107.492H72.2239V109.16H70.5919V107.492H66.9079ZM70.5919 106.076V103.1L68.3719 106.076H70.5919Z" fill="#733015"/>
<path d="M86.2579 324.332C86.2579 325.148 86.3779 325.844 86.6779 326.312C86.9179 326.696 87.2899 326.948 87.8539 326.948C88.4299 326.948 88.7779 326.696 89.0179 326.312C89.3299 325.844 89.4499 325.148 89.4499 324.332C89.4499 323.516 89.3299 322.82 89.0179 322.352C88.7779 321.968 88.4299 321.716 87.8539 321.716C87.2899 321.716 86.9179 321.968 86.6779 322.352C86.3779 322.82 86.2579 323.516 86.2579 324.332ZM84.6019 324.332C84.6019 323.336 84.7579 322.364 85.2859 321.56C85.8019 320.792 86.6419 320.252 87.8539 320.252C89.0659 320.252 89.9059 320.792 90.4099 321.56C90.9379 322.364 91.1059 323.336 91.1059 324.332C91.1059 325.328 90.9379 326.3 90.4099 327.104C89.9059 327.872 89.0659 328.412 87.8539 328.412C86.6419 328.412 85.8019 327.872 85.2859 327.104C84.7579 326.3 84.6019 325.328 84.6019 324.332Z" fill="#733015"/>
<path d="M189.926 323.444L188.354 323.396C188.33 323.288 188.294 323.048 188.294 322.856C188.294 321.488 189.326 320.252 191.138 320.252C192.878 320.252 193.946 321.404 193.946 322.76C193.946 323.768 193.394 324.584 192.434 325.172L190.934 326.084C190.634 326.276 190.382 326.492 190.262 326.792H193.994V328.22H188.234C188.246 326.852 188.678 325.736 190.07 324.896L191.354 324.128C192.014 323.732 192.278 323.324 192.278 322.784C192.278 322.22 191.882 321.716 191.102 321.716C190.274 321.716 189.866 322.28 189.866 323.012C189.866 323.156 189.89 323.312 189.926 323.444ZM196.514 324.332C196.514 325.148 196.634 325.844 196.934 326.312C197.174 326.696 197.546 326.948 198.11 326.948C198.686 326.948 199.034 326.696 199.274 326.312C199.586 325.844 199.706 325.148 199.706 324.332C199.706 323.516 199.586 322.82 199.274 322.352C199.034 321.968 198.686 321.716 198.11 321.716C197.546 321.716 197.174 321.968 196.934 322.352C196.634 322.82 196.514 323.516 196.514 324.332ZM194.858 324.332C194.858 323.336 195.014 322.364 195.542 321.56C196.058 320.792 196.898 320.252 198.11 320.252C199.322 320.252 200.162 320.792 200.666 321.56C201.194 322.364 201.362 323.336 201.362 324.332C201.362 325.328 201.194 326.3 200.666 327.104C200.162 327.872 199.322 328.412 198.11 328.412C196.898 328.412 196.058 327.872 195.542 327.104C195.014 326.3 194.858 325.328 194.858 324.332Z" fill="#733015"/>
<path d="M294.914 326.552V324.824L298.19 320.432H300.23V325.136H301.514V326.552H300.23V328.22H298.598V326.552H294.914ZM298.598 325.136V322.16L296.378 325.136H298.598ZM303.838 324.332C303.838 325.148 303.958 325.844 304.258 326.312C304.498 326.696 304.87 326.948 305.434 326.948C306.01 326.948 306.358 326.696 306.598 326.312C306.91 325.844 307.03 325.148 307.03 324.332C307.03 323.516 306.91 322.82 306.598 322.352C306.358 321.968 306.01 321.716 305.434 321.716C304.87 321.716 304.498 321.968 304.258 322.352C303.958 322.82 303.838 323.516 303.838 324.332ZM302.182 324.332C302.182 323.336 302.338 322.364 302.866 321.56C303.382 320.792 304.222 320.252 305.434 320.252C306.646 320.252 307.486 320.792 307.99 321.56C308.518 322.364 308.686 323.336 308.686 324.332C308.686 325.328 308.518 326.3 307.99 327.104C307.486 327.872 306.646 328.412 305.434 328.412C304.222 328.412 303.382 327.872 302.866 327.104C302.338 326.3 302.182 325.328 302.182 324.332Z" fill="#733015"/>
<path d="M408.056 320.612L407.6 321.956C407.264 321.812 406.808 321.68 406.316 321.68C404.996 321.68 403.916 322.448 403.736 323.912C404.024 323.48 404.672 323.048 405.584 323.048C407.18 323.048 408.272 324.056 408.272 325.664C408.272 327.26 406.976 328.4 405.26 328.4C403.556 328.4 402.104 327.176 402.104 324.824C402.104 322.028 403.856 320.252 406.424 320.252C407.144 320.252 407.732 320.42 408.056 320.612ZM403.88 325.7C403.88 326.492 404.528 327.008 405.248 327.008C406.004 327.008 406.628 326.504 406.628 325.7C406.628 324.896 406.004 324.404 405.248 324.404C404.504 324.404 403.88 324.896 403.88 325.7ZM410.732 324.332C410.732 325.148 410.852 325.844 411.152 326.312C411.392 326.696 411.764 326.948 412.328 326.948C412.904 326.948 413.252 326.696 413.492 326.312C413.804 325.844 413.924 325.148 413.924 324.332C413.924 323.516 413.804 322.82 413.492 322.352C413.252 321.968 412.904 321.716 412.328 321.716C411.764 321.716 411.392 321.968 411.152 322.352C410.852 322.82 410.732 323.516 410.732 324.332ZM409.076 324.332C409.076 323.336 409.232 322.364 409.76 321.56C410.276 320.792 411.116 320.252 412.328 320.252C413.54 320.252 414.38 320.792 414.884 321.56C415.412 322.364 415.58 323.336 415.58 324.332C415.58 325.328 415.412 326.3 414.884 327.104C414.38 327.872 413.54 328.412 412.328 328.412C411.116 328.412 410.276 327.872 409.76 327.104C409.232 326.3 409.076 325.328 409.076 324.332Z" fill="#733015"/>
<path d="M511.708 323.624C512.44 323.612 512.86 323.156 512.86 322.604C512.86 322.088 512.44 321.62 511.708 321.62C510.988 321.62 510.568 322.088 510.568 322.604C510.568 323.156 510.988 323.612 511.708 323.624ZM511.708 327.032C512.572 327.032 513.028 326.504 513.028 325.952C513.028 325.388 512.584 324.848 511.708 324.848C510.832 324.848 510.4 325.388 510.4 325.952C510.4 326.504 510.856 327.032 511.708 327.032ZM511.708 328.4C509.932 328.4 508.768 327.464 508.768 326.12C508.768 325.28 509.32 324.536 510.148 324.224C509.368 323.936 508.924 323.18 508.924 322.484C508.924 321.176 510.088 320.252 511.708 320.252C513.328 320.252 514.492 321.176 514.492 322.484C514.492 323.168 514.06 323.936 513.28 324.224C514.096 324.524 514.648 325.28 514.648 326.12C514.648 327.464 513.484 328.4 511.708 328.4ZM517.21 324.332C517.21 325.148 517.33 325.844 517.63 326.312C517.87 326.696 518.242 326.948 518.806 326.948C519.382 326.948 519.73 326.696 519.97 326.312C520.282 325.844 520.402 325.148 520.402 324.332C520.402 323.516 520.282 322.82 519.97 322.352C519.73 321.968 519.382 321.716 518.806 321.716C518.242 321.716 517.87 321.968 517.63 322.352C517.33 322.82 517.21 323.516 517.21 324.332ZM515.554 324.332C515.554 323.336 515.71 322.364 516.238 321.56C516.754 320.792 517.594 320.252 518.806 320.252C520.018 320.252 520.858 320.792 521.362 321.56C521.89 322.364 522.058 323.336 522.058 324.332C522.058 325.328 521.89 326.3 521.362 327.104C520.858 327.872 520.018 328.412 518.806 328.412C517.594 328.412 516.754 327.872 516.238 327.104C515.71 326.3 515.554 325.328 515.554 324.332Z" fill="#733015"/>
<path d="M614.658 328.22H613.014V323.012H611.142V321.896C612.282 321.884 613.074 321.248 613.23 320.432H614.658V328.22ZM617.805 324.332C617.805 325.148 617.925 325.844 618.225 326.312C618.465 326.696 618.837 326.948 619.401 326.948C619.977 326.948 620.325 326.696 620.565 326.312C620.877 325.844 620.997 325.148 620.997 324.332C620.997 323.516 620.877 322.82 620.565 322.352C620.325 321.968 619.977 321.716 619.401 321.716C618.837 321.716 618.465 321.968 618.225 322.352C617.925 322.82 617.805 323.516 617.805 324.332ZM616.149 324.332C616.149 323.336 616.305 322.364 616.833 321.56C617.349 320.792 618.189 320.252 619.401 320.252C620.613 320.252 621.453 320.792 621.957 321.56C622.485 322.364 622.653 323.336 622.653 324.332C622.653 325.328 622.485 326.3 621.957 327.104C621.453 327.872 620.613 328.412 619.401 328.412C618.189 328.412 617.349 327.872 616.833 327.104C616.305 326.3 616.149 325.328 616.149 324.332ZM625.27 324.332C625.27 325.148 625.39 325.844 625.69 326.312C625.93 326.696 626.302 326.948 626.866 326.948C627.442 326.948 627.79 326.696 628.03 326.312C628.342 325.844 628.462 325.148 628.462 324.332C628.462 323.516 628.342 322.82 628.03 322.352C627.79 321.968 627.442 321.716 626.866 321.716C626.302 321.716 625.93 321.968 625.69 322.352C625.39 322.82 625.27 323.516 625.27 324.332ZM623.614 324.332C623.614 323.336 623.77 322.364 624.298 321.56C624.814 320.792 625.654 320.252 626.866 320.252C628.078 320.252 628.918 320.792 629.422 321.56C629.95 322.364 630.118 323.336 630.118 324.332C630.118 325.328 629.95 326.3 629.422 327.104C628.918 327.872 628.078 328.412 626.866 328.412C625.654 328.412 624.814 327.872 624.298 327.104C623.77 326.3 623.614 325.328 623.614 324.332Z" fill="#733015"/>
<path d="M617.088 344.048C617.088 344.552 617.436 344.888 617.88 344.888C618.336 344.888 618.672 344.54 618.672 344.048C618.672 343.556 618.336 343.22 617.88 343.22C617.436 343.22 617.088 343.556 617.088 344.048ZM615.888 344.048C615.888 342.944 616.8 342.08 617.88 342.08C618.96 342.08 619.884 342.944 619.884 344.048C619.884 345.164 618.96 346.004 617.88 346.004C616.788 346.004 615.888 345.14 615.888 344.048ZM622.332 348.176C622.332 348.68 622.68 349.016 623.124 349.016C623.58 349.016 623.916 348.668 623.916 348.176C623.916 347.684 623.58 347.348 623.124 347.348C622.68 347.348 622.332 347.684 622.332 348.176ZM621.132 348.176C621.132 347.072 622.044 346.208 623.124 346.208C624.204 346.208 625.128 347.072 625.128 348.176C625.128 349.292 624.204 350.132 623.124 350.132C622.032 350.132 621.132 349.268 621.132 348.176ZM618.456 350H617.064L622.56 342.212H623.952L618.456 350Z" fill="#733015"/>
<path d="M40.6837 365H39.0037V356.492H40.6837V365ZM48.0377 359.096L45.7457 365H44.1497L41.7377 359.096H43.4897L44.9537 363.056L46.3577 359.096H48.0377ZM51.485 363.728C52.265 363.728 52.985 363.164 52.985 362.048C52.985 360.932 52.265 360.368 51.485 360.368C50.705 360.368 49.985 360.932 49.985 362.048C49.985 363.152 50.705 363.728 51.485 363.728ZM51.485 358.916C53.249 358.916 54.581 360.224 54.581 362.048C54.581 363.86 53.249 365.18 51.485 365.18C49.721 365.18 48.389 363.86 48.389 362.048C48.389 360.224 49.721 358.916 51.485 358.916ZM58.4928 363.728C59.2728 363.728 59.9928 363.164 59.9928 362.048C59.9928 360.932 59.2728 360.368 58.4928 360.368C57.7128 360.368 56.9928 360.932 56.9928 362.048C56.9928 363.152 57.7128 363.728 58.4928 363.728ZM58.4928 358.916C60.2568 358.916 61.5888 360.224 61.5888 362.048C61.5888 363.86 60.2568 365.18 58.4928 365.18C56.7288 365.18 55.3968 363.86 55.3968 362.048C55.3968 360.224 56.7288 358.916 58.4928 358.916ZM66.4486 359.072V360.68C66.2686 360.644 66.1126 360.632 65.9686 360.632C65.1526 360.632 64.4446 361.028 64.4446 362.3V365H62.8486V359.096H64.3966V359.972C64.7566 359.192 65.5726 359.048 66.0766 359.048C66.2086 359.048 66.3286 359.06 66.4486 359.072ZM73.2952 359.096L70.9312 361.58L73.3432 365H71.3872L69.8272 362.744L69.1672 363.44V365H67.5712V356.312H69.1672V361.292L71.2072 359.096H73.2952ZM78.0798 365C78.0558 364.88 78.0318 364.604 78.0318 364.364C77.7078 364.916 77.0238 365.156 76.3998 365.156C74.9718 365.156 74.1558 364.112 74.1558 362.828V359.096H75.7518V362.504C75.7518 363.164 76.0878 363.692 76.8318 363.692C77.5398 363.692 77.9478 363.212 77.9478 362.528V359.096H79.5438V363.932C79.5438 364.388 79.5798 364.796 79.6038 365H78.0798ZM80.743 363.356L82.111 363.056C82.147 363.524 82.495 363.956 83.191 363.956C83.719 363.956 83.971 363.68 83.971 363.368C83.971 363.104 83.791 362.888 83.335 362.792L82.555 362.612C81.415 362.36 80.899 361.676 80.899 360.848C80.899 359.792 81.835 358.916 83.107 358.916C84.787 358.916 85.351 359.984 85.423 360.62L84.091 360.92C84.043 360.572 83.791 360.128 83.119 360.128C82.699 360.128 82.363 360.38 82.363 360.716C82.363 361.004 82.579 361.184 82.903 361.244L83.743 361.424C84.907 361.664 85.495 362.372 85.495 363.236C85.495 364.196 84.751 365.18 83.203 365.18C81.427 365.18 80.815 364.028 80.743 363.356ZM88.7463 357.332V359.096H89.9343V360.512H88.7463V362.984C88.7463 363.5 88.9863 363.668 89.4423 363.668C89.6343 363.668 89.8503 363.644 89.9343 363.62V364.94C89.7903 365 89.5023 365.084 89.0343 365.084C87.8823 365.084 87.1623 364.4 87.1623 363.26V360.512H86.0943V359.096H86.3943C87.0183 359.096 87.3063 358.688 87.3063 358.16V357.332H88.7463Z" fill="#733015"/>
<path d="M163.028 365.17H161.684L161.576 364.198C161.192 364.774 160.352 365.35 159.068 365.35C156.776 365.35 154.82 363.67 154.82 360.922C154.82 358.174 156.872 356.482 159.176 356.482C161.408 356.482 162.644 357.79 163.064 359.098L161.48 359.662C161.264 358.906 160.556 358.03 159.176 358.03C157.892 358.03 156.5 358.906 156.5 360.922C156.5 362.842 157.76 363.838 159.188 363.838C160.76 363.838 161.372 362.782 161.468 362.182H158.78V360.742H163.028V365.17ZM166.175 361.702V365.17H164.579V356.482H166.175V359.758C166.559 359.302 167.207 359.11 167.771 359.11C169.271 359.11 169.967 360.154 169.967 361.45V365.17H168.371V361.726C168.371 361.066 168.047 360.55 167.279 360.55C166.607 360.55 166.211 361.054 166.175 361.702ZM171.226 363.562C171.226 362.506 172.006 361.918 172.99 361.774L174.442 361.558C174.778 361.51 174.886 361.342 174.886 361.138C174.886 360.718 174.562 360.37 173.89 360.37C173.194 360.37 172.81 360.814 172.762 361.33L171.346 361.03C171.442 360.106 172.294 359.086 173.878 359.086C175.75 359.086 176.446 360.142 176.446 361.33V364.234C176.446 364.546 176.482 364.966 176.518 365.17H175.054C175.018 365.014 174.994 364.69 174.994 364.462C174.694 364.93 174.13 365.338 173.254 365.338C171.994 365.338 171.226 364.486 171.226 363.562ZM173.59 364.15C174.262 364.15 174.886 363.826 174.886 362.782V362.518L173.554 362.722C173.146 362.782 172.822 363.01 172.822 363.466C172.822 363.814 173.074 364.15 173.59 364.15ZM179.651 361.774V365.17H178.055V359.266H179.603V359.998C179.963 359.386 180.671 359.11 181.307 359.11C182.771 359.11 183.443 360.154 183.443 361.45V365.17H181.847V361.726C181.847 361.066 181.523 360.55 180.755 360.55C180.059 360.55 179.651 361.09 179.651 361.774ZM184.703 363.562C184.703 362.506 185.483 361.918 186.467 361.774L187.919 361.558C188.255 361.51 188.363 361.342 188.363 361.138C188.363 360.718 188.039 360.37 187.367 360.37C186.671 360.37 186.287 360.814 186.239 361.33L184.823 361.03C184.919 360.106 185.771 359.086 187.355 359.086C189.227 359.086 189.923 360.142 189.923 361.33V364.234C189.923 364.546 189.959 364.966 189.995 365.17H188.531C188.495 365.014 188.471 364.69 188.471 364.462C188.171 364.93 187.607 365.338 186.731 365.338C185.471 365.338 184.703 364.486 184.703 363.562ZM187.067 364.15C187.739 364.15 188.363 363.826 188.363 362.782V362.518L187.031 362.722C186.623 362.782 186.299 363.01 186.299 363.466C186.299 363.814 186.551 364.15 187.067 364.15Z" fill="#733015"/>
<path d="M258.778 365L256.306 361.472L255.25 362.636V365H253.594V356.492H255.25V360.344L258.658 356.492H260.83L257.458 360.2L260.854 365H258.778ZM261.235 363.392C261.235 362.336 262.015 361.748 262.999 361.604L264.451 361.388C264.787 361.34 264.895 361.172 264.895 360.968C264.895 360.548 264.571 360.2 263.899 360.2C263.203 360.2 262.819 360.644 262.771 361.16L261.355 360.86C261.451 359.936 262.303 358.916 263.887 358.916C265.759 358.916 266.455 359.972 266.455 361.16V364.064C266.455 364.376 266.491 364.796 266.527 365H265.063C265.027 364.844 265.003 364.52 265.003 364.292C264.703 364.76 264.139 365.168 263.263 365.168C262.003 365.168 261.235 364.316 261.235 363.392ZM263.599 363.98C264.271 363.98 264.895 363.656 264.895 362.612V362.348L263.563 362.552C263.155 362.612 262.831 362.84 262.831 363.296C262.831 363.644 263.083 363.98 263.599 363.98ZM269.659 365H268.063V359.096H269.587V359.816C269.911 359.24 270.667 358.928 271.315 358.928C272.119 358.928 272.767 359.276 273.067 359.912C273.535 359.192 274.159 358.928 274.939 358.928C276.031 358.928 277.075 359.588 277.075 361.172V365H275.527V361.496C275.527 360.86 275.215 360.38 274.483 360.38C273.799 360.38 273.391 360.908 273.391 361.544V365H271.807V361.496C271.807 360.86 271.483 360.38 270.763 360.38C270.067 360.38 269.659 360.896 269.659 361.544V365ZM279.856 361.376H282.496C282.472 360.788 282.088 360.212 281.176 360.212C280.348 360.212 279.892 360.836 279.856 361.376ZM282.652 362.912L283.984 363.308C283.684 364.328 282.748 365.18 281.296 365.18C279.676 365.18 278.248 364.016 278.248 362.024C278.248 360.14 279.64 358.916 281.152 358.916C282.976 358.916 284.068 360.08 284.068 361.976C284.068 362.204 284.044 362.444 284.044 362.468H279.82C279.856 363.248 280.516 363.812 281.308 363.812C282.052 363.812 282.46 363.44 282.652 362.912ZM288.925 359.072V360.68C288.745 360.644 288.589 360.632 288.445 360.632C287.629 360.632 286.921 361.028 286.921 362.3V365H285.325V359.096H286.873V359.972C287.233 359.192 288.049 359.048 288.553 359.048C288.685 359.048 288.805 359.06 288.925 359.072ZM292.641 363.728C293.421 363.728 294.141 363.164 294.141 362.048C294.141 360.932 293.421 360.368 292.641 360.368C291.861 360.368 291.141 360.932 291.141 362.048C291.141 363.152 291.861 363.728 292.641 363.728ZM292.641 358.916C294.405 358.916 295.737 360.224 295.737 362.048C295.737 363.86 294.405 365.18 292.641 365.18C290.877 365.18 289.545 363.86 289.545 362.048C289.545 360.224 290.877 358.916 292.641 358.916ZM298.161 361.376H300.801C300.777 360.788 300.393 360.212 299.481 360.212C298.653 360.212 298.197 360.836 298.161 361.376ZM300.957 362.912L302.289 363.308C301.989 364.328 301.053 365.18 299.601 365.18C297.981 365.18 296.553 364.016 296.553 362.024C296.553 360.14 297.945 358.916 299.457 358.916C301.281 358.916 302.373 360.08 302.373 361.976C302.373 362.204 302.349 362.444 302.349 362.468H298.125C298.161 363.248 298.821 363.812 299.613 363.812C300.357 363.812 300.765 363.44 300.957 362.912ZM305.226 361.604V365H303.63V359.096H305.178V359.828C305.538 359.216 306.246 358.94 306.882 358.94C308.346 358.94 309.018 359.984 309.018 361.28V365H307.422V361.556C307.422 360.896 307.098 360.38 306.33 360.38C305.634 360.38 305.226 360.92 305.226 361.604Z" fill="#733015"/>
<path d="M381.894 365H380.154L376.29 358.964V365H374.634V356.492H376.698L380.238 362.12V356.492H381.894V365ZM385.309 365H383.713V359.096H385.309V365ZM383.521 357.164C383.521 356.612 383.965 356.168 384.505 356.168C385.057 356.168 385.489 356.612 385.489 357.164C385.489 357.692 385.057 358.136 384.505 358.136C383.965 358.136 383.521 357.692 383.521 357.164ZM386.598 365.324L388.038 364.94C388.146 365.588 388.662 366.056 389.418 366.056C390.426 366.056 390.99 365.552 390.99 364.412V363.98C390.75 364.364 390.198 364.736 389.346 364.736C387.774 364.736 386.598 363.524 386.598 361.868C386.598 360.308 387.726 358.988 389.346 358.988C390.282 358.988 390.822 359.396 391.026 359.792V359.096H392.562V364.364C392.562 365.984 391.686 367.46 389.466 367.46C387.846 367.46 386.766 366.452 386.598 365.324ZM389.622 363.368C390.438 363.368 391.014 362.78 391.014 361.868C391.014 360.956 390.39 360.38 389.622 360.38C388.83 360.38 388.206 360.956 388.206 361.868C388.206 362.792 388.794 363.368 389.622 363.368ZM395.342 361.376H397.982C397.958 360.788 397.574 360.212 396.662 360.212C395.834 360.212 395.378 360.836 395.342 361.376ZM398.138 362.912L399.47 363.308C399.17 364.328 398.234 365.18 396.782 365.18C395.162 365.18 393.734 364.016 393.734 362.024C393.734 360.14 395.126 358.916 396.638 358.916C398.462 358.916 399.554 360.08 399.554 361.976C399.554 362.204 399.53 362.444 399.53 362.468H395.306C395.342 363.248 396.002 363.812 396.794 363.812C397.538 363.812 397.946 363.44 398.138 362.912ZM404.41 359.072V360.68C404.23 360.644 404.074 360.632 403.93 360.632C403.114 360.632 402.406 361.028 402.406 362.3V365H400.81V359.096H402.358V359.972C402.718 359.192 403.534 359.048 404.038 359.048C404.17 359.048 404.29 359.06 404.41 359.072ZM407.129 365H405.533V359.096H407.129V365ZM405.341 357.164C405.341 356.612 405.785 356.168 406.325 356.168C406.877 356.168 407.309 356.612 407.309 357.164C407.309 357.692 406.877 358.136 406.325 358.136C405.785 358.136 405.341 357.692 405.341 357.164ZM408.478 363.392C408.478 362.336 409.258 361.748 410.242 361.604L411.694 361.388C412.03 361.34 412.138 361.172 412.138 360.968C412.138 360.548 411.814 360.2 411.142 360.2C410.446 360.2 410.062 360.644 410.014 361.16L408.598 360.86C408.694 359.936 409.546 358.916 411.13 358.916C413.002 358.916 413.698 359.972 413.698 361.16V364.064C413.698 364.376 413.734 364.796 413.77 365H412.306C412.27 364.844 412.246 364.52 412.246 364.292C411.946 364.76 411.382 365.168 410.506 365.168C409.246 365.168 408.478 364.316 408.478 363.392ZM410.842 363.98C411.514 363.98 412.138 363.656 412.138 362.612V362.348L410.806 362.552C410.398 362.612 410.074 362.84 410.074 363.296C410.074 363.644 410.326 363.98 410.842 363.98Z" fill="#733015"/>
<path d="M479.766 360.74C479.766 362.66 481.11 363.572 482.418 363.572C483.738 363.572 485.082 362.66 485.082 360.74C485.082 358.82 483.738 357.908 482.418 357.908C481.11 357.908 479.766 358.82 479.766 360.74ZM478.05 360.752C478.05 358.004 480.114 356.312 482.418 356.312C484.734 356.312 486.798 358.004 486.798 360.752C486.798 363.488 484.734 365.18 482.418 365.18C480.114 365.18 478.05 363.488 478.05 360.752ZM493.681 359.096L491.389 365H489.793L487.381 359.096H489.133L490.597 363.056L492.001 359.096H493.681ZM495.641 361.376H498.281C498.257 360.788 497.873 360.212 496.961 360.212C496.133 360.212 495.677 360.836 495.641 361.376ZM498.437 362.912L499.769 363.308C499.469 364.328 498.533 365.18 497.081 365.18C495.461 365.18 494.033 364.016 494.033 362.024C494.033 360.14 495.425 358.916 496.937 358.916C498.761 358.916 499.853 360.08 499.853 361.976C499.853 362.204 499.829 362.444 499.829 362.468H495.605C495.641 363.248 496.301 363.812 497.093 363.812C497.837 363.812 498.245 363.44 498.437 362.912ZM504.709 359.072V360.68C504.529 360.644 504.373 360.632 504.229 360.632C503.413 360.632 502.705 361.028 502.705 362.3V365H501.109V359.096H502.657V359.972C503.017 359.192 503.833 359.048 504.337 359.048C504.469 359.048 504.589 359.06 504.709 359.072ZM507.428 365H505.832V359.096H507.428V365ZM505.64 357.164C505.64 356.612 506.084 356.168 506.624 356.168C507.176 356.168 507.608 356.612 507.608 357.164C507.608 357.692 507.176 358.136 506.624 358.136C506.084 358.136 505.64 357.692 505.64 357.164ZM508.717 365.324L510.157 364.94C510.265 365.588 510.781 366.056 511.537 366.056C512.545 366.056 513.109 365.552 513.109 364.412V363.98C512.869 364.364 512.317 364.736 511.465 364.736C509.893 364.736 508.717 363.524 508.717 361.868C508.717 360.308 509.845 358.988 511.465 358.988C512.401 358.988 512.941 359.396 513.145 359.792V359.096H514.681V364.364C514.681 365.984 513.805 367.46 511.585 367.46C509.965 367.46 508.885 366.452 508.717 365.324ZM511.741 363.368C512.557 363.368 513.133 362.78 513.133 361.868C513.133 360.956 512.509 360.38 511.741 360.38C510.949 360.38 510.325 360.956 510.325 361.868C510.325 362.792 510.913 363.368 511.741 363.368Z" fill="#733015"/>
<path d="M27.0217 355.71H-0.258301V366.94H27.0217V355.71Z" fill="#733015"/>
<path d="M142.682 355.71H115.402V366.94H142.682V355.71Z" fill="#442D1D"/>
<path d="M241.972 355.71H214.692V366.94H241.972V355.71Z" fill="#E7D0A6"/>
<path d="M362.612 355.71H335.332V366.94H362.612V355.71Z" fill="#9C9167"/>
<path d="M467.142 355.71H439.862V366.94H467.142V355.71Z" fill="#835A2C"/>
<path d="M1.874 5.31201C1.922 4.16801 1.922 2.86001 1.874 1.38801C2.01 1.38801 2.222 1.38001 2.51 1.36401C2.806 1.34801 3.07 1.34001 3.302 1.34001C3.542 1.34001 3.754 1.35601 3.938 1.38801C3.986 1.96401 4.01 2.47601 4.01 2.92401C4.01 3.37201 3.998 3.88001 3.974 4.44801C3.95 5.00801 3.938 5.45601 3.938 5.79201C3.914 8.01601 3.906 9.24401 3.914 9.47601H1.874C1.874 9.20401 1.87 8.77201 1.862 8.18001C1.854 7.58001 1.85 7.04001 1.85 6.56001C1.85 6.07201 1.858 5.65601 1.874 5.31201ZM5.26128 4.53201C5.26928 4.44401 5.29328 3.39201 5.33328 1.37601C5.90928 1.36001 6.44928 1.35601 6.95328 1.36401C7.46528 1.37201 7.80928 1.38801 7.98528 1.41201C8.72128 3.42001 9.15328 4.55201 9.28128 4.80801C9.34528 4.33601 9.40928 3.70401 9.47328 2.91201C9.53728 2.11201 9.56528 1.61201 9.55728 1.41201C10.2613 1.36401 10.7813 1.38401 11.1173 1.47201C11.1413 1.92001 11.0973 3.06801 10.9853 4.91601C10.8733 6.76401 10.7813 8.15601 10.7093 9.09201C10.5173 9.10801 10.3013 9.11601 10.0613 9.11601C9.82928 9.11601 9.59728 9.11201 9.36528 9.10401C9.13328 9.09601 8.99328 9.09201 8.94528 9.09201C8.84928 8.88401 8.68128 8.48001 8.44128 7.88001C8.20128 7.28001 7.98928 6.77601 7.80528 6.36801C7.62128 5.95201 7.46928 5.65201 7.34928 5.46801C7.33328 5.89201 7.31328 6.42401 7.28928 7.06401C7.26528 7.69601 7.24528 8.18401 7.22928 8.52801C7.22128 8.87201 7.21728 9.10001 7.21728 9.21201C6.96928 9.31601 6.31728 9.34801 5.26128 9.30801C5.22128 8.62801 5.20128 7.78801 5.20128 6.78801C5.20928 5.78001 5.22928 5.02801 5.26128 4.53201ZM13.7365 9.45201C12.7845 5.39601 12.1965 2.70001 11.9725 1.36401C12.6765 1.25201 13.4325 1.22001 14.2405 1.26801C14.3285 1.96401 14.4845 3.02401 14.7085 4.44801C14.9325 5.86401 15.0765 6.70001 15.1405 6.95601C15.2445 6.50001 15.4285 5.49601 15.6925 3.94401C15.9645 2.39201 16.1285 1.50001 16.1845 1.26801C16.9445 1.25201 17.5085 1.28001 17.8765 1.35201C17.2605 6.11201 16.9045 8.81201 16.8085 9.45201C16.7205 9.45201 16.4245 9.44801 15.9205 9.44001C15.4245 9.44001 14.9725 9.44001 14.5645 9.44001C14.1565 9.44001 13.8805 9.44401 13.7365 9.45201ZM18.5238 7.25601C18.4838 6.62401 18.4838 6.02801 18.5238 5.46801C18.5718 4.90001 18.6558 4.19601 18.7758 3.35601C18.9678 2.05201 19.8718 1.36401 21.4878 1.29201C22.1518 1.26801 22.6958 1.45601 23.1198 1.85601C23.5438 2.25601 23.7958 2.86401 23.8758 3.68001C23.9478 4.53601 23.9478 5.36801 23.8758 6.17601C23.8118 6.98401 23.6998 7.63201 23.5398 8.12001C23.2918 8.86401 22.4638 9.26401 21.0558 9.32001C20.8078 9.32801 20.5438 9.29201 20.2638 9.21201C19.9918 9.12401 19.7278 8.99601 19.4718 8.82801C19.2158 8.66001 18.9998 8.44001 18.8238 8.16801C18.6478 7.88801 18.5478 7.58401 18.5238 7.25601ZM20.7318 3.89601C20.6598 4.23201 20.6038 4.66801 20.5638 5.20401C20.5238 5.74001 20.5078 6.14401 20.5158 6.41601C20.5158 6.64801 20.5838 6.85601 20.7198 7.04001C20.8558 7.21601 20.9958 7.31201 21.1398 7.32801C21.2998 7.34401 21.4398 7.30801 21.5598 7.22001C21.6878 7.13201 21.7798 6.97601 21.8358 6.75201C21.8838 6.53601 21.9278 6.12401 21.9678 5.51601C22.0078 4.90801 22.0278 4.43601 22.0278 4.10001C22.0278 3.82801 21.9638 3.62001 21.8358 3.47601C21.7158 3.32401 21.5798 3.24801 21.4278 3.24801C21.0518 3.24801 20.8198 3.46401 20.7318 3.89601ZM30.1897 9.46401C29.8377 9.44001 29.0217 9.42801 27.7417 9.42801C26.4617 9.42801 25.5657 9.42001 25.0537 9.40401C25.0537 8.99601 25.0497 8.48401 25.0417 7.86801C25.0337 7.25201 25.0297 6.73201 25.0297 6.30801C25.0297 5.88401 25.0377 5.50001 25.0537 5.15601C25.0777 4.72401 25.0817 4.03601 25.0657 3.09201C25.0497 2.14801 25.0457 1.64001 25.0537 1.56801C25.3337 1.55201 25.8617 1.52001 26.6377 1.47201C27.4217 1.42401 28.1177 1.38801 28.7257 1.36401C29.3417 1.33201 29.7657 1.32401 29.9977 1.34001C30.0297 1.86001 30.0297 2.59201 29.9977 3.53601C29.8297 3.52801 29.3417 3.54801 28.5337 3.59601C27.7337 3.63601 27.2857 3.65201 27.1897 3.64401C27.1897 3.74001 27.1937 3.90401 27.2017 4.13601C27.2097 4.36001 27.2137 4.50401 27.2137 4.56801L28.6177 4.52001C28.6657 5.34401 28.6897 5.82401 28.6897 5.96001L27.2497 6.04401C27.2417 6.67601 27.2417 7.12001 27.2497 7.37601C28.8257 7.32801 29.7297 7.30801 29.9617 7.31601C30.1137 8.74001 30.1897 9.45601 30.1897 9.46401ZM31.489 9.30801C31.505 8.87601 31.497 7.57601 31.465 5.40801C31.441 3.24001 31.417 1.92401 31.393 1.46001C31.537 1.45201 31.769 1.43201 32.089 1.40001C32.417 1.36801 32.653 1.34801 32.797 1.34001C32.949 1.32401 33.157 1.31201 33.421 1.30401C33.685 1.29601 33.889 1.30401 34.033 1.32801C34.185 1.34401 34.353 1.37601 34.537 1.42401C34.729 1.46401 34.893 1.52801 35.029 1.61601C35.165 1.69601 35.285 1.80001 35.389 1.92801C35.645 2.20801 35.793 2.59201 35.833 3.08001C35.873 3.56001 35.813 4.03601 35.653 4.50801C35.493 4.97201 35.265 5.33201 34.969 5.58801C35.809 7.74001 36.297 8.94401 36.433 9.20001C35.721 9.27201 35.097 9.30801 34.561 9.30801C34.449 9.11601 34.245 8.70001 33.949 8.06001C33.661 7.42001 33.469 7.04001 33.373 6.92001C33.373 7.30401 33.381 7.67601 33.397 8.03601C33.421 8.39601 33.441 8.68801 33.457 8.91201C33.481 9.12801 33.493 9.26001 33.493 9.30801C33.381 9.30801 33.173 9.31201 32.869 9.32001C32.565 9.32001 32.293 9.32001 32.053 9.32001C31.813 9.32001 31.625 9.31601 31.489 9.30801ZM33.157 3.15201C33.165 3.25601 33.177 3.46801 33.193 3.78801C33.217 4.10001 33.233 4.31601 33.241 4.43601C33.409 4.42001 33.549 4.35601 33.661 4.24401C33.781 4.12401 33.841 3.96801 33.841 3.77601C33.833 3.57601 33.761 3.40801 33.625 3.27201C33.489 3.13601 33.333 3.09601 33.157 3.15201ZM38.2802 9.09201C38.2562 8.94001 38.0082 7.76401 37.5362 5.56401C37.0722 3.36401 36.8322 2.06001 36.8162 1.65201C37.0322 1.65201 37.2962 1.64801 37.6082 1.64001C37.9202 1.63201 38.1842 1.62801 38.4002 1.62801C38.6242 1.62801 38.8282 1.63601 39.0122 1.65201C39.0682 1.90001 39.1642 2.35201 39.3002 3.00801C39.4362 3.66401 39.5602 4.25601 39.6722 4.78401C39.7842 5.30401 39.8562 5.60801 39.8882 5.69601C40.0002 5.45601 40.1122 5.20001 40.2242 4.92801C40.3362 4.64801 40.4442 4.36801 40.5482 4.08801C40.6522 3.80801 40.7042 3.66801 40.7042 3.66801H42.2402C42.4802 4.65201 42.6202 5.26001 42.6602 5.49201C42.7722 5.19601 42.9002 4.78401 43.0442 4.25601C43.1962 3.72001 43.3442 3.17201 43.4882 2.61201C43.6322 2.04401 43.7162 1.71601 43.7402 1.62801C43.8922 1.62801 44.3162 1.61201 45.0122 1.58001C45.7082 1.54801 46.1362 1.54001 46.2962 1.55601C46.1842 1.91601 46.0562 2.37601 45.9122 2.93601C45.7762 3.49601 45.6202 4.14401 45.4442 4.88001C45.2762 5.60801 45.1802 6.02401 45.1562 6.12801C45.0282 6.64001 44.8842 7.26401 44.7242 8.00001C44.5722 8.73601 44.4882 9.17201 44.4722 9.30801H41.7842C41.7202 9.10801 41.6482 8.86001 41.5682 8.56401C41.4962 8.26801 41.4282 7.96401 41.3642 7.65201C41.3002 7.34001 41.2562 7.14001 41.2322 7.05201C41.0242 7.38001 40.6722 8.03601 40.1762 9.02001C39.9602 9.05201 39.6322 9.07601 39.1922 9.09201C38.7522 9.10001 38.4482 9.10001 38.2802 9.09201ZM47.2801 4.91601C47.3761 4.60401 47.5121 4.18401 47.6881 3.65601C47.8641 3.12801 48.0081 2.68401 48.1201 2.32401C48.2401 1.95601 48.3241 1.66801 48.3721 1.46001C49.2841 1.46001 49.8561 1.47601 50.0881 1.50801C50.2081 1.96401 50.4041 2.66401 50.6761 3.60801C50.9481 4.54401 51.1321 5.20401 51.2281 5.58801C51.3481 6.06801 51.5081 6.78801 51.7081 7.74801C51.9161 8.70801 52.0401 9.29601 52.0801 9.51201C51.3281 9.56001 50.7241 9.56001 50.2681 9.51201C50.2201 9.25601 50.1361 8.84801 50.0161 8.28801C49.8961 7.72001 49.8321 7.35601 49.8241 7.19601C49.3281 7.19601 48.8761 7.22801 48.4681 7.29201C48.3801 7.56401 48.2881 7.92401 48.1921 8.37201C48.1041 8.82001 48.0601 9.11601 48.0601 9.26001C47.8681 9.28401 47.5321 9.30401 47.0521 9.32001C46.5721 9.32801 46.2521 9.32001 46.0921 9.29601C46.5321 7.51201 46.9281 6.05201 47.2801 4.91601ZM48.9001 5.50401C48.9001 5.50401 49.1121 5.50401 49.5361 5.50401C49.4241 5.05601 49.3041 4.73201 49.1761 4.53201C49.1041 4.84401 49.0121 5.16801 48.9001 5.50401ZM53.7958 4.91601C53.8918 4.60401 54.0278 4.18401 54.2038 3.65601C54.3798 3.12801 54.5238 2.68401 54.6358 2.32401C54.7558 1.95601 54.8398 1.66801 54.8878 1.46001C55.7998 1.46001 56.3718 1.47601 56.6038 1.50801C56.7238 1.96401 56.9198 2.66401 57.1918 3.60801C57.4638 4.54401 57.6478 5.20401 57.7438 5.58801C57.8638 6.06801 58.0238 6.78801 58.2238 7.74801C58.4318 8.70801 58.5558 9.29601 58.5958 9.51201C57.8438 9.56001 57.2398 9.56001 56.7838 9.51201C56.7358 9.25601 56.6518 8.84801 56.5318 8.28801C56.4118 7.72001 56.3478 7.35601 56.3398 7.19601C55.8438 7.19601 55.3918 7.22801 54.9838 7.29201C54.8958 7.56401 54.8038 7.92401 54.7078 8.37201C54.6198 8.82001 54.5758 9.11601 54.5758 9.26001C54.3838 9.28401 54.0478 9.30401 53.5678 9.32001C53.0878 9.32801 52.7678 9.32001 52.6078 9.29601C53.0478 7.51201 53.4438 6.05201 53.7958 4.91601ZM55.4158 5.50401C55.4158 5.50401 55.6278 5.50401 56.0518 5.50401C55.9398 5.05601 55.8198 4.73201 55.6918 4.53201C55.6198 4.84401 55.5278 5.16801 55.4158 5.50401ZM59.5554 9.30801C59.5714 8.87601 59.5634 7.57601 59.5314 5.40801C59.5074 3.24001 59.4834 1.92401 59.4594 1.46001C59.6034 1.45201 59.8354 1.43201 60.1554 1.40001C60.4834 1.36801 60.7194 1.34801 60.8634 1.34001C61.0154 1.32401 61.2234 1.31201 61.4874 1.30401C61.7514 1.29601 61.9554 1.30401 62.0994 1.32801C62.2514 1.34401 62.4194 1.37601 62.6034 1.42401C62.7954 1.46401 62.9594 1.52801 63.0954 1.61601C63.2314 1.69601 63.3514 1.80001 63.4554 1.92801C63.7114 2.20801 63.8594 2.59201 63.8994 3.08001C63.9394 3.56001 63.8794 4.03601 63.7194 4.50801C63.5594 4.97201 63.3314 5.33201 63.0354 5.58801C63.8754 7.74001 64.3634 8.94401 64.4994 9.20001C63.7874 9.27201 63.1634 9.30801 62.6274 9.30801C62.5154 9.11601 62.3114 8.70001 62.0154 8.06001C61.7274 7.42001 61.5354 7.04001 61.4394 6.92001C61.4394 7.30401 61.4474 7.67601 61.4634 8.03601C61.4874 8.39601 61.5074 8.68801 61.5234 8.91201C61.5474 9.12801 61.5594 9.26001 61.5594 9.30801C61.4474 9.30801 61.2394 9.31201 60.9354 9.32001C60.6314 9.32001 60.3594 9.32001 60.1194 9.32001C59.8794 9.32001 59.6914 9.31601 59.5554 9.30801ZM61.2234 3.15201C61.2314 3.25601 61.2434 3.46801 61.2594 3.78801C61.2834 4.10001 61.2994 4.31601 61.3074 4.43601C61.4754 4.42001 61.6154 4.35601 61.7274 4.24401C61.8474 4.12401 61.9074 3.96801 61.9074 3.77601C61.8994 3.57601 61.8274 3.40801 61.6914 3.27201C61.5554 3.13601 61.3994 3.09601 61.2234 3.15201ZM65.309 5.10801C65.309 4.99601 65.289 4.41601 65.249 3.36801C65.217 2.31201 65.209 1.59601 65.225 1.22001C66.593 1.22001 67.665 1.26801 68.441 1.36401C68.657 1.38801 68.849 1.47201 69.017 1.61601C69.185 1.75201 69.313 1.90801 69.401 2.08401C69.497 2.26001 69.573 2.48001 69.629 2.74401C69.693 3.00801 69.733 3.23201 69.749 3.41601C69.773 3.60001 69.793 3.81601 69.809 4.06401C69.913 5.77601 69.913 6.98401 69.809 7.68801C69.761 8.00001 69.613 8.28001 69.365 8.52801C69.125 8.77601 68.849 8.96801 68.537 9.10401C68.233 9.23201 67.905 9.32801 67.553 9.39201C67.153 9.46401 66.733 9.50001 66.293 9.50001C65.853 9.50001 65.565 9.49201 65.429 9.47601C65.381 8.85201 65.341 7.39601 65.309 5.10801ZM67.085 3.65601C67.085 3.95201 67.093 4.50401 67.109 5.31201C67.133 6.11201 67.145 6.59601 67.145 6.76401C67.289 6.75601 67.453 6.69201 67.637 6.57201C67.829 6.44401 67.941 6.29601 67.973 6.12801C68.045 5.74401 68.073 5.25201 68.057 4.65201C68.049 4.40401 67.953 4.18801 67.769 4.00401C67.593 3.81201 67.365 3.69601 67.085 3.65601ZM76.2561 9.46401C75.9041 9.44001 75.0881 9.42801 73.8081 9.42801C72.5281 9.42801 71.6321 9.42001 71.1201 9.40401C71.1201 8.99601 71.1161 8.48401 71.1081 7.86801C71.1001 7.25201 71.0961 6.73201 71.0961 6.30801C71.0961 5.88401 71.1041 5.50001 71.1201 5.15601C71.1441 4.72401 71.1481 4.03601 71.1321 3.09201C71.1161 2.14801 71.1121 1.64001 71.1201 1.56801C71.4001 1.55201 71.9281 1.52001 72.7041 1.47201C73.4881 1.42401 74.1841 1.38801 74.7921 1.36401C75.4081 1.33201 75.8321 1.32401 76.0641 1.34001C76.0961 1.86001 76.0961 2.59201 76.0641 3.53601C75.8961 3.52801 75.4081 3.54801 74.6001 3.59601C73.8001 3.63601 73.3521 3.65201 73.2561 3.64401C73.2561 3.74001 73.2601 3.90401 73.2681 4.13601C73.2761 4.36001 73.2801 4.50401 73.2801 4.56801L74.6841 4.52001C74.7321 5.34401 74.7561 5.82401 74.7561 5.96001L73.3161 6.04401C73.3081 6.67601 73.3081 7.12001 73.3161 7.37601C74.8921 7.32801 75.7961 7.30801 76.0281 7.31601C76.1801 8.74001 76.2561 9.45601 76.2561 9.46401ZM80.1081 7.13601C80.0201 6.53601 79.9761 5.94801 79.9761 5.37201C79.9841 4.79601 80.0521 4.21601 80.1801 3.63201C80.3401 2.94401 80.6521 2.39201 81.1161 1.97601C81.5881 1.56001 82.1841 1.34001 82.9041 1.31601C83.2641 1.30001 83.5721 1.33601 83.8281 1.42401C84.0841 1.50401 84.2881 1.63201 84.4401 1.80801C84.5921 1.98401 84.7081 2.17601 84.7881 2.38401C84.8761 2.58401 84.9481 2.82401 85.0041 3.10401C84.7401 3.39201 84.2561 3.75601 83.5521 4.19601C83.4481 4.06801 83.3081 3.97201 83.1321 3.90801C82.9641 3.83601 82.7881 3.81201 82.6041 3.83601C82.4281 3.85201 82.2681 3.96801 82.1241 4.18401C81.9881 4.39201 81.9121 4.69201 81.8961 5.08401C81.8641 5.60401 81.9401 5.99601 82.1241 6.26001C82.3161 6.52401 82.5361 6.63201 82.7841 6.58401C83.0321 6.52801 83.2401 6.35201 83.4081 6.05601C84.3361 6.68801 84.8561 7.03601 84.9681 7.10001C84.9121 7.36401 84.8281 7.62801 84.7161 7.89201C84.6121 8.15601 84.4721 8.41601 84.2961 8.67201C84.1201 8.92001 83.9001 9.12401 83.6361 9.28401C83.3801 9.43601 83.0961 9.50801 82.7841 9.50001C82.1281 9.49201 81.5361 9.25601 81.0081 8.79201C80.4881 8.32801 80.1881 7.77601 80.1081 7.13601ZM86.5848 4.91601C86.6808 4.60401 86.8168 4.18401 86.9928 3.65601C87.1688 3.12801 87.3128 2.68401 87.4248 2.32401C87.5448 1.95601 87.6288 1.66801 87.6768 1.46001C88.5888 1.46001 89.1608 1.47601 89.3928 1.50801C89.5128 1.96401 89.7088 2.66401 89.9808 3.60801C90.2528 4.54401 90.4368 5.20401 90.5328 5.58801C90.6528 6.06801 90.8128 6.78801 91.0128 7.74801C91.2208 8.70801 91.3448 9.29601 91.3848 9.51201C90.6328 9.56001 90.0288 9.56001 89.5728 9.51201C89.5248 9.25601 89.4408 8.84801 89.3208 8.28801C89.2008 7.72001 89.1368 7.35601 89.1288 7.19601C88.6328 7.19601 88.1808 7.22801 87.7728 7.29201C87.6848 7.56401 87.5928 7.92401 87.4968 8.37201C87.4088 8.82001 87.3648 9.11601 87.3648 9.26001C87.1728 9.28401 86.8368 9.30401 86.3568 9.32001C85.8768 9.32801 85.5568 9.32001 85.3968 9.29601C85.8368 7.51201 86.2328 6.05201 86.5848 4.91601ZM88.2048 5.50401C88.2048 5.50401 88.4168 5.50401 88.8408 5.50401C88.7288 5.05601 88.6088 4.73201 88.4808 4.53201C88.4088 4.84401 88.3168 5.16801 88.2048 5.50401ZM91.8972 7.13601C91.8092 6.53601 91.7652 5.94801 91.7652 5.37201C91.7732 4.79601 91.8412 4.21601 91.9692 3.63201C92.1292 2.94401 92.4412 2.39201 92.9052 1.97601C93.3772 1.56001 93.9732 1.34001 94.6932 1.31601C95.0532 1.30001 95.3612 1.33601 95.6172 1.42401C95.8732 1.50401 96.0772 1.63201 96.2292 1.80801C96.3812 1.98401 96.4972 2.17601 96.5772 2.38401C96.6652 2.58401 96.7372 2.82401 96.7932 3.10401C96.5292 3.39201 96.0452 3.75601 95.3412 4.19601C95.2372 4.06801 95.0972 3.97201 94.9212 3.90801C94.7532 3.83601 94.5772 3.81201 94.3932 3.83601C94.2172 3.85201 94.0572 3.96801 93.9132 4.18401C93.7772 4.39201 93.7012 4.69201 93.6852 5.08401C93.6532 5.60401 93.7292 5.99601 93.9132 6.26001C94.1052 6.52401 94.3252 6.63201 94.5732 6.58401C94.8212 6.52801 95.0292 6.35201 95.1972 6.05601C96.1252 6.68801 96.6452 7.03601 96.7572 7.10001C96.7012 7.36401 96.6172 7.62801 96.5052 7.89201C96.4012 8.15601 96.2612 8.41601 96.0852 8.67201C95.9092 8.92001 95.6892 9.12401 95.4252 9.28401C95.1692 9.43601 94.8852 9.50801 94.5732 9.50001C93.9172 9.49201 93.3252 9.25601 92.7972 8.79201C92.2772 8.32801 91.9772 7.77601 91.8972 7.13601ZM98.3739 4.91601C98.4699 4.60401 98.6059 4.18401 98.7819 3.65601C98.9579 3.12801 99.1019 2.68401 99.2139 2.32401C99.3339 1.95601 99.4179 1.66801 99.4659 1.46001C100.378 1.46001 100.95 1.47601 101.182 1.50801C101.302 1.96401 101.498 2.66401 101.77 3.60801C102.042 4.54401 102.226 5.20401 102.322 5.58801C102.442 6.06801 102.602 6.78801 102.802 7.74801C103.01 8.70801 103.134 9.29601 103.174 9.51201C102.422 9.56001 101.818 9.56001 101.362 9.51201C101.314 9.25601 101.23 8.84801 101.11 8.28801C100.99 7.72001 100.926 7.35601 100.918 7.19601C100.422 7.19601 99.9699 7.22801 99.5619 7.29201C99.4739 7.56401 99.3819 7.92401 99.2859 8.37201C99.1979 8.82001 99.1539 9.11601 99.1539 9.26001C98.9619 9.28401 98.6259 9.30401 98.1459 9.32001C97.6659 9.32801 97.3459 9.32001 97.1859 9.29601C97.6259 7.51201 98.0219 6.05201 98.3739 4.91601ZM99.9939 5.50401C99.9939 5.50401 100.206 5.50401 100.63 5.50401C100.518 5.05601 100.398 4.73201 100.27 4.53201C100.198 4.84401 100.106 5.16801 99.9939 5.50401ZM103.59 7.25601C103.55 6.62401 103.55 6.02801 103.59 5.46801C103.638 4.90001 103.722 4.19601 103.842 3.35601C104.034 2.05201 104.938 1.36401 106.554 1.29201C107.218 1.26801 107.762 1.45601 108.186 1.85601C108.61 2.25601 108.862 2.86401 108.942 3.68001C109.014 4.53601 109.014 5.36801 108.942 6.17601C108.878 6.98401 108.766 7.63201 108.606 8.12001C108.358 8.86401 107.53 9.26401 106.122 9.32001C105.874 9.32801 105.61 9.29201 105.33 9.21201C105.058 9.12401 104.794 8.99601 104.538 8.82801C104.282 8.66001 104.066 8.44001 103.89 8.16801C103.714 7.88801 103.614 7.58401 103.59 7.25601ZM105.798 3.89601C105.726 4.23201 105.67 4.66801 105.63 5.20401C105.59 5.74001 105.574 6.14401 105.582 6.41601C105.582 6.64801 105.65 6.85601 105.786 7.04001C105.922 7.21601 106.062 7.31201 106.206 7.32801C106.366 7.34401 106.506 7.30801 106.626 7.22001C106.754 7.13201 106.846 6.97601 106.902 6.75201C106.95 6.53601 106.994 6.12401 107.034 5.51601C107.074 4.90801 107.094 4.43601 107.094 4.10001C107.094 3.82801 107.03 3.62001 106.902 3.47601C106.782 3.32401 106.646 3.24801 106.494 3.24801C106.118 3.24801 105.886 3.46401 105.798 3.89601ZM112.781 4.53201C112.789 4.44401 112.813 3.39201 112.853 1.37601C113.429 1.36001 113.969 1.35601 114.473 1.36401C114.985 1.37201 115.329 1.38801 115.505 1.41201C116.241 3.42001 116.673 4.55201 116.801 4.80801C116.865 4.33601 116.929 3.70401 116.993 2.91201C117.057 2.11201 117.085 1.61201 117.077 1.41201C117.781 1.36401 118.301 1.38401 118.637 1.47201C118.661 1.92001 118.617 3.06801 118.505 4.91601C118.393 6.76401 118.301 8.15601 118.229 9.09201C118.037 9.10801 117.821 9.11601 117.581 9.11601C117.349 9.11601 117.117 9.11201 116.885 9.10401C116.653 9.09601 116.513 9.09201 116.465 9.09201C116.369 8.88401 116.201 8.48001 115.961 7.88001C115.721 7.28001 115.509 6.77601 115.325 6.36801C115.141 5.95201 114.989 5.65201 114.869 5.46801C114.853 5.89201 114.833 6.42401 114.809 7.06401C114.785 7.69601 114.765 8.18401 114.749 8.52801C114.741 8.87201 114.737 9.10001 114.737 9.21201C114.489 9.31601 113.837 9.34801 112.781 9.30801C112.741 8.62801 112.721 7.78801 112.721 6.78801C112.729 5.78001 112.749 5.02801 112.781 4.53201ZM120.452 4.91601C120.548 4.60401 120.684 4.18401 120.86 3.65601C121.036 3.12801 121.18 2.68401 121.292 2.32401C121.412 1.95601 121.496 1.66801 121.544 1.46001C122.456 1.46001 123.028 1.47601 123.26 1.50801C123.38 1.96401 123.576 2.66401 123.848 3.60801C124.12 4.54401 124.304 5.20401 124.4 5.58801C124.52 6.06801 124.68 6.78801 124.88 7.74801C125.088 8.70801 125.212 9.29601 125.252 9.51201C124.5 9.56001 123.896 9.56001 123.44 9.51201C123.392 9.25601 123.308 8.84801 123.188 8.28801C123.068 7.72001 123.004 7.35601 122.996 7.19601C122.5 7.19601 122.048 7.22801 121.64 7.29201C121.552 7.56401 121.46 7.92401 121.364 8.37201C121.276 8.82001 121.232 9.11601 121.232 9.26001C121.04 9.28401 120.704 9.30401 120.224 9.32001C119.744 9.32801 119.424 9.32001 119.264 9.29601C119.704 7.51201 120.1 6.05201 120.452 4.91601ZM122.072 5.50401C122.072 5.50401 122.284 5.50401 122.708 5.50401C122.596 5.05601 122.476 4.73201 122.348 4.53201C122.276 4.84401 122.184 5.16801 122.072 5.50401ZM126.968 4.91601C127.064 4.60401 127.2 4.18401 127.376 3.65601C127.552 3.12801 127.696 2.68401 127.808 2.32401C127.928 1.95601 128.012 1.66801 128.06 1.46001C128.972 1.46001 129.544 1.47601 129.776 1.50801C129.896 1.96401 130.092 2.66401 130.364 3.60801C130.636 4.54401 130.82 5.20401 130.916 5.58801C131.036 6.06801 131.196 6.78801 131.396 7.74801C131.604 8.70801 131.728 9.29601 131.768 9.51201C131.016 9.56001 130.412 9.56001 129.956 9.51201C129.908 9.25601 129.824 8.84801 129.704 8.28801C129.584 7.72001 129.52 7.35601 129.512 7.19601C129.016 7.19601 128.564 7.22801 128.156 7.29201C128.068 7.56401 127.976 7.92401 127.88 8.37201C127.792 8.82001 127.748 9.11601 127.748 9.26001C127.556 9.28401 127.22 9.30401 126.74 9.32001C126.26 9.32801 125.94 9.32001 125.78 9.29601C126.22 7.51201 126.616 6.05201 126.968 4.91601ZM128.588 5.50401C128.588 5.50401 128.8 5.50401 129.224 5.50401C129.112 5.05601 128.992 4.73201 128.864 4.53201C128.792 4.84401 128.7 5.16801 128.588 5.50401ZM132.727 9.30801C132.743 8.87601 132.735 7.57601 132.703 5.40801C132.679 3.24001 132.655 1.92401 132.631 1.46001C132.775 1.45201 133.007 1.43201 133.327 1.40001C133.655 1.36801 133.891 1.34801 134.035 1.34001C134.187 1.32401 134.395 1.31201 134.659 1.30401C134.923 1.29601 135.127 1.30401 135.271 1.32801C135.423 1.34401 135.591 1.37601 135.775 1.42401C135.967 1.46401 136.131 1.52801 136.267 1.61601C136.403 1.69601 136.523 1.80001 136.627 1.92801C136.883 2.20801 137.031 2.59201 137.071 3.08001C137.111 3.56001 137.051 4.03601 136.891 4.50801C136.731 4.97201 136.503 5.33201 136.207 5.58801C137.047 7.74001 137.535 8.94401 137.671 9.20001C136.959 9.27201 136.335 9.30801 135.799 9.30801C135.687 9.11601 135.483 8.70001 135.187 8.06001C134.899 7.42001 134.707 7.04001 134.611 6.92001C134.611 7.30401 134.619 7.67601 134.635 8.03601C134.659 8.39601 134.679 8.68801 134.695 8.91201C134.719 9.12801 134.731 9.26001 134.731 9.30801C134.619 9.30801 134.411 9.31201 134.107 9.32001C133.803 9.32001 133.531 9.32001 133.291 9.32001C133.051 9.32001 132.863 9.31601 132.727 9.30801ZM134.395 3.15201C134.403 3.25601 134.415 3.46801 134.431 3.78801C134.455 4.10001 134.471 4.31601 134.479 4.43601C134.647 4.42001 134.787 4.35601 134.899 4.24401C135.019 4.12401 135.079 3.96801 135.079 3.77601C135.071 3.57601 134.999 3.40801 134.863 3.27201C134.727 3.13601 134.571 3.09601 134.395 3.15201ZM141.529 5.10801C141.417 3.50801 141.373 2.22801 141.397 1.26801C141.453 1.26801 141.641 1.27201 141.961 1.28001C142.289 1.28801 142.593 1.29201 142.873 1.29201C143.153 1.29201 143.357 1.28401 143.485 1.26801C143.581 1.96401 143.629 3.15601 143.629 4.84401C143.749 4.86001 143.893 4.86801 144.061 4.86801C144.237 4.86801 144.385 4.86401 144.505 4.85601L144.673 4.84401C144.665 4.64401 144.653 4.39601 144.637 4.10001C144.629 3.79601 144.617 3.34001 144.601 2.73201C144.593 2.12401 144.593 1.70801 144.601 1.48401C144.809 1.50001 145.209 1.50401 145.801 1.49601C146.393 1.48801 146.717 1.48801 146.773 1.49601C146.773 2.00801 146.817 2.81601 146.905 3.92001C146.993 5.02401 147.037 5.72401 147.037 6.02001C147.029 6.34001 147.029 6.92001 147.037 7.76001C147.045 8.60001 147.045 9.10001 147.037 9.26001C146.909 9.30001 146.733 9.32801 146.509 9.34401C146.293 9.36001 146.097 9.36801 145.921 9.36801C145.745 9.36801 145.549 9.36401 145.333 9.35601C145.125 9.34801 145.005 9.34401 144.973 9.34401C144.973 9.08801 144.937 8.64801 144.865 8.02401C144.793 7.39201 144.757 7.02001 144.757 6.90801C144.597 6.90801 144.433 6.91601 144.265 6.93201C144.105 6.94801 143.957 6.96801 143.821 6.99201C143.685 7.01601 143.589 7.02801 143.533 7.02801C143.525 7.30001 143.541 7.74401 143.581 8.36001C143.629 8.96801 143.653 9.30401 143.653 9.36801C143.549 9.40801 143.373 9.42801 143.125 9.42801C142.877 9.42801 142.601 9.41601 142.297 9.39201C141.993 9.37601 141.817 9.36801 141.769 9.36801C141.729 8.80801 141.685 8.07201 141.637 7.16001C141.597 6.24001 141.561 5.55601 141.529 5.10801ZM153.401 9.46401C153.049 9.44001 152.233 9.42801 150.953 9.42801C149.673 9.42801 148.777 9.42001 148.265 9.40401C148.265 8.99601 148.261 8.48401 148.253 7.86801C148.245 7.25201 148.241 6.73201 148.241 6.30801C148.241 5.88401 148.249 5.50001 148.265 5.15601C148.289 4.72401 148.293 4.03601 148.277 3.09201C148.261 2.14801 148.257 1.64001 148.265 1.56801C148.545 1.55201 149.073 1.52001 149.849 1.47201C150.633 1.42401 151.329 1.38801 151.937 1.36401C152.553 1.33201 152.977 1.32401 153.209 1.34001C153.241 1.86001 153.241 2.59201 153.209 3.53601C153.041 3.52801 152.553 3.54801 151.745 3.59601C150.945 3.63601 150.497 3.65201 150.401 3.64401C150.401 3.74001 150.405 3.90401 150.413 4.13601C150.421 4.36001 150.425 4.50401 150.425 4.56801L151.829 4.52001C151.877 5.34401 151.901 5.82401 151.901 5.96001L150.461 6.04401C150.453 6.67601 150.453 7.12001 150.461 7.37601C152.037 7.32801 152.941 7.30801 153.173 7.31601C153.325 8.74001 153.401 9.45601 153.401 9.46401ZM154.7 9.30801C154.716 8.87601 154.708 7.57601 154.676 5.40801C154.652 3.24001 154.628 1.92401 154.604 1.46001C154.748 1.45201 154.98 1.43201 155.3 1.40001C155.628 1.36801 155.864 1.34801 156.008 1.34001C156.16 1.32401 156.368 1.31201 156.632 1.30401C156.896 1.29601 157.1 1.30401 157.244 1.32801C157.396 1.34401 157.564 1.37601 157.748 1.42401C157.94 1.46401 158.104 1.52801 158.24 1.61601C158.376 1.69601 158.496 1.80001 158.6 1.92801C158.856 2.20801 159.004 2.59201 159.044 3.08001C159.084 3.56001 159.024 4.03601 158.864 4.50801C158.704 4.97201 158.476 5.33201 158.18 5.58801C159.02 7.74001 159.508 8.94401 159.644 9.20001C158.932 9.27201 158.308 9.30801 157.772 9.30801C157.66 9.11601 157.456 8.70001 157.16 8.06001C156.872 7.42001 156.68 7.04001 156.584 6.92001C156.584 7.30401 156.592 7.67601 156.608 8.03601C156.632 8.39601 156.652 8.68801 156.668 8.91201C156.692 9.12801 156.704 9.26001 156.704 9.30801C156.592 9.30801 156.384 9.31201 156.08 9.32001C155.776 9.32001 155.504 9.32001 155.264 9.32001C155.024 9.32001 154.836 9.31601 154.7 9.30801ZM156.368 3.15201C156.376 3.25601 156.388 3.46801 156.404 3.78801C156.428 4.10001 156.444 4.31601 156.452 4.43601C156.62 4.42001 156.76 4.35601 156.872 4.24401C156.992 4.12401 157.052 3.96801 157.052 3.77601C157.044 3.57601 156.972 3.40801 156.836 3.27201C156.7 3.13601 156.544 3.09601 156.368 3.15201ZM160.733 4.67601C160.757 3.86801 160.757 2.77201 160.733 1.38801C160.781 1.38801 161.121 1.40001 161.753 1.42401C162.385 1.44801 162.801 1.45601 163.001 1.44801C163.001 1.61601 162.993 1.90801 162.977 2.32401C162.969 2.74001 162.965 3.10001 162.965 3.40401C162.965 3.70801 162.977 3.93201 163.001 4.07601C163.105 3.90001 163.269 3.63601 163.493 3.28401C163.717 2.93201 163.913 2.62401 164.081 2.36001C164.249 2.09601 164.357 1.92001 164.405 1.83201C164.645 1.77601 165.341 1.76001 166.493 1.78401C166.413 2.04001 166.241 2.42801 165.977 2.94801C165.713 3.46001 165.433 3.98001 165.137 4.50801C164.841 5.03601 164.665 5.36001 164.609 5.48001C164.721 5.70401 165.065 6.36001 165.641 7.44801C166.225 8.52801 166.557 9.14401 166.637 9.29601C166.469 9.32001 166.101 9.32401 165.533 9.30801C164.965 9.29201 164.645 9.28801 164.573 9.29601C164.445 9.12001 164.269 8.86001 164.045 8.51601C163.829 8.16401 163.601 7.79601 163.361 7.41201C163.129 7.02801 162.997 6.81601 162.965 6.77601C162.957 7.00001 162.953 7.20001 162.953 7.37601C162.953 7.54401 162.965 7.75201 162.989 8.00001C163.013 8.24801 163.029 8.44401 163.037 8.58801C163.053 8.72401 163.073 8.88001 163.097 9.05601C163.121 9.22401 163.133 9.31201 163.133 9.32001C163.045 9.32001 162.833 9.31601 162.497 9.30801C162.161 9.30001 161.849 9.29601 161.561 9.29601C161.273 9.29601 161.045 9.30401 160.877 9.32001C160.741 8.05601 160.693 6.50801 160.733 4.67601ZM166.907 7.25601C166.867 6.62401 166.867 6.02801 166.907 5.46801C166.955 4.90001 167.039 4.19601 167.159 3.35601C167.351 2.05201 168.255 1.36401 169.871 1.29201C170.535 1.26801 171.079 1.45601 171.503 1.85601C171.927 2.25601 172.179 2.86401 172.259 3.68001C172.331 4.53601 172.331 5.36801 172.259 6.17601C172.195 6.98401 172.083 7.63201 171.923 8.12001C171.675 8.86401 170.847 9.26401 169.439 9.32001C169.191 9.32801 168.927 9.29201 168.647 9.21201C168.375 9.12401 168.111 8.99601 167.855 8.82801C167.599 8.66001 167.383 8.44001 167.207 8.16801C167.031 7.88801 166.931 7.58401 166.907 7.25601ZM169.115 3.89601C169.043 4.23201 168.987 4.66801 168.947 5.20401C168.907 5.74001 168.891 6.14401 168.899 6.41601C168.899 6.64801 168.967 6.85601 169.103 7.04001C169.239 7.21601 169.379 7.31201 169.523 7.32801C169.683 7.34401 169.823 7.30801 169.943 7.22001C170.071 7.13201 170.163 6.97601 170.219 6.75201C170.267 6.53601 170.311 6.12401 170.351 5.51601C170.391 4.90801 170.411 4.43601 170.411 4.10001C170.411 3.82801 170.347 3.62001 170.219 3.47601C170.099 3.32401 169.963 3.24801 169.811 3.24801C169.435 3.24801 169.203 3.46401 169.115 3.89601ZM173.557 4.97601C173.589 3.87201 173.629 2.73601 173.677 1.56801C175.045 1.60001 175.969 1.60001 176.449 1.56801C176.577 1.97601 176.745 2.59601 176.953 3.42801C177.169 4.25201 177.297 4.71601 177.337 4.82001C177.393 4.67601 177.525 4.32801 177.733 3.77601C177.941 3.21601 178.117 2.75201 178.261 2.38401C178.413 2.01601 178.533 1.74401 178.621 1.56801C179.021 1.52001 179.445 1.48801 179.893 1.47201C180.341 1.44801 180.681 1.45201 180.913 1.48401C180.913 1.66801 180.909 2.43201 180.901 3.77601C180.893 5.12001 180.889 6.32801 180.889 7.40001C180.889 8.47201 180.897 9.11201 180.913 9.32001C180.809 9.32001 180.605 9.31601 180.301 9.30801C180.005 9.30001 179.733 9.29601 179.485 9.29601C179.237 9.29601 179.033 9.30401 178.872 9.32001C178.721 7.34401 178.661 6.17201 178.693 5.80401C178.605 5.98801 178.501 6.27201 178.381 6.65601C178.261 7.03201 178.153 7.39201 178.057 7.73601C177.961 8.08001 177.865 8.42401 177.769 8.76801C177.681 9.10401 177.633 9.28801 177.625 9.32001C177.497 9.32001 177.293 9.30801 177.013 9.28401C176.741 9.25201 176.601 9.23601 176.593 9.23601C176.425 8.88401 176.201 8.31601 175.921 7.53201C175.641 6.74001 175.469 6.20801 175.405 5.93601C175.373 6.42401 175.377 7.10401 175.417 7.97601C175.465 8.84801 175.489 9.29601 175.489 9.32001C175.217 9.28001 174.861 9.25201 174.421 9.23601C173.981 9.22001 173.645 9.22001 173.413 9.23601C173.453 8.58801 173.501 7.16801 173.557 4.97601ZM183.481 5.56401C183.321 5.52401 183.173 5.47601 183.037 5.42001C182.901 5.35601 182.761 5.25601 182.617 5.12001C182.473 4.98401 182.361 4.82401 182.281 4.64001C182.201 4.45601 182.161 4.21601 182.161 3.92001C182.169 3.62401 182.233 3.29601 182.353 2.93601C182.609 2.13601 183.085 1.63201 183.781 1.42401C184.485 1.20801 185.277 1.31601 186.157 1.74801C186.085 2.32401 185.981 2.92801 185.845 3.56001C185.453 3.38401 185.105 3.29201 184.801 3.28401C184.505 3.27601 184.325 3.35201 184.261 3.51201C184.173 3.70401 184.273 3.91601 184.561 4.14801C184.849 4.37201 185.229 4.59201 185.701 4.80801C186.181 5.02401 186.477 5.43601 186.589 6.04401C186.709 6.64401 186.633 7.27601 186.361 7.94001C186.097 8.63601 185.557 9.10001 184.741 9.33201C183.933 9.57201 182.941 9.52401 181.765 9.18801C181.813 8.79601 181.897 8.32001 182.017 7.76001C182.137 7.20001 182.237 6.84801 182.317 6.70401C183.613 7.25601 184.369 7.26401 184.585 6.72801C184.681 6.46401 184.613 6.22401 184.381 6.00801C184.149 5.79201 183.849 5.64401 183.481 5.56401ZM187.346 3.50001C187.338 3.33201 187.322 3.01601 187.298 2.55201C187.274 2.08001 187.262 1.74001 187.262 1.53201C187.718 1.53201 188.27 1.51201 188.918 1.47201C189.574 1.42401 190.066 1.39601 190.394 1.38801C191.482 1.37201 192.25 1.37201 192.698 1.38801C192.762 2.18001 192.762 2.89601 192.698 3.53601C192.522 3.53601 192.206 3.54401 191.75 3.56001C191.302 3.57601 191.046 3.58401 190.982 3.58401C190.974 4.05601 190.966 4.74801 190.958 5.66001C190.95 6.57201 190.946 7.10401 190.946 7.25601C190.938 7.54401 190.934 7.91601 190.934 8.37201C190.934 8.82001 190.938 9.12401 190.946 9.28401C190.778 9.31601 190.122 9.31601 188.978 9.28401C189.034 5.70801 189.054 3.76401 189.038 3.45201C188.95 3.45201 188.682 3.46401 188.234 3.48801C187.786 3.50401 187.49 3.50801 187.346 3.50001ZM193.592 4.80801C193.584 4.46401 193.584 4.00801 193.592 3.44001C193.6 2.86401 193.604 2.44401 193.604 2.18001C193.604 1.91601 193.6 1.62801 193.592 1.31601C194.64 1.31601 195.428 1.35201 195.956 1.42401V4.55601C195.94 4.78801 195.952 5.17201 195.992 5.70801C196.032 6.24401 196.052 6.52401 196.052 6.54801C196.26 6.58001 196.824 6.64001 197.744 6.72801C197.784 7.02401 197.812 7.46801 197.828 8.06001C197.844 8.64401 197.852 9.06401 197.852 9.32001C197.636 9.30401 197.224 9.29601 196.616 9.29601C196.008 9.28801 195.616 9.28001 195.44 9.27201C194.704 9.22401 194.144 9.19601 193.76 9.18801C193.752 8.90001 193.732 8.45201 193.7 7.84401C193.668 7.23601 193.64 6.68001 193.616 6.17601C193.6 5.66401 193.592 5.20801 193.592 4.80801ZM199.671 4.91601C199.767 4.60401 199.903 4.18401 200.079 3.65601C200.255 3.12801 200.399 2.68401 200.511 2.32401C200.631 1.95601 200.715 1.66801 200.763 1.46001C201.675 1.46001 202.247 1.47601 202.479 1.50801C202.599 1.96401 202.795 2.66401 203.067 3.60801C203.339 4.54401 203.523 5.20401 203.619 5.58801C203.739 6.06801 203.899 6.78801 204.099 7.74801C204.307 8.70801 204.431 9.29601 204.471 9.51201C203.719 9.56001 203.115 9.56001 202.659 9.51201C202.611 9.25601 202.527 8.84801 202.407 8.28801C202.287 7.72001 202.223 7.35601 202.215 7.19601C201.719 7.19601 201.267 7.22801 200.859 7.29201C200.771 7.56401 200.679 7.92401 200.583 8.37201C200.495 8.82001 200.451 9.11601 200.451 9.26001C200.259 9.28401 199.923 9.30401 199.443 9.32001C198.963 9.32801 198.643 9.32001 198.483 9.29601C198.923 7.51201 199.319 6.05201 199.671 4.91601ZM201.291 5.50401C201.291 5.50401 201.503 5.50401 201.927 5.50401C201.815 5.05601 201.695 4.73201 201.567 4.53201C201.495 4.84401 201.403 5.16801 201.291 5.50401ZM205.382 4.53201C205.39 4.44401 205.414 3.39201 205.454 1.37601C206.03 1.36001 206.57 1.35601 207.074 1.36401C207.586 1.37201 207.93 1.38801 208.106 1.41201C208.842 3.42001 209.274 4.55201 209.402 4.80801C209.466 4.33601 209.53 3.70401 209.594 2.91201C209.658 2.11201 209.686 1.61201 209.678 1.41201C210.382 1.36401 210.902 1.38401 211.238 1.47201C211.262 1.92001 211.218 3.06801 211.106 4.91601C210.994 6.76401 210.902 8.15601 210.83 9.09201C210.638 9.10801 210.422 9.11601 210.182 9.11601C209.95 9.11601 209.718 9.11201 209.486 9.10401C209.254 9.09601 209.114 9.09201 209.066 9.09201C208.97 8.88401 208.802 8.48001 208.562 7.88001C208.322 7.28001 208.11 6.77601 207.926 6.36801C207.742 5.95201 207.59 5.65201 207.47 5.46801C207.454 5.89201 207.434 6.42401 207.41 7.06401C207.386 7.69601 207.366 8.18401 207.35 8.52801C207.342 8.87201 207.338 9.10001 207.338 9.21201C207.09 9.31601 206.438 9.34801 205.382 9.30801C205.342 8.62801 205.322 7.78801 205.322 6.78801C205.33 5.78001 205.35 5.02801 205.382 4.53201ZM212.52 5.10801C212.52 4.99601 212.5 4.41601 212.46 3.36801C212.428 2.31201 212.42 1.59601 212.436 1.22001C213.804 1.22001 214.876 1.26801 215.652 1.36401C215.868 1.38801 216.06 1.47201 216.228 1.61601C216.396 1.75201 216.524 1.90801 216.612 2.08401C216.708 2.26001 216.784 2.48001 216.84 2.74401C216.904 3.00801 216.944 3.23201 216.96 3.41601C216.984 3.60001 217.004 3.81601 217.02 4.06401C217.124 5.77601 217.124 6.98401 217.02 7.68801C216.972 8.00001 216.824 8.28001 216.576 8.52801C216.336 8.77601 216.06 8.96801 215.748 9.10401C215.444 9.23201 215.116 9.32801 214.764 9.39201C214.364 9.46401 213.944 9.50001 213.504 9.50001C213.064 9.50001 212.776 9.49201 212.64 9.47601C212.592 8.85201 212.552 7.39601 212.52 5.10801ZM214.296 3.65601C214.296 3.95201 214.304 4.50401 214.32 5.31201C214.344 6.11201 214.356 6.59601 214.356 6.76401C214.5 6.75601 214.664 6.69201 214.848 6.57201C215.04 6.44401 215.152 6.29601 215.184 6.12801C215.256 5.74401 215.284 5.25201 215.268 4.65201C215.26 4.40401 215.164 4.18801 214.98 4.00401C214.804 3.81201 214.576 3.69601 214.296 3.65601ZM217.971 8.52801C217.995 8.36001 218.007 8.10801 218.007 7.77201C218.007 7.42801 218.011 7.19201 218.019 7.06401C218.179 7.06401 218.491 7.07201 218.955 7.08801C219.419 7.09601 219.687 7.10401 219.759 7.11201C219.807 7.55201 219.815 8.01201 219.783 8.49201C219.751 8.96401 219.691 9.33601 219.603 9.60801C219.411 10.216 218.867 10.456 217.971 10.328V9.34401C218.291 9.34401 218.503 9.27601 218.607 9.14001C218.711 8.99601 218.759 8.79601 218.751 8.54001C218.631 8.56401 218.547 8.58001 218.499 8.58801C218.451 8.58801 218.355 8.58001 218.211 8.56401C218.075 8.54001 217.995 8.52801 217.971 8.52801ZM224.391 9.40401C224.391 9.20401 224.395 8.70401 224.403 7.90401C224.419 7.09601 224.427 6.49201 224.427 6.09201C224.435 5.68401 224.435 5.06001 224.427 4.22001C224.299 4.22001 224.147 4.21601 223.971 4.20801C223.795 4.20001 223.627 4.19201 223.467 4.18401C223.307 4.17601 223.215 4.17201 223.191 4.17201C223.239 3.75601 223.259 3.34001 223.251 2.92401C223.675 2.84401 223.995 2.68801 224.211 2.45601C224.435 2.21601 224.587 1.83601 224.667 1.31601C224.923 1.30001 225.135 1.29601 225.303 1.30401C225.471 1.30401 225.683 1.31201 225.939 1.32801C226.195 1.33601 226.355 1.34001 226.419 1.34001C226.387 3.18801 226.375 4.67201 226.383 5.79201C226.391 6.28801 226.395 6.78801 226.395 7.29201C226.395 7.78801 226.391 8.26001 226.383 8.70801C226.383 9.14801 226.383 9.39601 226.383 9.45201C225.791 9.46001 225.127 9.44401 224.391 9.40401ZM232.748 9.46401C232.396 9.44001 231.58 9.42801 230.3 9.42801C229.02 9.42801 228.124 9.42001 227.612 9.40401C227.612 8.99601 227.608 8.48401 227.6 7.86801C227.592 7.25201 227.588 6.73201 227.588 6.30801C227.588 5.88401 227.596 5.50001 227.612 5.15601C227.636 4.72401 227.64 4.03601 227.624 3.09201C227.608 2.14801 227.604 1.64001 227.612 1.56801C227.892 1.55201 228.42 1.52001 229.196 1.47201C229.98 1.42401 230.676 1.38801 231.284 1.36401C231.9 1.33201 232.324 1.32401 232.556 1.34001C232.588 1.86001 232.588 2.59201 232.556 3.53601C232.388 3.52801 231.9 3.54801 231.092 3.59601C230.292 3.63601 229.844 3.65201 229.748 3.64401C229.748 3.74001 229.752 3.90401 229.76 4.13601C229.768 4.36001 229.772 4.50401 229.772 4.56801L231.176 4.52001C231.224 5.34401 231.248 5.82401 231.248 5.96001L229.808 6.04401C229.8 6.67601 229.8 7.12001 229.808 7.37601C231.384 7.32801 232.288 7.30801 232.52 7.31601C232.672 8.74001 232.748 9.45601 232.748 9.46401ZM236.588 4.67601C236.612 3.86801 236.612 2.77201 236.588 1.38801C236.636 1.38801 236.976 1.40001 237.608 1.42401C238.24 1.44801 238.656 1.45601 238.856 1.44801C238.856 1.61601 238.848 1.90801 238.832 2.32401C238.824 2.74001 238.82 3.10001 238.82 3.40401C238.82 3.70801 238.832 3.93201 238.856 4.07601C238.96 3.90001 239.124 3.63601 239.348 3.28401C239.572 2.93201 239.768 2.62401 239.936 2.36001C240.104 2.09601 240.212 1.92001 240.26 1.83201C240.5 1.77601 241.196 1.76001 242.348 1.78401C242.268 2.04001 242.096 2.42801 241.832 2.94801C241.568 3.46001 241.288 3.98001 240.992 4.50801C240.696 5.03601 240.52 5.36001 240.464 5.48001C240.576 5.70401 240.92 6.36001 241.496 7.44801C242.08 8.52801 242.412 9.14401 242.492 9.29601C242.324 9.32001 241.956 9.32401 241.388 9.30801C240.82 9.29201 240.5 9.28801 240.428 9.29601C240.3 9.12001 240.124 8.86001 239.9 8.51601C239.684 8.16401 239.456 7.79601 239.216 7.41201C238.984 7.02801 238.852 6.81601 238.82 6.77601C238.812 7.00001 238.808 7.20001 238.808 7.37601C238.808 7.54401 238.82 7.75201 238.844 8.00001C238.868 8.24801 238.884 8.44401 238.892 8.58801C238.908 8.72401 238.928 8.88001 238.952 9.05601C238.976 9.22401 238.988 9.31201 238.988 9.32001C238.9 9.32001 238.688 9.31601 238.352 9.30801C238.016 9.30001 237.704 9.29601 237.416 9.29601C237.128 9.29601 236.9 9.30401 236.732 9.32001C236.596 8.05601 236.548 6.50801 236.588 4.67601ZM244.683 9.09201C244.659 8.94001 244.411 7.76401 243.939 5.56401C243.475 3.36401 243.235 2.06001 243.219 1.65201C243.435 1.65201 243.699 1.64801 244.011 1.64001C244.323 1.63201 244.587 1.62801 244.803 1.62801C245.027 1.62801 245.231 1.63601 245.415 1.65201C245.471 1.90001 245.567 2.35201 245.703 3.00801C245.839 3.66401 245.963 4.25601 246.075 4.78401C246.187 5.30401 246.259 5.60801 246.291 5.69601C246.403 5.45601 246.515 5.20001 246.627 4.92801C246.739 4.64801 246.847 4.36801 246.951 4.08801C247.055 3.80801 247.107 3.66801 247.107 3.66801H248.643C248.883 4.65201 249.023 5.26001 249.063 5.49201C249.175 5.19601 249.303 4.78401 249.447 4.25601C249.599 3.72001 249.747 3.17201 249.891 2.61201C250.035 2.04401 250.119 1.71601 250.143 1.62801C250.295 1.62801 250.719 1.61201 251.415 1.58001C252.111 1.54801 252.539 1.54001 252.699 1.55601C252.587 1.91601 252.459 2.37601 252.315 2.93601C252.179 3.49601 252.023 4.14401 251.847 4.88001C251.679 5.60801 251.583 6.02401 251.559 6.12801C251.431 6.64001 251.287 7.26401 251.127 8.00001C250.975 8.73601 250.891 9.17201 250.875 9.30801H248.187C248.123 9.10801 248.051 8.86001 247.971 8.56401C247.899 8.26801 247.831 7.96401 247.767 7.65201C247.703 7.34001 247.659 7.14001 247.635 7.05201C247.427 7.38001 247.075 8.03601 246.579 9.02001C246.363 9.05201 246.035 9.07601 245.595 9.09201C245.155 9.10001 244.851 9.10001 244.683 9.09201ZM253.682 4.91601C253.778 4.60401 253.914 4.18401 254.09 3.65601C254.266 3.12801 254.41 2.68401 254.522 2.32401C254.642 1.95601 254.726 1.66801 254.774 1.46001C255.686 1.46001 256.258 1.47601 256.49 1.50801C256.61 1.96401 256.806 2.66401 257.078 3.60801C257.35 4.54401 257.534 5.20401 257.63 5.58801C257.75 6.06801 257.91 6.78801 258.11 7.74801C258.318 8.70801 258.442 9.29601 258.482 9.51201C257.73 9.56001 257.126 9.56001 256.67 9.51201C256.622 9.25601 256.538 8.84801 256.418 8.28801C256.298 7.72001 256.234 7.35601 256.226 7.19601C255.73 7.19601 255.278 7.22801 254.87 7.29201C254.782 7.56401 254.69 7.92401 254.594 8.37201C254.506 8.82001 254.462 9.11601 254.462 9.26001C254.27 9.28401 253.934 9.30401 253.454 9.32001C252.974 9.32801 252.654 9.32001 252.494 9.29601C252.934 7.51201 253.33 6.05201 253.682 4.91601ZM255.302 5.50401C255.302 5.50401 255.514 5.50401 255.938 5.50401C255.826 5.05601 255.706 4.73201 255.578 4.53201C255.506 4.84401 255.414 5.16801 255.302 5.50401ZM259.442 9.30801C259.458 8.87601 259.45 7.57601 259.418 5.40801C259.394 3.24001 259.37 1.92401 259.346 1.46001C259.49 1.45201 259.722 1.43201 260.042 1.40001C260.37 1.36801 260.606 1.34801 260.75 1.34001C260.902 1.32401 261.11 1.31201 261.374 1.30401C261.638 1.29601 261.842 1.30401 261.986 1.32801C262.138 1.34401 262.306 1.37601 262.49 1.42401C262.682 1.46401 262.846 1.52801 262.982 1.61601C263.118 1.69601 263.238 1.80001 263.342 1.92801C263.598 2.20801 263.746 2.59201 263.786 3.08001C263.826 3.56001 263.766 4.03601 263.606 4.50801C263.446 4.97201 263.218 5.33201 262.922 5.58801C263.762 7.74001 264.25 8.94401 264.386 9.20001C263.674 9.27201 263.05 9.30801 262.514 9.30801C262.402 9.11601 262.198 8.70001 261.902 8.06001C261.614 7.42001 261.422 7.04001 261.326 6.92001C261.326 7.30401 261.334 7.67601 261.35 8.03601C261.374 8.39601 261.394 8.68801 261.41 8.91201C261.434 9.12801 261.446 9.26001 261.446 9.30801C261.334 9.30801 261.126 9.31201 260.822 9.32001C260.518 9.32001 260.246 9.32001 260.006 9.32001C259.766 9.32001 259.578 9.31601 259.442 9.30801ZM261.11 3.15201C261.118 3.25601 261.13 3.46801 261.146 3.78801C261.17 4.10001 261.186 4.31601 261.194 4.43601C261.362 4.42001 261.502 4.35601 261.614 4.24401C261.734 4.12401 261.794 3.96801 261.794 3.77601C261.786 3.57601 261.714 3.40801 261.578 3.27201C261.442 3.13601 261.286 3.09601 261.11 3.15201ZM264.853 3.50001C264.845 3.33201 264.829 3.01601 264.805 2.55201C264.781 2.08001 264.769 1.74001 264.769 1.53201C265.225 1.53201 265.777 1.51201 266.425 1.47201C267.081 1.42401 267.573 1.39601 267.901 1.38801C268.989 1.37201 269.757 1.37201 270.205 1.38801C270.269 2.18001 270.269 2.89601 270.205 3.53601C270.029 3.53601 269.713 3.54401 269.257 3.56001C268.809 3.57601 268.553 3.58401 268.489 3.58401C268.481 4.05601 268.473 4.74801 268.465 5.66001C268.457 6.57201 268.453 7.10401 268.453 7.25601C268.445 7.54401 268.441 7.91601 268.441 8.37201C268.441 8.82001 268.445 9.12401 268.453 9.28401C268.285 9.31601 267.629 9.31601 266.485 9.28401C266.541 5.70801 266.561 3.76401 266.545 3.45201C266.457 3.45201 266.189 3.46401 265.741 3.48801C265.293 3.50401 264.997 3.50801 264.853 3.50001ZM271.343 4.91601C271.439 4.60401 271.575 4.18401 271.751 3.65601C271.927 3.12801 272.071 2.68401 272.183 2.32401C272.303 1.95601 272.387 1.66801 272.435 1.46001C273.347 1.46001 273.919 1.47601 274.151 1.50801C274.271 1.96401 274.467 2.66401 274.739 3.60801C275.011 4.54401 275.195 5.20401 275.291 5.58801C275.411 6.06801 275.571 6.78801 275.771 7.74801C275.979 8.70801 276.103 9.29601 276.143 9.51201C275.391 9.56001 274.787 9.56001 274.331 9.51201C274.283 9.25601 274.199 8.84801 274.079 8.28801C273.959 7.72001 273.895 7.35601 273.887 7.19601C273.391 7.19601 272.939 7.22801 272.531 7.29201C272.443 7.56401 272.351 7.92401 272.255 8.37201C272.167 8.82001 272.123 9.11601 272.123 9.26001C271.931 9.28401 271.595 9.30401 271.115 9.32001C270.635 9.32801 270.315 9.32001 270.155 9.29601C270.595 7.51201 270.991 6.05201 271.343 4.91601ZM272.963 5.50401C272.963 5.50401 273.175 5.50401 273.599 5.50401C273.487 5.05601 273.367 4.73201 273.239 4.53201C273.167 4.84401 273.075 5.16801 272.963 5.50401ZM277.858 4.91601C277.954 4.60401 278.09 4.18401 278.266 3.65601C278.442 3.12801 278.586 2.68401 278.698 2.32401C278.818 1.95601 278.902 1.66801 278.95 1.46001C279.862 1.46001 280.434 1.47601 280.666 1.50801C280.786 1.96401 280.982 2.66401 281.254 3.60801C281.526 4.54401 281.71 5.20401 281.806 5.58801C281.926 6.06801 282.086 6.78801 282.286 7.74801C282.494 8.70801 282.618 9.29601 282.658 9.51201C281.906 9.56001 281.302 9.56001 280.846 9.51201C280.798 9.25601 280.714 8.84801 280.594 8.28801C280.474 7.72001 280.41 7.35601 280.402 7.19601C279.906 7.19601 279.454 7.22801 279.046 7.29201C278.958 7.56401 278.866 7.92401 278.77 8.37201C278.682 8.82001 278.638 9.11601 278.638 9.26001C278.446 9.28401 278.11 9.30401 277.63 9.32001C277.15 9.32801 276.83 9.32001 276.67 9.29601C277.11 7.51201 277.506 6.05201 277.858 4.91601ZM279.478 5.50401C279.478 5.50401 279.69 5.50401 280.114 5.50401C280.002 5.05601 279.882 4.73201 279.754 4.53201C279.682 4.84401 279.59 5.16801 279.478 5.50401ZM283.522 4.80801C283.514 4.46401 283.514 4.00801 283.522 3.44001C283.53 2.86401 283.534 2.44401 283.534 2.18001C283.534 1.91601 283.53 1.62801 283.522 1.31601C284.57 1.31601 285.358 1.35201 285.886 1.42401V4.55601C285.87 4.78801 285.882 5.17201 285.922 5.70801C285.962 6.24401 285.982 6.52401 285.982 6.54801C286.19 6.58001 286.754 6.64001 287.674 6.72801C287.714 7.02401 287.742 7.46801 287.758 8.06001C287.774 8.64401 287.782 9.06401 287.782 9.32001C287.566 9.30401 287.154 9.29601 286.546 9.29601C285.938 9.28801 285.546 9.28001 285.37 9.27201C284.634 9.22401 284.074 9.19601 283.69 9.18801C283.682 8.90001 283.662 8.45201 283.63 7.84401C283.598 7.23601 283.57 6.68001 283.546 6.17601C283.53 5.66401 283.522 5.20801 283.522 4.80801Z" fill="#733015"/>
</g>
<defs>
<clipPath id="clip0_188_143">
<rect width="630.79" height="397.37" fill="white"/>
</clipPath>
</defs>
</svg>
