<svg width="75" height="77" viewBox="0 0 75 77" fill="none" xmlns="http://www.w3.org/2000/svg">
<rect width="75" height="76.1957" rx="37.5" fill="#E2E2E2" fill-opacity="0.5"/>
<ellipse cx="37.5" cy="38.0979" rx="37.5" ry="38.0979" fill="#E1E1E1" fill-opacity="0.4"/>
<path d="M41.725 38.1007L54.1078 25.716C55.2788 24.5448 55.2735 22.6476 54.1078 21.4818C52.9368 20.3159 51.0399 20.3159 49.8742 21.4818L37.4914 33.8665L25.1085 21.4765C23.9375 20.3106 22.0459 20.3106 20.8802 21.4765C19.7092 22.6476 19.7039 24.5448 20.8802 25.7107L33.2631 38.0954L20.8802 50.4802C19.7092 51.6513 19.7145 53.5485 20.8802 54.7144C21.4631 55.2973 22.2314 55.5941 22.9997 55.5941C23.768 55.5941 24.531 55.3026 25.1191 54.7144L37.502 42.3297L49.8848 54.7144C50.4677 55.2973 51.236 55.5941 52.0043 55.5941C52.7726 55.5941 53.5356 55.3026 54.1237 54.7144C55.2894 53.5432 55.2947 51.646 54.1237 50.4802L41.7409 38.0954L41.725 38.1007Z" fill="#733015"/>
</svg>
