<svg width="119" height="41" viewBox="0 0 119 41" fill="none" xmlns="http://www.w3.org/2000/svg">
<g clip-path="url(#clip0_4_35)">
<path d="M5.50487 25.23C25.0249 25.23 44.5449 25.23 64.0649 25.23C69.6349 25.23 75.1949 25.23 80.7649 25.23C83.3849 25.23 85.8849 22.93 85.7649 20.23C85.6449 17.53 83.5649 15.23 80.7649 15.23C61.2449 15.23 41.7249 15.23 22.2049 15.23C16.6349 15.23 11.0749 15.23 5.50487 15.23C2.89487 15.23 0.384869 17.53 0.504869 20.23C0.624869 22.93 2.70487 25.23 5.50487 25.23Z" fill="#782C12"/>
<path d="M85.1749 9.27002C89.6349 11.74 94.0049 14.38 98.2449 17.21C100.305 18.58 102.335 19.99 104.335 21.45C105.395 22.22 106.455 23.01 107.495 23.8C107.745 23.99 107.985 24.18 108.235 24.36C108.865 24.84 107.705 23.93 108.325 24.43C108.865 24.86 109.415 25.29 109.965 25.72L110.975 17.87C101.375 22.31 91.7749 26.74 82.1849 31.18C79.8049 32.28 79.0249 35.9 80.3949 38.02C81.9749 40.47 84.6849 40.99 87.2349 39.81C96.8349 35.37 106.435 30.94 116.025 26.5C118.755 25.24 119.425 20.55 117.035 18.65C108.595 11.92 99.6749 5.86002 90.2249 0.630019C87.9349 -0.639981 84.6649 1.90735e-05 83.3849 2.42002C82.1049 4.84002 82.7349 7.91002 85.1749 9.26002V9.27002Z" fill="#782C12"/>
</g>
<defs>
<clipPath id="clip0_4_35">
<rect width="117.99" height="40.42" fill="white" transform="translate(0.504883)"/>
</clipPath>
</defs>
</svg>
