<?xml version="1.0" encoding="UTF-8"?><svg id="Laag_2" xmlns="http://www.w3.org/2000/svg" viewBox="0 0 130.83 96.83"><defs><style>.cls-1{fill:#733015;}.cls-2{fill:#eddcbb;}</style></defs><g id="Laag_1-2"><g id="utz"><path class="cls-1" d="M29.87,13.9c-.2,2.3-.5,4.6-.7,6.9h5c0-2.4-.3-4.8-.8-7.1-.5-2.3-5.1-2.2-4.9.7.1,1.9.3,3.9.4,5.8.2,1.7.3,3.5.9,5.2,1.1,3.2,4.6,7.3,8.4,6.1,3.8-1.2,4.7-6.3,4.7-9.6,0-2-.4-4-.8-6-.4-2-.7-3.8-1.2-5.7-.5-1.9-3.5-2.4-4.6-.6-1.1,1.8-1.4,4.5-1.6,6.8s-.2,4.7,0,7.1h5c-.3-2.6-.7-5.1-2-7.5-1.1-2.1-4.9-1.2-4.7,1.3.2,2.8.4,5.7.7,8.5,1.1-.8,2.1-1.6,3.2-2.4.2,0,.5.5.3,0-.5-1.1-2.4-1.7-3.4-.9s-.9.7-1.2,1.3l3.4-.9c.2.1-.3-.3-.3-.3.1.2-.2-.3-.3-.4-.3-.5-.4-.8-.6-1.4-.4-1.3-.5-2.7-.9-4-.7-2.7-5-2.2-4.9.7,0,1.2,0,2.5.1,3.7h5c-.2-1.7-.2-3.4,0-5.1,0-.8.1-1.5.2-2.3s0-.5.1-.8q0-.3,0,0c-.2.2-.4.3-.6.4h-1.3.2c-.5-.3-1-.7-1.5-1.1q-.1-.4,0,0v1.1c0,.6,0,1.1-.2,1.8l4.9.7c0-1.4-.5-2.5-1.5-3.5-1-1-3.3-1-3.9.5-1.2,2.7-1.8,5.4-1.8,8.4l4.7-1.3s-.5-.7-.2-.3v-.3c.4-1.3-.5-2.7-1.7-3.1-1.2-.4-2.7.5-3.1,1.7-.4,1.2-.2,3.2.7,4.5.7.9,1.7,1.5,2.8,1.1s1.9-1.3,1.8-2.4c0-2,.3-4,1.1-5.8l-3.9.5s0,.4,0,0c0,1.2.9,2.3,2.2,2.5,1.3.2,2.4-.6,2.7-1.8.5-1.9.6-4,0-5.9-.8-2.9-4.2-2.7-5.7-.5-1.5,2.2-1,3.6-1.1,5.4-.1,1.8-.1,3.8,0,5.7.1,1.9,1.1,2.5,2.5,2.5s2.5-1.1,2.5-2.5,0-2.5-.1-3.7l-4.9.7c.4,1.6.6,3.3,1.2,4.9.7,1.8,1.7,3.2,3.2,4.3s2.9.3,3.4-.9v-.2c-.2.3-.5.6-.8.9l.2-.2-3.4-.9c.5,1.1,1.5,1.8,2.7,2.2,1.2.4,3.3-.9,3.2-2.4-.2-2.8-.4-5.7-.7-8.5l-4.7,1.3c.8,1.5,1.1,3.3,1.3,4.9s1,2.5,2.5,2.5,2.6-1.1,2.5-2.5c-.1-2.1-.2-4.3,0-6.4.2-2.1.1-3.6,1-5l-4.6-.6c.7,2.9,1.3,5.8,1.6,8.7.1,1.3.2,2.7-.2,4s-.2.8-.3,1.1-.1.4-.2.6c-.1.3-.3.6-.5.8.2-.3-.3.4,0,0-.4.5,0-.2.1,0s-.2-.1-.2-.1c-.4-.4-.7-.4-1.1-.9s-1-1.6-1.2-2.7c-.6-2.6-.6-5.7-.8-8.5l-4.9.7c.5,1.9.7,3.8.7,5.8,0,1.4,1.2,2.5,2.5,2.5s2.4-1.2,2.5-2.5c.2-2.3.5-4.6.7-6.9s-1.3-2.5-2.5-2.5-2.4,1.2-2.5,2.5h0l.2-.4Z"/><path class="cls-1" d="M35.56,12.2c.9-.8,1.9-1.7,2.8-2.5.2-.2.4-.5.5-.8.2-.3.2-.6.2-1,0-.3,0-.7-.2-1-.1-.3-.3-.6-.5-.8-.5-.4-1.1-.8-1.8-.7h-.7c-.4.2-.8.4-1.1.7-.9.8-1.9,1.7-2.8,2.5-.2.2-.4.5-.5.8-.2.3-.2.6-.2,1,0,.3,0,.7.2,1,.1.3.3.6.5.8.5.4,1.1.8,1.8.7h.7c.4-.2.8-.4,1.1-.7h0Z"/><path class="cls-1" d="M22.07,10.3c2.9-2.3,6.5-3.8,10.1-4.2l-1.8-4.3c-.9,1-1.6,2.2-1.8,3.5s-.3,1.3,0,1.8.5-.7.5-.7c0,0-1,.3-1.1.3-2.8.9-5.6,1.7-8.4,2.6l3.1,3.1c.2-.8.4-1.6.7-2.3s.5-1.1.4-1.8-.4-.9-.5-1.3c-.4-1.3-1.7-2-3.1-1.7-6.1,1.4-9.2,7.1-11.5,12.3l4.7,1.3c-.2-2.7,2.1-4.9,4-6.6,2.1-1.9,4.6-3.5,7.2-4.7,1.2-.6,2.5-1,3.8-1.4s1.5-.4,2.2-.6,1.3-.1,1.4-.2c0,.1-.4-1-.2-1s-.4.6-.4.5c-.5.6-1,1.2-1.3,1.9-.6,1.2-.5,2.7-1.2,3.8-.8,1.1-.2,2.8.9,3.4,1.1.6,2.7.2,3.4-.9s.7-3.3,1.7-4.6,2.5-3.6,1.2-5.8c-2.4-4-8.4-1.7-11.7-.4-3.3,1.3-7.2,3.6-10.2,6.2-3,2.6-6.1,6.1-5.8,10.3,0,1.1.7,2.1,1.8,2.4,1.1.3,2.4-.2,2.8-1.1,1.7-4,3.8-9,8.5-10l-3.1-1.7c.2.6.4,1.1.7,1.6v-2.5c-.6,1.2-1,2.4-1.3,3.7-.4,1.8,1.1,3.7,3.1,3.1,3.1-1,6.2-1.9,9.3-2.9,3.1-1,2.9-1.3,3.3-3,.2-1.1-.2-2.1.5-3,1.3-1.4.5-4.5-1.8-4.3-5.1.6-9.6,2.5-13.6,5.7-1.1.8-.9,2.7,0,3.5s2.5.8,3.5,0h0Z"/><path class="cls-1" d="M15.87,13.4c.5,8.2,2.8,16.19,2.9,24.39,0,2-.3,3.9-.3,5.9s-.1.3,0,.3.3-.2.3-.2c0,0,0,.1,0,0s-.5-.5-.6-.6c-.2-.3-.4-.6-.6-1-2-3.4-3.5-7-4.6-10.8-.6-2.1-1.1-4.2-1.5-6.3-.3-1.7-.4-3.6.5-5.1l-4.6-1.9c-2.7,7-.6,15.4,4.8,20.49,1.5,1.4,4.5.5,4.3-1.8-.5-5.7,0-11.4.5-16.99h-5c0,6.3.9,12.6,2.8,18.59,1,3.1,5.3,1.8,4.8-1.3-.7-4.3-.9-8.6-.6-12.9h-5c-.2,5.8.6,11.6,2.3,17.19,1.7,5.6,5.6,1.8,4.8-1.3-.8-3.1-1.9-8.2-2.3-12.3-.4-4,0-8.3-1.3-12.2-1.3-3.9-2.9-2.7-4.2-1.1h0c-.8,1.1-.9,2-.4,3.1.5,1.1,2.9,1.9,4.2.9,1.8-1.5.9-3.7-.6-4.9s-2.8-.2-3.4.9c-2.4,4.1-3.6,8.7-3.6,13.4l4.7-1.3c-.5-.7-1-1.3-1.5-2-1-1.3-3.5-1.9-4.3,0-1.8,4.1-.9,8.3,1.3,12,1.9,3.3,4.9,5.9,6.2,9.5,1.3,3.6,1.7,2.1,3.1,1.7,1.4-.4,2.2-1.8,1.7-3.1-1.3-3.4-3.5-6.1-5.6-9-2.1-2.9-3.7-5.8-2.4-8.7h-4.3c.5.7,1,1.3,1.5,2s1.7,1.5,2.8,1.1c1.1-.4,1.8-1.3,1.8-2.4,0-3.9,1-7.5,2.9-10.9l-3.4.9.3.2-.9-.9.2.3-.3-1.3v.3c.4-.7.8-1.4,1.2-2.2h-.1c.6,0,1.3,0,1.9-.2h.3c.3.4.6.7.9,1h0c-.1.9-.3,1.9-.4,2.9h0c-1.4-.5-2.8-.8-4.2-1.2.6,1.8.7,3.5.7,5.4.1,2.1.3,4.3.5,6.4.5,4.3,1.3,8.5,2.4,12.7l4.8-1.3c-1.6-5.2-2.3-10.5-2.1-15.89,0-3.2-4.8-3.2-5,0-.3,4.8,0,9.5.8,14.2l4.8-1.3c-1.8-5.6-2.7-11.4-2.7-17.29,0-1.4-1.2-2.5-2.5-2.5s-2.4,1.1-2.5,2.5c-.5,5.7-1,11.3-.5,16.99l4.3-1.8c-4.3-4-5.6-10.2-3.5-15.69,1-2.7-3.2-4.4-4.6-1.9-2.3,4.2-1.1,9.2,0,13.6,1.2,4.6,3,9.1,5.4,13.3,2.4,4.2,2.4,3.8,4.7,4.3s4.9-1,5.4-3.5c1-4.9.6-10.1-.1-15.1-.8-5.6-1.9-11.1-2.3-16.69-.2-3.2-5.2-3.2-5,0h0v.4Z"/><path class="cls-1" d="M34.06,6.4l2.9.4c1,.1,2.2-.9,2.4-1.8.2-1-.1-2.4-1.1-2.8s-2.6-.9-4-.9l1.3,4.7c-.3.1-.4.1-.1,0q.2,0,0,0t0,0h.3c.5,0-.5-.1,0,0s.3,0,.5.1c1,.2,2,.3,3,.4,1.7.1,3.5.2,5.2.2s2.6-1.2,2.5-2.5c-.1-1.3-1.1-2.4-2.5-2.5s-3.7-.1-5.6-.3c-1.9-.2-.4,0-.6,0q-.3,0,0,0h-.4c-.4,0-.8-.2-1.2-.2-1.3-.2-2.5-.2-3.8.5s-1.5,1.8-1.1,2.8,1.3,1.9,2.4,1.8.4,0,.6,0c.3,0,.2,0-.1,0h.3c.2,0,.4,0,.5.1s.8.3.2,0l1.3-4.7-2.9-.4c-.6,0-1.4.3-1.8.7s-.8,1.1-.7,1.8.2,1.3.7,1.8,1.1.6,1.8.7h0v.1Z"/><path class="cls-1" d="M35.16,6c3.8,0,7.7,0,11.5.5s7.6,2.1,11.5,2.3c3.9.2,3.2-4.9,0-5s-7.4-1.7-11.2-2.2-7.9-.5-11.8-.5-3.2,5,0,5h0v-.1Z"/><path class="cls-1" d="M30.87,3.2h0c0,.5,0,.8.2,1.1.1.3.3.6.5.8s.5.4.8.5c.3.2.6.2,1,.2h.7c.4-.2.8-.4,1.1-.7l.4-.5c.2-.4.3-.8.3-1.3h0c0-.5,0-.8-.2-1.1-.1-.3-.3-.6-.5-.8s-.5-.4-.8-.5c-.3-.2-.6-.2-1-.2h-.7c-.4.2-.8.4-1.1.7l-.4.5c-.2.4-.3.8-.3,1.3h0Z"/><path class="cls-1" d="M49.26,7.3c2.3,0,4.6,0,6.9.3s1.4-.3,1.8-.7.8-1.1.7-1.8-.2-1.3-.7-1.8-1.1-.7-1.8-.7c-2.3-.2-4.6-.3-6.9-.3s-2.6,1.1-2.5,2.5c.1,1.4,1.1,2.5,2.5,2.5h0Z"/><path class="cls-1" d="M48.36,6.5c5.1.4,10.2.9,15.29,1.4s4.9.5,7.4.8,2.6.3,3.9.5,2.4.2,3.6.5l-1.1-.6.2.2v-3.5h0c.6-.1,1.2-.4,1.8-.6h-.2c.8.8,1.7,1.7,2.5,2.5h0c-.1-1.5-1.1-2.6-2.5-2.6s-2.6,1.1-2.5,2.5h0c.1,1.6,1,2.5,2.5,2.6,1.5.1,1.6-.3,2-.8.9-1.2.9-2.4,0-3.5-.9-1.2-2.6-1.1-4-1.2-1.4-.1-2.6-.3-3.9-.5-2.8-.3-5.6-.6-8.4-.9-5.5-.6-11-1.1-16.49-1.5s-2.5,1.2-2.5,2.5,1.1,2.4,2.5,2.5h0l-.1-.3Z"/><path class="cls-1" d="M47.86,11.3c10.4,1.7,20.79,2.2,31.29,1.4,10.5-.8,2.5-1.1,2.5-2.5s-1.1-2.6-2.5-2.5c-10,.8-20.09.4-29.99-1.2-9.9-1.6-2.7.3-3.1,1.7-.3,1.2.4,2.9,1.7,3.1h.1Z"/><path class="cls-1" d="M63.06,10.9c.3,0,.6-.1,1-.2h-.7c1.2,0,2.4-.1,3.6,0s1.3-.3,1.8-.7.8-1.1.7-1.8-.2-1.3-.7-1.8-1.1-.7-1.8-.7c-1.8,0-3.5,0-5.2.4s-1.2.7-1.5,1.1-.4,1.3-.3,1.9.6,1.2,1.1,1.5l.6.3c.4.1.9.1,1.3,0h.1Z"/><path class="cls-1" d="M41.46,10.4c-.6.3-1.2.3-1.7,0-.3-.3-.4-.3-.2,0,0,.1.2.3.3.4.5.5,1.1.9,1.8,1.1,1,.2,2.1,0,3.1,0,1.9-.2,3.8-.4,5.8-.6,2-.2,1.3-.2,1.8-.7s.8-1.1.7-1.8c0-1.2-1.1-2.6-2.5-2.5-2.1.2-4.1.4-6.2.7-2.1.3-1,0-1.5.2q-.2,0,0,0c.2,0,.3,0,.5.2.6.4.2.1,0,0-1.1-1.3-2.8-1.8-4.3-1s-1.6,2.3-.9,3.4c.7,1.1,2.2,1.6,3.4.9h0l-.1-.3Z"/><path class="cls-1" d="M39.66,9.7c3.9.1,7.8,0,11.6-.1,3.8-.1,2.6-1.1,2.5-2.5-.1-1.4-1.1-2.6-2.5-2.5-3.9.2-7.8.3-11.6.1-3.8-.2-2.6,1.2-2.5,2.5.1,1.3,1.1,2.4,2.5,2.5h0Z"/><path class="cls-1" d="M42.46,9.7c1.2-.1,2.5,0,3.7,0h-.7c.6,0,1.2.1,1.7.2s1.3,0,1.9-.3,1-.9,1.1-1.5.1-1.4-.3-1.9-.9-1-1.5-1.1c-2-.5-4.1-.7-6.1-.5s-1.3.2-1.8.7-.8,1.1-.7,1.8.2,1.3.7,1.8,1.1.8,1.8.7h0l.2.1Z"/><path class="cls-1" d="M50.86,26.09c-.8,2.4-1.5,4.8-2.1,7.2-.3,1.3.4,2.8,1.7,3.1s2.7-.4,3.1-1.7c.6-2.4,1.4-4.8,2.1-7.2s-.5-2.8-1.7-3.1-2.6.4-3.1,1.7h0Z"/><path class="cls-1" d="M50.36,26.29c-.8,2-1.5,4-2.2,6-.7,2,.5,2.8,1.7,3.1s2.7-.4,3.1-1.7c.6-2,1.4-4,2.2-6,.2-.6,0-1.4-.3-1.9s-.9-1-1.5-1.1-1.4-.1-1.9.3l-.5.4c-.3.3-.5.7-.6,1.1h0v-.2Z"/><path class="cls-1" d="M49.56,26.69c-.9,2.1-1.7,4.2-2.6,6.3s0,1.4.3,1.9.9,1,1.5,1.1,1.4.1,1.9-.3l.5-.4c.3-.3.5-.7.6-1.1.9-2.1,1.7-4.2,2.6-6.3s0-1.4-.3-1.9-.9-1-1.5-1.1-1.4-.1-1.9.3l-.5.4c-.3.3-.5.7-.6,1.1h0Z"/><path class="cls-1" d="M51.16,24.99h0v-.6c.2,1.1.2,2.3.1,3.5,0,.3,0,.7.2,1,.1.3.3.6.5.8.2.2.5.4.8.5.3.2.6.2,1,.2.6,0,1.3-.2,1.8-.7l.4-.5c.2-.4.3-.8.3-1.3,0-1.4,0-2.8-.2-4.2,0-.3-.2-.6-.4-.9-.2-.3-.4-.5-.7-.6-.3-.2-.6-.3-.9-.3h-1c-.6.2-1.2.6-1.5,1.1l-.3.6c-.1.4-.1.9,0,1.3h0l-.1.1Z"/><path class="cls-1" d="M52.16,24.79c-.5,1-.9,1.6-1.6,2.3l4.2,1.1c-.5-1.3-.6-2.5-.3-3.8.3-1.3.5-1.4.8-2.1s.3-.7.4-1.1l.3-.6q0,.2,0,0l-.9.9c-.2.1-.3,0,.2,0h1c.6,0,1,.1,1.6.3-.6-.8-1.2-1.6-1.8-2.4-.2,3.1-.4,6.2-.4,9.2s-.3,6.2.8,8.9,1.4,2,2.7,1.8c1.3-.2,2.2-1.2,2.2-2.5,0-3.8-.1-7.7-1.1-11.5-.2-.9-.5-1.7-.8-2.5s-.8-2.2-2-2.8c-2.8-1.5-4.3,1.7-5.5,3.6l4.6.6c-.2-.6-.4-1.2-.6-1.9-.4-1.3-1.8-2.1-3.1-1.7-1.3.4-2.1,1.8-1.7,3.1.4,1.3.4,1.2.6,1.9.6,2.1,3.4,2.4,4.6.6s.5-.8.8-1.2.2-.4.3-.6c0,0,.1-.2.2-.3.2-.3,0-.2-.3.3l-1.3.3h.2c-.4-.1-.8-.2-1.3-.4-.7-.4-.4-.5-.3-.1s.2.6.3.9c.2.5.3,1,.5,1.5.3,1,.5,2.3.6,3.2.3,2.4.3,4.7.3,7.1l4.9-.7c-.5-1.3-.5-2.2-.6-3.6-.1-1.4,0-2.9,0-4.4,0-3,.1-5.9.4-8.9,0-1.1-.8-2.1-1.8-2.4-1.7-.5-3.4-.6-5.2-.3-1.8.3-2.6,1.9-3.3,3.6s-1.2,2.8-1.4,4.4c-.2,1.6,0,3.2.6,4.7.7,1.7,2.8,2.6,4.2,1.1.9-1,1.8-2.1,2.4-3.3.6-1.2.3-2.7-.9-3.4s-2.8-.3-3.4.9h0l-.1.2Z"/><path class="cls-1" d="M48.96,18.99c.7,5.3-.3,10.5-2.9,15.1,1.5.6,3,1.3,4.6,1.9,1.1-4.1,2.4-8.1,3.8-12l-4.9-.7c-.2,4.2-.5,8.3-.7,12.5s.7,1.9,1.5,2.3,1.9.2,2.7-.5c3.2-2.7,2.9-6.9,4.2-10.5-1.6-.4-3.2-.9-4.8-1.3,0,.2-.1.3-.2.5-.4,1.3.5,2.7,1.7,3.1,1.2.4,2.6-.5,3.1-1.7,0-.2.1-.3.2-.5.4-1.3-.5-2.7-1.7-3.1-1.2-.4-2.6.5-3.1,1.7s-.8,3.4-1.3,5.1c0,.3-.2.7-.3,1s-.1.4-.2.6c.1-.2,0,0,0,.1-.4.8-.5.9-1.1,1.5,1.4.6,2.8,1.2,4.3,1.8.2-4.2.5-8.3.7-12.5,0-1.2-1-2.3-2.2-2.5-1.2-.2-2.3.6-2.7,1.8-1.4,4-2.7,8-3.8,12-.7,2.7,3.2,4.4,4.6,1.9,3-5.3,4.3-11.5,3.5-17.59-.2-1.3-1-2.5-2.5-2.5s-2.7,1.2-2.5,2.5h0Z"/><path class="cls-1" d="M49.06,22.49c0,1-.1,2.1-.2,3.1,0,.3,0,.7.2,1,.1.3.3.6.5.8.2.2.5.4.8.5.3.2.6.2,1,.2.6,0,1.3-.2,1.8-.7l.4-.5c.2-.4.3-.8.3-1.3,0-1,.1-2.1.2-3.1,0-.3,0-.7-.2-1-.1-.3-.3-.6-.5-.8-.2-.2-.5-.4-.8-.5-.3-.2-.6-.2-1-.2-.6,0-1.3.2-1.8.7l-.4.5c-.2.4-.3.8-.3,1.3h0Z"/><path class="cls-1" d="M41.46,41.29c1.7-1.1,3.5-2,5.1-3.3s1.6-1.5,2.1-2.4.3-.6.5-.9.4-.6,0-.2c.1-.2.3-.3.4-.4-1.4-.8-2.8-1.6-4.2-2.4-.2,1.3-.5,2.5-.9,3.7-.2.6-.4,1.2-.6,1.8s0,0-.2.4-.3.6-.5,1c-.9,2,.1,4,2.3,4.5s3,.1,4.4-.2,1.2-.3,1.8-.4.5-.1.8-.2.3,0,.5,0c-.3,0,0,0,.1,0h2.1c.7,0,1.7-.7,2.1-1.6.7-1.3.7-3.1.6-4.5,0-1.7-.4-3.8-2.4-4.3s-2.3.3-3.2,1.1-.5.5-.7.7-.2.2-.3.2c-.4.3.5-.3-.2.1s-1,.7-1.6,1-.6.3-.9.5-.2.1-.3.2c.4-.2-.3.1-.3.1-1.2.5-2.2,1.7-1.7,3.1s1.8,2.2,3.1,1.7,2.6-1.1,3.7-1.8,1.2-.8,1.7-1.3c.5-.5.5-.4.8-.7.1-.1.2-.2.4-.3.3-.3.2-.3-.4.2h-1.3.2c-.4-.2-.7-.4-1.1-.6-.2-.2-.4-.5-.4-.8v2.9c0-.3,0,.3,0,.4,1.8-.8,2.2-1.2,1.4-1.2h-.3c-.7,0-1.4,0-2.1.2-1,.2-2,.4-3.1.7-1.1.3-.5.1-.8.1q-.2,0,0,0h-1.2q-.2,0,0,0c-.7-.2-.4.2.9,1.1v1.3c-.2.2-.2.1,0-.1,0-.2.2-.3.2-.5.2-.4.4-.9.6-1.4s.5-1.2.7-1.8c.4-1.3.7-2.6,1-4,.4-2.5-2.2-4.1-4.2-2.4-.7.6-1.2,1.3-1.6,2.1s-.3.6-.5.9-.3.3,0,0c0,0-.6.5-.2.2-.7.6-1.5,1-2.3,1.4l-2.7,1.7c-1.1.7-1.6,2.3-.9,3.4s2.2,1.6,3.4.9h0l.2.1Z"/><path class="cls-1" d="M55.36,27.49c.2.3.4.6.5.9l-.3-.6c.2.4.3.9.4,1.4v-.7.5c0,.7.3,1.3.7,1.8.2.2.5.4.8.5.3.2.6.2,1,.2.6,0,1.3-.2,1.8-.7s.8-1.1.7-1.8,0-.9-.2-1.4-.1-.5-.2-.7c-.2-.7-.5-1.3-.9-1.9-.2-.3-.4-.5-.6-.7s-.5-.4-.9-.4c-.3-.1-.7-.1-1,0-.3,0-.6.1-.9.3-.5.3-1,.9-1.1,1.5v.7c0,.5,0,.9.3,1.3h0l-.1-.2Z"/><path class="cls-1" d="M47.66,11.6l.3.7c0,.2.2.5.3.6.1.2.3.4.5.5s.4.2.7.2h.7l.4-.2c.3-.2.5-.4.7-.7l.2-.4v-1c0-.2-.2-.5-.3-.7,0-.2-.2-.5-.3-.6-.1-.2-.3-.4-.5-.5s-.4-.2-.7-.2h-.7l-.4.2c-.3.2-.5.4-.7.7l-.2.4v1h0Z"/><path class="cls-1" d="M48.26,13.5c.1,1.7.3,3.4.4,5.1.1,1.7.5,1.3,1.2,1.2s1.3-.6,1.2-1.2c-.1-1.7-.3-3.4-.4-5.1,0-.6-.5-1.3-1.2-1.2s-1.3.6-1.2,1.2h0Z"/><path class="cls-1" d="M57.86,25.89c0,1,.2,2,.3,3s.1.6.4.9.6.4.9.4.7-.1.9-.4.4-.6.4-.9c0-1-.2-2-.3-3s-.1-.6-.4-.9-.6-.4-.9-.4-.7.1-.9.4-.4.6-.4.9h0Z"/><path class="cls-1" d="M48.26,24.19v1.3-.3.5c0,.3,0,.7.1,1s.4.5.7.6.7,0,1-.1.5-.4.6-.7c.2-.7.2-1.4.2-2.2,0-.2,0-.3-.1-.5,0-.2-.1-.3-.3-.4-.2-.2-.6-.4-.9-.4s-.7.1-.9.4-.4.6-.4.9h0v-.1Z"/><path class="cls-1" d="M22.17,32.69c1.3,3.6,4.8,5.3,8.4,5.8s8.6.2,12.8-.7.9-2.8-.7-2.4c-3.5.8-7.1,1.1-10.7.8-3.6-.3-6.3-1.2-7.4-4.1-.5-1.5-3-.9-2.4.7h0v-.1Z"/><path class="cls-1" d="M21.57,33.39c.9,3,1.8,6,2.7,9s1.4,1.2,2.1.6c1.8-1.8,3.7-3,6.3-2.9s2.1.3,3.1.8,1.1.5,1.4,1,0,.9-.3,1.3l2.3.3c-.4-1.3-.6-2.6-.5-4s-2.4-1.6-2.5,0c-.1,1.6.1,3.1.6,4.6s1.7,1.2,2.3.3.9-1.7.8-2.6c-.1-.9-.7-1.6-1.5-2.2-1.3-1-2.8-1.6-4.4-1.8s-3.3-.1-4.8.4-3.2,1.8-4.5,3.1l2.1.6c-.9-3-1.9-6-2.7-9-.8-3-2.9-.9-2.4.7h0l-.1-.2Z"/><path class="cls-1" d="M26.07,37.39c0,.1.1.2,0,.4,0,.2,0,.3,0,.1,0,.2-.1.2,0,.1h-.1c0,.1,0,0,.1,0q-.2.1,0,0-.2,0,0,0c-.2,0-.3,0-.1,0h-.1.2q-.2,0,0,0h.1c.3.2-.1-.1,0,0s.2.2.3.2l.9-2.1c-1,0-1.9.2-2.7.7s-.8,2.1.3,2.3,2,.3,3,.2c-.3-.7-.6-1.4-.9-2.1-.1.1-.2.3-.4.4s-.1.1-.2.2-.2.3,0,0c-.1.1-.3.2-.4.3s-.1,0-.2.1-.4.2,0,0c.3.8.6,1.5,1,2.3.3-.2.7-.5,1-.6s.2,0,.2-.1.4-.2.2,0,.2,0,.2,0h.3c.2,0,.4-.1.5-.1s.4-.1.6-.1h-.2,1.1c.7,0,1.3-.6,1.2-1.2s-.5-1.2-1.2-1.2c-1.9,0-3.8.5-5.2,1.6-1.4,1.1-.8.9-.5,1.6s.9,1,1.5.7c.9-.4,1.7-.9,2.4-1.7s.5-.9.3-1.4-.6-.8-1.1-.8h-1.3c-.5,0-.2,0-.3,0h-.2c.1,0,.2,0,0,0s-.4,0-.6-.1c0,.8.2,1.5.3,2.3,0,0,.2,0,.2-.1.2-.1-.1,0,0,0s.3-.1.5-.1h.2c.2,0-.3,0,0,0h.6c.5,0,1-.3,1.1-.8s0-1-.3-1.4c-.7-.7-1.7-1.3-2.8-1-1.1.3-1,.5-1.3,1s-.3,1.2,0,1.8,1.2.8,1.7.4.8-1.1.4-1.7h0l-.3-.1Z"/><path class="cls-1" d="M36.36,41.09v.3c.2.1.3.3.5.4.1.1.3.2.4.2h.5c.2,0,.3,0,.5-.1l.3-.2c.2-.2.3-.3.3-.6v-.3c0-.2,0-.4-.1-.6v-.3c-.2-.1-.3-.3-.5-.4-.1-.1-.3-.2-.4-.2h-.5c-.2,0-.3,0-.5.1l-.3.2c-.2.2-.3.3-.3.6v.3c0,.2,0,.4.1.6h0Z"/><path class="cls-1" d="M21.47,31.59l1.4,1.7c.1.1.2.2.4.3.1,0,.3.1.5.1s.3,0,.5-.1c.2,0,.3-.1.4-.3.2-.2.4-.6.4-.9v-.3c-.1-.2-.2-.4-.4-.6-.5-.6-.9-1.1-1.4-1.7-.1-.1-.2-.2-.4-.3-.1,0-.3-.1-.5-.1s-.3,0-.5.1c-.2,0-.3.1-.4.3-.2.2-.4.6-.4.9v.3c.1.2.2.4.4.6h0Z"/><path class="cls-1" d="M36.16,41.29h0l-.2-.3.1.2v-.3.3-.3.1c0,.2,0,.3.1.5,0,.2.1.3.3.4.1.1.2.2.4.3.1,0,.3.1.5.1h.3c.2-.1.4-.2.6-.4l.2-.3c.1-.2.2-.4.2-.6v-.7c0-.1-.1-.3-.2-.4s0,0,0,0h0c0-.1-.2-.2-.3-.3-.1-.1-.2-.2-.4-.3-.1,0-.3-.1-.5-.1s-.3,0-.5.1c-.2,0-.3.1-.4.3l-.2.3c-.1.2-.2.4-.2.6v.3c.1.2.2.4.4.6h0l-.2-.1Z"/><path class="cls-1" d="M24.57,40.99c-1.5,4,0,8.3,1.8,12,.8,1.8,1.8,3.4,3.5,4.5,1.7,1.1,3.9,1.7,6,2,2.1.3,1.2-.6,1.2-1.2s-.6-1.2-1.2-1.2c-1.6-.2-3.3-.7-4.7-1.6s-2.1-2.4-2.7-3.8c-1.4-3-2.6-6.5-1.4-9.8.6-1.5-1.8-2.2-2.4-.7h0l-.1-.2Z"/><path class="cls-1" d="M14.27,46.39c2,2.8,4.1,5.7,6.1,8.5l2-1.5c-2.1-2-3.7-4.4-4.8-7.1-1.1-2.7-2.6-1.2-2.5.3.8,6.5,7,9.3,9.9,14.6l1.7-1.7c-1.4-.8-2.4-1.9-3.2-3.4l-2,1.5c3,3.8,6,7.5,9.2,11.1.8,1,2.4,0,2.1-1.2-1-3.8-2.4-7.5-4.1-11-.6-1.3-2.8-.4-2.3,1,.8,2.1,1.9,4,3.3,5.7s2.5-.3,2-1.5c-1.5-3.6-3.5-7-5.7-10.1-.8-1.1-2.7-.5-2.3,1,.7,2.4,1.4,4.7,2.2,7.1l2.4-.7c-1.4-4.1-3.2-8-5.2-11.8-2-3.8-2.6-.4-2.3,1,1.2,5,3.1,9.8,5.7,14.2,2.6,4.4,2.8.2,2.2-1.3-2.5-5.5-5-10.9-7.5-16.39-.6-1.3-2.6-.4-2.3,1,.7,2.7,1.8,5.2,3.3,7.5.7,1.1,2.2.6,2.3-.6.3-3.6,0-7.3-.6-10.9-.6-3.6-2.6-1.1-2.5.3.4,3.6,1.2,7,2.3,10.5.4,1.3,2.6,1.1,2.5-.3-.4-4.1-1.1-8.1-2.2-12-.4-1.4-2.4-1.1-2.5.3,0,4.8.7,9.4,1.6,14.1l2.3-1c-1.5-2.6-3.2-5.1-5.2-7.4-.9-1.1-2.3.1-2.1,1.2.5,3.2,1.6,6.2,3.2,8.9.7,1.1,2.2.5,2.3-.6.1-1.1,0-1.3-.2-1.9-.5-1.5-2.9-.9-2.4.7.5,1.6.2.8.2,1.3l2.3-.6c-1.5-2.6-2.5-5.4-3-8.3l-2.1,1.2c1.8,2.1,3.4,4.4,4.8,6.9.7,1.3,2.5.4,2.3-1-.8-4.4-1.6-8.9-1.5-13.4l-2.5.3c1,3.7,1.7,7.5,2.1,11.4l2.5-.3c-1-3.2-1.8-6.5-2.2-9.8l-2.5.3c.6,3.4.8,6.8.5,10.2l2.3-.6c-1.4-2.1-2.4-4.4-3-6.9l-2.3,1c2.5,5.5,5,10.9,7.5,16.39l2.2-1.3c-2.5-4.2-4.4-8.8-5.5-13.6l-2.3,1c1.9,3.6,3.6,7.3,4.9,11.2.5,1.5,2.9.9,2.4-.7-.7-2.4-1.4-4.7-2.2-7.1l-2.3,1c2.3,3.2,4.2,6.5,5.7,10.1l2-1.5c-1.1-1.4-2-3-2.6-4.6l-2.3,1c1.6,3.4,2.8,6.9,3.8,10.5l2.1-1.2c-3.2-3.6-6.2-7.3-9.2-11.1-.9-1.2-2.6.3-2,1.5.9,1.8,2.3,3.2,4.1,4.3,1.8,1.1,2.3-.6,1.7-1.7-1.3-2.4-3.3-4.3-5.2-6.2-1.9-2-4-4.3-4.3-7.1l-2.5.3c1.2,3.1,3,5.9,5.4,8.2,1,.9,2.8-.3,2-1.5-2-2.8-4.1-5.7-6.1-8.5-2-2.8-3.1,0-2.2,1.3h0l.3-.5Z"/><path class="cls-1" d="M19.77,51.48c1.2,2.2,2.5,4.3,3.7,6.5.3.6,1.1.8,1.7.4s.8-1.1.4-1.7c-1.2-2.2-2.5-4.3-3.7-6.5-.3-.6-1.1-.8-1.7-.4s-.8,1.1-.4,1.7h0Z"/><path class="cls-1" d="M31.77,47.88c-.2-.5-.5-1.2-.5-1.7v-.3c0,.1,0,0,0,0v-.2q0-.1,0,0h0c-.3.1.3-.1,0,0s.2,0,.3,0c-.2,0,0,0,.1,0,.3,0-.1,0,.1,0h.2s.4.2.2.1c.1,0,.2.2.3.3s.2.2.3.3c0-.1.2.2.2.3l1.7-1.7c-1.6-1.1-4.1-2.3-5.8-.9s-1.2,3.8-.6,5.5c.6,1.7,1.9,3.4,3.8,4.1s4.8.3,4.5-2.3-1-4.2-2.2-6c-1.2-1.8-1.9-.7-2.3.3s-.4,1.6-.5,2.4,0,.7,0,1.1v.8c0,.2,0,.1,0-.3l.4-.4c.5-.2.9-.1,1.1.2h0v-.4c-.1-.3-.2-.6-.3-.9-.2-.6-.4-1.2-.6-1.9s-.9-1.1-1.5-.9-1.1.9-.9,1.5c.4,1.5.8,2.9,1.3,4.4l2.3-1c-.7-1.6-1.2-3.4-1.4-5.1l-2.1,1.2s.2.2.2.3c-.1-.2.1.1.1.1.1.2.3.4.4.6.2.4.4.9.6,1.3.4,1,.9,1.9,1.6,2.7s1.6.4,2-.3.5-1.2.6-1.9.1-.6.2-.9.1-.4.3-.7c.5-1,1.5-1.8,2.4-2.7.9-.9.5-1.3,0-1.8s-1.2-.4-1.8,0c-.9.8-2,1.5-3.1,2.1-1.1.6-.8,1.1-.4,1.7.4.6,1.1.8,1.7.4,1.3-.7,2.5-1.6,3.6-2.5-.6-.6-1.2-1.2-1.8-1.8-1,1-2,1.9-2.7,3.1s-.6,1.2-.7,1.9-.1.6-.2,1,0,.3-.1.4c0,.1,0,.2,0,0,0,0,0,.2-.1.2l2-.3s-.2-.2-.2-.3c.1.2,0-.1,0-.1-.1-.2-.3-.4-.4-.6-.2-.4-.4-.9-.6-1.3-.4-1-.9-1.9-1.7-2.7s-1-.5-1.5-.2-.7.9-.6,1.4c.3,2,.9,3.9,1.7,5.7s1,.7,1.6.5.9-.9.7-1.5c-.4-1.5-.8-2.9-1.3-4.4l-2.4.7c.3.9.6,1.8.9,2.7s.3,1,.7,1.4,1,.7,1.6.5,1.1-.8,1.1-1.4v-1.2c0-.9.1-1.7.4-2.6l-2.3.3c.8,1.2,1.3,2.2,1.6,3.6,0,.3.1.7.2,1s0,0,0,0v.3h0c0,.1,0,.2,0,0l.2-.3s-.2,0,0,0-.1,0-.1,0h-.2s.2,0,0,0h-.4c-.2,0-.1,0,0,0h-.3c-.5-.1-1-.4-1.3-.7-.5-.4-.8-.8-1.1-1.4s0-.1,0-.2c0-.2,0,.1,0,0s-.1-.3-.2-.5c0-.3-.2-.6-.2-1v-1.3c0-.3,0,0,0,0v-.2c-.1.2,0,0,0,0,.1,0,0,0,0,0q.1,0,0,0h.2c.2,0,.4.1.6.2.7.2,1.3.6,2,1,1,.7,2.3-.7,1.7-1.7-1-1.6-2.9-2.9-4.9-2.1-.9.4-1.6,1.2-1.8,2.2s.1,2.1.5,3.1.8,1.1,1.5.9,1.1-.9.9-1.5h0l.5.3Z"/><path class="cls-1" d="M14.47,46.29c.5,2.1,1.6,4,3.1,5.4,1.5,1.4,1.3.5,1.8,0s.5-1.3,0-1.8-.7-.7-.9-1-.1-.2,0,0,0,0,0,0c0,0-.1-.2-.2-.3-.1-.2-.3-.4-.4-.6s-.2-.4-.3-.6,0-.2-.1-.3c0,0,0,.2,0,0s0,0,0-.1c-.2-.4-.3-.9-.4-1.4s-.9-1.1-1.5-.9-1,.9-.9,1.5h0l-.2.1Z"/><path class="cls-1" d="M21.07,55.48v1c0,.2.1.5.2.7s0,.1.1.2c0,.1.2.3.3.4.2.2.4.3.6.5s.6.2,1,.1c.2,0,.3-.1.4-.2.1,0,.2-.2.3-.4.2-.3.2-.6.1-1s-.3-.6-.6-.7-.1,0-.2-.1l.3.2-.2-.2.2.3s-.1-.2-.2-.3v.3-.4.3-.3.3h0v-.5c0-.2,0-.3-.1-.5,0-.1-.2-.3-.3-.4-.1-.1-.3-.2-.4-.2-.3,0-.7,0-1,.1l-.3.2c-.2.2-.3.3-.3.6h.1Z"/><path class="cls-1" d="M71.95,25.29c0-2.2-.3-4.4-.8-6.5l-1.5,1.5c1.5.2,2.9-.1,4.4-.3,1.5-.2,2.8-.4,4.2-.6s1.1-1,.9-1.5-.8-1-1.5-.9c-1.3.2-2.6.4-3.9.5-1.3.1-1.3.2-1.9.3s-.4,0-.7,0h-.5c-.2,0-.4,0-.3,0-.5,0-.9,0-1.2.3s-.4.8-.3,1.2c.5,2,.7,3.8.7,5.9,0,.7.6,1.3,1.2,1.2s1.3-.5,1.2-1.2h0v.1Z"/><path class="cls-1" d="M69.85,19.99c3-.6,5.9-1.2,8.9-1.7,3-.5,1-.9.9-1.5s-.9-1-1.5-.9c-3,.5-6,1-8.9,1.7s-1,.9-.9,1.5.9,1,1.5.9h0Z"/><path class="cls-1" d="M68.45,20.09c-.3,6.3,0,12.5,1,18.69.1.7.9,1,1.5.9s1-.9.9-1.5c-.9-6-1.2-12-.9-17.99.3-6-2.4-1.6-2.5,0h0v-.1Z"/><path class="cls-1" d="M58.76,25.89c0,1,0,2-.1,2.9v-.3.2c0,.3,0,.6.1,1s.4.5.7.6.7,0,1-.1.5-.4.6-.7c.2-1.1.2-2.3.2-3.4s-.1-.6-.4-.9-.6-.4-.9-.4-.7.1-.9.4-.4.6-.4.9h0l.1-.2Z"/><path class="cls-1" d="M37.56,45.39c-.1,2.4,0,4.8.8,7,.9,2.3,2.1,4.5,3.1,6.8l1.7-1.7c-.7-.5-1.3-1.2-1.7-2s-.7-1.9-1.1-2.9c-.8-2.2-1.8-4.2-2.8-6.2-.7-1.3-2.5-.4-2.3,1,.4,1.8,1.1,3.5,2,5.1.4.7.6,1.3.4,2s-.2.7-.4,1.1-.4.3-.1.3c.2.7.4,1.4.6,2.1,1.3-1.5,2-3.2,2.2-5.2s-.6-1.2-1.2-1.2-1.2.6-1.2,1.2c-.1,1.3-.7,2.5-1.5,3.4s-.4,1.9.6,2.1c2.5.5,4-2.7,3.8-4.8s-.8-2.2-1.4-3.3c-.6-1.1-.9-2.3-1.2-3.5l-2.3,1c1.1,2.1,2.2,4.3,2.9,6.6s.7,2.2,1.3,3.1c.6.9,1.4,1.7,2.3,2.3s1.1.2,1.5-.2.4-1,.2-1.5c-1-2.1-2-4.1-2.9-6.2-.9-2.1-.9-4.1-.7-6.3.2-2.2-2.4-1.6-2.5,0h0l-.1-.1Z"/><path class="cls-1" d="M27.87,64.78c2.8,6.3,8.3,11,11.2,17.29l2-1.5c-1.4-1.5-2.5-3.3-3.8-4.9-1.3-1.6-2.4-2.9-3.7-4.3-2.4-2.7-4.8-5.5-5.8-9.1s-2.8-.9-2.4.7c1,3.8,3.5,6.9,6.1,9.8,1.3,1.4,2.6,2.9,3.8,4.4,1.2,1.5,2.5,3.7,4.1,5.3,1.6,1.6,2.5-.3,2-1.5-2.9-6.3-8.4-10.9-11.2-17.29-.6-1.5-2.8-.2-2.2,1.3h0l-.1-.2Z"/><path class="cls-1" d="M41.46,79.57c1-8.1,7.5-14.5,15.5-15.79,8-1.3.9-2.7-.7-2.4-9.2,1.5-16.19,9.1-17.39,18.19-1.2,9.1.6,1.2,1.2,1.2s1.2-.6,1.2-1.2h.2Z"/><path class="cls-1" d="M43.26,58.98c1.5.6,2.9-.3,4.2-1s1.2-.3,1.9-.3,1.9,0,2.8.1c.9.1,1.8,0,2.7.1s.9,0,1.3,0h1.3c.5.2.8,1.1,1.1,1.6.4.8.6,1.5.5,2.3l1.2-1.2c-1.3,0-2.5.2-3.7.6l1.5,1.5c.2-1.2.5-2.4,1-3.6h-2.4c.1.4.2.7.2,1.1h2.5c0-.7,0-1.4.2-2.1.4-1.6-2-2.2-2.4-.7-.3,1.2-1.1,2.3-2.1,3l1.9,1.1c0-.6.2-1.2.6-1.7.9-1-.2-2.7-1.5-2-2.1,1.2-4.2,2.4-6.3,3.6l1.7,1.7c1-1.4,2.4-2.5,3.9-3.3l-1.5-2c-1.6,1.3-3.2,2.5-4.9,3.6l1.3,2.2c1.7-1.3,3.5-2.3,5.5-3-.3-.8-.6-1.5-1-2.3-3.7,2.2-7.5,4.3-11.2,6.4l1.5,2c2.6-2.3,5.4-4.4,8.3-6.3l-1.3-2.2c-2.3,1.5-4.6,2.9-7.1,4.2.5.7,1,1.3,1.5,2,3-2.5,6.3-5.3,10.4-5.3s1.6-2.5,0-2.5c-4.8,0-8.7,3.1-12.2,6-1.1,1,.3,2.6,1.5,2,2.4-1.2,4.8-2.6,7.1-4.2,2.3-1.6,0-3-1.3-2.2-3.1,2-6.1,4.3-8.8,6.7-1.1,1,.3,2.6,1.5,2,3.8-2.1,7.5-4.2,11.2-6.4s.4-2.7-1-2.3c-2.2.7-4.2,1.8-6.1,3.2-.5.4-.8,1.1-.4,1.7s1.2.8,1.7.4c1.9-1.3,3.7-2.6,5.4-4s-.3-2.6-1.5-2c-1.9,1-3.5,2.4-4.8,4.2-1.3,1.8.7,2.3,1.7,1.7,2.1-1.2,4.2-2.4,6.3-3.6l-1.5-2c-.8,1-1.3,2.2-1.3,3.5s1.1,1.6,1.9,1.1c1.6-1.1,2.8-2.6,3.3-4.5l-2.4-.7c-.2.9-.3,1.8-.3,2.8.1,1.6,2.5,1.6,2.5,0s-.1-1.2-.3-1.8c-.4-1.2-2-1.2-2.4,0-.4,1.2-.7,2.4-1,3.6s.6,1.8,1.5,1.5,2-.5,3.1-.5,1.2-.6,1.2-1.2c.2-1.8-.7-3.7-1.7-5.2-1.2-1.7-3.5-1.4-5.3-1.4s-4-.3-6-.3-1.7.3-2.5.7-1.3,1-2.1.7c-1.5-.6-2.2,1.9-.7,2.4h0l.1.5Z"/><path class="cls-1" d="M49.76,56.68l-5.2,1.8.7,2.4c1.3-.5,2.5-1,3.8-1.4l-1-2.3c-2,1.3-4,2.7-5.9,4-1.9,1.3-.2,2.8,1.3,2.2,2.8-1.3,5.7-2.6,8.5-3.9l-1.3-2.2c-1.6,1.2-3.4,2.2-5.3,3l1.2,2.1c1.4-1.3,2.9-2.4,4.6-3.3l-1.5-2c-3.7,4.5-7.1,9.2-10.3,14l2.2,1.3c1-2.2,2-4.4,3-6.6l-2.3-1c-1.5,4.2-3,8.4-4.7,12.6l2.5.3c.3-2.4,0-4.7-.8-7-.8-2.3-2.4-1.1-2.5.3-.2,2.3,0,4.7.6,7l2.4-.7-3-7.4c-.8-1.9-1.3-4.4-3.2-5.6-1.9-1.2-2,.1-1.9,1.1.3,2.7.8,5.3,1.8,7.9,1,2.6,3,.8,2.4-.7-1.7-4.5-3.3-9-5-13.5-1.7-4.5-2.8-.9-2.4.7.9,3.7,2.4,7.2,4.2,10.6,1.8,3.4,2,.8,2.3-.3.5-1.9-.5-4-1-5.8-.6-2-1.2-4.1-1.8-6.1l-2.3,1c1.1,2.3,2.1,4.6,3.2,6.9.9,2,1.9,3.9,3.3,5.7,1.4,1.8,2.3.2,2.1-.9-.4-3.8-1.1-7.7-2-11.4l-2.4.7c1,3.5,2.1,7,3.4,10.4.5,1.2,2.5,1.2,2.5-.3,0-3.6-.3-7.3-.6-10.9l-2.5.3c.7,3.5,1.3,7,2.7,10.3.5,1.3,2.4,1.2,2.5-.3.2-3.1.3-6.2.2-9.2l-2.5.3c.4,1.8.8,3.6.9,5.4.2,1.6,2.4,1.6,2.5,0,.1-1.6.1-3.5.2-5.3l-2.3.6.5,1c.7,1.5,2.8.2,2.2-1.3l-.5-1c-.6-1.2-2.3-.5-2.3.6,0,1.8-.1,3.5-.2,5.3h2.5c-.2-2-.5-4.1-1-6.1-.3-1.4-2.5-1.1-2.5.3,0,3.1,0,6.2-.2,9.2l2.5-.3c-1.4-3.3-2-6.8-2.7-10.3s-2.6-1.1-2.5.3c.3,3.6.5,7.3.6,10.9l2.5-.3c-1.3-3.4-2.5-6.9-3.4-10.4s-2.8-.9-2.4.7c.8,3.5,1.5,7.1,1.9,10.8l2.1-.9c-1.3-1.6-2.2-3.6-3-5.5-1-2.2-2-4.4-3-6.5s-2.7-.4-2.3,1c.5,1.8,1,3.5,1.5,5.3s.5,1.6.7,2.5.8,1.9.5,2.9l2.3-.3c-1.8-3.1-3.1-6.5-4-10l-2.4.7c1.7,4.5,3.3,9,5,13.5l2.4-.7c-.9-2.3-1.4-4.7-1.7-7.2l-1.9,1.1c.7.4,1,1.4,1.2,2.2l1.3,3.1c.8,2.1,1.7,4.2,2.5,6.2s2.8.9,2.4-.7c-.4-1.6-.6-4.2-.5-6.3l-2.5.3c.8,2.1,1,4.1.7,6.3-.3,2.2,2,1.5,2.5.3,1.6-4.2,3.2-8.4,4.7-12.6.5-1.3-1.7-2.3-2.3-1-1,2.2-2,4.4-3,6.6-.7,1.5,1.3,2.6,2.2,1.3,3.1-4.7,6.4-9.2,9.9-13.5.9-1.1-.2-2.7-1.5-2-1.3.7-3.5,2.3-5.1,3.7-.9.8,0,2.6,1.2,2.1,2.1-.9,4.1-1.9,5.9-3.2s.2-2.8-1.3-2.2c-2.8,1.3-5.7,2.6-8.5,3.9.4.7.8,1.4,1.3,2.2l5.9-4c1.1-.7.4-2.8-1-2.3l-3.8,1.4c-1.5.6-.9,2.9.7,2.4l5.2-1.8c1.5-.5.9-2.9-.7-2.4h0l.1-.1Z"/><path class="cls-1" d="M32.77,60.48h0c.3-.5.1-1.2-.2-1.6s-.8-.5-1.4-.4-.9.7-.9,1.2c0,.9.9,1.7,1.4,2.4.5.8,1,1.6,1.4,2.5l2.2-1.3c-1.2-1.8-2.5-3.5-3.7-5.3l-.4,1.7c.2,0,.8.2,1,.3.5.2,1,.3,1.5.5.8.3,1.8.8,2.8.9,2.6,0,1.4-3.4.9-4.8l-1.5,1.5c1,.3,2,.6,3.1,1,1.1.4,2.1-1.2,1.2-2.1-.9-.9-2.2-.7-2.9.3s-.7,2.1-.1,3c.6,1.1,2,1.1,2.9.4s1.3-1.9,1.4-3.1l-2.5.3c.8,2.4,1.9,4.7,3.4,6.8,1.5,2.1.8.7,1.4.6s1-.7.9-1.2v-3.5l-2.1.9c.7.6,1.3,1.2,1.8,2,.9,1.3,2.9.2,2.2-1.3s-.6-1.2-.9-1.9-.5-1.2-.9-1.6c-.9-.9-2.5-.4-3.6-.3-1.6.1-1.6,2.6,0,2.5,1.6-.1.8,0,1.2-.1s.8-.2,1.1,0l-.6-.3c.3.2.5,1,.7,1.3.3.6.5,1.2.8,1.7l2.2-1.3c-.6-.9-1.3-1.8-2.2-2.5s-2.1-.2-2.1.9v3.5l2.3-.6c-1.4-1.9-2.5-3.9-3.2-6.2-.4-1.4-2.3-1.1-2.5.3,0,.2,0,.5-.2.7,0,.1-.1.3-.2.4h0l.6.2c.4.2,0,.4.1,0,.2-.6-.1.2-.5,0l-.6-.3h.1c.4-.6.8-1.3,1.2-2-1-.3-2-.6-3.1-1s-1.8.6-1.5,1.5.3.9.4,1.4,0,.4.1.6v.4q0,.2,0,0l.3-.6h-.1c.2,0,.4,0,.6-.2.3,0,.2,0-.1-.1-.1,0-.3,0-.4-.1-.3,0-.5-.2-.8-.3-.6-.2-1.2-.4-1.8-.6-1.2-.4-2.2-.7-3.4-.2s-.8,1.2-.4,1.7c1.2,1.8,2.5,3.5,3.7,5.3s2.8.2,2.2-1.3-.7-1.5-1.2-2.2-1-1.3-1.4-1.9l.2.6h0c-.3.3-.6.7-.9,1.1h0c-.4-.1-.8-.2-1.2-.3h0c0-.4-.1-.9-.2-1.4h0c-.4.6,0,1.4.4,1.8s1.3,0,1.7-.4h0l.3.1Z"/><path class="cls-1" d="M31.57,61.78s0,.1.1.2.2.3.3.4c.2.2.4.4.6.5s.1,0,.2.1c.2,0,.3.1.5.2.3,0,.5.1.8.1.2,0,.3,0,.5-.1.2,0,.3-.1.4-.3.1-.1.2-.2.3-.4,0-.1.1-.3.1-.5,0-.3-.1-.7-.4-.9s-.5-.4-.9-.4-.1,0-.2,0h.3-.5.3c-.1,0-.3,0-.4-.1l.3.2c-.1,0-.2-.2-.3-.3l.2.3s0-.1-.1-.2c0-.1-.2-.3-.3-.4-.1-.1-.3-.2-.4-.2h-.5c-.2,0-.3,0-.5.1-.3.2-.5.4-.6.7s0,.7.1,1h.1Z"/><path class="cls-1" d="M29.57,60.18h1.3-.3.6c.3,0,.7,0,1-.1s.5-.4.6-.7,0-.7-.1-1-.4-.5-.7-.6c-.7-.2-1.4-.2-2.2-.2-.2,0-.3,0-.5.1-.2,0-.3.1-.4.3-.2.2-.4.6-.4.9s.1.7.4.9.6.4.9.4h-.2Z"/><path class="cls-1" d="M41.56,47.68h0c0,.2,0,.4.1.6,0,.2.1.3.3.4.1.1.2.2.4.3.1,0,.3.1.5.1h.3c.2-.1.4-.2.6-.4l.2-.3c.1-.2.2-.4.2-.6h0c0-.2,0-.4-.1-.6,0-.2-.1-.3-.3-.4-.1-.1-.2-.2-.4-.3-.1,0-.3-.1-.5-.1h-.3c-.2.1-.4.2-.6.4l-.2.3c-.1.2-.2.4-.2.6h0Z"/><path class="cls-1" d="M40.86,45.89c.2-.3-.1,0,.1-.1s.2-.2.3-.2c-.1.1,0,0,0,0,.1,0,.2-.1.3-.2s-.1,0,0,0,.2,0,.3-.1c.2,0,.4-.1.7-.1s.3,0,.1,0h2.5c.4.1.6.2.9.6s.5.8.7,1.3c.4.9.3,2.1.2,3.2-.1,1.1.6,1.2,1.2,1.2s1.2-.6,1.2-1.2c.1-1.6,0-3.1-.6-4.6-.6-1.5-1.6-2.5-3.1-2.9s-2.6-.2-3.9,0c-1.3.2-2.5.9-3.3,2-.8,1.1-.1,1.4.4,1.7s1.3.1,1.7-.4h0l.3-.2Z"/><path class="cls-1" d="M39.96,43.99c.1,0,.2-.2.3-.2h.2q-.1,0,0,0c.2,0,.5-.1.7-.2-.3,0,.2,0,.3,0h1.4c1.3,0,2.6,0,3.9.1s1.3-.6,1.2-1.2-.6-1.2-1.2-1.2c-1.4-.1-2.8-.2-4.2-.1-1.4.1-2.8,0-3.9.9-1.1.9-.8,1.1-.4,1.7s1.2.9,1.7.4h0v-.2Z"/><path class="cls-1" d="M42.36,42.09h1.6c.3,0,.7-.1.9-.4.1-.1.2-.2.3-.4,0-.1.1-.3.1-.5,0-.3-.1-.7-.4-.9s-.5-.4-.9-.4h-1.6c-.3,0-.7.1-.9.4-.1.1-.2.2-.3.4,0,.1-.1.3-.1.5,0,.3.1.7.4.9s.5.4.9.4h0Z"/><path class="cls-1" d="M47.26,37.59c-1.3-1-3.4-.6-4.5.5s-1.4,2.6-1.6,4.1c-.3,2.8,0,5.7.6,8.5l4.8-1.3c-.5-2.3-1-4.5-1-6.9l-4.7,1.3c.9,2.1,2.1,4,3.5,5.7s1.4,1.7,2.2,2.5c.8.8,1.9,1.9,3.2,2s2.9-.6,3.5-1.9c.6-1.3.6-2.5.7-3.7.2-2.5.2-5.1,0-7.7,0-1.3-1.1-2.6-2.5-2.5-1.4.1-2.5,1.1-2.5,2.5,0,2.6.4,5.1,1,7.6.6,2.5,1.4,6.5,4.6,6.4s4-3.4,4.4-6c.4-2.7.6-5.5.4-8.2h-5c.4,3.2,1.3,6.3,2.9,9.1.6,1.2,2.3,1.6,3.4.9,1.1-.7,1.5-2.2.9-3.4s-1-2-1.4-3.2c-.2-.6-.3-1.1-.5-1.7s-.1-.6-.2-.9c0-.2,0-.4-.1-.6,0-.3,0-.4,0-.2-.2-1.3-1-2.6-2.5-2.5-1.5.1-2.6,1.1-2.5,2.5.1,1.9,0,3.9-.1,5.8,0,.9-.2,1.6-.3,2.5s-.2.9-.3,1.3c0-.3,0,0,0,0q.5-.5,1.2-.4c.3,0,.6,0,.8.3.1,0,.2.1.2.2s0,0,0,0c0-.1-.1-.3-.2-.4-.1-.4-.3-.9-.4-1.3-.3-.9-.5-1.8-.7-2.7-.4-1.8-.6-3.3-.6-5.2h-5c.1,2,.2,3.9,0,5.9,0,1-.1,2-.2,2.9q0,.4,0,.2t0,0c0,.2-.3.4,0,0l.5-.5h1.6s-.2-.2-.3-.3c-1.2-1.1-2.3-2.4-3.1-3.5-.8-1.1-1.8-2.9-2.5-4.5-.4-1-1.8-1.4-2.8-1.1-1,.3-1.8,1.3-1.8,2.4-.1,2.8.5,5.5,1.1,8.2.6,2.7,1.8,2.1,3.1,1.7,1.3-.4,2.1-1.8,1.7-3.1-.4-1.3-.6-3.2-.5-5,.1-1.8,0-.8,0-1.2v-.8c0-.3,0-.5,0-.2v-.5c0-.3,0-.1,0,0q.2-.3,0,0c0,.1-.2.2-.3.3-.2.1-.4.1-.7,0-.6-.2-.7-.2-.4,0,1.1.8,2.8.2,3.4-.9s.2-2.6-.9-3.4h0l.4.4Z"/><path class="cls-1" d="M56.96,29.49c-2.1,2.8-3.6,6.4-4.1,9.9-.3,2-.4,4,.8,5.8.9,1.4,2.1,2.4,3.6,3.1,3.6,1.5,7.2,0,9.4-3.1,1.1-1.5,2.1-3,3.3-4.4l-1.2,1.5c1.2-1.6,2.5-3.1,3.8-4.6l-11.8-1.5.2.4-.8-1.8c.1.4.2.7.3,1.1l-.3-2v1.2l.3-2c-.1.9-.3,1.7-.6,2.5l.8-1.8c-.4,1-1,1.9-1.6,2.7.4-.5.8-1,1.2-1.5-.7.8-1.4,1.6-2.3,2.2l1.5-1.2c-1.1.8-2.3,1.5-3.6,2.1l1.8-.8c-2.1.9-4.3,1.4-6.5,1.7l2-.3c-1.8.2-3.7.5-5.6.3l2,.3c-.6,0-1.2-.2-1.8-.5l1.8.8c-.3-.2-.6-.3-.9-.5l1.5,1.2c-.1-.1-.3-.3-.4-.4l1.2,1.5c-.2-.2-.3-.5-.5-.7.3.6.5,1.2.8,1.8-.2-.4-.3-.7-.3-1.1l.3,2v-.6c0,.7-.2,1.3-.3,2,0-.3.1-.5.2-.8l-.8,1.8v-.2c-.3.5-.6,1-1,1.5.1-.2.2-.3.4-.4-4.3-1.8-8.5-3.5-12.8-5.3,0,3.1,0,6.2-.1,9.3,3.8-2.2,7.5-4.3,11.3-6.5-.3-.2-.7-.4-1-.6-2.3-1.4-5.3-1.3-7.6,0s-4,3.9-3.7,6.5.4,3.1,1.2,4.7c.5,1,1.2,1.9,2,2.6,1.5,1.5,3.6,2.7,5.7,3.1,4.9.9,9.5-1,12.8-4.6,2.7-2.9,3.1-7.8,0-10.6-3.1-2.8-7.7-3.1-10.6,0s-.9.9-1.4,1.3l1.5-1.2c-.5.4-1.1.7-1.6,1l1.8-.8c-.5.2-.9.3-1.4.4l2-.3h-1l2,.3c-.4,0-.8-.2-1.2-.3l1.8.8c-.3-.1-.6-.3-.8-.5l1.5,1.2c-.3-.2-.5-.4-.7-.6l1.2,1.5c-.2-.3-.3-.5-.5-.8l.8,1.8c0-.2-.1-.4-.2-.6,0,.7.2,1.3.3,2v-.3c-3.8,2.2-7.6,4.3-11.3,6.5.3.2.7.4,1,.6,4.9,3.1,11.2-.9,11.3-6.5,0-3.1,0-6.2.1-9.3,0-3-1.9-5.7-4.6-6.9-2.8-1.2-6-.6-8.2,1.6-2.2,2.2-3.6,6.6-2.5,10.1,1.2,3.6,3.9,6.2,7.4,7.3,2.2.7,4.6.7,6.9.5,2.3-.2,5.2-.5,7.7-1.2,4.4-1.1,8.9-3.5,11.9-7,3-3.5,3.1-4.3,4-7s.8-7-.8-10.3c-1.6-3.3-8.8-5-11.8-1.5-2.9,3.4-5.6,6.9-8.2,10.6l13.7,5.8c.2-1.5.6-2.9,1.1-4.3-.3.6-.5,1.2-.8,1.8.6-1.4,1.3-2.6,2.2-3.8s1.2-4.1.8-5.8-1.8-3.6-3.4-4.5c-1.6-.9-3.8-1.4-5.8-.8-2,.6-3.3,1.8-4.5,3.4h-.3Z"/><path class="cls-1" d="M69.95,19.19c10.9.2,21.79.5,32.59,1.9l-2-.3c2.1.3,4.2.6,6.3,1,2.1.4,3.9.3,5.8-.8,1.6-.9,3-2.7,3.4-4.5.8-3.7-1.1-8.5-5.2-9.2-13.5-2.4-27.19-2.9-40.79-3.1-13.6-.2-7.7,3.5-7.5,7.5.2,4.1,3.3,7.4,7.5,7.5h-.1Z"/><path class="cls-1" d="M102.64,21.29c2.5,5.9,5.1,11.7,7.6,17.59-.3-.6-.5-1.2-.8-1.8.6,1.5,1.2,3.1,1.4,4.7l-.3-2c.2,1.7,0,3.4-.1,5.1,0-.7.2-1.3.3-2-.3,2.4-.7,4.9-1.6,7.1l.8-1.8c-.1.3-.4,1.3-.7,1.4.4-.2,1.1-1.4.2-.4-.4.4-.3.3.2-.1.6-.4.6-.5.2-.2-.4.2-.8.5-1.2.6l1.8-.8c-1.4.5-2.8.8-4.2,1l2-.3c-3.7.5-7.5.8-11.2.8s-8.1-.3-12.1-.8c-8-1-15.99-2-23.99-3-1.7-.2-4.2,1-5.3,2.2-1.1,1.2-1.8,2.6-2.1,4.3-.4,3.3,1.7,7.7,5.4,8.2s5.6,1.1,8.3,2.1,7-.7,8.5-3.4c1.5-2.8,1.4-6.8-1.2-9.1-4.5-4-11.5-5.2-16.69-1.7-2.6,1.7-4,4.4-3.6,7.5.4,2.9,2.5,5.5,5.4,6.2,3.8,1,7.7,1.1,11.6,1.3s6.8.3,10.1.3c6.8.1,13.7.1,20.49,0-1.8-4.3-3.5-8.5-5.3-12.8-.6.7-1.2,1.4-1.8,2-2,2.3-2.8,5.3-1.6,8.2s3.9,4.7,6.9,4.6c5.7-.3,11.5-.7,16.39-3.7,5.7-3.3,8.8-8.9,9.2-15.4.3-5.4-1.3-11.1-4-15.69-1.6-2.7-3.6-5.4-6.1-7.2-4.3-3.1-10.6-2.1-13.3,2.6-2.7,4.7-1.6,7.1-1.9,10.5-.3,3.4-.6,6-.8,8.9,4.9-.7,9.8-1.3,14.7-2-1.5-7.2-3.3-14.4-5.3-21.49-1.1-3.8-5.3-6.5-9.2-5.2s-6,5.1-5.2,9.2c.8,4.1.4,2.5.6,3.8,0-.7-.2-1.3-.3-2,.7,5.7.8,11.4.2,17.09l14.7-2c-.7-4.4-1.4-8.8-2.1-13.2-.3-2.1-.6-4.1-1-6.2-.4-2.1-2.4-6.1-5.2-7.4-2.3-1-4.3-1.4-6.7-.4s-3.9,2.6-4.3,4.9c-.7,3.6-1.4,7.3-2.1,10.9-.6,3.1-.9,6.6-2.1,9.5.3-.6.5-1.2.8-1.8-.2.4-.4.7-.6,1.1.9-1.1,1.1-1.4.6-.9,1.2-.8,1.4-1.1.8-.7l1.8-.8c-.3.1-.5.2-.9.2,2.8,1.1,5.6,2.3,8.5,3.4-.2-.4-.3-.7-.5-1.1.3.6.5,1.2.8,1.8-1.1-2.7-1.7-5.6-2.1-8.4l.3,2c-.9-6.6-1.3-13.2-4.8-18.99-1.6-2.6-4.5-4-7.5-3.6s-5.6,2.5-6.2,5.4c-1.7,8-3.5,15.99-5.2,24.09h14.5c-3-8.8-1.9-18.59-7.4-26.49-1.7-2.5-4.3-4-7.5-3.6s-5.3,2.5-6.2,5.4c-1.7,5.3-1.1,10.8-1.8,16.19l.3-2c-.2,1.5-.6,2.9-1.1,4.3l.8-1.8c-.4.8-.8,1.5-1.3,2.3l13.7,1.8c-1.4-3.7-2.4-7.6-3-11.6,0,.7.2,1.3.3,2-.2-1.8-.4-3.7-.5-5.5-.1-3.9-3.3-7.7-7.5-7.5-4.2.2-7.7,3.3-7.5,7.5.2,6.5,1.4,13,3.7,18.99,1.1,2.9,3.1,4.9,6.2,5.4s5.7-1.1,7.5-3.6c4.4-6.1,3.3-13.8,4.2-20.79,0,.7-.2,1.3-.3,2,.2-1.3.4-2.5.8-3.8-4.6.6-9.1,1.2-13.7,1.8.7,1.1,1.4,2.2,1.9,3.4-.3-.6-.5-1.2-.8-1.8,2.9,6.8,2.4,14.4,4.8,21.29,1,3,3.8,5.7,7.2,5.5,3.4-.2,6.5-2.2,7.2-5.5,1.7-8,3.5-15.99,5.2-24.09l-13.7,1.8c.5.8.9,1.6,1.2,2.4l-.8-1.8c1.1,2.7,1.6,5.5,2,8.4l-.3-2c.4,3,.7,6.1,1.3,9.1.5,3,1.5,5.8,2.9,8.5,1.4,2.7,2.2,2.5,3.6,3.1,1.4.6,3.1.6,4.9.4,3.1-.4,5.9-3.1,7.2-5.9,1.1-2.4,1.6-4.7,2.1-7.2,1-5,1.9-10,2.9-15.1-3.7,1.5-7.3,3-11,4.5.7.3.4,0-.7-.7-.8-1.1-1-1.4-.7-.7l-.8-1.8c.6,1.4.7,2.9.9,4.4.3,1.9.6,3.8.9,5.6.6,3.7,1.2,7.3,1.8,11,.6,3.7,2,3.7,3.4,4.5,1.4.8,3.1,1.1,4.8.9,1.7-.2,3.2-.9,4.3-2.1,1.4-1.6,2-3.2,2.2-5.3.8-7.6.3-15.3-1.1-22.89-4.8,1.3-9.6,2.7-14.5,4,2,7.1,3.8,14.3,5.3,21.49.8,3.6,4.8,5.8,8.2,5.4,3.4-.4,6.2-3.6,6.5-7.4.3-3.8.8-9.6,1.3-14.4,0,.7-.2,1.3-.3,2,0-.3.1-.7.2-1-.3.6-.5,1.2-.8,1.8.6-1.1,0-.5-1.8,1.8l-1.8.8h.3c-.7,0-1.3,0-2,.2h.3c-.7,0-1.3-.2-2-.3.2,0,.5,0,.7.2l-1.8-.8c.2,0,.3.2.5.3.5.3.2.1-.8-.6,0,.2.5.5.7.7.8.9,0,0-.3-.4.3.2.5.7.7,1,.8,1.3,1.5,2.6,2.1,4l-.8-1.8c.7,1.8,1.2,3.6,1.5,5.5l-.3-2c.2,1.5.3,3.1,0,4.6,0-.7.2-1.3.3-2-.1,1-.4,1.9-.7,2.9l.8-1.8c-.3.7-.6,1.3-1,1.9s1.2-1.4.4-.5-.5.5-.8.8c-.9.8,1.2-.8.5-.4s-.5.4-.8.5c-.6.4-1.3.7-2,1l1.8-.8c-1.8.7-3.6,1.1-5.5,1.4l2-.3c-1.8.2-3.7.3-5.5.4,1.8,4.3,3.5,8.5,5.3,12.8.6-.7,1.2-1.4,1.8-2,2-2.3,2.8-5.3,1.6-8.2-1.1-2.7-3.9-4.7-6.9-4.6-6.3.2-12.5.2-18.79.1s-12.5,0-18.69-.8l2,.3c-.9-.1-1.9-.3-2.8-.6l1.8,13.7c.3-.2.6-.4.9-.5l-1.8.8c.5-.2,1.1-.4,1.6-.5l-2,.3h1.7l-2-.3c.6,0,1.1.2,1.7.4l-1.8-.8c.3.1.5.3.8.4.7.3-1.5-1.3-.6-.4,2.4-4.2,4.9-8.4,7.3-12.5-2.7-.9-5.5-1.6-8.3-2.1-.7,4.9-1.3,9.8-2,14.7,6.8.8,13.5,1.7,20.29,2.5,6.8.8,6.9.9,10.4,1.1,3.5.2,6.8,0,10.1-.2,7.1-.5,14.9-.8,19.69-6.9,2.3-2.9,3-6.4,3.6-10,.7-4.2,1.1-8.3,0-12.5-1.1-3.9-3.1-7.7-4.7-11.4s-3.1-7.1-4.6-10.7c-.7-1.6-2.9-3-4.5-3.4s-4.2-.3-5.8.8c-1.6,1.1-3,2.6-3.4,4.5-.5,2.1,0,3.8.8,5.8h0l.3.9Z"/><path class="cls-1" d="M70.95,28.59c6,.6,12,.8,18.09.5,6.1-.3,3.9-.8,5.3-2.2s2.3-3.4,2.2-5.3c-.1-1.9-.7-4-2.2-5.3s-3.3-2.3-5.3-2.2c-6,.2-12.1,0-18.09-.5s-4.1,1-5.3,2.2c-1.3,1.3-2.3,3.4-2.2,5.3,0,1.9.7,4,2.2,5.3s3.2,2,5.3,2.2h0Z"/><path class="cls-1" d="M95.75,29.09l3.1.8c1,.3,2,.4,3,.1,1,0,1.9-.3,2.8-.9.9-.5,1.6-1.1,2.1-1.9.7-.7,1.1-1.6,1.3-2.6l.3-2c0-1.4-.3-2.6-1-3.8l-1.2-1.5c-.9-.9-2-1.6-3.3-1.9l-3.1-.8c-1-.3-2-.4-3-.1-1,0-1.9.3-2.8.9-.9.5-1.6,1.1-2.1,1.9-.7.7-1.1,1.6-1.3,2.6l-.3,2c0,1.4.3,2.6,1,3.8l1.2,1.5c.9.9,2,1.6,3.3,1.9h0Z"/><path class="cls-2" d="M60.76,18.19c.2,5.9.5,11.8,1,17.69.1,1.3,1.1,2.5,2.5,2.5,2.1,0,4.2-1.2,4.1-3.6h-5c0,.7.2,1.3.5,1.9,1.3,2,4.7,1.3,4.7-1.3-.1-4.1-.3-8.2-.6-12.3-.2-2-.3-4-.5-6-.1-1,0-2.1-.7-3-.9-1.3-2.3-1.5-3.7-.9-1.4.6-1.5,2.3-.9,3.4.6,1.1,2.2,1.5,3.4.9h.1-2.5.1c-.3-.2-.6-.5-.9-.8-.1-.6-.2-.7,0-.1v.4c0,.4.1.8.2,1.2,0,.8.2,1.6.2,2.4.1,1.7.3,3.3.4,5,.2,3.3.4,6.6.4,9.8l4.7-1.3v.6c0-1.3-1-2.5-2.4-2.5s-2.5,1.1-2.5,2.5h0c.2-.5.4-.9.6-1.2.2-.2.9-.2.3-.2.8.8,1.7,1.7,2.5,2.5-.5-5.9-.8-11.8-1-17.69,0-3.2-5.1-3.2-5,0h0v.1Z"/><path class="cls-2" d="M63.26,17.79s.8-.2.5-.2.5,0,.6,0c.5,0,.9,0,1.4.1,1,.1,2,0,3.1,0,2.2-.2,4.5-.4,6.7-.7s2.6-1.1,2.5-2.5c-.1-1.4-1.1-2.6-2.5-2.5-2.3.2-4.6.5-7,.7-2.4.2-2,0-3,0s-2.4-.2-3.6.3-2.2,1.7-1.7,3.1c.4,1.2,1.8,2.2,3.1,1.7h-.1Z"/><path class="cls-2" d="M84.05,18.89c6.3.6,12.5.9,18.79,1.1,6.3.2,2.5-1.2,2.5-2.5s-1.1-2.5-2.5-2.5c-6.3-.2-12.6-.5-18.79-1.1-6.2-.6-2.5,1.2-2.5,2.5s1.1,2.4,2.5,2.5h0Z"/><path class="cls-2" d="M94.45,18.19c-4.2,5.1-8.4,10.3-12.6,15.4-.8,1-1,2.2-.2,3.3s2.2,1.4,3.2.6c3.6-2.6,7.1-5.5,10.2-8.8,1.5-1.5,2.8-3.1,4.2-4.7s1.3-1.5,2.1-2.2,1.3-1,1.9-1.2c-.8-1.4-1.6-2.8-2.4-4.2-1,1-2.1,1.8-3.4,2.5s-1.6,2.3-.9,3.4,2.2,1.5,3.4.9c1.2-.6,3.1-2,4.4-3.3.8-.8,1-2.1.4-3s-1.8-1.5-2.8-1.1c-4.2,1.6-6.6,5.5-9.6,8.6-3,3.2-6.3,6.2-9.9,8.7l3,3.9c4.2-5.1,8.4-10.3,12.6-15.4.9-1,1-2.5,0-3.5s-2.7-1.1-3.5,0h0l-.1.1Z"/><path class="cls-2" d="M81.05,35.49c-.4.6-.8,1.1-1.1,1.7s0,1.7.7,1.8c.2,0,.5.1.7.2l.7-2.4c-.5,0-1-.1-1.6-.2l-.3,2.5h11.2c3.8,0,3.6,0,5.5-.1,1.9-.1,1.8,0,2.7,0s2.6,0,2.6-.3l1.2-1.2c-3.3-.3-6.6-.5-9.9-.5s-1.6,2.5,0,2.5c3.3,0,6.6.2,9.9.5,3.3.3,1.3-.6,1.2-1.2-.3-2.2-2.1-2.3-4-2.2s-4.6.1-6.8.2c-4.6,0-9.1.1-13.7.1s-1.8,2.3-.3,2.5c1.5.2,1,.1,1.6.2,1.5.2,2.3-2.1.7-2.4-.2,0-.5-.1-.7-.2.2.6.5,1.2.7,1.8.3-.6.7-1.2,1.1-1.7,1-1.3-1.2-2.5-2.2-1.3h0l.1-.3Z"/><path class="cls-2" d="M86.05,36.49v.3c.1.2.2.3.3.4,0,.1.2.2.4.3.1,0,.3.1.5.1h.8c.2-.2.3-.4.4-.6v-.3c.2-.2.2-.4.1-.7v-.3c-.1-.2-.2-.3-.3-.4,0-.1-.2-.2-.4-.3-.1,0-.3-.1-.5-.1h-.8c-.2.2-.3.4-.4.6v.3c-.2.2-.2.4-.1.7h0Z"/><path class="cls-2" d="M40.46,50.38c1.6.7,3.4.8,5,.2s1.6-1.1,1.6-2.1-.6-1.7-1.3-2.2-.9-.5-1.4-.3-.8.7-.8,1.1.2,1.2.5,1.7.9.7,1.4.6,1-.7.9-1.2c-.2-1.4-.9-2.7-2.2-3.5s-1.7-.5-2.4.1-1,1.1-1.4,1.7-.6,1.4-.6,2.1.2,1.5.3,2.2c.3,1.3.7,2.7,1.5,3.8.8,1.1,1.3,1.4,2.3,1.5s1.7-.5,2.4-1.2c1.1-1.1-.6-2.9-1.8-1.8s-.4.4-.5.4h0c.2,0,0-.1,0,0,0,0-.3-.3-.3-.4-.2-.2-.3-.5-.4-.7-.4-.9-.7-2.1-.9-3.2s0-.5,0-.8c0,.1,0-.1,0-.2v-.2c.2-.5.5-.8.9-1.2l.2-.2-.7.2h0s.1,0,.2.1c.1,0,.3.2.4.4-.1-.1.1.2.1.2,0,.1.1.2.2.3,0-.1,0,0,0,.1s0,.4,0,.3l2.3-.6c0-.1-.1-.3-.2-.5l-2.1.9c.2.1.3.3.5.4s.1.1,0,.1v-.3s0-.2,0-.1-.1,0-.2.1c.1,0,0,0,0,0-.1,0-.2,0-.4.1-.7.2-1.6.1-2.3-.2s-1.3-.2-1.7.4-.2,1.4.4,1.7h0l.5.2Z"/><path class="cls-2" d="M52.36,53.88c-.1-.1-.2-.3-.3-.5,0,.1,0-.1,0-.1v-1.3c0-.9.2-1.9.3-2.8.1-.9,0-.9.1-1.4s0-.3,0-.4c0-.3.1-.4-.2,0s-.2.3.1.3c.9-.1,1.8,0,2.7.2s1.8-.6,1.5-1.5c-.4-1.4-1.7-2.1-3.1-2.1s-2.6.3-3.4,1.3c-.8,1,0,1.4.4,1.7s1.3,0,1.7-.4c-.1.2,0,0,0,0h1.4q.2,0,.1,0s.4.1.2,0c0,0,.3.2.2.1q.1.1,0,0,0,.1,0,0l1.5-1.5c-1.2-.3-2.5-.4-3.8-.2-1.3.2-1.4.2-1.8.9s-.3,1.5-.3,2.2c-.1,1.2-.3,2.4-.4,3.6s0,2.3.7,3.3,1.1.8,1.7.4.9-1.2.4-1.7h0l.3-.1Z"/><path class="cls-2" d="M58.96,43.59c0,2.7.1,5.4.2,8.1.1,2.7,0,2.5.5,3.7.5,1.2,1.3,1.9,2.5,2.1,1.2.2,1.3-.2,1.5-.9s-.2-1.4-.9-1.5-.9-.8-1-1.4c-.2-1,0-2.1,0-3.2,0-2.3,0-4.5-.2-6.8s-2.6-1.6-2.5,0h0l-.1-.1Z"/><path class="cls-2" d="M60.06,46.29c-.6-.2-1.3-.2-1.9,0s-1,.8-.9,1.4.6,1.1,1.2,1.1h4.5c1.5,0,.7-.2.9-.4s.4-.6.4-.9-.1-.7-.4-.9-.5-.3-.9-.4c-1.5-.2-3-.2-4.5,0,.1.8.2,1.6.3,2.5h.2-.3.6-.3.4c.6.2,1.4-.2,1.5-.9s-.2-1.3-.9-1.5h.1Z"/><path class="cls-2" d="M65.55,49.08v3.8c0,.7,0,1.3.1,1.9s.3.7.4,1,.2.2.2.4q0-.1,0,0v-.2c-.2.6.2,1.4.9,1.5s1.3-.2,1.5-.9-.1-1.5-.5-2.2c0,0,0-.1-.1-.2,0,.1,0,0,0,0v-.2q0,.1,0,0v-.9c.1-1.5,0-2.9-.2-4.4s-.9-1.1-1.5-.9-1,.8-.9,1.5h0l.1-.2Z"/><path class="cls-2" d="M66.45,45.29c1.6,0,1.6-2.5,0-2.5s-1.6,2.5,0,2.5h0Z"/><path class="cls-2" d="M71.35,47.88c-.4,2.7-.4,5.4.3,8.1.7,2.7.9,1.1,1.5.9s1-.9.9-1.5c-.3-1.2-.5-2.1-.5-3.4v-1.8c0-.6,0-1.1.2-1.6s-.2-1.4-.9-1.5-1.4.2-1.5.9h0v-.1Z"/><path class="cls-2" d="M70.55,49.58c1,0,1.9.2,2.9.6s1.1.1,1.4-.3.4-1,0-1.4-.5-.4-.8-.3-.5.4-.4.7c.2.4.4.7.8.8s.6-.1.7-.4,0-.6-.3-.8-.4-.2-.5-.3c-.3-.2-.7,0-.9.2s0,.7.2.9.4.2.5.3l.5-1.1h0l-1.1.5h0s.2-.1,0,0h-.1s-.2,0-.3-.1c-.2,0-.4-.1-.6-.2-.8-.2-1.7-.4-2.5-.4s-.6.3-.6.6.3.6.6.6h0l.5.1Z"/><path class="cls-2" d="M73.75,46.88c0-1.2.8-2.3,2-2.7s1.2-.2,1.8,0,.5.1.7.3.2.3,0,.4l.4-.3s-.1,0,0,0h-.1c-.1,0-.2-.2-.3-.3-.2-.2-.4-.4-.7-.6-.5-.4-1-.8-1.6-.9-1.1-.3-2.3.1-2.7,1.2s.1.7.4.8.6-.1.8-.4h0l.1-.1h.4c.4,0,.8.1,1.2.4s.8.7,1.2,1.1,1.4.8,1.9,0,.2-1.2-.1-1.7-.9-.8-1.5-.9c-1.1-.3-2.4,0-3.4.6s-1.8,2-1.8,3.4.3.6.6.6.6-.3.6-.6h0l.1-.3Z"/><path class="cls-2" d="M82.45,47.18v-.8c0-.1-.2-.2-.4-.3s0,0-.1,0h-.3c-.1,0-.2.1-.3.2s-.1.2-.2.3h0c0-.1,0,0,0,0h.8v.1h0v.3h0v.2h0v.1h0v.1h-.6l-.4-.9c0,.2-.2.4-.3.6l1.2.3h0v.2-.1h0c0,.1,0,0,0,0h0c0,.1,0,0,0,0,0,0,.1-.1.1-.2v-.4s0-.1-.1-.2-.3-.2-.4-.2h-.2c-.1,0-.2.1-.3.2l-.2.2c-.1.1,0,.1,0,.2v.7s0,.2.1.2l.1.1s.1,0,.2.1h.3s.2,0,.2-.1l.2-.2c0-.2.2-.4.3-.6v-.5s0-.1-.1-.2c0,0-.2-.1-.3-.2h-.2c-.1,0-.3,0-.2,0h-.2c-.2,0-.3.2-.3.4s0,.1,0,.2v.2c0,.1,0,0,0,0h0v.2q0,.1.2.2c.2.1,0,0,0,0h.2c.1,0,0,0,0,0h.5c.1,0,0,0,0,0h0s0-.1.1-.2,0,0,0,0h0c0,.1,0,0,0,0h-.6l-.4-.8v.8s0,.1.2.2c0,0,.1,0,.2.1h.5c.2,0,.3-.2.3-.4h0l.4-.1Z"/><path class="cls-2" d="M80.25,50.78c0,1.6-.1,3.1-.2,4.7-.1,1.6-.1,1.5,0,2.2s.2.6.5.8.3.1.5.1h.2q.2,0,0,0c.3.3,1,.2,1-.3.2-1.2,0-2.4-.1-3.5s-.1-1.2-.1-1.8-.2-1.1,0-1.6,0-.7-.2-.9-.7,0-.9.2c-.3.5-.3,1.1-.3,1.7s0,1.3.1,1.9c.1,1.2.4,2.4.2,3.6l1-.3c-.2-.2-.5-.3-.8-.3h-.1c-.2,0,0,0,.2.3v-2.6c0-1.4.1-2.8.2-4.2.1-1.4-1.2-.8-1.2,0h0Z"/><path class="cls-2" d="M88.65,52.58c1.4-.1,2.8-1.1,2.8-2.6s-1.4-2.5-2.8-2.1c-1.4.4-2.1,2.2-1.6,3.5s2,2.6,3.5,2.1,1.4-1,1.8-1.6c.4-.6.5-1.4.3-2.1-.3-1.5-1.6-2.6-3.1-2.8-1.5-.2-3.1.2-3.9,1.6s-.6,3.3-.2,4.9c.2,1,.6,2,1,2.9.4.8.8,1.5,1.6,1.9,1.4.7,4,.5,4.2-1.4s-.3-.6-.6-.6c-.7,0-1.6.1-2.2-.3s-.8-1.2-1-1.9c-.5-1.7-.5-3.6-.2-5.3l-1.2-.2c0,2.9-.8,5.9.6,8.6.3.6,1.4.2,1.1-.5-.7-2-1.1-4.1-1.2-6.3h-1.2c0,1.4.2,2.8.6,4.2.4,1.4,1.2,2.5,1.4,3.9s1.3.5,1.2-.3c-.2-1.3-.9-2.5-1.3-3.7-.5-1.3-.6-2.7-.6-4,0-.8-1.3-.8-1.2,0,0,2.2.5,4.5,1.2,6.6l1.1-.5c-1.3-2.5-.4-5.4-.4-8,0-.7-1.1-.9-1.2-.2-.4,2.1-.3,4.4.4,6.5.3.8.7,1.6,1.4,2.2s1.9.6,2.8.5l-.6-.6c0,.9-2.1.5-2.5.3s-.6-.7-.8-1.1c-.3-.5-.5-1.1-.7-1.7-.5-1.7-1.4-4.5.4-5.8s4.3.2,4.1,2.2-.4.8-.7,1.1-.7.7-1.2.5c-.8-.3-1.5-1.2-1.4-2.1.1-.9.3-.9.8-1.1s.9,0,1.1.4c.5,1-.6,1.8-1.4,1.9s-.8,1.3,0,1.2h0l-.2-.2Z"/><path class="cls-2" d="M90.95,52.48l.2-.2h0c.4-.4.8-.9,1.2-1.3s.2-.3.2-.4,0-.3-.2-.4-.3-.2-.4-.2-.3,0-.4.2c-.5.6-1,1.2-1.5,1.8s-.1.3,0,.5.2.3.3.4.3.1.5,0h.1c0-.1.2-.2.2-.3h0l-.2-.1Z"/><path class="cls-2" d="M85.95,49.28v1.4c0,.2,0,.3.2.4s.3.2.4.2c.3,0,.6-.3.6-.6v-1.4c0-.2,0-.3-.2-.4s-.3-.2-.4-.2c-.3,0-.6.3-.6.6h0Z"/><path class="cls-2" d="M88.55,58.78h1.1c.2.1.3,0,.4,0s.2-.3.2-.4,0-.3-.2-.4h-.1c0-.2-.2-.2-.3-.2h-1.1c-.2-.1-.3,0-.4,0s-.2.3-.2.4,0,.3.2.4h.1c0,.2.2.2.3.2h0Z"/><path class="cls-2" d="M103.74,48.68c0-1.6,0-3.2.1-4.8l-2.5.3c.7,4.7-.3,9.7,1.4,14.3s.7,1,1.4.9,1.2-.6,1.1-1.2c-.3-2.5-.5-5-.4-7.6,0-1.6-2.5-1.6-2.5,0,0,2.5.1,5.1.4,7.6l2.5-.3c-1.6-4.6-.7-9.6-1.4-14.3-.2-1.4-2.4-1-2.5.3,0,1.6,0,3.2-.1,4.8,0,1.6,2.5,1.6,2.5,0h0Z"/><path class="cls-2" d="M102.64,49.78c-1-1-2.6-1.3-4-.8s-2.5,1.8-2.9,3.3c-.4,1.5-.4,2.9,0,4.3.4,1.4,1.4,3.1,2.9,3.5s2.1,0,2.8-.7,1-1.4,1.4-2.1.2-1.1-.2-1.5-1-.4-1.5-.2-.3.2-.4.2-.3,0-.4.1h-.1s-.3,0-.1,0h-.1c0-.2-.2-.3-.2-.4-.1-.2-.2-.3-.3-.4s-.1-.2-.2-.3-.1-.3,0-.1c0,0,0-.3,0-.2s0-.2,0,0c0-.1,0-.3.1-.4h0v-.1c0-.2.2-.4.3-.5s0,0,0,0c0,0,.1-.2.2-.2s.2-.2,0,0c.1,0,.2-.1.3-.2s.2,0,.5-.1c-.2,0,0,0,.1,0h.1c.3,0,0,0,.1,0s.2.1,0,0c0,0,.2.2.3.3-.1-.2,0,.1,0,0s0,.2,0,.2c0-.2,0,0,0,.1,0,.7.6,1.3,1.2,1.2s1.2-.5,1.2-1.2c.1-1.8-1.5-3.1-3.2-3.1s-3,1.1-3.7,2.5c-.7,1.4-.7,1.7-.4,2.7s.7,1.4,1.2,2,1.3,1.1,2.1,1.1,1.7-.3,2.4-.7l-1.7-1.7c-.1.3-.3.7-.5,1s-.2.4-.5.7c.2-.2-.4.2-.1,0h-.2q.1,0,0,0c.2,0-.2,0,0,0,0,0-.2,0-.2-.1h0c-.8-.7-1.1-1.8-1.1-2.9s0-.7,0-1c0,.2,0-.2,0-.2,0-.1,0-.3.1-.4.2-.5.4-.9.8-1.3q.1,0,0,0s.1,0,.2-.1c0,0,.2-.1.3-.2-.3.1.2,0,.2,0h.2q-.2,0,0,0h.4c-.3,0,.1,0,.2,0s.1,0,0,0c0,0,.1,0,.2.1q.1,0,0,0s.1,0,.2.2c.5.5,1.3.5,1.8,0s.5-1.3,0-1.8h0l.2-.6Z"/><path class="cls-2" d="M24.07,19.89c.2,1.8.7,3.4,1.5,5s1.2,0,.9-.5c-.7-1.4-1.2-2.9-1.4-4.5,0-.3-.2-.5-.5-.5s-.5.2-.5.5h0Z"/><path class="cls-2" d="M26.47,24.79c-.6-1.6-1-3.3-1-5h-3c.2,1.5.2,3.1,0,4.6h3c-.4-3.2-.8-6.4-1.2-9.6l-1.1,1.4,4.1-.7-1.9-1.4c0,3.8-.1,7.7,1.1,11.3s3.1,6,6,7.4c2.9,1.4,6.5,1.5,9.1-.4,2.8-2,3.6-5.4,3.8-8.7.2-3.9.2-8.1-1.5-11.6-.6.7-1.1,1.5-1.7,2.2,1.4.4,2.7.7,4.1,1.1l-1.1-1.4c-.2,3.7-.5,7.4-.9,11.1h3c0-2.9,0-5.7.3-8.5h-3c0,1.7,0,3.5-.3,5.2s.2,1.6,1,1.8,1.7-.2,1.8-1c.3-2,.5-4,.4-6-.1-2-.7-1.5-1.5-1.5s-1.4.7-1.5,1.5c-.3,2.8-.4,5.7-.3,8.5,0,.8.7,1.5,1.5,1.5s1.4-.7,1.5-1.5c.4-3.7.8-7.4.9-11.1.1-3.7-.5-1.3-1.1-1.4-1.4-.4-2.7-.7-4.1-1.1s-2.3,1.1-1.7,2.2c1.3,2.7,1.2,5.9,1.2,8.8s-.2,5.2-1.9,6.9c-1.7,1.7-4.2,1.9-6.4,1s-3.9-3.1-4.8-5.4c-1.3-3.5-1.3-7.2-1.2-10.8,0-1.1-1-1.6-1.9-1.4l-4.1.7c-.6,0-1.2.9-1.1,1.4.4,3.2.8,6.4,1.2,9.6.4,3.2,2.8,1.9,3,0,.2-1.5.2-3.1,0-4.6s-.6-1.5-1.5-1.5-1.5.7-1.5,1.5c0,2,.4,4,1.1,5.8s1,1.3,1.8,1,1.4-1.1,1-1.8h0l.4-.1Z"/><path class="cls-2" d="M22.77,16.89c.4,1,.7,1.9,1,2.9s.2,1,.3,1.5,0,.5.1.8,0,.2,0,.3v.2q0-.2,0,0c0,.4.1.8.4,1.1s.7.5,1.1.4c.7,0,1.6-.7,1.5-1.5-.3-2.2-.8-4.4-1.6-6.4-.8-2-.3-.7-.7-.9s-.8-.3-1.2-.2c-.7.2-1.4,1.1-1,1.8h.1Z"/><path class="cls-2" d="M22.17,21.79c0,2.7.2,5.4,1.3,7.9,1.1,2.5,2.9,4.2,5.2,5.2,5,2.4,10.9,1.1,15.2-2.2,2.4-1.8,4.3-4.6,3.7-7.7-.6-3.1-1.1-1.3-1.8-1s-1.2,1-1,1.8,0,1.5-.5,2.3-1.2,1.6-2,2.2c-1.7,1.3-3.8,2.3-6,2.7-3.8.8-8.1-.6-9.9-4.3-1.1-2.1-1.2-4.6-1.2-6.9,0-1.9-3-1.9-3,0h0Z"/><path class="cls-2" d="M28.27,27.79c-.1-.1-.2-.3-.3-.5s0-.2-.1-.2c-.1-.3.1.3,0,0l-2.5,1.5c1.5,1.8,3,3.5,4.6,5.2,1.6,1.7,1.6.6,2.1,0s.6-1.5,0-2.1c-1.6-1.7-3.1-3.4-4.6-5.2-1.5-1.8-1.3-.6-1.8-.2s-.4.3-.5.5-.3.8-.2,1.2c.2.5.4,1,.7,1.4s.5.6.9.7.8,0,1.2-.2c.6-.4,1-1.4.5-2.1h0Z"/><path class="cls-2" d="M26.97,31.19c1.3,1,2.6,1.9,3.9,2.9,1.3,1,.8.2,1.2.2s.7-.4.9-.7.3-.8.2-1.2-.4-.7-.7-.9l-3.9-2.9c-.3-.2-.8-.2-1.2-.2s-.7.4-.9.7-.3.8-.2,1.2.4.7.7.9h0Z"/><path class="cls-2" d="M44.46,15.1l2.1-.6c.4,0,.7-.4.9-.7.1-.2.2-.4.2-.6v-.6c-.1-.4-.3-.7-.7-.9s-.8-.3-1.2-.2l-2.1.6c-.4,0-.7.4-.9.7-.1.2-.2.4-.2.6v.6c.1.4.3.7.7.9s.8.3,1.2.2h0Z"/><path class="cls-2" d="M51.26,13.3c0,.8,0,1.5.1,2.3s1.1,1.2,1.8,1c2.7-.7,5.5-.2,8.3.4,2.8.6,1.7-.2,1.8-1s-.2-1.7-1-1.8c-3.3-.6-6.6-1.2-9.9-.4l1.8,1s0-.4,0-.3,0-.3,0-.3v-.8c0-.8-.7-1.5-1.5-1.5s-1.4.7-1.5,1.5h0l.1-.1Z"/><path class="cls-2" d="M53.16,15.2c3.3-.2,6.3.2,9.4,1.2s1.7-.3,1.8-1c.2-.8-.2-1.6-1-1.8-3.3-1-6.7-1.4-10.2-1.3-3.5.1-1.5.7-1.5,1.5s.7,1.5,1.5,1.5h0v-.1Z"/><path class="cls-2" d="M35.96,41.39c-.9-.6-2-.8-3-.9s-2.1-.2-3,0c-1.9.5-3.2,2.6-3.7,4.4-1.1,3.9.9,7.7,3.9,10.1,1.9,1.5,4.5,2.4,6.7,1,2.2-1.4.1-3.6-1.5-2.6-1.4.9-3.1-.4-4.1-1.4-1-1-2.1-2.6-2.3-4.2-.2-1.6.2-2.8,1.2-3.9s.4-.4.6-.5c.4-.1,1.1,0,1.5,0,.8,0,1.6.1,2.3.5,1.7,1,3.2-1.6,1.5-2.6h0l-.1.1Z"/><path d="M21.57,13.2s0-.2-.2-.3c-.2-.3-.7,0-.7.3s-.2.9-.2,1.3v1.7c0,1.1.1,2.3.2,3.4,0,2.6.5,5.2,1.2,7.7,1,3.5,2.8,7,6.3,8.5s4.6,1,6.8.9,4.9-.6,7.1-1.5c3.5-1.4,5.2-4.5,6.1-8,.9-3.5.9-5.3.8-8-.1-2.7-.1-2.5-.2-3.8-.1-1.3-.2-2.6-.6-3.9s-.3-.3-.5-.3c-2.3.6-4.6,0-6.9.6-2.3.6-.3,1,.2.8,2.2-.7,4.6,0,6.9-.6l-.5-.3c.6,2.1.6,4.3.7,6.5.1,2.3,0,4.5-.3,6.8-.6,3.4-1.8,7-4.9,8.8-3.1,1.8-4.1,1.5-6.1,1.8-2,.3-4.8.3-7.1-.3-3.6-1-5.6-4-6.7-7.4-.9-2.6-1.3-5.3-1.5-8,0-1.2,0-2.4-.2-3.6v-1.8c0-.6.2-1,.2-1.4l-.7.3s.1.2.2.3c.3.4.9-.2.6-.6h0v.1Z"/><path d="M21.87,12.7h0v.3h0l-.2.3h.9c.7,0,1.4,0,2.1-.2,1.4-.2,2.8-.4,4.2-.7s.3-.9-.2-.8c-.8.2-1.7.3-2.5.4s-1.8.3-2.7.3h-1.7c-.6,0-.5,0-.6.3s0,.5.3.6c.5.2.9-.5.4-.7h0v.2Z"/><path d="M27.77,12c0,5.8-.9,13.2,3.9,17.49,4.8,4.3,4.8,3.1,7.3,1.6,2.5-1.5,3.4-4,4-6.4,1-3.8.4-7.7-1.2-11.3-.2-.5-1,0-.7.4,1.4,3,1.9,6.4,1.3,9.7-.4,2.3-1.3,4.8-3.2,6.4s-4.8.8-6.7-.9c-1.9-1.7-3.2-4.7-3.6-7.5-.5-3.2-.2-6.4-.2-9.6,0-.5-.8-.5-.8,0h0l-.1.1Z"/><path d="M60.06,17.19c.6,4.2.6,8.4.8,12.7.2,4.3.6,5.8.6,8.8s.9.5.8,0c0-3-.5-5.9-.7-8.9-.2-4.3-.2-8.5-.8-12.7s-.9-.3-.8.2h0l.1-.1Z"/><path d="M62.36,39.29c2.3,0,4.6-.6,6.8-1.2s.3-.3.3-.5-.2-.4-.4-.7c-.3-.4-.9.2-.6.6s.1.1.2.3l.3-.5c-2.1.6-4.3,1.2-6.6,1.2s-.5.8,0,.8h0Z"/><path d="M69.25,36.69c0-6.2-.7-12.4-.5-18.59s-.8-.5-.8,0c-.2,6.2.5,12.4.5,18.59,0,.5.8.5.8,0h0Z"/><path d="M59.46,16.39c-2.7.3-5.5-.2-8.2-.2s-.5.8,0,.8c2.7,0,5.5.5,8.2.2,2.7-.3.5-.9,0-.8h0Z"/><path d="M51.56,16.09c-.1-.2-.3-.4-.3-.6-.1-.3-.2-.6-.2-.9v-.8c0-.3,0-.1,0-.2s0,0,0,0h0v-.2c0-.1,0,0,0,0,0,0,0-.1,0,0,0-.2,0-.5-.2-.6s-.5,0-.6.2c-.3.6-.3,1.3-.2,2s.3,1.3.7,1.8.4.3.6.2.3-.4.2-.6h0v-.3Z"/><path d="M51.56,12.6c2.4,0,4.8.4,7.2.6,2.4.2,4.7-.2,7-.3s4.8.3,7.2.3,1.7-.2,2.5-.3,1.7-.1,2.4.3.9-.4.4-.7c-1.4-.9-3.3-.4-4.9-.2-2.4.2-4.9-.3-7.3-.2-2.4.1-4.8.6-7.2.4-2.4-.2-5-.6-7.4-.6s-.5.8,0,.8h0l.1-.1Z"/><path d="M77.55,13c.2.7.3,1.5.3,2.2v1.6q0,.1,0,0c0-.1,0,0,0,0h0s0-.1,0,0c-.3.5.4.9.7.4s.1-.6.1-.8v-1.3c0-.8-.1-1.7-.4-2.5-.3-.8-1-.3-.8.2h0l.1.2Z"/><path d="M67.55,18.29c1.6-.7,3.4-.6,5.1-.8s3.9-.8,5.9-.9.5-.9,0-.8c-2.1.1-4.1.7-6.2.9s-3.6.2-5.2.9,0,1,.4.7h0Z"/><path d="M81.45,14.5h0v.1c0,.1,0,0,0,0v.1c0,.2.1.4.2.6,0,.5.1,1,.2,1.5s0,1,0,1.5,0,.1,0,.2h0v.2h0c-.5.3,0,1,.4.7s.3-.5.4-.7v-1.2c0-.9,0-1.9-.3-2.8s-.2-.8-.5-1.1-1,.2-.6.6h0l.2.3Z"/><path d="M81.65,19.99c1.3,0,2.7-.2,4-.3s2.7,0,4.1-.2c1.4-.2,1.3,0,2,0s1.3.2,2,.2,1.1,0,1.5-.2.2-.2.2-.4h0c0-.2-.1-.4-.3-.4h-.3c-.5,0-.5.8,0,.8q.1,0,0,0l-.3-.4h0c0-.1.1-.2.2-.4-.3.2-1.3,0-1.8,0-1.2-.2-2.5,0-3.7,0s-2.6,0-3.9.2-2.5.2-3.8.2-.5.9,0,.8h0l.1.1Z"/><path d="M94.15,18.99c-3,2.9-5.7,6-8.6,9.1-2.9,3.1-4.3,6-7.1,8.5s-.2.3-.1.4c.3.8.4,1.6.5,2.4s.4.6.7.3.2-.2.2-.3c.3-.5-.4-.9-.7-.4s0,.1,0,.2l.7.3c0-.9-.2-1.8-.5-2.7v.4c2.6-2.5,4.4-5.8,7-8.5s5.5-6.2,8.6-9.1c3.1-2.9-.2-1-.6-.6h-.1Z"/><path d="M79.25,40.09c4.4-.9,9-.4,13.5-.3,4.5.1,4.1,0,6.2.3,2.1.3,3.9.4,5.9.2,2-.2.5-.9,0-.8-2,.2-4,0-6-.2-2-.2-4.2-.2-6.3-.3-4.5-.1-9-.6-13.4.4s-.3.9.2.8h0l-.1-.1Z"/><path d="M105.04,39.29v-2.4c0-.1,0,0,0-.1s0-.2,0,0c0-.2,0-.5-.3-.5s-.5,0-.5.3c-.1.9.2,1.8.1,2.7s.2.4.4.4.4-.2.4-.4h-.1Z"/><path d="M103.94,35.89c-3.4,0-6.8-.2-10.2.2s-2,.2-3,.2-2.1.2-2.3-.4-1,0-.7.4c.4.7,1.5.8,2.2.8,1.2,0,2.3,0,3.5-.2s3-.3,4.5-.4c1.5-.1,4.1,0,6.2,0s.5-.8,0-.8h0l-.2.2Z"/><path d="M88.35,36.49c3-3.2,6.2-6.3,9.4-9.4,1.3-1.2,2.5-2.5,3.8-3.7,1.3-1.2,1.9-1.7,2.9-2.6s1.9-1.7,1.9-2.8-.9-.5-.8,0-.3.7-.5,1c-.4.5-.8.9-1.2,1.4-.9.9-1.8,1.7-2.8,2.5s-2.4,2.3-3.6,3.5c-1.5,1.5-3,3-4.5,4.5-1.5,1.5-3.4,3.4-5,5.1-1.6,1.7.2,1,.6.6h0l-.2-.1Z"/><path d="M105.14,15v3c0,.2.2.4.4.4s.4-.2.4-.4v-3c0-.2-.2-.4-.4-.4s-.4.2-.4.4h0Z"/><path d="M82.25,14.4c1.5-.6,3.3.1,4.8.3,2.2.3,4.3,0,6.5,0s4.4.4,6.7.7,1.8.2,2.7.2,1.7,0,2.4.2.7-.6.2-.8-1.5-.2-2.3-.3-2-.1-3-.2c-2.2-.3-4.4-.7-6.7-.7s-4.5.3-6.7,0c-2.2-.3-3.4-.9-4.9-.2s-.3,1,.2.8h.1Z"/><path d="M26.17,1.8c-1.7.4-3.2,1.2-4.7,1.9s-2.9,1.1-4.3,1.9c-2.7,1.5-4.8,3.9-6.7,6.4-2,2.6-3.6,5.7-4.4,8.9s-.5,6.6.3,9.7c.8,3.3,2.2,6.3,3.7,9.3,1.5,3,2.9,6.2,4.7,9.1,3.6,5.9,8.1,11,12.1,16.59,4.6,6.5,8.8,13.4,14.1,19.39.3.3.7,0,.7-.3s0-.5-.3-.7c-.4-.4-1,.2-.6.6h0c.2,0,.5,0,.7-.2-4.6-5.2-8.4-11.1-12.3-16.79-3.8-5.5-8.1-10.6-11.9-16.09-3.8-5.5-3.4-5.6-4.9-8.6-1.5-3-3-6-4.2-9.1-1.1-3.1-1.9-6.3-1.8-9.6s1.3-6.5,3-9.4c1.8-3,4.2-5.9,7.1-7.9.6-.4,1.3-.8,2-1.2s1.7-.6,2.5-1c1.8-.7,3.4-1.8,5.3-2.2s.3-.9-.2-.8h0l.1.1Z"/><path d="M40.76,84.37c1-2.2.7-4.7,1.3-7,.3-1.2.9-2.3,1.4-3.4.5-1.1,1-2.2,1.7-3.2,2.4-3.4,6.2-5.3,10.1-6.2,4.1-.9,8.3-.9,12.4-.7s5.5.6,8.2.8c2.7.2,6.2.6,9.2.8,6.1.4,12.1.5,18.19.4,6.1-.1,3.1,0,4.7-.2,1.6-.2,2.8-.4,4.1-.7,2.5-.6,5.1-1.4,7.1-3,3.2-2.6,5.2-6.3,6.1-10.3.9-4,.8-8.3.2-12.4-.3-2-.6-4-1-6,0-.5-.2-.9-.3-1.4s-.3-1-.6-1.6c-.7-1.2-1.4-2.4-2-3.7-2.4-5-3.8-10.4-5.6-15.59-.4-1.3-.9-2.5-1.4-3.8s-1-.3-.8.2c2,5.1,3.3,10.4,5.3,15.4,1,2.5,2.1,5,3.4,7.4s.6,1,.7,1.6.2,1,.3,1.5c.2,1,.4,2,.6,3,1.4,7.9,1.8,17.29-4.1,23.49-5.9,6.2-1.6,1.6-2.5,2.2s-2.6,1.3-3.9,1.6-2.7.7-4.1.9-3,.3-4.5.4c-6,.2-12.1.1-18.09-.2-3.1-.2-6.2-.4-9.2-.7-3-.3-2.9-.3-4.4-.5-1.5-.2-2.9-.4-4.4-.5-4.1-.2-8.2-.3-12.2.3s-7.7,2.1-10.6,4.9c-1.6,1.5-2.7,3.3-3.5,5.3-.8,2-1.1,2.2-1.4,3.4s-.4,2.3-.5,3.4c-.1,1.1-.3,2.4-.8,3.6s.5.9.7.4h0l.2.1Z"/><path d="M121.24,8.4c7.1,7.5,8.6,17.99,8.8,27.89s0,10.3-1.2,15.3c-1.2,5.1-3.7,9.7-7.4,13.4-1.9,1.8-4,3.4-6.5,4.3-2.6,1-5.5,1.2-8.3,1.2s-5.7-.4-8.5-.7-5.8-.6-8.8-.8c-6.1-.5-12.1-.6-18.19-.3s-10.7,1-15.79,2.5c-4.3,1.2-8.3,3.5-10.1,7.8-1.8,4.3-1.2,9.4-.2,13.8.2,1.1.5,2.2.8,3.3s1,.3.8-.2c-1.3-4.6-2.4-9.5-1.4-14.3.5-2.3,1.6-4.5,3.4-6.1,1.8-1.6,3.7-2.5,5.9-3.2,2.2-.7,4.5-1.2,6.8-1.6s6-.9,9.1-1.1c6.1-.4,12.1-.3,18.19.2s6,.5,9,.9,5.5.7,8.3.8,5.6-.1,8.3-1,4.6-2.1,6.5-3.8c3.9-3.3,6.7-7.7,8.2-12.5,1.5-4.9,1.9-10,1.9-15.1,0-9.8-.8-20.19-6.8-28.39-.7-1-1.5-1.9-2.3-2.8s-1,.2-.6.6h0l.1-.1Z"/><path d="M18.57,0c-1.9.5-3.6,1.5-5.1,2.6-1.6,1.2-3.2,2.5-4.6,3.9-2.8,2.8-5.4,6.1-6.9,9.7-2.8,6.7-2.4,14.7-.2,21.49,1.4,4.2,3.4,8.1,5.7,11.8s4.7,7.4,7.4,10.8c1.3,1.7,2.8,3.3,4.4,4.9,1.6,1.6,2.9,2.8,4.3,4.3s2.7,3.2,3.7,5c1.1,1.9,2.2,3.8,3.5,5.6s2.6,3.5,3.8,5.3,2.2,3.4,3.5,5c1.3,1.6,2,2.3,3.2,3.3,1.2,1,2.2,2,3.6,2.7s.9.4,1.4.4.5-.8,0-.8c-1.2,0-2.4-1.2-3.3-1.9s-2-1.7-2.9-2.7c-1.4-1.4-2.5-3.1-3.6-4.7-1.1-1.6-2.2-3.3-3.4-5s-2.6-3.5-3.7-5.3c-1-1.7-1.9-3.5-3.1-5.1-2.4-3.2-5.5-5.7-8.2-8.6-2.9-3.1-5.2-6.7-7.6-10.3-2.4-3.6-4.6-7.3-6.4-11.3C1.17,34.39-.02,26.69,1.87,19.59c.4-1.7,1-3.3,1.9-4.9s2.2-3.4,3.5-4.9c2.6-3.1,5.6-6,9.1-7.9s1.6-.8,2.5-1,.3-1-.2-.8h0l-.1-.1Z"/><path d="M35.46,44.79c1.3.3,1.4-1.1,1.2-2.1-.3-1.4-1-2.2-2.4-2.6-2.7-.9-6.4-.2-8,2.4-1.4,2.3-1,5.3-.2,7.8.9,2.5,2.6,5,5,6.3,2.4,1.3,3.1.9,4.5,0,1.4-.9,2.2-2.8,1.6-4.5-.6-1.7-.4-.4-.6-.3-.8.4-1.6,1-2.6,1.2-1,.2-2-.3-2.7-1-1.2-1.2-2.2-2.9-2.7-4.5-.4-1.4-.4-3,1-3.8,1.4-.8,3.7-.6,4.9.8s1-.2.6-.6c-1.1-1.2-2.7-1.8-4.3-1.5-1.6.3-2.8,1.1-3.1,2.6s.1,3,.7,4.3c.7,1.5,1.7,3.1,3.1,4.1,1.4,1,3.7.3,5.5-.7l-.6-.3c.5,1.4,0,2.8-1.2,3.5s-2.3.5-3.4,0c-2-.9-3.4-2.8-4.3-4.8-.9-2-1.5-4.4-1-6.6s.7-1.9,1.4-2.5,2.2-1.3,3.5-1.4c1.3-.1,3.1,0,4,.9s1,2.6.4,2.4-.8.7-.2.8h0l-.1.1Z"/><path d="M43.56,51.18c1.6.4,3.7.2,4.1-1.7.3-1.6-.5-3.4-1.6-4.5s-3-1.8-4.5-.7c-1.5,1.1-2,2.2-2.3,3.5-.4,1.9.3,3.9,1.3,5.5s1.2,1.8,1.9,2.6,1.4,1.3,2.3,1.3c2,0,3.3-2.3,3-4.1-.3-1.8-.3-.4-.5-.3-1,.4-2,.8-3.1.2s-1.5-1.4-.8-2.2-.2-1-.6-.6c-1,1-.5,2.4.5,3.2s1.2.7,2,.7,1.5-.3,2.2-.6l-.5-.3c.2,1.4-1.1,3.4-2.6,3s-1.2-.8-1.7-1.4-1-1.3-1.4-2.1c-.8-1.4-1.4-3.1-1.1-4.8s.9-2.4,1.9-3c2.4-1.7,5,1.7,4.9,3.9-.1,2.2-1.7,1.8-3.1,1.5-1.4-.3-.8.7-.2.8h0l-.1.1Z"/><path d="M42.66,46.58c-.3,0-.6,0-.8.3s-.3.5-.3.7c0,.6.4,1.1,1,1.2s1.1,0,1.5-.3.4-.9.3-1.3-.5-1-1-1.3-.5,0-.6.2,0,.5.2.6.2,0,.2.1,0,0,0,0h0l.1.1c.1.1,0,0,0,0h0v.1c0,.1,0,0,0,0h0v.2h0s0-.1,0,0v.2s0-.1,0,0,0,0,0,0h-.1c-.1,0,0,0,0,0h-.2q-.1,0,0,0c.1,0,0,0,0,0h-.1c-.1,0,0,0,0,0h0v-.1c0-.1,0,0,0,0h0v-.1c0-.1,0,0,0,0h.1c.2,0,.4-.2.4-.4s-.2-.4-.4-.4h0l-.3.2Z"/><path d="M49.36,45.19c0,3.3-.1,6.7,0,10,.1,3.3.2.4.4.4.9,0,1.8.2,2.6.4.8.2.5-.1.5-.4.2-2.2-.9-4.2-.7-6.3.2-2.1.2-1.9.9-2.1s.9.4,1.2.6.8.5,1.3.4,1.1-.8,1.3-1.4c.5-1.4-.9-2.5-2.1-2.9s-1.8-.3-2.7-.2-1.8.7-2.5,1.2,0,1,.4.7,1.3-.9,2.1-1,1.6-.1,2.3,0,1.3.5,1.7,1.1.2.5,0,.8-.3.7-.6.8-.7-.3-.9-.4c-.3-.2-.7-.5-1.1-.5-1.4-.2-1.8,1.8-1.9,2.8-.2,2.2.9,4.3.7,6.4l.5-.4c-.9-.2-1.9-.5-2.9-.5l.4.4c-.2-3.3,0-6.7,0-10,0-.5-.8-.5-.8,0h0l-.1.1Z"/><path d="M59.06,49.18c-.1,1.7-.2,3.5,0,5.2s.5,2.9,1.7,3.6,3.3-.9,3.1-2.4c-.1-1.1-1.4-1.1-2.2-.7l.5.3c-.5-1.7-.4-3.6-.1-5.3s.2-1.1.8-1.1.7.1,1,0c.6-.2.7-.7.8-1.3s.1-1.2-.3-1.6-.4-.3-.7-.3-.6,0-1-.1-.5-.2-.6-.1.3.4.3.4v-.2c0-.3-.1-.7-.2-1-.2-.6-.2-1.3-.3-1.9s-.2-.5-.4-.4c-.8.1-1.9.4-2.6-.1s-.6,0-.6.4c0,.7.2,1.4.2,2.2v1c0,.3-.5.2-.7,0s-.6,0-.6.4c0,.8-.2,1.6.1,2.3s1.3.8,2,.5.3-1-.2-.8-1,.3-1.1-.4,0-1.1,0-1.6l-.6.4c1,.4,1.9.2,2.1-.9s-.2-2-.2-3l-.6.4c.9.6,2,.4,3,.2l-.4-.4c0,1,.4,2,.5,3,.1,1,0,.6.5.7s.9.3,1.4.3.5,0,.6.4,0,.7,0,1c-.2.4-.6.2-.9.2s-.6,0-.9.2c-.6.4-.7,1.3-.8,2-.2,1.7-.3,3.6.2,5.3.5,1.7.3.4.5.3.7-.3,1.3-.4,1.1.5s-.7,1.4-1.4,1.3c-1.2-.1-1.6-2.2-1.7-3.1-.2-1.7-.1-3.4,0-5.2.1-1.8-.8-.5-.8,0h0l-.5-.6Z"/><path d="M65.25,49.08c.3,1.4.3,2.8.3,4.3v2.6c0,.8.2,1.4.7,1.9s1.2.4,1.8,0c1.3-.8,1.2-2.6,1.1-3.9-.1-1.5-.5-3-.6-4.5-.1-1.5,0-1.6-.7-2s-1.6,0-2.3,0-.3.9.2.8.7-.1,1-.2.4,0,.6,0c.3.2.3,1,.3,1.3,0,1.3.4,2.5.5,3.8.1,1.3.1,1.4.1,2.2s0,1.1-.3,1.4-.8.6-1.1.2-.4-1-.4-1.5v-2.8c0-1.3,0-2.7-.4-3.9s-.9-.3-.8.2h0v.1Z"/><path d="M65.05,43.29v1.6c0,.2.2.4.4.6s.5.2.7.2h1q.3,0,.4-.2c.3-.6.5-1.2.4-1.8s-.5-.9-1.1-1.1-.8,0-1.2,0-.4.3-.3.5.3.3.5.3,0,0,0,0h.5c.1,0,0,0,0,0,0,0-.1,0,0,0s0,0,0,0h.2c.1,0,0,0,0,0h.1c.1,0,0,0,0,0h0v.1c0,.1,0,0,0,0h0v.4c0,.1,0,0,0,0h0v.1c0,.1,0,.3-.1.4s0,0,0,0h0v.1s0,.2-.1.2l.4-.2h-.9c-.3,0,0,0,0,0-.1,0,0,0,0,0h-.2c-.1,0,0,0,0,0h0s0,.1,0,0,0,0,0,0c0,.1,0,0,0,0v-.1s0,.1,0,0,0,0,0,0v-1.1c0-.3-.2-.4-.4-.4s-.4.2-.4.4h.1Z"/><path d="M79.75,45.89c1.9-1.8-.9-3.2-2.4-3.6s-2.1-.4-3.1,0-1.6,1.1-2,2c-.4.9-.6,2.6-.9,3.8l.4-.3c-.5,0-1.7,0-2.1.4s-.2,1.2-.1,1.6.4.4.6.3c.4-.2.8-.1,1.2-.3l-.5-.3c.3,1.4.4,2.7.5,4.1v2.7c.2,1.5,1.4,1.8,2.8,1.8s.4-.2.4-.4c.1-2.5-1.6-4.9-.8-7.4l-.4.3h1.9c.6,0,.3-.1.4-.3.2-.7.2-1.5.2-2.2s-.2-.4-.4-.4c-.6,0-1.6-.1-1.7-.9s.6-1.6,1.4-1.7,1.5.2,2,.6.5.5.7.7.3.4.6.3.3-.3.3-.5c0-.1,0,0-.1.2.3-.4-.3-1-.6-.6s-.2.4-.1.7l.3-.5h0c.1,0,.3,0,.4.1-.3-.3-.6-.7-.9-1s-.9-.5-1.4-.7c-.8-.3-1.9-.3-2.5.3s-1.2,1.7-.8,2.6c.4.9,1.5,1.2,2.4,1.2l-.4-.4c0,.7,0,1.3-.2,2l.4-.3h-1.9c-.6,0-.3.1-.4.3-.8,2.6.9,5,.8,7.6l.4-.4c-.5,0-1.4,0-1.7-.4s-.3-1-.3-1.4c0-2.1-.1-4.2-.5-6.2-.4-2-.3-.4-.5-.3-.5.1-1,.1-1.4.3l.6.3v-1l-.3.3c.5-.2,1.1-.2,1.6-.2s.4-.1.4-.3c.6-1.9.4-5.2,3.1-5.4s5.6.9,4,2.4c-1.6,1.5.2,1,.6.6h0v-.1Z"/><path d="M79.55,50.18c0,2.7-.2,5.4-.1,8,0,.2.2.4.4.4.6,0,1.3,0,1.8.3s.6.1.7-.2c.7-1.9.1-4.1.4-6.1.3-2,.5-1.9-.1-2.6s-1.4-.3-2.1-.7-.9.4-.4.7.6.2,1,.3.7,0,.9.2.1.8,0,1.1c0,.4-.2.9-.2,1.3-.1,1.8.3,3.7-.3,5.4l.7-.2c-.7-.6-1.5-.7-2.4-.6l.4.4c0-2.7.1-5.4.1-8s-.8-.5-.8,0h0v.3Z"/><path d="M80.25,45.99c-.4.5-.6,1.2-.4,1.8s.2.5.5.7.6.2.8.1.6-.3.9-.6.5-.6.6-.9c.2-.5.2-1.2-.2-1.6s-.5-.3-.8-.3-.8.2-1.1.5-.1.2-.1.3,0,.2.1.3.2.1.3.1.2,0,.3-.1,0,0,0,0h.2q.1,0,0,0h.2c.1,0-.1,0,0,0s0,0,0,0h0s-.1,0,0,0,0,0,0,0h0v.1c0,.1,0,0,0,0,0-.1,0,0,0,0v.2c0,.1,0,0,0,0h0v.4c0,.1,0-.1,0,0s0,0,0,0h0v.2c0,.1,0,0,0,0,0-.1,0,0,0,0-.1.1-.2.2-.3.3s0,0,0,0h-.2c-.1,0,0,0,0,0h0s.1,0,0,0,0,0,0,0h0s.1,0,0,0,0,0,0,0h0c.1,0,0,0,0,0h0v-.2c0-.2,0,0,0,0,0,0,0,.1,0,0s0,0,0,0v-.2c0-.1,0,0,0,0,0,.2,0,0,0,0v-.2c0-.1,0,0,0,0h0s.2-.2.2-.4c.1-.2,0-.5-.2-.6s-.4,0-.6.2h0l-.2-.1Z"/><path d="M88.95,54.18c2,.7,3.7-.9,4.3-2.7.7-2.1-.2-4.2-2.4-4.8-2.2-.6-2.7-.3-3.8.3s-1.7,1.5-2.1,2.6c-.8,2.3-.4,5.2,1,7.3.9,1.4,2.7,2.8,4.5,2.7s3.1-2.2,2.7-3.8c0-.2-.2-.3-.4-.3-.9,0-1.8.2-2.7,0s-1.1-1.2-1-2.1-.8-.5-.8,0c0,1.1,0,2.4,1.3,2.8s2.3,0,3.3,0l-.4-.3c.2.7-.2,1.4-.7,1.9s-1.1.9-1.9.7c-1.3-.3-2.5-1.3-3.2-2.4-1.1-1.7-1.4-4-1-5.9.2-.9.6-1.8,1.4-2.3s1.9-.8,3-.7c1.8.2,2.9,1.6,2.6,3.4s-1.7,3.3-3.4,2.6c-1.7-.7-.7.6-.2.8h0l-.1.2Z"/><path d="M88.65,49.18c-.2.2-.4.4-.6.6s-.2.4-.2.6.1.4.3.6.3.2.5.3.4,0,.5,0h.6c.2,0,.4-.2.6-.3s.3-.3.3-.5v-.7c0-.2-.2-.5-.3-.8s0-.1-.1-.2c0,0-.1-.2-.3-.2h-.3c-.1,0-.2.1-.2.3v.3c.1.2.2.4.3.6h0s0,.1.1.3h0v.1h-.3.1-.3.1-.4.1-.3.1-.3l.1-.1h0c.1,0,.2-.2.4-.3h0s.2-.1.2-.3v-.3c0-.1-.1-.2-.3-.2h-.3l-.1.2Z"/><path d="M101.74,48.58c-1.4-.4-3-.9-4.3-.2-1.3.7-2.1,2.8-2.3,4.4-.4,3.2.6,7.8,4.5,8.1s1.3-.2,1.7-.7.7-1.1,1.4-1.4l-.6-.3c.3,1.3,1.9,2.2,3,1.2,1.1-1,.6-2.7.4-3.8-.2-1.9,0-3.9-.3-5.8s-.7-4.8-.7-7.3-.3-.5-.5-.4c-.9.1-1.7-.3-2.5-.7s-.5,0-.6.3c-.4,1.1-.3,2.3-.2,3.5.1,1.2.4,2.3.2,3.4-.2,1.1.7.8.8.2.3-2.3-.8-4.7,0-6.9l-.6.3c1,.5,2,.9,3.1.7l-.5-.4c0,2,.2,3.9.5,5.9.2,1.9.4,3.9.4,5.8s.3,2.4.3,3.6,0,1.1-.6,1.2-1.2-.4-1.4-.9-.4-.4-.6-.3c-.6.3-1,.7-1.3,1.2s-.8.9-1.5.8c-2-.3-3-2-3.4-3.9-.4-1.9-.3-4.4.9-6.1,1.1-1.6,2.9-1.1,4.6-.6s.7-.7.2-.8h0l-.1-.1Z"/><path d="M100.34,52.58c-.3-.1-.7-.1-1,0s-.4.4-.5.7c-.2.6,0,1.3.4,1.8s1.3.7,2,.4.8-1.1.6-1.8-1-1.4-1.8-1.4-.4.2-.4.4.2.4.4.4,0,0,.1,0,0,0,0,0h.2c.1,0,0,0,0,0h0s.1,0,.2.1,0,0,0,0h0s0,.1.1.2,0,0,0,0h0v.2c0,.1,0,0,0,0h0v.2c0,.1,0,0,0,0,0,0,0-.1,0,0s0,0,0,0v.2q0,.1,0,0c0-.1,0,0,0,0h0s0,.1,0,0,0,0,0,0h0s.1,0,0,0,0,0,0,0h-.3c-.1,0,0,0,0,0h0s0-.1-.1-.1h0v-.1c0-.1,0,0,0,0h0v-.2c0-.1,0,0,0,0h0v-.3c0,.1,0,0,0,0h0c0-.1,0,0,0,0v-.1h0s-.1,0,0,0,0,0,0,0c0,0,.1,0,0,0s0,0,0,0h0s-.1,0,0,0,0,0,0,0h.1c.2,0,.5,0,.5-.3s0-.4-.3-.5h0l-.2.2Z"/></g></g></svg>